<?xml version="1.0" encoding="utf-8" standalone="no"?>
<!DOCTYPE svg PUBLIC "-//W3C//DTD SVG 1.1//EN"
  "http://www.w3.org/Graphics/SVG/1.1/DTD/svg11.dtd">
<!-- Created with matplotlib (https://matplotlib.org/) -->
<svg height="568.499375pt" version="1.1" viewBox="0 0 635.2 568.499375" width="635.2pt" xmlns="http://www.w3.org/2000/svg" xmlns:xlink="http://www.w3.org/1999/xlink">
 <defs>
  <style type="text/css">
*{stroke-linecap:butt;stroke-linejoin:round;}
  </style>
 </defs>
 <g id="figure_1">
  <g id="patch_1">
   <path d="M 0 568.499375 
L 635.2 568.499375 
L 635.2 0 
L 0 0 
z
" style="fill:#ffffff;"/>
  </g>
  <g id="axes_1">
   <g id="patch_2">
    <path d="M 73.6 203.339375 
L 631.6 203.339375 
L 631.6 46.259375 
L 73.6 46.259375 
z
" style="fill:#ffffff;"/>
   </g>
   <g id="line2d_1">
    <path clip-path="url(#p876e5f9a64)" d="M 98.963636 77.498902 
L 103.003066 84.246097 
L 107.0609 61.014763 
L 111.137035 64.688404 
L 115.231356 71.187611 
L 119.343757 60.33185 
L 123.474135 59.863891 
L 127.622386 61.245556 
L 131.788408 50.496276 
L 135.972092 67.982858 
L 140.173339 67.14895 
L 144.392049 69.715303 
L 148.628118 64.772183 
L 152.881449 64.00381 
L 157.151942 69.850437 
L 161.439497 64.12527 
L 165.74402 72.886991 
L 170.065414 61.733251 
L 174.403584 81.574039 
L 178.758426 82.500301 
L 183.129854 82.627895 
L 187.51777 82.8235 
L 191.853145 82.212118 
L 196.204314 64.844087 
L 200.571194 76.114815 
L 204.953699 74.347339 
L 209.351734 73.979419 
L 213.765221 87.565631 
L 218.194068 56.029556 
L 222.638194 81.176372 
L 227.09751 74.126331 
L 231.571929 65.721481 
L 236.061373 74.151485 
L 240.565755 92.489215 
L 245.08499 96.987407 
L 249.618995 109.461861 
L 254.167688 95.566539 
L 258.73099 87.794027 
L 263.308815 95.57076 
L 267.901078 86.604069 
L 272.507702 70.132395 
L 277.128609 74.339922 
L 281.763714 68.457918 
L 286.412935 66.46623 
L 291.076198 65.894996 
L 295.753418 64.309267 
L 300.44452 65.019946 
L 305.149418 56.135959 
L 309.868041 96.37537 
L 314.600303 74.410055 
L 319.346131 63.908142 
L 324.105451 62.768372 
L 328.878175 62.268857 
L 333.664231 99.407579 
L 338.586883 106.022396 
L 343.523087 69.256134 
L 348.473376 76.823739 
L 353.437355 93.298349 
L 358.414639 93.82766 
L 363.405766 86.958877 
L 368.410018 79.359065 
L 373.427959 92.151642 
L 378.459174 100.815645 
L 383.503286 66.07273 
L 388.560831 90.613104 
L 393.631418 100.679903 
L 398.714649 96.565819 
L 403.811078 101.186306 
L 408.920305 107.786152 
L 414.041935 98.15223 
L 419.176519 96.057524 
L 424.323669 83.630733 
L 429.482974 83.376093 
L 434.654998 85.691474 
L 439.839025 89.486494 
L 445.035617 90.402251 
L 450.244376 91.524149 
L 455.464894 75.729518 
L 460.697738 65.257639 
L 465.942522 104.970532 
L 471.198818 73.546767 
L 476.467211 85.045172 
L 481.747304 87.490584 
L 487.038688 88.547284 
L 492.341934 93.39066 
L 497.656636 98.962974 
L 502.982393 84.661147 
L 508.319796 84.249984 
L 513.668086 88.293119 
L 519.027861 77.007872 
L 524.398711 102.276659 
L 529.780223 112.634672 
L 535.172989 98.469135 
L 540.576602 74.903183 
L 545.990645 79.202832 
L 551.415716 103.981526 
L 556.851403 108.074279 
L 562.29729 122.476067 
L 567.753978 101.117402 
L 573.220711 119.350075 
L 578.698098 105.994377 
L 584.18572 110.5162 
L 589.683158 108.324356 
L 595.191026 102.250744 
L 600.708901 100.007701 
L 606.236364 104.18859 
" style="fill:none;stroke:#ff8c00;stroke-linecap:square;stroke-opacity:0.5;stroke-width:2;"/>
   </g>
   <g id="line2d_2">
    <path clip-path="url(#p876e5f9a64)" d="M 98.963636 78.671826 
L 103.003066 85.612821 
L 107.0609 64.31376 
L 111.137035 64.45526 
L 115.231356 71.717984 
L 119.343757 61.440657 
L 123.474135 60.795131 
L 127.622386 62.222441 
L 131.788408 52.281732 
L 135.972092 68.560014 
L 140.173339 67.801126 
L 144.392049 70.430102 
L 148.628118 65.700925 
L 152.881449 66.06395 
L 157.151942 71.727808 
L 161.439497 64.72624 
L 165.74402 74.51979 
L 170.065414 64.940148 
L 174.403584 82.009821 
L 178.758426 82.939991 
L 183.129854 82.917552 
L 187.51777 82.895684 
L 191.853145 82.673768 
L 196.204314 65.831569 
L 200.571194 79.296192 
L 204.953699 75.533282 
L 209.351734 75.562042 
L 213.765221 91.391038 
L 218.194068 60.613747 
L 222.638194 84.739735 
L 227.09751 76.697789 
L 231.571929 67.74134 
L 236.061373 75.351049 
L 240.565755 93.130211 
L 245.08499 98.203177 
L 249.618995 111.054379 
L 254.167688 97.311417 
L 258.73099 92.147388 
L 263.308815 96.42212 
L 267.901078 87.642156 
L 272.507702 71.945656 
L 277.128609 75.128921 
L 281.763714 68.934974 
L 286.412935 66.871836 
L 291.076198 66.942711 
L 295.753418 66.024122 
L 300.44452 69.069839 
L 305.149418 58.328049 
L 309.868041 101.36419 
L 314.600303 78.833447 
L 319.346131 69.638012 
L 324.105451 69.167816 
L 328.878175 68.62319 
L 333.664231 99.895015 
L 338.586883 108.250161 
L 343.523087 74.502656 
L 348.473376 85.509402 
L 353.437355 99.828752 
L 358.414639 95.282217 
L 363.405766 90.08825 
L 368.410018 86.965745 
L 373.427959 94.653625 
L 378.459174 106.25834 
L 383.503286 77.875751 
L 388.560831 94.363077 
L 393.631418 104.307088 
L 398.714649 97.636466 
L 403.811078 101.825576 
L 408.920305 108.120719 
L 414.041935 103.307463 
L 419.176519 96.311397 
L 424.323669 86.089402 
L 429.482974 84.779858 
L 434.654998 86.984948 
L 439.839025 90.709937 
L 445.035617 94.217013 
L 450.244376 104.697185 
L 455.464894 85.821664 
L 460.697738 70.27069 
L 465.942522 115.358825 
L 471.198818 84.636649 
L 476.467211 102.315394 
L 481.747304 92.927874 
L 487.038688 94.519031 
L 492.341934 98.228105 
L 497.656636 129.304105 
L 502.982393 90.279501 
L 508.319796 103.023803 
L 513.668086 101.987271 
L 519.027861 84.626404 
L 524.398711 104.764077 
L 529.780223 118.195056 
L 535.172989 99.409218 
L 540.576602 89.787789 
L 545.990645 95.350201 
L 551.415716 117.047328 
L 556.851403 113.04473 
L 562.29729 123.970381 
L 567.753978 109.429972 
L 573.220711 125.771894 
L 578.698098 119.171653 
L 584.18572 119.860604 
L 589.683158 115.400496 
L 595.191026 111.679478 
L 600.708901 121.679235 
L 606.236364 116.541986 
" style="fill:none;stroke:#ff8c00;stroke-linecap:square;stroke-width:2;"/>
   </g>
   <g id="matplotlib.axis_1">
    <g id="xtick_1">
     <g id="line2d_3">
      <defs>
       <path d="M 0 0 
L 0 3.5 
" id="m3a9cadfd22" style="stroke:#000000;stroke-width:0.8;"/>
      </defs>
      <g>
       <use style="stroke:#000000;stroke-width:0.8;" x="587.366445" xlink:href="#m3a9cadfd22" y="203.339375"/>
      </g>
     </g>
     <g id="text_1">
      <!-- 10.5 -->
      <defs>
       <path d="M 39.40625 0 
L 11.796875 0 
L 11.796875 1.5 
Q 17.296875 1.796875 19.296875 3.546875 
Q 21.296875 5.296875 21.296875 9.5 
L 21.296875 54.40625 
Q 21.296875 59.296875 18.296875 59.296875 
Q 16.90625 59.296875 13.796875 58.09375 
L 11.09375 57.09375 
L 11.09375 58.5 
L 29 67.59375 
L 29.90625 67.296875 
L 29.90625 7.59375 
Q 29.90625 4.296875 31.90625 2.890625 
Q 33.90625 1.5 39.40625 1.5 
z
" id="STIXGeneral-Regular-49"/>
       <path d="M 47.59375 33 
Q 47.59375 26.296875 46.296875 20.34375 
Q 45 14.40625 42.453125 9.40625 
Q 39.90625 4.40625 35.40625 1.5 
Q 30.90625 -1.40625 25 -1.40625 
Q 18.90625 -1.40625 14.296875 1.6875 
Q 9.703125 4.796875 7.203125 10 
Q 4.703125 15.203125 3.546875 21.09375 
Q 2.40625 27 2.40625 33.59375 
Q 2.40625 42.90625 4.703125 50.34375 
Q 7 57.796875 12.34375 62.6875 
Q 17.703125 67.59375 25.40625 67.59375 
Q 35.203125 67.59375 41.390625 58 
Q 47.59375 48.40625 47.59375 33 
z
M 38 32.5 
Q 38 48.296875 34.640625 56.640625 
Q 31.296875 65 24.796875 65 
Q 18.59375 65 15.296875 56.59375 
Q 12 48.203125 12 32.90625 
Q 12 17.5 15.296875 9.34375 
Q 18.59375 1.203125 25 1.203125 
Q 31.296875 1.203125 34.640625 9.34375 
Q 38 17.5 38 32.5 
z
" id="STIXGeneral-Regular-48"/>
       <path d="M 18.09375 4.296875 
Q 18.09375 2.09375 16.4375 0.5 
Q 14.796875 -1.09375 12.5 -1.09375 
Q 10.203125 -1.09375 8.59375 0.5 
Q 7 2.09375 7 4.390625 
Q 7 6.703125 8.640625 8.34375 
Q 10.296875 10 12.59375 10 
Q 14.796875 10 16.4375 8.296875 
Q 18.09375 6.59375 18.09375 4.296875 
z
" id="STIXGeneral-Regular-46"/>
       <path d="M 43.796875 68.09375 
L 40.203125 59.59375 
Q 39.59375 58.296875 37.5 58.296875 
L 18.09375 58.296875 
L 14.09375 49.796875 
Q 25.09375 47.703125 30 45.25 
Q 34.90625 42.796875 39.09375 37 
Q 42.59375 32.203125 42.59375 24.296875 
Q 42.59375 17.09375 40.25 12.1875 
Q 37.90625 7.296875 32.796875 3.5 
Q 26 -1.40625 15.796875 -1.40625 
Q 10.09375 -1.40625 6.59375 0.296875 
Q 3.09375 2 3.09375 4.796875 
Q 3.09375 8.59375 7.59375 8.59375 
Q 11.203125 8.59375 15 5.5 
Q 18.90625 2.296875 22.09375 2.296875 
Q 27.296875 2.296875 31.4375 7.5 
Q 35.59375 12.703125 35.59375 19.203125 
Q 35.59375 28.796875 28.90625 34.203125 
Q 20.203125 41.203125 7.59375 41.203125 
Q 6.40625 41.203125 6.40625 42 
L 6.5 42.5 
L 17.40625 66.203125 
L 38.09375 66.203125 
Q 39.796875 66.203125 40.75 66.703125 
Q 41.703125 67.203125 42.90625 68.796875 
z
" id="STIXGeneral-Regular-53"/>
      </defs>
      <g transform="translate(569.866445 223.99875)scale(0.2 -0.2)">
       <use xlink:href="#STIXGeneral-Regular-49"/>
       <use x="49.999985" xlink:href="#STIXGeneral-Regular-48"/>
       <use x="99.999969" xlink:href="#STIXGeneral-Regular-46"/>
       <use x="124.999954" xlink:href="#STIXGeneral-Regular-53"/>
      </g>
     </g>
    </g>
    <g id="xtick_2">
     <g id="line2d_4">
      <g>
       <use style="stroke:#000000;stroke-width:0.8;" x="468.961104" xlink:href="#m3a9cadfd22" y="203.339375"/>
      </g>
     </g>
     <g id="text_2">
      <!-- 11.0 -->
      <g transform="translate(451.461104 223.99875)scale(0.2 -0.2)">
       <use xlink:href="#STIXGeneral-Regular-49"/>
       <use x="49.999985" xlink:href="#STIXGeneral-Regular-49"/>
       <use x="99.999969" xlink:href="#STIXGeneral-Regular-46"/>
       <use x="124.999954" xlink:href="#STIXGeneral-Regular-48"/>
      </g>
     </g>
    </g>
    <g id="xtick_3">
     <g id="line2d_5">
      <g>
       <use style="stroke:#000000;stroke-width:0.8;" x="350.555763" xlink:href="#m3a9cadfd22" y="203.339375"/>
      </g>
     </g>
     <g id="text_3">
      <!-- 11.5 -->
      <g transform="translate(333.055763 223.99875)scale(0.2 -0.2)">
       <use xlink:href="#STIXGeneral-Regular-49"/>
       <use x="49.999985" xlink:href="#STIXGeneral-Regular-49"/>
       <use x="99.999969" xlink:href="#STIXGeneral-Regular-46"/>
       <use x="124.999954" xlink:href="#STIXGeneral-Regular-53"/>
      </g>
     </g>
    </g>
    <g id="xtick_4">
     <g id="line2d_6">
      <g>
       <use style="stroke:#000000;stroke-width:0.8;" x="232.150422" xlink:href="#m3a9cadfd22" y="203.339375"/>
      </g>
     </g>
     <g id="text_4">
      <!-- 12.0 -->
      <defs>
       <path d="M 47.40625 13.703125 
L 42 0 
L 2.90625 0 
L 2.90625 1.203125 
L 20.703125 20.09375 
Q 27.703125 27.40625 30.703125 33.5 
Q 33.703125 39.59375 33.703125 46.09375 
Q 33.703125 52.796875 30 56.5 
Q 26.296875 60.203125 19.796875 60.203125 
Q 14.40625 60.203125 11.25 57.390625 
Q 8.09375 54.59375 5.09375 47.203125 
L 3 47.703125 
Q 4.703125 57 9.84375 62.296875 
Q 15 67.59375 23.796875 67.59375 
Q 32.09375 67.59375 37.1875 62.59375 
Q 42.296875 57.59375 42.296875 50 
Q 42.296875 38.703125 29.5 25.203125 
L 13 7.59375 
L 36.40625 7.59375 
Q 39.703125 7.59375 41.640625 8.890625 
Q 43.59375 10.203125 46 14.296875 
z
" id="STIXGeneral-Regular-50"/>
      </defs>
      <g transform="translate(214.650422 223.99875)scale(0.2 -0.2)">
       <use xlink:href="#STIXGeneral-Regular-49"/>
       <use x="49.999985" xlink:href="#STIXGeneral-Regular-50"/>
       <use x="99.999969" xlink:href="#STIXGeneral-Regular-46"/>
       <use x="124.999954" xlink:href="#STIXGeneral-Regular-48"/>
      </g>
     </g>
    </g>
    <g id="xtick_5">
     <g id="line2d_7">
      <g>
       <use style="stroke:#000000;stroke-width:0.8;" x="113.745081" xlink:href="#m3a9cadfd22" y="203.339375"/>
      </g>
     </g>
     <g id="text_5">
      <!-- 12.5 -->
      <g transform="translate(96.245081 223.99875)scale(0.2 -0.2)">
       <use xlink:href="#STIXGeneral-Regular-49"/>
       <use x="49.999985" xlink:href="#STIXGeneral-Regular-50"/>
       <use x="99.999969" xlink:href="#STIXGeneral-Regular-46"/>
       <use x="124.999954" xlink:href="#STIXGeneral-Regular-53"/>
      </g>
     </g>
    </g>
   </g>
   <g id="matplotlib.axis_2">
    <g id="ytick_1">
     <g id="line2d_8">
      <defs>
       <path d="M 0 0 
L -3.5 0 
" id="m60afd1f022" style="stroke:#000000;stroke-width:0.8;"/>
      </defs>
      <g>
       <use style="stroke:#000000;stroke-width:0.8;" x="73.6" xlink:href="#m60afd1f022" y="148.442271"/>
      </g>
     </g>
     <g id="text_6">
      <!-- $\mathdefault{10^{43}}$ -->
      <defs>
       <path d="M 47.296875 16.703125 
L 37 16.703125 
L 37 0 
L 29.203125 0 
L 29.203125 16.703125 
L 1.203125 16.703125 
L 1.203125 23.09375 
L 32.59375 67.59375 
L 37 67.59375 
L 37 23.09375 
L 47.296875 23.09375 
z
M 29.203125 23.09375 
L 29.203125 57.40625 
L 5.203125 23.09375 
z
" id="STIXGeneral-Regular-52"/>
       <path d="M 6.09375 51 
L 4.5 51.40625 
Q 6.796875 58.90625 11.6875 63.25 
Q 16.59375 67.59375 24.09375 67.59375 
Q 31.09375 67.59375 35.390625 63.796875 
Q 39.703125 60 39.703125 53.90625 
Q 39.703125 45.703125 30.40625 40.09375 
Q 35.90625 37.703125 38.703125 34.796875 
Q 43.09375 29.90625 43.09375 21.90625 
Q 43.09375 13.90625 38.5 7.90625 
Q 35.09375 3.296875 28.75 0.9375 
Q 22.40625 -1.40625 15.296875 -1.40625 
Q 4.09375 -1.40625 4.09375 4.296875 
Q 4.09375 5.90625 5.296875 6.90625 
Q 6.5 7.90625 8.203125 7.90625 
Q 10.703125 7.90625 14.296875 5.296875 
Q 18.703125 2.203125 22.90625 2.203125 
Q 28.40625 2.203125 32.15625 6.640625 
Q 35.90625 11.09375 35.90625 17.5 
Q 35.90625 29 25.5 32 
Q 22.40625 33 15.296875 33 
L 15.296875 34.40625 
Q 20.90625 36.296875 23.703125 38 
Q 31.796875 42.59375 31.796875 51.40625 
Q 31.796875 56.40625 28.9375 59 
Q 26.09375 61.59375 21 61.59375 
Q 12 61.59375 6.09375 51 
z
" id="STIXGeneral-Regular-51"/>
      </defs>
      <g transform="translate(31.2 155.271958)scale(0.2 -0.2)">
       <use transform="translate(0 0.684375)" xlink:href="#STIXGeneral-Regular-49"/>
       <use transform="translate(49.999985 0.684375)" xlink:href="#STIXGeneral-Regular-48"/>
       <use transform="translate(101.574969 36.684375)scale(0.7)" xlink:href="#STIXGeneral-Regular-52"/>
       <use transform="translate(136.574959 36.684375)scale(0.7)" xlink:href="#STIXGeneral-Regular-51"/>
      </g>
     </g>
    </g>
    <g id="ytick_2">
     <g id="line2d_9">
      <g>
       <use style="stroke:#000000;stroke-width:0.8;" x="73.6" xlink:href="#m60afd1f022" y="69.902271"/>
      </g>
     </g>
     <g id="text_7">
      <!-- $\mathdefault{10^{45}}$ -->
      <g transform="translate(31.2 76.731958)scale(0.2 -0.2)">
       <use transform="translate(0 0.842187)" xlink:href="#STIXGeneral-Regular-49"/>
       <use transform="translate(49.999985 0.842187)" xlink:href="#STIXGeneral-Regular-48"/>
       <use transform="translate(101.574969 36.842187)scale(0.7)" xlink:href="#STIXGeneral-Regular-52"/>
       <use transform="translate(136.574959 36.842187)scale(0.7)" xlink:href="#STIXGeneral-Regular-53"/>
      </g>
     </g>
    </g>
    <g id="text_8">
     <!-- $L_{\rm Ly \alpha}\ (\rm erg \ s^{-1})$ -->
     <defs>
      <path d="M 4.6875 0 
Q 3.71875 0 3.71875 1.3125 
Q 3.765625 1.5625 3.90625 2.171875 
Q 4.046875 2.78125 4.3125 3.140625 
Q 4.59375 3.515625 4.984375 3.515625 
Q 11.078125 3.515625 13.484375 4.203125 
Q 14.796875 4.640625 15.375 6.890625 
L 29.109375 61.8125 
Q 29.296875 62.796875 29.296875 63.1875 
Q 29.296875 64.265625 28.078125 64.40625 
Q 26.21875 64.796875 20.90625 64.796875 
Q 19.921875 64.796875 19.921875 66.109375 
Q 20.265625 67.390625 20.453125 67.84375 
Q 20.65625 68.3125 21.578125 68.3125 
L 51.125 68.3125 
Q 52 68.3125 52 67 
Q 51.859375 65.96875 51.65625 65.375 
Q 51.46875 64.796875 50.6875 64.796875 
Q 43.3125 64.796875 40.828125 64.3125 
Q 38.375 63.875 37.796875 61.375 
L 24.125 6.5 
Q 23.6875 5.28125 23.6875 4.296875 
Q 23.6875 3.515625 27.09375 3.515625 
L 36.375 3.515625 
Q 44.234375 3.515625 49.109375 6.640625 
Q 54 9.765625 56.34375 13.6875 
Q 58.6875 17.625 60.265625 21.84375 
Q 61.859375 26.078125 62.59375 26.21875 
L 63.484375 26.21875 
Q 64.5 26.21875 64.5 24.90625 
L 55.609375 0.6875 
Q 55.46875 0 54.6875 0 
z
" id="Cmmi10-76"/>
      <path d="M 3.078125 0 
L 3.078125 3.515625 
Q 13.375 3.515625 13.375 6.6875 
L 13.375 61.625 
Q 13.375 64.796875 3.078125 64.796875 
L 3.078125 68.3125 
L 35.5 68.3125 
L 35.5 64.796875 
Q 22.703125 64.796875 22.703125 61.625 
L 22.703125 6.6875 
Q 22.703125 4.546875 23.921875 4.03125 
Q 25.140625 3.515625 27.78125 3.515625 
L 35.5 3.515625 
Q 42.96875 3.515625 47.015625 6.25 
Q 51.078125 8.984375 52.75 13.6875 
Q 54.4375 18.40625 55.328125 26.21875 
L 58.203125 26.21875 
L 55.421875 0 
z
" id="Cmr10-76"/>
      <path d="M 6.890625 -16.40625 
Q 8.796875 -17.921875 11.078125 -17.921875 
Q 17.390625 -17.921875 21.390625 -8.40625 
L 24.8125 0 
L 9.8125 36.71875 
Q 8.890625 38.578125 6.984375 39.078125 
Q 5.078125 39.59375 1.90625 39.59375 
L 1.90625 43.109375 
L 22.90625 43.109375 
L 22.90625 39.59375 
Q 17.390625 39.59375 17.390625 37.203125 
Q 17.390625 36.8125 17.484375 36.625 
L 28.609375 9.28125 
L 38.625 33.890625 
Q 38.921875 34.671875 38.921875 35.59375 
Q 38.921875 36.8125 38.25 37.71875 
Q 37.59375 38.625 36.546875 39.109375 
Q 35.5 39.59375 34.1875 39.59375 
L 34.1875 43.109375 
L 50.78125 43.109375 
L 50.78125 39.59375 
Q 47.703125 39.59375 45.375 38.171875 
Q 43.0625 36.765625 41.796875 33.984375 
L 24.515625 -8.40625 
Q 23.140625 -11.625 21.3125 -14.328125 
Q 19.484375 -17.046875 16.84375 -18.78125 
Q 14.203125 -20.515625 11.078125 -20.515625 
Q 7.421875 -20.515625 4.65625 -18.09375 
Q 1.90625 -15.671875 1.90625 -12.109375 
Q 1.90625 -10.25 3.171875 -8.984375 
Q 4.4375 -7.71875 6.296875 -7.71875 
Q 7.5625 -7.71875 8.5625 -8.28125 
Q 9.578125 -8.84375 10.125 -9.8125 
Q 10.6875 -10.796875 10.6875 -12.109375 
Q 10.6875 -13.71875 9.609375 -14.984375 
Q 8.546875 -16.265625 6.890625 -16.40625 
z
" id="Cmr10-121"/>
      <path d="M 20.125 -1.125 
Q 15.375 -1.125 11.6875 1.125 
Q 8.015625 3.375 6 7.171875 
Q 4 10.984375 4 15.828125 
Q 4 22.609375 7.78125 29.25 
Q 11.578125 35.890625 17.84375 40.03125 
Q 24.125 44.1875 31 44.1875 
Q 36.078125 44.1875 39.9375 41.53125 
Q 43.796875 38.875 45.796875 34.453125 
Q 47.796875 30.03125 47.796875 25 
L 47.90625 18.3125 
Q 51.3125 23.046875 53.6875 28.140625 
Q 56.0625 33.25 57.328125 38.71875 
Q 57.515625 39.3125 58.109375 39.3125 
L 59.28125 39.3125 
Q 60.203125 39.3125 60.203125 38.375 
Q 60.203125 38.28125 60.109375 38.09375 
Q 58.9375 33.5 57.171875 29.265625 
Q 55.421875 25.046875 53.046875 21.09375 
Q 50.6875 17.140625 47.90625 13.921875 
Q 47.90625 1.515625 50.78125 1.515625 
Q 52.640625 1.515625 53.828125 2.609375 
Q 55.03125 3.71875 55.9375 5.328125 
Q 56.84375 6.9375 57.078125 6.984375 
L 58.296875 6.984375 
Q 59.078125 6.984375 59.078125 6 
Q 59.078125 3.515625 56.21875 1.1875 
Q 53.375 -1.125 50.59375 -1.125 
Q 46.96875 -1.125 44.578125 1.21875 
Q 42.1875 3.5625 41.3125 7.328125 
Q 36.625 3.328125 31.15625 1.09375 
Q 25.6875 -1.125 20.125 -1.125 
z
M 20.3125 1.515625 
Q 31 1.515625 40.828125 10.296875 
Q 40.765625 10.890625 40.671875 11.734375 
Q 40.578125 12.59375 40.578125 12.703125 
L 40.578125 23.484375 
Q 40.578125 41.609375 30.8125 41.609375 
Q 24.953125 41.609375 20.546875 36.59375 
Q 16.15625 31.59375 13.9375 24.625 
Q 11.71875 17.671875 11.71875 11.921875 
Q 11.71875 7.5625 13.9375 4.53125 
Q 16.15625 1.515625 20.3125 1.515625 
z
" id="Cmmi10-174"/>
      <path d="M 31 -24.8125 
Q 25.4375 -20.40625 21.40625 -14.71875 
Q 17.390625 -9.03125 14.8125 -2.578125 
Q 12.25 3.859375 10.984375 10.890625 
Q 9.71875 17.921875 9.71875 25 
Q 9.71875 32.171875 10.984375 39.203125 
Q 12.25 46.234375 14.859375 52.734375 
Q 17.484375 59.234375 21.53125 64.890625 
Q 25.59375 70.5625 31 74.8125 
Q 31 75 31.5 75 
L 32.421875 75 
Q 32.71875 75 32.953125 74.734375 
Q 33.203125 74.46875 33.203125 74.125 
Q 33.203125 73.6875 33.015625 73.484375 
Q 28.125 68.703125 24.875 63.234375 
Q 21.625 57.765625 19.640625 51.578125 
Q 17.671875 45.40625 16.796875 38.78125 
Q 15.921875 32.171875 15.921875 25 
Q 15.921875 -6.78125 32.90625 -23.296875 
Q 33.203125 -23.578125 33.203125 -24.125 
Q 33.203125 -24.359375 32.9375 -24.671875 
Q 32.671875 -25 32.421875 -25 
L 31.5 -25 
Q 31 -25 31 -24.8125 
z
" id="Cmr10-40"/>
      <path d="M 24.90625 -1.125 
Q 18.796875 -1.125 13.6875 2.078125 
Q 8.59375 5.28125 5.6875 10.625 
Q 2.78125 15.96875 2.78125 21.921875 
Q 2.78125 27.78125 5.4375 33.046875 
Q 8.109375 38.328125 12.859375 41.578125 
Q 17.625 44.828125 23.484375 44.828125 
Q 28.078125 44.828125 31.46875 43.28125 
Q 34.859375 41.75 37.0625 39.015625 
Q 39.265625 36.28125 40.375 32.5625 
Q 41.5 28.859375 41.5 24.421875 
Q 41.5 23.09375 40.484375 23.09375 
L 11.53125 23.09375 
L 11.53125 22.015625 
Q 11.53125 13.71875 14.875 7.765625 
Q 18.21875 1.8125 25.78125 1.8125 
Q 28.859375 1.8125 31.46875 3.171875 
Q 34.078125 4.546875 36 6.984375 
Q 37.9375 9.421875 38.625 12.203125 
Q 38.71875 12.546875 38.984375 12.8125 
Q 39.265625 13.09375 39.59375 13.09375 
L 40.484375 13.09375 
Q 41.5 13.09375 41.5 11.8125 
Q 40.09375 6.15625 35.40625 2.515625 
Q 30.71875 -1.125 24.90625 -1.125 
z
M 11.625 25.59375 
L 34.421875 25.59375 
Q 34.421875 29.34375 33.375 33.203125 
Q 32.328125 37.0625 29.875 39.625 
Q 27.4375 42.1875 23.484375 42.1875 
Q 17.828125 42.1875 14.71875 36.890625 
Q 11.625 31.59375 11.625 25.59375 
z
" id="Cmr10-101"/>
      <path d="M 2.59375 0 
L 2.59375 3.515625 
Q 6 3.515625 8.203125 4.046875 
Q 10.40625 4.59375 10.40625 6.6875 
L 10.40625 33.984375 
Q 10.40625 36.671875 9.59375 37.859375 
Q 8.796875 39.0625 7.28125 39.328125 
Q 5.765625 39.59375 2.59375 39.59375 
L 2.59375 43.109375 
L 16.890625 44.1875 
L 16.890625 34.421875 
Q 18.5 38.765625 21.484375 41.46875 
Q 24.46875 44.1875 28.71875 44.1875 
Q 31.6875 44.1875 34.03125 42.421875 
Q 36.375 40.671875 36.375 37.796875 
Q 36.375 35.984375 35.078125 34.640625 
Q 33.796875 33.296875 31.890625 33.296875 
Q 30.03125 33.296875 28.703125 34.609375 
Q 27.390625 35.9375 27.390625 37.796875 
Q 27.390625 40.484375 29.296875 41.609375 
L 28.71875 41.609375 
Q 24.65625 41.609375 22.09375 38.671875 
Q 19.53125 35.75 18.453125 31.390625 
Q 17.390625 27.046875 17.390625 23.09375 
L 17.390625 6.6875 
Q 17.390625 3.515625 27.09375 3.515625 
L 27.09375 0 
z
" id="Cmr10-114"/>
      <path d="M 2.78125 -7.8125 
Q 2.78125 -4.25 5.359375 -1.578125 
Q 7.953125 1.078125 11.53125 2.203125 
Q 9.515625 3.71875 8.46875 6 
Q 7.421875 8.296875 7.421875 10.890625 
Q 7.421875 15.578125 10.40625 19.1875 
Q 5.8125 23.6875 5.8125 29.5 
Q 5.8125 32.625 7.15625 35.359375 
Q 8.5 38.09375 10.890625 40.09375 
Q 13.28125 42.09375 16.203125 43.140625 
Q 19.140625 44.1875 22.21875 44.1875 
Q 28.171875 44.1875 32.90625 40.71875 
Q 34.96875 42.921875 37.765625 44.109375 
Q 40.578125 45.3125 43.609375 45.3125 
Q 45.75 45.3125 47.109375 43.765625 
Q 48.484375 42.234375 48.484375 40.09375 
Q 48.484375 38.875 47.546875 37.9375 
Q 46.625 37.015625 45.40625 37.015625 
Q 44.140625 37.015625 43.203125 37.9375 
Q 42.28125 38.875 42.28125 40.09375 
Q 42.28125 41.9375 43.5 42.671875 
Q 38.328125 42.671875 34.625 39.109375 
Q 36.421875 37.3125 37.515625 34.6875 
Q 38.625 32.078125 38.625 29.5 
Q 38.625 25.25 36.28125 21.84375 
Q 33.9375 18.453125 30.09375 16.578125 
Q 26.265625 14.703125 22.21875 14.703125 
Q 16.75 14.703125 12.203125 17.671875 
Q 10.796875 15.71875 10.796875 13.28125 
Q 10.796875 10.640625 12.53125 8.65625 
Q 14.265625 6.6875 16.890625 6.6875 
L 25.09375 6.6875 
Q 31.0625 6.6875 35.84375 5.609375 
Q 40.625 4.546875 43.875 1.3125 
Q 47.125 -1.90625 47.125 -7.8125 
Q 47.125 -12.203125 43.40625 -15.109375 
Q 39.703125 -18.015625 34.546875 -19.3125 
Q 29.390625 -20.609375 25 -20.609375 
Q 20.5625 -20.609375 15.375 -19.3125 
Q 10.203125 -18.015625 6.484375 -15.109375 
Q 2.78125 -12.203125 2.78125 -7.8125 
z
M 8.40625 -7.8125 
Q 8.40625 -11.1875 11.140625 -13.453125 
Q 13.875 -15.71875 17.71875 -16.8125 
Q 21.578125 -17.921875 25 -17.921875 
Q 28.375 -17.921875 32.21875 -16.8125 
Q 36.078125 -15.71875 38.78125 -13.453125 
Q 41.5 -11.1875 41.5 -7.8125 
Q 41.5 -2.59375 36.71875 -1.046875 
Q 31.9375 0.484375 25.09375 0.484375 
L 16.890625 0.484375 
Q 14.59375 0.484375 12.671875 -0.609375 
Q 10.75 -1.703125 9.578125 -3.6875 
Q 8.40625 -5.671875 8.40625 -7.8125 
z
M 22.21875 17.390625 
Q 30.71875 17.390625 30.71875 29.5 
Q 30.71875 34.71875 28.90625 38.109375 
Q 27.09375 41.5 22.21875 41.5 
Q 17.328125 41.5 15.515625 38.109375 
Q 13.71875 34.71875 13.71875 29.5 
Q 13.71875 26.171875 14.40625 23.484375 
Q 15.09375 20.796875 16.9375 19.09375 
Q 18.796875 17.390625 22.21875 17.390625 
z
" id="Cmr10-103"/>
      <path d="M 3.328125 -0.296875 
L 3.328125 16.015625 
Q 3.328125 16.796875 4.203125 16.796875 
L 5.421875 16.796875 
Q 6 16.796875 6.203125 16.015625 
Q 8.984375 1.515625 19.671875 1.515625 
Q 24.421875 1.515625 27.609375 3.65625 
Q 30.8125 5.8125 30.8125 10.296875 
Q 30.8125 13.53125 28.3125 15.796875 
Q 25.828125 18.0625 22.40625 18.890625 
L 15.71875 20.21875 
Q 12.359375 20.953125 9.59375 22.453125 
Q 6.84375 23.96875 5.078125 26.484375 
Q 3.328125 29 3.328125 32.328125 
Q 3.328125 36.71875 5.640625 39.515625 
Q 7.953125 42.328125 11.65625 43.578125 
Q 15.375 44.828125 19.671875 44.828125 
Q 24.8125 44.828125 28.609375 42.09375 
L 31.5 44.578125 
Q 31.5 44.828125 31.984375 44.828125 
L 32.71875 44.828125 
Q 33.015625 44.828125 33.25 44.546875 
Q 33.5 44.28125 33.5 44 
L 33.5 30.90625 
Q 33.5 29.984375 32.71875 29.984375 
L 31.5 29.984375 
Q 30.609375 29.984375 30.609375 30.90625 
Q 30.609375 36.140625 27.703125 39.3125 
Q 24.8125 42.484375 19.578125 42.484375 
Q 15.09375 42.484375 11.796875 40.8125 
Q 8.5 39.15625 8.5 35.109375 
Q 8.5 32.328125 10.859375 30.546875 
Q 13.234375 28.765625 16.40625 27.984375 
L 23.1875 26.703125 
Q 26.609375 25.921875 29.5625 24.0625 
Q 32.515625 22.21875 34.25 19.375 
Q 35.984375 16.546875 35.984375 12.984375 
Q 35.984375 9.375 34.734375 6.703125 
Q 33.5 4.046875 31.265625 2.28125 
Q 29.046875 0.53125 26.015625 -0.296875 
Q 23 -1.125 19.671875 -1.125 
Q 13.421875 -1.125 8.984375 3.078125 
L 5.328125 -0.875 
Q 5.328125 -1.125 4.78125 -1.125 
L 4.203125 -1.125 
Q 3.328125 -1.125 3.328125 -0.296875 
z
" id="Cmr10-115"/>
      <path d="M 10.203125 23 
Q 9.375 23 8.828125 23.625 
Q 8.296875 24.265625 8.296875 25 
Q 8.296875 25.734375 8.828125 26.359375 
Q 9.375 27 10.203125 27 
L 67.578125 27 
Q 68.359375 27 68.875 26.359375 
Q 69.390625 25.734375 69.390625 25 
Q 69.390625 24.265625 68.875 23.625 
Q 68.359375 23 67.578125 23 
z
" id="Cmsy10-161"/>
      <path d="M 9.28125 0 
L 9.28125 3.515625 
Q 21.78125 3.515625 21.78125 6.6875 
L 21.78125 59.1875 
Q 16.609375 56.6875 8.6875 56.6875 
L 8.6875 60.203125 
Q 20.953125 60.203125 27.203125 66.609375 
L 28.609375 66.609375 
Q 28.953125 66.609375 29.265625 66.328125 
Q 29.59375 66.0625 29.59375 65.71875 
L 29.59375 6.6875 
Q 29.59375 3.515625 42.09375 3.515625 
L 42.09375 0 
z
" id="Cmr10-49"/>
      <path d="M 6.5 -25 
Q 5.609375 -25 5.609375 -24.125 
Q 5.609375 -23.6875 5.8125 -23.484375 
Q 22.90625 -6.78125 22.90625 25 
Q 22.90625 56.78125 6 73.296875 
Q 5.609375 73.53125 5.609375 74.125 
Q 5.609375 74.46875 5.875 74.734375 
Q 6.15625 75 6.5 75 
L 7.421875 75 
Q 7.71875 75 7.90625 74.8125 
Q 15.09375 69.140625 19.875 61.03125 
Q 24.65625 52.9375 26.875 43.75 
Q 29.109375 34.578125 29.109375 25 
Q 29.109375 17.921875 27.90625 11.0625 
Q 26.703125 4.203125 24.09375 -2.453125 
Q 21.484375 -9.125 17.484375 -14.765625 
Q 13.484375 -20.40625 7.90625 -24.8125 
Q 7.71875 -25 7.421875 -25 
z
" id="Cmr10-41"/>
     </defs>
     <g transform="translate(20.8 185.599375)rotate(-90)scale(0.2 -0.2)">
      <use transform="translate(0 0.223438)" xlink:href="#Cmmi10-76"/>
      <use transform="translate(68.017578 -16.782813)scale(0.7)" xlink:href="#Cmr10-76"/>
      <use transform="translate(111.767578 -16.782813)scale(0.7)" xlink:href="#Cmr10-121"/>
      <use transform="translate(148.647461 -16.782813)scale(0.7)" xlink:href="#Cmmi10-174"/>
      <use transform="translate(229.030046 0.223438)" xlink:href="#Cmr10-40"/>
      <use transform="translate(267.848405 0.223438)" xlink:href="#Cmr10-101"/>
      <use transform="translate(312.233171 0.223438)" xlink:href="#Cmr10-114"/>
      <use transform="translate(351.344499 0.223438)" xlink:href="#Cmr10-103"/>
      <use transform="translate(429.111148 0.223438)" xlink:href="#Cmr10-115"/>
      <use transform="translate(473.082945 39.373438)scale(0.7)" xlink:href="#Cmsy10-161"/>
      <use transform="translate(527.462828 39.373438)scale(0.7)" xlink:href="#Cmr10-49"/>
      <use transform="translate(568.987828 0.223438)" xlink:href="#Cmr10-41"/>
     </g>
    </g>
   </g>
   <g id="line2d_10">
    <path clip-path="url(#p876e5f9a64)" d="M 98.963636 171.426342 
L 103.003066 194.951346 
L 107.0609 157.941077 
L 111.137035 175.327468 
L 115.231356 140.024359 
L 119.343757 178.651527 
L 123.474135 164.876665 
L 127.622386 174.325229 
L 131.788408 162.731625 
L 135.972092 165.349231 
L 140.173339 162.591043 
L 144.392049 182.890113 
L 148.628118 171.905407 
L 152.881449 182.096751 
L 157.151942 155.891695 
L 161.439497 139.522897 
L 165.74402 142.712223 
L 170.065414 136.799076 
L 174.403584 147.869104 
L 178.758426 152.411121 
L 183.129854 145.993029 
L 187.51777 156.711081 
L 191.853145 178.829026 
L 196.204314 185.800864 
L 200.571194 145.474514 
L 204.953699 162.397875 
L 209.351734 171.378665 
L 213.765221 134.737361 
L 218.194068 169.701521 
L 222.638194 151.698769 
L 227.09751 139.132957 
L 231.571929 165.217112 
L 236.061373 150.548695 
L 240.565755 153.229411 
L 245.08499 179.748331 
L 249.618995 167.08798 
L 254.167688 172.578667 
L 258.73099 161.88919 
L 263.308815 141.493894 
L 267.901078 164.285287 
L 272.507702 154.956104 
L 277.128609 156.551237 
L 281.763714 135.265925 
L 286.412935 133.655642 
L 291.076198 143.797177 
L 295.753418 130.227819 
L 300.44452 142.053095 
L 305.149418 134.315794 
L 309.868041 127.873972 
L 314.600303 118.038663 
L 319.346131 132.528548 
L 324.105451 121.648812 
L 328.878175 143.066523 
L 333.664231 115.503171 
L 338.586883 119.56595 
L 343.523087 140.357107 
L 348.473376 158.115526 
L 353.437355 116.266645 
L 358.414639 131.32894 
L 363.405766 117.637552 
L 368.410018 123.549948 
L 373.427959 132.493998 
L 378.459174 97.285093 
L 383.503286 113.086905 
L 388.560831 163.527798 
L 393.631418 140.622994 
L 398.714649 157.918599 
L 403.811078 145.795757 
L 408.920305 118.344717 
L 414.041935 165.618284 
L 419.176519 145.355462 
L 424.323669 141.3182 
L 429.482974 118.747805 
L 434.654998 143.247032 
L 439.839025 130.970507 
L 445.035617 131.867897 
L 450.244376 126.021717 
L 455.464894 128.24619 
L 460.697738 130.230262 
L 465.942522 112.502614 
L 471.198818 97.239637 
L 476.467211 114.49218 
L 481.747304 120.483653 
L 487.038688 106.191139 
L 492.341934 91.731285 
L 497.656636 118.746976 
L 502.982393 135.799737 
L 508.319796 115.494685 
L 513.668086 92.262032 
L 519.027861 71.153827 
L 524.398711 80.154051 
L 529.780223 104.139701 
L 535.172989 86.603576 
L 540.576602 95.848159 
L 545.990645 104.43579 
L 551.415716 96.716148 
L 556.851403 102.917466 
L 562.29729 118.089431 
L 567.753978 141.250114 
L 573.220711 131.833838 
L 578.698098 106.472607 
L 584.18572 121.930282 
L 589.683158 138.651986 
L 595.191026 112.267834 
L 600.708901 121.886418 
L 606.236364 125.479991 
" style="fill:none;stroke:#440154;stroke-linecap:square;stroke-opacity:0.5;stroke-width:2;"/>
   </g>
   <g id="patch_3">
    <path d="M 73.6 203.339375 
L 73.6 46.259375 
" style="fill:none;stroke:#000000;stroke-linecap:square;stroke-linejoin:miter;stroke-width:0.8;"/>
   </g>
   <g id="patch_4">
    <path d="M 631.6 203.339375 
L 631.6 46.259375 
" style="fill:none;stroke:#000000;stroke-linecap:square;stroke-linejoin:miter;stroke-width:0.8;"/>
   </g>
   <g id="patch_5">
    <path d="M 73.6 203.339375 
L 631.6 203.339375 
" style="fill:none;stroke:#000000;stroke-linecap:square;stroke-linejoin:miter;stroke-width:0.8;"/>
   </g>
   <g id="patch_6">
    <path d="M 73.6 46.259375 
L 631.6 46.259375 
" style="fill:none;stroke:#000000;stroke-linecap:square;stroke-linejoin:miter;stroke-width:0.8;"/>
   </g>
   <g id="line2d_11">
    <path clip-path="url(#p876e5f9a64)" d="M 98.963636 190.699811 
L 103.003066 203.494942 
L 107.0609 175.096308 
L 111.137035 185.902165 
L 115.231356 151.465279 
L 119.343757 188.416243 
L 123.474135 176.686419 
L 127.622386 182.13569 
L 131.788408 176.628704 
L 135.972092 178.350928 
L 140.173339 175.465932 
L 144.392049 187.672863 
L 148.628118 188.252811 
L 152.881449 193.301698 
L 157.151942 176.642592 
L 161.439497 165.348551 
L 165.74402 164.033731 
L 170.065414 158.332686 
L 174.403584 162.958348 
L 178.758426 170.943486 
L 183.129854 165.944235 
L 187.51777 169.681077 
L 191.853145 183.774589 
L 196.204314 198.154909 
L 200.571194 166.110709 
L 204.953699 178.458646 
L 209.351734 186.326882 
L 213.765221 149.898848 
L 218.194068 180.755042 
L 222.638194 164.526606 
L 227.09751 154.720341 
L 231.571929 173.577175 
L 236.061373 165.826442 
L 240.565755 169.551398 
L 245.08499 188.128108 
L 249.618995 173.999895 
L 254.167688 185.801058 
L 258.73099 171.109582 
L 263.308815 155.579979 
L 267.901078 172.281724 
L 272.507702 173.041235 
L 277.128609 167.916898 
L 281.763714 153.454655 
L 286.412935 153.434675 
L 291.076198 154.842063 
L 295.753418 142.537262 
L 300.44452 153.154219 
L 305.149418 150.757831 
L 309.868041 141.839683 
L 314.600303 135.06417 
L 319.346131 143.771746 
L 324.105451 136.000417 
L 328.878175 153.898998 
L 333.664231 133.640369 
L 338.586883 139.09013 
L 343.523087 154.136539 
L 348.473376 167.52759 
L 353.437355 134.195415 
L 358.414639 155.102116 
L 363.405766 139.519944 
L 368.410018 139.352806 
L 373.427959 155.623924 
L 378.459174 115.480238 
L 383.503286 137.005348 
L 388.560831 171.878258 
L 393.631418 153.321756 
L 398.714649 172.581805 
L 403.811078 163.168394 
L 408.920305 136.487326 
L 414.041935 178.982594 
L 419.176519 159.453242 
L 424.323669 155.659709 
L 429.482974 133.465189 
L 434.654998 156.340279 
L 439.839025 143.647165 
L 445.035617 142.798299 
L 450.244376 139.022315 
L 455.464894 138.846404 
L 460.697738 142.835165 
L 465.942522 128.640377 
L 471.198818 110.464542 
L 476.467211 127.70743 
L 481.747304 131.971302 
L 487.038688 119.736832 
L 492.341934 105.497046 
L 497.656636 131.664333 
L 502.982393 145.443085 
L 508.319796 125.53615 
L 513.668086 109.457896 
L 519.027861 90.358192 
L 524.398711 109.386878 
L 529.780223 127.549661 
L 535.172989 114.278412 
L 540.576602 116.919252 
L 545.990645 122.999601 
L 551.415716 114.30796 
L 556.851403 122.482234 
L 562.29729 135.629291 
L 567.753978 150.309329 
L 573.220711 144.279339 
L 578.698098 124.371988 
L 584.18572 134.490587 
L 589.683158 150.622079 
L 595.191026 128.295461 
L 600.708901 137.445567 
L 606.236364 141.413552 
" style="fill:none;stroke:#440154;stroke-linecap:square;stroke-width:2;"/>
   </g>
   <g id="legend_1">
    <g id="patch_7">
     <path d="M 87.6 161.499375 
L 191.6 161.499375 
Q 195.6 161.499375 195.6 157.499375 
L 195.6 92.099375 
Q 195.6 88.099375 191.6 88.099375 
L 87.6 88.099375 
Q 83.6 88.099375 83.6 92.099375 
L 83.6 157.499375 
Q 83.6 161.499375 87.6 161.499375 
z
" style="fill:#ffffff;opacity:0.8;stroke:#cccccc;stroke-linejoin:miter;"/>
    </g>
    <g id="line2d_12">
     <path d="M 91.6 103.099375 
L 131.6 103.099375 
" style="fill:none;stroke:#ff8c00;stroke-linecap:square;stroke-width:2;"/>
    </g>
    <g id="line2d_13"/>
    <g id="text_9">
     <!-- $L_{\rm Ly \alpha}^{\rm rec}$ -->
     <defs>
      <path d="M 24.90625 -1.125 
Q 18.84375 -1.125 13.90625 2.015625 
Q 8.984375 5.171875 6.15625 10.421875 
Q 3.328125 15.671875 3.328125 21.578125 
Q 3.328125 27.484375 6.125 32.90625 
Q 8.9375 38.328125 13.890625 41.578125 
Q 18.84375 44.828125 24.90625 44.828125 
Q 30.765625 44.828125 35.5625 42.53125 
Q 40.375 40.234375 40.375 35.015625 
Q 40.375 33.0625 38.984375 31.609375 
Q 37.59375 30.171875 35.59375 30.171875 
Q 33.59375 30.171875 32.203125 31.609375 
Q 30.8125 33.0625 30.8125 35.015625 
Q 30.8125 36.765625 31.9375 38.0625 
Q 33.0625 39.359375 34.71875 39.703125 
Q 31.25 41.890625 25 41.890625 
Q 20.21875 41.890625 17.28125 38.71875 
Q 14.359375 35.546875 13.1875 30.859375 
Q 12.015625 26.171875 12.015625 21.578125 
Q 12.015625 16.75 13.453125 12.234375 
Q 14.890625 7.71875 18.09375 4.765625 
Q 21.296875 1.8125 26.125 1.8125 
Q 30.859375 1.8125 34.171875 4.71875 
Q 37.5 7.625 38.71875 12.3125 
Q 38.71875 12.890625 39.5 12.890625 
L 40.71875 12.890625 
Q 41.015625 12.890625 41.25 12.625 
Q 41.5 12.359375 41.5 12.015625 
L 41.5 11.71875 
Q 39.984375 5.8125 35.484375 2.34375 
Q 31 -1.125 24.90625 -1.125 
z
" id="Cmr10-99"/>
     </defs>
     <g transform="translate(147.6 110.099375)scale(0.2 -0.2)">
      <use transform="translate(0 0.35625)" xlink:href="#Cmmi10-76"/>
      <use transform="translate(79.387109 38.620312)scale(0.7)" xlink:href="#Cmr10-114"/>
      <use transform="translate(106.765039 38.620312)scale(0.7)" xlink:href="#Cmr10-101"/>
      <use transform="translate(137.834375 38.620312)scale(0.7)" xlink:href="#Cmr10-99"/>
      <use transform="translate(68.017578 -25.153125)scale(0.7)" xlink:href="#Cmr10-76"/>
      <use transform="translate(111.767578 -25.153125)scale(0.7)" xlink:href="#Cmr10-121"/>
      <use transform="translate(148.647461 -25.153125)scale(0.7)" xlink:href="#Cmmi10-174"/>
     </g>
    </g>
    <g id="line2d_14">
     <path d="M 91.6 138.499375 
L 131.6 138.499375 
" style="fill:none;stroke:#440154;stroke-linecap:square;stroke-width:2;"/>
    </g>
    <g id="line2d_15"/>
    <g id="text_10">
     <!-- $L_{\rm Ly \alpha}^{\rm col}$ -->
     <defs>
      <path d="M 25 -1.125 
Q 19 -1.125 13.859375 1.921875 
Q 8.734375 4.984375 5.75 10.109375 
Q 2.78125 15.234375 2.78125 21.296875 
Q 2.78125 25.875 4.421875 30.125 
Q 6.0625 34.375 9.109375 37.71875 
Q 12.15625 41.0625 16.203125 42.9375 
Q 20.265625 44.828125 25 44.828125 
Q 31.15625 44.828125 36.203125 41.578125 
Q 41.265625 38.328125 44.1875 32.875 
Q 47.125 27.4375 47.125 21.296875 
Q 47.125 15.28125 44.140625 10.125 
Q 41.15625 4.984375 36.046875 1.921875 
Q 30.953125 -1.125 25 -1.125 
z
M 25 1.8125 
Q 33.015625 1.8125 35.6875 7.609375 
Q 38.375 13.421875 38.375 22.40625 
Q 38.375 27.4375 37.84375 30.734375 
Q 37.3125 34.03125 35.5 36.71875 
Q 34.375 38.375 32.640625 39.625 
Q 30.90625 40.875 28.96875 41.53125 
Q 27.046875 42.1875 25 42.1875 
Q 21.875 42.1875 19.0625 40.765625 
Q 16.265625 39.359375 14.40625 36.71875 
Q 12.546875 33.890625 12.03125 30.484375 
Q 11.53125 27.09375 11.53125 22.40625 
Q 11.53125 16.796875 12.5 12.328125 
Q 13.484375 7.859375 16.4375 4.828125 
Q 19.390625 1.8125 25 1.8125 
z
" id="Cmr10-111"/>
      <path d="M 3.078125 0 
L 3.078125 3.515625 
Q 6.5 3.515625 8.6875 4.046875 
Q 10.890625 4.59375 10.890625 6.6875 
L 10.890625 59.1875 
Q 10.890625 61.859375 10.078125 63.0625 
Q 9.28125 64.265625 7.765625 64.53125 
Q 6.25 64.796875 3.078125 64.796875 
L 3.078125 68.3125 
L 17.921875 69.390625 
L 17.921875 6.6875 
Q 17.921875 4.59375 20.109375 4.046875 
Q 22.3125 3.515625 25.6875 3.515625 
L 25.6875 0 
z
" id="Cmr10-108"/>
     </defs>
     <g transform="translate(147.6 145.499375)scale(0.2 -0.2)">
      <use transform="translate(0 0.1625)" xlink:href="#Cmmi10-76"/>
      <use transform="translate(79.387109 38.426563)scale(0.7)" xlink:href="#Cmr10-99"/>
      <use transform="translate(110.456445 38.426563)scale(0.7)" xlink:href="#Cmr10-111"/>
      <use transform="translate(145.456445 38.426563)scale(0.7)" xlink:href="#Cmr10-108"/>
      <use transform="translate(68.017578 -25.346875)scale(0.7)" xlink:href="#Cmr10-76"/>
      <use transform="translate(111.767578 -25.346875)scale(0.7)" xlink:href="#Cmr10-121"/>
      <use transform="translate(148.647461 -25.346875)scale(0.7)" xlink:href="#Cmmi10-174"/>
     </g>
    </g>
   </g>
  </g>
  <g id="axes_2">
   <g id="matplotlib.axis_3">
    <g id="xtick_6">
     <g id="line2d_16">
      <defs>
       <path d="M 0 0 
L 0 -3.5 
" id="m4ea90721ee" style="stroke:#000000;stroke-width:0.8;"/>
      </defs>
      <g>
       <use style="stroke:#000000;stroke-width:0.8;" x="587.366445" xlink:href="#m4ea90721ee" y="46.259375"/>
      </g>
     </g>
     <g id="text_11">
      <!-- 2.0 -->
      <g transform="translate(574.866445 34.91875)scale(0.2 -0.2)">
       <use xlink:href="#STIXGeneral-Regular-50"/>
       <use x="49.999985" xlink:href="#STIXGeneral-Regular-46"/>
       <use x="74.999969" xlink:href="#STIXGeneral-Regular-48"/>
      </g>
     </g>
    </g>
    <g id="xtick_7">
     <g id="line2d_17">
      <g>
       <use style="stroke:#000000;stroke-width:0.8;" x="468.961104" xlink:href="#m4ea90721ee" y="46.259375"/>
      </g>
     </g>
     <g id="text_12">
      <!-- 2.4 -->
      <g transform="translate(456.461104 34.91875)scale(0.2 -0.2)">
       <use xlink:href="#STIXGeneral-Regular-50"/>
       <use x="49.999985" xlink:href="#STIXGeneral-Regular-46"/>
       <use x="74.999969" xlink:href="#STIXGeneral-Regular-52"/>
      </g>
     </g>
    </g>
    <g id="xtick_8">
     <g id="line2d_18">
      <g>
       <use style="stroke:#000000;stroke-width:0.8;" x="350.555763" xlink:href="#m4ea90721ee" y="46.259375"/>
      </g>
     </g>
     <g id="text_13">
      <!-- 2.9 -->
      <defs>
       <path d="M 5.90625 -2.203125 
L 5.59375 -0.203125 
Q 17.09375 1.796875 25.046875 9.5 
Q 33 17.203125 36 29.40625 
Q 30.203125 23.703125 21 23.703125 
Q 12.90625 23.703125 7.953125 29.296875 
Q 3 34.90625 3 44 
Q 3 54.09375 8.953125 60.84375 
Q 14.90625 67.59375 23.796875 67.59375 
Q 33.296875 67.59375 39.5 60 
Q 45.90625 52 45.90625 39.40625 
Q 45.90625 30.59375 42.84375 22.84375 
Q 39.796875 15.09375 33.90625 9.703125 
Q 27.703125 4.09375 21.796875 1.640625 
Q 15.90625 -0.796875 5.90625 -2.203125 
z
M 36.203125 35.5 
L 36.203125 39.40625 
Q 36.203125 64.796875 23 64.796875 
Q 18.296875 64.796875 15.703125 61.40625 
Q 14.203125 59.40625 13.203125 55.40625 
Q 12.203125 51.40625 12.203125 47.40625 
Q 12.203125 38.5 15.546875 33.25 
Q 18.90625 28 24.5 28 
Q 28.5 28 32.34375 29.953125 
Q 36.203125 31.90625 36.203125 35.5 
z
" id="STIXGeneral-Regular-57"/>
      </defs>
      <g transform="translate(338.055763 34.91875)scale(0.2 -0.2)">
       <use xlink:href="#STIXGeneral-Regular-50"/>
       <use x="49.999985" xlink:href="#STIXGeneral-Regular-46"/>
       <use x="74.999969" xlink:href="#STIXGeneral-Regular-57"/>
      </g>
     </g>
    </g>
    <g id="xtick_9">
     <g id="line2d_19">
      <g>
       <use style="stroke:#000000;stroke-width:0.8;" x="232.150422" xlink:href="#m4ea90721ee" y="46.259375"/>
      </g>
     </g>
     <g id="text_14">
      <!-- 3.6 -->
      <defs>
       <path d="M 44.59375 68.40625 
L 44.796875 66.796875 
Q 33 64.90625 25.09375 57.25 
Q 17.203125 49.59375 15.203125 38.296875 
Q 21 42.796875 27.90625 42.796875 
Q 36.703125 42.796875 41.75 37.1875 
Q 46.796875 31.59375 46.796875 21.90625 
Q 46.796875 12.09375 41.703125 5.90625 
Q 35.796875 -1.40625 25.796875 -1.40625 
Q 13.59375 -1.40625 8.09375 8.703125 
Q 3.40625 17.296875 3.40625 27.90625 
Q 3.40625 44.296875 14.296875 55.5 
Q 20.5 61.90625 27.046875 64.546875 
Q 33.59375 67.203125 44.59375 68.40625 
z
M 37.796875 18.796875 
Q 37.796875 38.203125 24.296875 38.203125 
Q 19.296875 38.203125 16 35.546875 
Q 12.703125 32.90625 12.703125 26.59375 
Q 12.703125 14.90625 16.34375 8.15625 
Q 20 1.40625 26.90625 1.40625 
Q 32.203125 1.40625 35 6.15625 
Q 37.796875 10.90625 37.796875 18.796875 
z
" id="STIXGeneral-Regular-54"/>
      </defs>
      <g transform="translate(219.650422 34.91875)scale(0.2 -0.2)">
       <use xlink:href="#STIXGeneral-Regular-51"/>
       <use x="49.999985" xlink:href="#STIXGeneral-Regular-46"/>
       <use x="74.999969" xlink:href="#STIXGeneral-Regular-54"/>
      </g>
     </g>
    </g>
    <g id="xtick_10">
     <g id="line2d_20">
      <g>
       <use style="stroke:#000000;stroke-width:0.8;" x="113.745081" xlink:href="#m4ea90721ee" y="46.259375"/>
      </g>
     </g>
     <g id="text_15">
      <!-- 4.8 -->
      <defs>
       <path d="M 44.5 15.5 
Q 44.5 7.796875 39.140625 3.1875 
Q 33.796875 -1.40625 24.796875 -1.40625 
Q 16.40625 -1.40625 11 3.1875 
Q 5.59375 7.796875 5.59375 14.90625 
Q 5.59375 20.203125 8.1875 23.953125 
Q 10.796875 27.703125 18.59375 33.203125 
Q 11.09375 39.40625 8.640625 43.203125 
Q 6.203125 47 6.203125 52 
Q 6.203125 59.09375 11.640625 63.34375 
Q 17.09375 67.59375 25.59375 67.59375 
Q 32.90625 67.59375 37.65625 63.4375 
Q 42.40625 59.296875 42.40625 53.296875 
Q 42.40625 47.796875 39.546875 44.5 
Q 36.703125 41.203125 29 37.09375 
Q 38 31.09375 41.25 26.390625 
Q 44.5 21.703125 44.5 15.5 
z
M 35.5 53.296875 
Q 35.5 58.5 32.59375 61.640625 
Q 29.703125 64.796875 24.59375 64.796875 
Q 19.5 64.796875 16.546875 62.140625 
Q 13.59375 59.5 13.59375 54.890625 
Q 13.59375 50.296875 16.546875 46.546875 
Q 19.5 42.796875 26.09375 38.90625 
Q 31.203125 41.90625 33.34375 45.25 
Q 35.5 48.59375 35.5 53.296875 
z
M 27.09375 27.203125 
L 21.203125 31.203125 
Q 16.796875 27.59375 15 24.140625 
Q 13.203125 20.703125 13.203125 15.796875 
Q 13.203125 9 16.640625 5.203125 
Q 20.09375 1.40625 25.90625 1.40625 
Q 30.796875 1.40625 33.84375 4.453125 
Q 36.90625 7.5 36.90625 12.40625 
Q 36.90625 16.90625 34.59375 20.296875 
Q 32.296875 23.703125 27.09375 27.203125 
z
" id="STIXGeneral-Regular-56"/>
      </defs>
      <g transform="translate(101.245081 34.91875)scale(0.2 -0.2)">
       <use xlink:href="#STIXGeneral-Regular-52"/>
       <use x="49.999985" xlink:href="#STIXGeneral-Regular-46"/>
       <use x="74.999969" xlink:href="#STIXGeneral-Regular-56"/>
      </g>
     </g>
    </g>
    <g id="text_16">
     <!-- $z$ -->
     <defs>
      <path d="M 4.890625 -1.125 
Q 4.109375 -1.125 4.109375 -0.203125 
Q 4.109375 0.296875 4.296875 0.484375 
Q 6.984375 5.125 10.765625 9.34375 
Q 14.546875 13.578125 19.359375 17.890625 
Q 24.171875 22.21875 29.03125 26.5625 
Q 33.890625 30.90625 36.921875 34.28125 
L 36.53125 34.28125 
Q 34.328125 34.28125 30.078125 35.6875 
Q 25.828125 37.109375 23.390625 37.109375 
Q 20.75 37.109375 18.25 35.953125 
Q 15.765625 34.8125 15.09375 32.421875 
Q 14.9375 31.6875 14.3125 31.6875 
L 13.09375 31.6875 
Q 12.3125 31.6875 12.3125 32.71875 
L 12.3125 33.015625 
Q 13.09375 35.9375 14.875 38.46875 
Q 16.65625 41.015625 19.265625 42.59375 
Q 21.875 44.1875 24.703125 44.1875 
Q 26.703125 44.1875 28.015625 43.28125 
Q 29.34375 42.390625 31.09375 40.484375 
Q 32.859375 38.578125 33.953125 37.75 
Q 35.0625 36.921875 36.71875 36.921875 
Q 38.921875 36.921875 40.65625 38.921875 
Q 42.390625 40.921875 44.09375 43.890625 
Q 44.390625 44.1875 44.828125 44.1875 
L 46 44.1875 
Q 46.34375 44.1875 46.5625 43.9375 
Q 46.78125 43.703125 46.78125 43.3125 
Q 46.78125 42.96875 46.578125 42.671875 
Q 43.890625 38.03125 40.296875 34 
Q 36.71875 29.984375 30.921875 24.78125 
Q 25.140625 19.578125 21.15625 15.984375 
Q 17.1875 12.40625 13.71875 8.59375 
Q 14.5 8.796875 15.828125 8.796875 
Q 18.265625 8.796875 22.484375 7.390625 
Q 26.703125 6 29 6 
Q 31.5 6 34.03125 7.078125 
Q 36.578125 8.15625 38.421875 10.109375 
Q 40.28125 12.0625 40.921875 14.59375 
Q 41.15625 15.28125 41.703125 15.28125 
L 42.921875 15.28125 
Q 43.3125 15.28125 43.546875 14.96875 
Q 43.796875 14.65625 43.796875 14.3125 
Q 43.796875 14.203125 43.703125 14.015625 
Q 42.78125 10.203125 40.484375 6.765625 
Q 38.1875 3.328125 34.84375 1.09375 
Q 31.5 -1.125 27.6875 -1.125 
Q 25.78125 -1.125 24.453125 -0.234375 
Q 23.140625 0.640625 21.359375 2.5625 
Q 19.578125 4.5 18.453125 5.34375 
Q 17.328125 6.203125 15.71875 6.203125 
Q 10.75 6.203125 6.78125 -0.78125 
Q 6.453125 -1.125 6.109375 -1.125 
z
" id="Cmmi10-122"/>
     </defs>
     <g transform="translate(347.9 17.259375)scale(0.2 -0.2)">
      <use transform="translate(0 0.8125)" xlink:href="#Cmmi10-122"/>
     </g>
    </g>
   </g>
   <g id="patch_8">
    <path d="M 73.6 203.339375 
L 73.6 46.259375 
" style="fill:none;stroke:#000000;stroke-linecap:square;stroke-linejoin:miter;stroke-width:0.8;"/>
   </g>
   <g id="patch_9">
    <path d="M 631.6 203.339375 
L 631.6 46.259375 
" style="fill:none;stroke:#000000;stroke-linecap:square;stroke-linejoin:miter;stroke-width:0.8;"/>
   </g>
   <g id="patch_10">
    <path d="M 73.6 203.339375 
L 631.6 203.339375 
" style="fill:none;stroke:#000000;stroke-linecap:square;stroke-linejoin:miter;stroke-width:0.8;"/>
   </g>
   <g id="patch_11">
    <path d="M 73.6 46.259375 
L 631.6 46.259375 
" style="fill:none;stroke:#000000;stroke-linecap:square;stroke-linejoin:miter;stroke-width:0.8;"/>
   </g>
  </g>
  <g id="axes_3">
   <g id="patch_12">
    <path d="M 73.6 360.419375 
L 631.6 360.419375 
L 631.6 203.339375 
L 73.6 203.339375 
z
" style="fill:#ffffff;"/>
   </g>
   <g id="line2d_21">
    <path clip-path="url(#pfe2ecacec8)" d="M 98.963636 231.293839 
L 103.003066 240.222277 
L 107.0609 214.946258 
L 111.137036 206.390598 
L 115.231356 211.41235 
L 119.343757 215.990008 
L 123.474136 220.371529 
L 127.622387 214.183684 
L 131.788408 209.377587 
L 135.972092 207.748178 
L 140.17334 214.139876 
L 144.392049 215.746733 
L 148.628118 226.834774 
L 152.881449 224.805731 
L 157.151943 217.620921 
L 161.439498 217.365463 
L 165.744021 218.104171 
L 170.065415 222.807761 
L 174.403585 217.936906 
L 178.758426 213.727507 
L 183.129855 217.645885 
L 187.517771 231.545451 
L 191.853146 226.215433 
L 196.204315 219.061569 
L 200.571195 220.571726 
L 204.9537 219.186026 
L 209.351735 224.644054 
L 213.765222 223.924154 
L 218.194069 230.617773 
L 222.638196 226.720496 
L 227.097512 234.289301 
L 231.571931 241.21387 
L 236.061375 258.102356 
L 240.565757 264.138652 
L 245.084992 242.825926 
L 249.618997 234.444571 
L 254.16769 233.693403 
L 258.730992 279.611408 
L 263.308817 266.906188 
L 267.90108 270.548542 
L 272.507704 265.661954 
L 277.128611 268.98048 
L 281.763716 256.233711 
L 286.412937 250.885987 
L 291.0762 255.775184 
L 295.75342 260.662283 
L 300.444523 277.659176 
L 305.149421 271.554476 
L 309.868043 257.013663 
L 314.600306 247.219188 
L 319.346134 295.087011 
L 324.105454 257.330076 
L 328.878178 263.310772 
L 333.664234 237.991276 
L 338.586886 257.930737 
L 343.52309 246.765041 
L 348.473379 254.945445 
L 353.437358 253.68543 
L 358.414642 261.699411 
L 363.405769 296.720286 
L 368.410021 257.042772 
L 373.427963 283.568078 
L 378.459178 286.605178 
L 383.50329 272.276691 
L 388.560834 266.854198 
L 393.631422 254.549114 
L 398.714652 238.474211 
L 403.811081 244.227705 
L 408.920309 248.348635 
L 414.041939 254.780586 
L 419.176523 257.674422 
L 424.323672 257.697569 
L 429.482978 251.36834 
L 434.655002 255.118069 
L 439.839029 257.450878 
L 445.035621 249.591839 
L 450.24438 257.366317 
L 455.464898 257.476279 
L 460.697743 282.702596 
L 465.942526 285.302519 
L 471.198823 285.004869 
L 476.467215 280.833168 
L 481.747308 248.443686 
L 487.038693 257.694917 
L 492.341939 269.9795 
L 497.656641 295.818757 
L 502.982398 281.011754 
L 508.319801 272.432273 
L 513.668088 269.824981 
L 519.02786 268.063533 
L 524.398715 272.729509 
L 529.780227 278.989692 
L 535.172991 284.563594 
L 540.576601 283.736506 
L 545.990647 253.485341 
L 551.415723 265.448532 
L 556.851401 251.650729 
L 562.297288 247.608206 
L 567.753984 240.545723 
L 573.220712 238.967314 
L 578.698101 255.450958 
L 584.185724 248.420418 
L 589.683165 240.035185 
L 595.19103 265.961045 
L 600.708906 266.109106 
L 606.236364 247.561051 
" style="fill:none;stroke:#ff8c00;stroke-linecap:square;stroke-opacity:0.5;stroke-width:2;"/>
   </g>
   <g id="line2d_22">
    <path clip-path="url(#pfe2ecacec8)" d="M 98.963636 232.134711 
L 103.003066 241.069858 
L 107.0609 215.236631 
L 111.137036 207.766403 
L 115.231356 214.385491 
L 119.343757 219.461595 
L 123.474136 222.128733 
L 127.622387 216.190653 
L 131.788408 211.50004 
L 135.972092 209.635671 
L 140.17334 217.445201 
L 144.392049 225.723463 
L 148.628118 233.368088 
L 152.881449 226.624588 
L 157.151943 219.024005 
L 161.439498 219.828255 
L 165.744021 219.038752 
L 170.065415 223.806088 
L 174.403585 219.678891 
L 178.758426 216.762307 
L 183.129855 220.83826 
L 187.517771 234.504239 
L 191.853146 232.580296 
L 196.204315 226.865668 
L 200.571195 226.299639 
L 204.9537 222.834432 
L 209.351735 229.312039 
L 213.765222 229.313923 
L 218.194069 236.982702 
L 222.638196 230.871475 
L 227.097512 245.096118 
L 231.571931 248.184797 
L 236.061375 260.437482 
L 240.565757 266.40704 
L 245.084992 252.414171 
L 249.618997 240.708441 
L 254.16769 238.798543 
L 258.730992 292.475985 
L 263.308817 281.805508 
L 267.90108 274.528814 
L 272.507704 269.984311 
L 277.128611 276.242818 
L 281.763716 261.56308 
L 286.412937 252.014711 
L 291.0762 257.748478 
L 295.75342 263.755204 
L 300.444523 283.491941 
L 305.149421 282.538552 
L 309.868043 268.449245 
L 314.600306 252.388419 
L 319.346134 306.134155 
L 324.105454 260.664615 
L 328.878178 269.785273 
L 333.664234 247.061251 
L 338.586886 262.287299 
L 343.52309 263.080837 
L 348.473379 267.13179 
L 353.437358 257.146121 
L 358.414642 264.452979 
L 363.405769 300.184988 
L 368.410021 266.779119 
L 373.427963 286.975171 
L 378.459178 290.315764 
L 383.50329 276.858852 
L 388.560834 274.337487 
L 393.631422 255.441677 
L 398.714652 240.098069 
L 403.811081 245.200079 
L 408.920309 249.996706 
L 414.041939 255.680405 
L 419.176523 259.263669 
L 424.323672 261.205963 
L 429.482978 253.04761 
L 434.655002 256.43823 
L 439.839029 258.992622 
L 445.035621 251.310308 
L 450.24438 259.37061 
L 455.464898 260.519947 
L 460.697743 308.435521 
L 465.942526 296.79437 
L 471.198823 289.702912 
L 476.467215 295.514793 
L 481.747308 288.303558 
L 487.038693 296.525955 
L 492.341939 294.49844 
L 497.656641 306.587914 
L 502.982398 290.808299 
L 508.319801 293.521661 
L 513.668088 275.483489 
L 519.02786 271.362528 
L 524.398715 275.43797 
L 529.780227 284.437109 
L 535.172991 311.243661 
L 540.576601 307.161873 
L 545.990647 297.13479 
L 551.415723 299.277505 
L 556.851401 257.671262 
L 562.297288 252.701967 
L 567.753984 249.377347 
L 573.220712 251.869461 
L 578.698101 266.984551 
L 584.185724 249.946924 
L 589.683165 265.560911 
L 595.19103 294.597872 
L 600.708906 288.078232 
L 606.236364 251.474832 
" style="fill:none;stroke:#ff8c00;stroke-linecap:square;stroke-width:2;"/>
   </g>
   <g id="matplotlib.axis_4">
    <g id="xtick_11">
     <g id="line2d_23">
      <g>
       <use style="stroke:#000000;stroke-width:0.8;" x="587.366451" xlink:href="#m3a9cadfd22" y="360.419375"/>
      </g>
     </g>
     <g id="text_17">
      <!-- 10.5 -->
      <g transform="translate(569.866451 381.07875)scale(0.2 -0.2)">
       <use xlink:href="#STIXGeneral-Regular-49"/>
       <use x="49.999985" xlink:href="#STIXGeneral-Regular-48"/>
       <use x="99.999969" xlink:href="#STIXGeneral-Regular-46"/>
       <use x="124.999954" xlink:href="#STIXGeneral-Regular-53"/>
      </g>
     </g>
    </g>
    <g id="xtick_12">
     <g id="line2d_24">
      <g>
       <use style="stroke:#000000;stroke-width:0.8;" x="468.961109" xlink:href="#m3a9cadfd22" y="360.419375"/>
      </g>
     </g>
     <g id="text_18">
      <!-- 11.0 -->
      <g transform="translate(451.461109 381.07875)scale(0.2 -0.2)">
       <use xlink:href="#STIXGeneral-Regular-49"/>
       <use x="49.999985" xlink:href="#STIXGeneral-Regular-49"/>
       <use x="99.999969" xlink:href="#STIXGeneral-Regular-46"/>
       <use x="124.999954" xlink:href="#STIXGeneral-Regular-48"/>
      </g>
     </g>
    </g>
    <g id="xtick_13">
     <g id="line2d_25">
      <g>
       <use style="stroke:#000000;stroke-width:0.8;" x="350.555766" xlink:href="#m3a9cadfd22" y="360.419375"/>
      </g>
     </g>
     <g id="text_19">
      <!-- 11.5 -->
      <g transform="translate(333.055766 381.07875)scale(0.2 -0.2)">
       <use xlink:href="#STIXGeneral-Regular-49"/>
       <use x="49.999985" xlink:href="#STIXGeneral-Regular-49"/>
       <use x="99.999969" xlink:href="#STIXGeneral-Regular-46"/>
       <use x="124.999954" xlink:href="#STIXGeneral-Regular-53"/>
      </g>
     </g>
    </g>
    <g id="xtick_14">
     <g id="line2d_26">
      <g>
       <use style="stroke:#000000;stroke-width:0.8;" x="232.150424" xlink:href="#m3a9cadfd22" y="360.419375"/>
      </g>
     </g>
     <g id="text_20">
      <!-- 12.0 -->
      <g transform="translate(214.650424 381.07875)scale(0.2 -0.2)">
       <use xlink:href="#STIXGeneral-Regular-49"/>
       <use x="49.999985" xlink:href="#STIXGeneral-Regular-50"/>
       <use x="99.999969" xlink:href="#STIXGeneral-Regular-46"/>
       <use x="124.999954" xlink:href="#STIXGeneral-Regular-48"/>
      </g>
     </g>
    </g>
    <g id="xtick_15">
     <g id="line2d_27">
      <g>
       <use style="stroke:#000000;stroke-width:0.8;" x="113.745082" xlink:href="#m3a9cadfd22" y="360.419375"/>
      </g>
     </g>
     <g id="text_21">
      <!-- 12.5 -->
      <g transform="translate(96.245082 381.07875)scale(0.2 -0.2)">
       <use xlink:href="#STIXGeneral-Regular-49"/>
       <use x="49.999985" xlink:href="#STIXGeneral-Regular-50"/>
       <use x="99.999969" xlink:href="#STIXGeneral-Regular-46"/>
       <use x="124.999954" xlink:href="#STIXGeneral-Regular-53"/>
      </g>
     </g>
    </g>
   </g>
   <g id="matplotlib.axis_5">
    <g id="ytick_3">
     <g id="line2d_28">
      <g>
       <use style="stroke:#000000;stroke-width:0.8;" x="73.6" xlink:href="#m60afd1f022" y="305.522271"/>
      </g>
     </g>
     <g id="text_22">
      <!-- $\mathdefault{10^{43}}$ -->
      <g transform="translate(31.2 312.351958)scale(0.2 -0.2)">
       <use transform="translate(0 0.684375)" xlink:href="#STIXGeneral-Regular-49"/>
       <use transform="translate(49.999985 0.684375)" xlink:href="#STIXGeneral-Regular-48"/>
       <use transform="translate(101.574969 36.684375)scale(0.7)" xlink:href="#STIXGeneral-Regular-52"/>
       <use transform="translate(136.574959 36.684375)scale(0.7)" xlink:href="#STIXGeneral-Regular-51"/>
      </g>
     </g>
    </g>
    <g id="ytick_4">
     <g id="line2d_29">
      <g>
       <use style="stroke:#000000;stroke-width:0.8;" x="73.6" xlink:href="#m60afd1f022" y="226.982271"/>
      </g>
     </g>
     <g id="text_23">
      <!-- $\mathdefault{10^{45}}$ -->
      <g transform="translate(31.2 233.811958)scale(0.2 -0.2)">
       <use transform="translate(0 0.842187)" xlink:href="#STIXGeneral-Regular-49"/>
       <use transform="translate(49.999985 0.842187)" xlink:href="#STIXGeneral-Regular-48"/>
       <use transform="translate(101.574969 36.842187)scale(0.7)" xlink:href="#STIXGeneral-Regular-52"/>
       <use transform="translate(136.574959 36.842187)scale(0.7)" xlink:href="#STIXGeneral-Regular-53"/>
      </g>
     </g>
    </g>
    <g id="text_24">
     <!-- $L_{\rm Ly \alpha}\ (\rm erg \ s^{-1})$ -->
     <g transform="translate(20.8 342.679375)rotate(-90)scale(0.2 -0.2)">
      <use transform="translate(0 0.223438)" xlink:href="#Cmmi10-76"/>
      <use transform="translate(68.017578 -16.782813)scale(0.7)" xlink:href="#Cmr10-76"/>
      <use transform="translate(111.767578 -16.782813)scale(0.7)" xlink:href="#Cmr10-121"/>
      <use transform="translate(148.647461 -16.782813)scale(0.7)" xlink:href="#Cmmi10-174"/>
      <use transform="translate(229.030046 0.223438)" xlink:href="#Cmr10-40"/>
      <use transform="translate(267.848405 0.223438)" xlink:href="#Cmr10-101"/>
      <use transform="translate(312.233171 0.223438)" xlink:href="#Cmr10-114"/>
      <use transform="translate(351.344499 0.223438)" xlink:href="#Cmr10-103"/>
      <use transform="translate(429.111148 0.223438)" xlink:href="#Cmr10-115"/>
      <use transform="translate(473.082945 39.373438)scale(0.7)" xlink:href="#Cmsy10-161"/>
      <use transform="translate(527.462828 39.373438)scale(0.7)" xlink:href="#Cmr10-49"/>
      <use transform="translate(568.987828 0.223438)" xlink:href="#Cmr10-41"/>
     </g>
    </g>
   </g>
   <g id="line2d_30">
    <path clip-path="url(#pfe2ecacec8)" d="M 98.963636 325.856348 
L 103.003066 353.952167 
L 107.0609 317.105454 
L 111.137036 330.821675 
L 115.231356 270.97971 
L 119.343757 305.710421 
L 123.474136 289.008537 
L 127.622387 287.112485 
L 131.788408 299.465417 
L 135.972092 303.922509 
L 140.17334 284.437933 
L 144.392049 254.355837 
L 148.628118 263.439932 
L 152.881449 296.097741 
L 157.151943 307.359204 
L 161.439498 285.934032 
L 165.744021 300.908772 
L 170.065415 302.115942 
L 174.403585 309.79432 
L 178.758426 288.399132 
L 183.129855 285.015687 
L 187.517771 270.797663 
L 191.853146 271.916687 
L 196.204315 279.251757 
L 200.571195 240.086309 
L 204.9537 277.276908 
L 209.351735 277.856623 
L 213.765222 264.754743 
L 218.194069 273.835447 
L 222.638196 259.333314 
L 227.097512 265.929892 
L 231.571931 260.105188 
L 236.061375 250.763783 
L 240.565757 256.291919 
L 245.084992 277.237797 
L 249.618997 286.086296 
L 254.16769 268.955597 
L 258.730992 276.568895 
L 263.308817 241.801266 
L 267.90108 242.336564 
L 272.507704 234.286267 
L 277.128611 274.796134 
L 281.763716 283.060371 
L 286.412937 268.307904 
L 291.0762 261.943242 
L 295.75342 248.320725 
L 300.444523 270.432928 
L 305.149421 249.573144 
L 309.868043 247.723199 
L 314.600306 271.479649 
L 319.346134 262.086179 
L 324.105454 244.459258 
L 328.878178 243.589495 
L 333.664234 269.246149 
L 338.586886 264.75574 
L 343.52309 233.779978 
L 348.473379 263.6349 
L 353.437358 265.818329 
L 358.414642 250.815206 
L 363.405769 257.438717 
L 368.410021 272.251109 
L 373.427963 258.170883 
L 378.459178 246.84238 
L 383.50329 246.075346 
L 388.560834 260.548532 
L 393.631422 234.409499 
L 398.714652 254.386125 
L 403.811081 256.147581 
L 408.920309 229.753318 
L 414.041939 263.108956 
L 419.176523 262.993819 
L 424.323672 254.977364 
L 429.482978 247.408633 
L 434.655002 255.214548 
L 439.839029 235.332808 
L 445.035621 236.709312 
L 450.24438 239.185068 
L 455.464898 252.304509 
L 460.697743 257.557273 
L 465.942526 250.346297 
L 471.198823 255.074189 
L 476.467215 232.70031 
L 481.747308 251.045898 
L 487.038693 238.695515 
L 492.341939 237.185236 
L 497.656641 256.850488 
L 502.982398 247.345784 
L 508.319801 256.635627 
L 513.668088 240.690077 
L 519.02786 256.390928 
L 524.398715 255.116932 
L 529.780227 248.263484 
L 535.172991 253.23264 
L 540.576601 252.073499 
L 545.990647 256.582435 
L 551.415723 259.66963 
L 556.851401 256.458872 
L 562.297288 261.987634 
L 567.753984 265.331933 
L 573.220712 265.271664 
L 578.698101 257.968671 
L 584.185724 250.502982 
L 589.683165 250.908457 
L 595.19103 257.40122 
L 600.708906 241.477697 
L 606.236364 254.625181 
" style="fill:none;stroke:#440154;stroke-linecap:square;stroke-opacity:0.5;stroke-width:2;"/>
   </g>
   <g id="patch_13">
    <path d="M 73.6 360.419375 
L 73.6 203.339375 
" style="fill:none;stroke:#000000;stroke-linecap:square;stroke-linejoin:miter;stroke-width:0.8;"/>
   </g>
   <g id="patch_14">
    <path d="M 631.6 360.419375 
L 631.6 203.339375 
" style="fill:none;stroke:#000000;stroke-linecap:square;stroke-linejoin:miter;stroke-width:0.8;"/>
   </g>
   <g id="patch_15">
    <path d="M 73.6 360.419375 
L 631.6 360.419375 
" style="fill:none;stroke:#000000;stroke-linecap:square;stroke-linejoin:miter;stroke-width:0.8;"/>
   </g>
   <g id="patch_16">
    <path d="M 73.6 203.339375 
L 631.6 203.339375 
" style="fill:none;stroke:#000000;stroke-linecap:square;stroke-linejoin:miter;stroke-width:0.8;"/>
   </g>
   <g id="line2d_31">
    <path clip-path="url(#pfe2ecacec8)" d="M 98.963636 349.965183 
L 103.003066 363.295725 
L 107.0609 324.457884 
L 111.137036 336.439318 
L 115.231356 294.516045 
L 119.343757 319.63744 
L 123.474136 301.110118 
L 127.622387 298.054803 
L 131.788408 310.97321 
L 135.972092 312.43272 
L 140.17334 295.826688 
L 144.392049 276.068968 
L 148.628118 280.854883 
L 152.881449 304.809113 
L 157.151943 316.508221 
L 161.439498 306.266773 
L 165.744021 312.780901 
L 170.065415 309.039 
L 174.403585 318.67006 
L 178.758426 301.237006 
L 183.129855 301.39435 
L 187.517771 288.010514 
L 191.853146 287.822556 
L 196.204315 291.647124 
L 200.571195 253.133982 
L 204.9537 291.585342 
L 209.351735 288.995869 
L 213.765222 278.787102 
L 218.194069 285.979772 
L 222.638196 275.610762 
L 227.097512 281.864802 
L 231.571931 277.013043 
L 236.061375 267.680669 
L 240.565757 274.918604 
L 245.084992 290.57139 
L 249.618997 295.736288 
L 254.16769 279.019653 
L 258.730992 287.915673 
L 263.308817 254.967036 
L 267.90108 257.81662 
L 272.507704 255.679482 
L 277.128611 288.226022 
L 281.763716 296.491103 
L 286.412937 289.477799 
L 291.0762 281.209901 
L 295.75342 268.710701 
L 300.444523 288.225099 
L 305.149421 265.263689 
L 309.868043 264.70325 
L 314.600306 286.562695 
L 319.346134 278.106592 
L 324.105454 266.399082 
L 328.878178 263.251452 
L 333.664234 282.790516 
L 338.586886 281.592835 
L 343.52309 256.163396 
L 348.473379 282.495563 
L 353.437358 283.858882 
L 358.414642 271.01704 
L 363.405769 278.92566 
L 368.410021 288.876404 
L 373.427963 277.537117 
L 378.459178 269.199206 
L 383.50329 265.062908 
L 388.560834 278.480612 
L 393.631422 254.646441 
L 398.714652 275.04943 
L 403.811081 277.177013 
L 408.920309 254.331602 
L 414.041939 283.842314 
L 419.176523 287.716995 
L 424.323672 283.103612 
L 429.482978 273.565122 
L 434.655002 277.839321 
L 439.839029 261.926372 
L 445.035621 258.25935 
L 450.24438 260.074214 
L 455.464898 273.588131 
L 460.697743 277.974941 
L 465.942526 274.827675 
L 471.198823 277.897729 
L 476.467215 263.730066 
L 481.747308 277.496925 
L 487.038693 266.681569 
L 492.341939 265.766694 
L 497.656641 281.87787 
L 502.982398 278.189562 
L 508.319801 281.661655 
L 513.668088 271.963221 
L 519.02786 285.272083 
L 524.398715 285.9418 
L 529.780227 281.010066 
L 535.172991 283.658621 
L 540.576601 283.688634 
L 545.990647 287.196591 
L 551.415723 290.717827 
L 556.851401 287.903094 
L 562.297288 290.66729 
L 567.753984 290.919347 
L 573.220712 291.383104 
L 578.698101 285.174004 
L 584.185724 280.67063 
L 589.683165 283.623939 
L 595.19103 276.647878 
L 600.708906 263.016397 
L 606.236364 271.670891 
" style="fill:none;stroke:#440154;stroke-linecap:square;stroke-width:2;"/>
   </g>
  </g>
  <g id="axes_4">
   <g id="patch_17">
    <path d="M 73.6 517.499375 
L 631.6 517.499375 
L 631.6 360.419375 
L 73.6 360.419375 
z
" style="fill:#ffffff;"/>
   </g>
   <g id="line2d_32">
    <path clip-path="url(#p1dcb4e4f72)" d="M 98.963636 373.255883 
L 103.003066 373.620291 
L 107.0609 368.524526 
L 111.137036 372.298932 
L 115.231356 372.471307 
L 119.343757 374.550267 
L 123.474136 373.521257 
L 127.622387 378.536794 
L 131.788408 383.168962 
L 135.972092 379.419273 
L 140.17334 372.770037 
L 144.392049 391.379184 
L 148.628118 395.563143 
L 152.881449 402.164971 
L 157.151943 392.5111 
L 161.439498 391.550047 
L 165.744021 391.054516 
L 170.065415 398.357921 
L 174.403585 413.13817 
L 178.758426 421.367506 
L 183.129855 400.429006 
L 187.517771 401.578746 
L 191.853146 407.60172 
L 196.204315 408.589373 
L 200.571195 421.799012 
L 204.9537 415.767225 
L 209.351735 399.089088 
L 213.765222 418.780473 
L 218.194069 420.367176 
L 222.638196 409.109681 
L 227.097512 413.607778 
L 231.571931 417.419777 
L 236.061375 411.160169 
L 240.565757 414.733242 
L 245.084992 409.125494 
L 249.618997 416.903108 
L 254.16769 417.105637 
L 258.730992 404.201391 
L 263.308817 394.428739 
L 267.90108 391.834639 
L 272.507704 385.362251 
L 277.128611 390.364118 
L 281.763716 389.482069 
L 286.412937 388.59093 
L 291.0762 407.167477 
L 295.75342 416.060213 
L 300.444523 411.842169 
L 305.149421 407.324422 
L 309.868043 405.591418 
L 314.600306 426.530667 
L 319.346134 416.034696 
L 324.105454 425.827185 
L 328.878178 420.629193 
L 333.664234 425.986251 
L 338.586886 445.690723 
L 343.52309 430.357678 
L 348.473379 446.172617 
L 353.437358 460.313458 
L 358.414642 439.868579 
L 363.405769 431.624433 
L 368.410021 435.919352 
L 373.427963 428.922621 
L 378.459178 433.380779 
L 383.50329 426.599053 
L 388.560834 417.993729 
L 393.631422 433.647158 
L 398.714652 415.311545 
L 403.811081 418.186271 
L 408.920309 410.73942 
L 414.041939 410.927102 
L 419.176523 407.249036 
L 424.323672 420.995115 
L 429.482978 400.454056 
L 434.655002 406.612771 
L 439.839029 407.777803 
L 445.035621 413.25653 
L 450.24438 427.127412 
L 455.464898 421.751314 
L 460.697743 421.999139 
L 465.942526 421.363209 
L 471.198823 424.459893 
L 476.467215 412.827682 
L 481.747308 427.960726 
L 487.038693 432.094744 
L 492.341939 436.00974 
L 497.656641 436.252536 
L 502.982398 415.429493 
L 508.319801 415.284045 
L 513.668088 419.073042 
L 519.02786 418.79696 
L 524.398715 418.812093 
L 529.780227 424.399968 
L 535.172991 428.914006 
L 540.576601 415.929269 
L 545.990647 417.106917 
L 551.415723 425.809224 
L 556.851401 426.893446 
L 562.297288 431.240981 
L 567.753984 408.825793 
L 573.220712 401.567401 
L 578.698101 412.884808 
L 584.185724 413.526633 
L 589.683165 411.594374 
L 595.19103 448.151187 
L 600.708906 422.017954 
L 606.236364 429.150575 
" style="fill:none;stroke:#ff8c00;stroke-linecap:square;stroke-opacity:0.5;stroke-width:2;"/>
   </g>
   <g id="line2d_33">
    <path clip-path="url(#p1dcb4e4f72)" d="M 98.963636 374.354031 
L 103.003066 375.558366 
L 107.0609 369.922409 
L 111.137036 373.378951 
L 115.231356 376.208946 
L 119.343757 378.965332 
L 123.474136 375.696191 
L 127.622387 380.094957 
L 131.788408 385.250871 
L 135.972092 381.989244 
L 140.17334 374.327437 
L 144.392049 393.66226 
L 148.628118 401.435662 
L 152.881449 411.542624 
L 157.151943 395.375127 
L 161.439498 393.058213 
L 165.744021 393.9918 
L 170.065415 401.235484 
L 174.403585 414.772215 
L 178.758426 423.599733 
L 183.129855 403.10633 
L 187.517771 404.116636 
L 191.853146 409.481112 
L 196.204315 409.460135 
L 200.571195 423.457976 
L 204.9537 418.200255 
L 209.351735 405.471214 
L 213.765222 420.696972 
L 218.194069 422.262857 
L 222.638196 409.507822 
L 227.097512 415.243408 
L 231.571931 418.348397 
L 236.061375 414.069847 
L 240.565757 424.679193 
L 245.084992 410.975568 
L 249.618997 418.05446 
L 254.16769 418.033464 
L 258.730992 405.692493 
L 263.308817 395.749209 
L 267.90108 393.10009 
L 272.507704 387.021793 
L 277.128611 391.364408 
L 281.763716 391.218651 
L 286.412937 390.504384 
L 291.0762 408.20297 
L 295.75342 417.516606 
L 300.444523 413.144944 
L 305.149421 408.811663 
L 309.868043 410.335106 
L 314.600306 428.183389 
L 319.346134 420.666408 
L 324.105454 434.601396 
L 328.878178 436.029936 
L 333.664234 433.224073 
L 338.586886 451.308702 
L 343.52309 457.934267 
L 348.473379 454.715684 
L 353.437358 464.828234 
L 358.414642 442.468632 
L 363.405769 438.732744 
L 368.410021 440.43931 
L 373.427963 436.989983 
L 378.459178 440.349717 
L 383.50329 429.537483 
L 388.560834 428.856344 
L 393.631422 437.723509 
L 398.714652 417.815729 
L 403.811081 422.197702 
L 408.920309 418.553655 
L 414.041939 419.196301 
L 419.176523 409.336461 
L 424.323672 428.998717 
L 429.482978 421.491088 
L 434.655002 409.460386 
L 439.839029 424.577723 
L 445.035621 433.594652 
L 450.24438 436.680217 
L 455.464898 431.954569 
L 460.697743 422.645181 
L 465.942526 430.640373 
L 471.198823 433.747456 
L 476.467215 420.358345 
L 481.747308 432.935182 
L 487.038693 439.032496 
L 492.341939 440.209388 
L 497.656641 441.606982 
L 502.982398 434.394803 
L 508.319801 423.655614 
L 513.668088 420.31368 
L 519.02786 428.911547 
L 524.398715 437.474218 
L 529.780227 426.745667 
L 535.172991 433.673136 
L 540.576601 432.925813 
L 545.990647 443.608849 
L 551.415723 444.024187 
L 556.851401 442.148391 
L 562.297288 439.72751 
L 567.753984 428.718917 
L 573.220712 416.22182 
L 578.698101 415.839545 
L 584.185724 424.11912 
L 589.683165 424.839315 
L 595.19103 452.219987 
L 600.708906 430.770656 
L 606.236364 430.371919 
" style="fill:none;stroke:#ff8c00;stroke-linecap:square;stroke-width:2;"/>
   </g>
   <g id="matplotlib.axis_6">
    <g id="xtick_16">
     <g id="line2d_34">
      <g>
       <use style="stroke:#000000;stroke-width:0.8;" x="587.366451" xlink:href="#m3a9cadfd22" y="517.499375"/>
      </g>
     </g>
     <g id="text_25">
      <!-- 10.5 -->
      <g transform="translate(569.866451 538.15875)scale(0.2 -0.2)">
       <use xlink:href="#STIXGeneral-Regular-49"/>
       <use x="49.999985" xlink:href="#STIXGeneral-Regular-48"/>
       <use x="99.999969" xlink:href="#STIXGeneral-Regular-46"/>
       <use x="124.999954" xlink:href="#STIXGeneral-Regular-53"/>
      </g>
     </g>
    </g>
    <g id="xtick_17">
     <g id="line2d_35">
      <g>
       <use style="stroke:#000000;stroke-width:0.8;" x="468.961109" xlink:href="#m3a9cadfd22" y="517.499375"/>
      </g>
     </g>
     <g id="text_26">
      <!-- 11.0 -->
      <g transform="translate(451.461109 538.15875)scale(0.2 -0.2)">
       <use xlink:href="#STIXGeneral-Regular-49"/>
       <use x="49.999985" xlink:href="#STIXGeneral-Regular-49"/>
       <use x="99.999969" xlink:href="#STIXGeneral-Regular-46"/>
       <use x="124.999954" xlink:href="#STIXGeneral-Regular-48"/>
      </g>
     </g>
    </g>
    <g id="xtick_18">
     <g id="line2d_36">
      <g>
       <use style="stroke:#000000;stroke-width:0.8;" x="350.555766" xlink:href="#m3a9cadfd22" y="517.499375"/>
      </g>
     </g>
     <g id="text_27">
      <!-- 11.5 -->
      <g transform="translate(333.055766 538.15875)scale(0.2 -0.2)">
       <use xlink:href="#STIXGeneral-Regular-49"/>
       <use x="49.999985" xlink:href="#STIXGeneral-Regular-49"/>
       <use x="99.999969" xlink:href="#STIXGeneral-Regular-46"/>
       <use x="124.999954" xlink:href="#STIXGeneral-Regular-53"/>
      </g>
     </g>
    </g>
    <g id="xtick_19">
     <g id="line2d_37">
      <g>
       <use style="stroke:#000000;stroke-width:0.8;" x="232.150424" xlink:href="#m3a9cadfd22" y="517.499375"/>
      </g>
     </g>
     <g id="text_28">
      <!-- 12.0 -->
      <g transform="translate(214.650424 538.15875)scale(0.2 -0.2)">
       <use xlink:href="#STIXGeneral-Regular-49"/>
       <use x="49.999985" xlink:href="#STIXGeneral-Regular-50"/>
       <use x="99.999969" xlink:href="#STIXGeneral-Regular-46"/>
       <use x="124.999954" xlink:href="#STIXGeneral-Regular-48"/>
      </g>
     </g>
    </g>
    <g id="xtick_20">
     <g id="line2d_38">
      <g>
       <use style="stroke:#000000;stroke-width:0.8;" x="113.745082" xlink:href="#m3a9cadfd22" y="517.499375"/>
      </g>
     </g>
     <g id="text_29">
      <!-- 12.5 -->
      <g transform="translate(96.245082 538.15875)scale(0.2 -0.2)">
       <use xlink:href="#STIXGeneral-Regular-49"/>
       <use x="49.999985" xlink:href="#STIXGeneral-Regular-50"/>
       <use x="99.999969" xlink:href="#STIXGeneral-Regular-46"/>
       <use x="124.999954" xlink:href="#STIXGeneral-Regular-53"/>
      </g>
     </g>
    </g>
    <g id="text_30">
     <!-- $t_{\rm lookback}\ \left(\rm Gyr \right)$ -->
     <defs>
      <path d="M 6.203125 8.109375 
Q 6.203125 9.578125 6.5 10.890625 
L 13.71875 39.59375 
L 3.21875 39.59375 
Q 2.203125 39.59375 2.203125 40.921875 
Q 2.59375 43.109375 3.515625 43.109375 
L 14.59375 43.109375 
L 18.609375 59.421875 
Q 19 60.75 20.171875 61.671875 
Q 21.34375 62.59375 22.796875 62.59375 
Q 24.078125 62.59375 24.921875 61.828125 
Q 25.78125 61.078125 25.78125 59.8125 
Q 25.78125 59.515625 25.75 59.34375 
Q 25.734375 59.1875 25.6875 58.984375 
L 21.6875 43.109375 
L 31.984375 43.109375 
Q 33.015625 43.109375 33.015625 41.796875 
Q 32.953125 41.546875 32.8125 40.953125 
Q 32.671875 40.375 32.421875 39.984375 
Q 32.171875 39.59375 31.6875 39.59375 
L 20.796875 39.59375 
L 13.625 10.6875 
Q 12.890625 7.859375 12.890625 5.8125 
Q 12.890625 1.515625 15.828125 1.515625 
Q 20.21875 1.515625 23.609375 5.640625 
Q 27 9.765625 28.8125 14.703125 
Q 29.203125 15.28125 29.59375 15.28125 
L 30.8125 15.28125 
Q 31.203125 15.28125 31.4375 15.015625 
Q 31.6875 14.75 31.6875 14.40625 
Q 31.6875 14.203125 31.59375 14.109375 
Q 29.390625 8.0625 25.1875 3.46875 
Q 21 -1.125 15.578125 -1.125 
Q 11.625 -1.125 8.90625 1.453125 
Q 6.203125 4.046875 6.203125 8.109375 
z
" id="Cmmi10-116"/>
      <path d="M 2.59375 0 
L 2.59375 3.515625 
Q 6 3.515625 8.203125 4.046875 
Q 10.40625 4.59375 10.40625 6.6875 
L 10.40625 59.1875 
Q 10.40625 61.859375 9.59375 63.0625 
Q 8.796875 64.265625 7.28125 64.53125 
Q 5.765625 64.796875 2.59375 64.796875 
L 2.59375 68.3125 
L 17.390625 69.390625 
L 17.390625 21.921875 
L 30.8125 33.6875 
Q 32.8125 35.59375 32.8125 37.203125 
Q 32.8125 38.375 31.984375 38.984375 
Q 31.15625 39.59375 29.984375 39.59375 
L 29.984375 43.109375 
L 48.78125 43.109375 
L 48.78125 39.59375 
Q 42 39.59375 35.203125 33.6875 
L 28.078125 27.484375 
L 40.828125 9.421875 
Q 43.453125 5.671875 45.234375 4.59375 
Q 47.015625 3.515625 51.125 3.515625 
L 51.125 0 
L 31.203125 0 
L 31.203125 3.515625 
Q 34.625 3.515625 34.625 5.609375 
Q 34.625 7.125 32.8125 9.421875 
L 23.1875 23.09375 
L 17.09375 17.828125 
L 17.09375 6.6875 
Q 17.09375 4.59375 19.3125 4.046875 
Q 21.53125 3.515625 24.90625 3.515625 
L 24.90625 0 
z
" id="Cmr10-107"/>
      <path d="M 10.40625 0 
L 10.40625 59.1875 
Q 10.40625 61.859375 9.59375 63.0625 
Q 8.796875 64.265625 7.28125 64.53125 
Q 5.765625 64.796875 2.59375 64.796875 
L 2.59375 68.3125 
L 17.390625 69.390625 
L 17.390625 38.09375 
Q 19.046875 39.9375 21.265625 41.328125 
Q 23.484375 42.71875 26.015625 43.453125 
Q 28.5625 44.1875 31.203125 44.1875 
Q 35.6875 44.1875 39.515625 42.375 
Q 43.359375 40.578125 46.1875 37.40625 
Q 49.03125 34.234375 50.609375 30.109375 
Q 52.203125 25.984375 52.203125 21.578125 
Q 52.203125 15.53125 49.25 10.296875 
Q 46.296875 5.078125 41.1875 1.96875 
Q 36.078125 -1.125 29.984375 -1.125 
Q 26.171875 -1.125 22.609375 0.828125 
Q 19.046875 2.78125 16.703125 6 
L 13.28125 0 
z
M 17.671875 9.8125 
Q 19.34375 6.15625 22.46875 3.828125 
Q 25.59375 1.515625 29.390625 1.515625 
Q 34.578125 1.515625 37.765625 4.484375 
Q 40.96875 7.46875 42.234375 12 
Q 43.5 16.546875 43.5 21.578125 
Q 43.5 30.03125 41.3125 34.421875 
Q 40.328125 36.375 38.640625 38.03125 
Q 36.96875 39.703125 34.890625 40.65625 
Q 32.8125 41.609375 30.515625 41.609375 
Q 26.515625 41.609375 23.09375 39.484375 
Q 19.671875 37.359375 17.671875 33.796875 
z
" id="Cmr10-98"/>
      <path d="M 4 9.8125 
Q 4 15.765625 8.6875 19.5 
Q 13.375 23.25 19.9375 24.78125 
Q 26.515625 26.3125 32.421875 26.3125 
L 32.421875 30.421875 
Q 32.421875 33.296875 31.15625 36 
Q 29.890625 38.71875 27.484375 40.453125 
Q 25.09375 42.1875 22.21875 42.1875 
Q 15.578125 42.1875 12.109375 39.203125 
Q 14.015625 39.203125 15.25 37.765625 
Q 16.5 36.328125 16.5 34.421875 
Q 16.5 32.421875 15.078125 31 
Q 13.671875 29.59375 11.71875 29.59375 
Q 9.71875 29.59375 8.296875 31 
Q 6.890625 32.421875 6.890625 34.421875 
Q 6.890625 39.703125 11.671875 42.265625 
Q 16.453125 44.828125 22.21875 44.828125 
Q 26.265625 44.828125 30.359375 43.09375 
Q 34.46875 41.359375 37.078125 38.125 
Q 39.703125 34.90625 39.703125 30.609375 
L 39.703125 8.109375 
Q 39.703125 6.15625 40.53125 4.515625 
Q 41.359375 2.875 43.109375 2.875 
Q 44.78125 2.875 45.578125 4.53125 
Q 46.390625 6.203125 46.390625 8.109375 
L 46.390625 14.5 
L 49.3125 14.5 
L 49.3125 8.109375 
Q 49.3125 5.859375 48.140625 3.828125 
Q 46.96875 1.8125 44.984375 0.609375 
Q 43.015625 -0.59375 40.71875 -0.59375 
Q 37.796875 -0.59375 35.671875 1.671875 
Q 33.546875 3.953125 33.296875 7.078125 
Q 31.453125 3.328125 27.828125 1.09375 
Q 24.21875 -1.125 20.125 -1.125 
Q 16.3125 -1.125 12.625 0 
Q 8.9375 1.125 6.46875 3.53125 
Q 4 5.953125 4 9.8125 
z
M 12.109375 9.8125 
Q 12.109375 6.296875 14.6875 3.90625 
Q 17.28125 1.515625 20.796875 1.515625 
Q 24.03125 1.515625 26.65625 3.125 
Q 29.296875 4.734375 30.859375 7.515625 
Q 32.421875 10.296875 32.421875 13.375 
L 32.421875 23.78125 
Q 27.875 23.78125 23.109375 22.28125 
Q 18.359375 20.796875 15.234375 17.625 
Q 12.109375 14.453125 12.109375 9.8125 
z
" id="Cmr10-97"/>
      <path d="M 23 10.6875 
Q 26.609375 6.296875 31.8125 3.796875 
Q 37.015625 1.3125 42.671875 1.3125 
Q 48.25 1.3125 52.78125 4.140625 
Q 57.328125 6.984375 57.328125 12.203125 
L 57.328125 20.609375 
Q 57.328125 23.78125 44.828125 23.78125 
L 44.828125 27.296875 
L 73.484375 27.296875 
L 73.484375 23.78125 
Q 70.3125 23.78125 68.453125 23.234375 
Q 66.609375 22.703125 66.609375 20.609375 
L 66.609375 0.875 
Q 66.609375 0.53125 66.328125 0.265625 
Q 66.0625 0 65.71875 0 
Q 64.796875 0 62.625 2.1875 
Q 60.453125 4.390625 59.1875 6.109375 
Q 56.734375 1.90625 51.515625 -0.140625 
Q 46.296875 -2.203125 40.578125 -2.203125 
Q 30.859375 -2.203125 22.875 2.796875 
Q 14.890625 7.8125 10.25 16.1875 
Q 5.609375 24.5625 5.609375 34.1875 
Q 5.609375 41.265625 8.296875 47.953125 
Q 10.984375 54.640625 15.796875 59.71875 
Q 20.609375 64.796875 27 67.65625 
Q 33.40625 70.515625 40.578125 70.515625 
Q 45.75 70.515625 50.359375 68.28125 
Q 54.984375 66.0625 58.59375 62.015625 
L 64.40625 70.21875 
Q 64.984375 70.515625 65.09375 70.515625 
L 65.828125 70.515625 
Q 66.109375 70.515625 66.359375 70.265625 
Q 66.609375 70.015625 66.609375 69.671875 
L 66.609375 42.671875 
Q 66.609375 41.796875 65.828125 41.796875 
L 64.015625 41.796875 
Q 63.09375 41.796875 63.09375 42.671875 
Q 63.09375 45.5625 61.9375 49.125 
Q 60.796875 52.6875 59.015625 55.875 
Q 57.234375 59.078125 54.890625 61.53125 
Q 49.265625 67 42 67 
Q 36.421875 67 31.34375 64.5 
Q 26.265625 62.015625 22.796875 57.625 
Q 19.140625 52.9375 17.71875 46.953125 
Q 16.3125 40.96875 16.3125 34.1875 
Q 16.3125 18.84375 23 10.6875 
z
" id="Cmr10-71"/>
     </defs>
     <g transform="translate(294.5 560.55875)scale(0.2 -0.2)">
      <use transform="translate(0 0.46875)" xlink:href="#Cmmi10-116"/>
      <use transform="translate(36.083984 -16.5375)scale(0.7)" xlink:href="#Cmr10-108"/>
      <use transform="translate(55.463867 -16.5375)scale(0.7)" xlink:href="#Cmr10-111"/>
      <use transform="translate(90.463867 -16.5375)scale(0.7)" xlink:href="#Cmr10-111"/>
      <use transform="translate(125.463867 -16.5375)scale(0.7)" xlink:href="#Cmr10-107"/>
      <use transform="translate(162.34375 -16.5375)scale(0.7)" xlink:href="#Cmr10-98"/>
      <use transform="translate(201.206055 -16.5375)scale(0.7)" xlink:href="#Cmr10-97"/>
      <use transform="translate(236.206055 -16.5375)scale(0.7)" xlink:href="#Cmr10-99"/>
      <use transform="translate(267.275391 -16.5375)scale(0.7)" xlink:href="#Cmr10-107"/>
      <use transform="translate(339.796647 2.71875)scale(0.910312)" xlink:href="#Cmr10-40"/>
      <use transform="translate(375.133485 0.46875)" xlink:href="#Cmr10-71"/>
      <use transform="translate(453.551454 0.46875)" xlink:href="#Cmr10-121"/>
      <use transform="translate(506.237001 0.46875)" xlink:href="#Cmr10-114"/>
      <use transform="translate(545.348329 2.71875)scale(0.910312)" xlink:href="#Cmr10-41"/>
     </g>
    </g>
   </g>
   <g id="matplotlib.axis_7">
    <g id="ytick_5">
     <g id="line2d_39">
      <g>
       <use style="stroke:#000000;stroke-width:0.8;" x="73.6" xlink:href="#m60afd1f022" y="462.602271"/>
      </g>
     </g>
     <g id="text_31">
      <!-- $\mathdefault{10^{43}}$ -->
      <g transform="translate(31.2 469.431958)scale(0.2 -0.2)">
       <use transform="translate(0 0.684375)" xlink:href="#STIXGeneral-Regular-49"/>
       <use transform="translate(49.999985 0.684375)" xlink:href="#STIXGeneral-Regular-48"/>
       <use transform="translate(101.574969 36.684375)scale(0.7)" xlink:href="#STIXGeneral-Regular-52"/>
       <use transform="translate(136.574959 36.684375)scale(0.7)" xlink:href="#STIXGeneral-Regular-51"/>
      </g>
     </g>
    </g>
    <g id="ytick_6">
     <g id="line2d_40">
      <g>
       <use style="stroke:#000000;stroke-width:0.8;" x="73.6" xlink:href="#m60afd1f022" y="384.062271"/>
      </g>
     </g>
     <g id="text_32">
      <!-- $\mathdefault{10^{45}}$ -->
      <g transform="translate(31.2 390.891958)scale(0.2 -0.2)">
       <use transform="translate(0 0.842187)" xlink:href="#STIXGeneral-Regular-49"/>
       <use transform="translate(49.999985 0.842187)" xlink:href="#STIXGeneral-Regular-48"/>
       <use transform="translate(101.574969 36.842187)scale(0.7)" xlink:href="#STIXGeneral-Regular-52"/>
       <use transform="translate(136.574959 36.842187)scale(0.7)" xlink:href="#STIXGeneral-Regular-53"/>
      </g>
     </g>
    </g>
    <g id="text_33">
     <!-- $L_{\rm Ly \alpha}\ (\rm erg \ s^{-1})$ -->
     <g transform="translate(20.8 499.759375)rotate(-90)scale(0.2 -0.2)">
      <use transform="translate(0 0.223438)" xlink:href="#Cmmi10-76"/>
      <use transform="translate(68.017578 -16.782813)scale(0.7)" xlink:href="#Cmr10-76"/>
      <use transform="translate(111.767578 -16.782813)scale(0.7)" xlink:href="#Cmr10-121"/>
      <use transform="translate(148.647461 -16.782813)scale(0.7)" xlink:href="#Cmmi10-174"/>
      <use transform="translate(229.030046 0.223438)" xlink:href="#Cmr10-40"/>
      <use transform="translate(267.848405 0.223438)" xlink:href="#Cmr10-101"/>
      <use transform="translate(312.233171 0.223438)" xlink:href="#Cmr10-114"/>
      <use transform="translate(351.344499 0.223438)" xlink:href="#Cmr10-103"/>
      <use transform="translate(429.111148 0.223438)" xlink:href="#Cmr10-115"/>
      <use transform="translate(473.082945 39.373438)scale(0.7)" xlink:href="#Cmsy10-161"/>
      <use transform="translate(527.462828 39.373438)scale(0.7)" xlink:href="#Cmr10-49"/>
      <use transform="translate(568.987828 0.223438)" xlink:href="#Cmr10-41"/>
     </g>
    </g>
   </g>
   <g id="line2d_41">
    <path clip-path="url(#p1dcb4e4f72)" d="M 98.963636 447.530694 
L 103.003066 474.709115 
L 107.0609 482.677809 
L 111.137036 456.299977 
L 115.231356 404.649168 
L 119.343757 428.40815 
L 123.474136 463.609286 
L 127.622387 455.454237 
L 131.788408 470.383633 
L 135.972092 470.190179 
L 140.17334 471.248605 
L 144.392049 435.301605 
L 148.628118 402.511362 
L 152.881449 434.960482 
L 157.151943 461.958238 
L 161.439498 466.49413 
L 165.744021 463.947716 
L 170.065415 443.192299 
L 174.403585 431.089349 
L 178.758426 436.298924 
L 183.129855 474.657117 
L 187.517771 463.194338 
L 191.853146 480.451629 
L 196.204315 410.535422 
L 200.571195 444.175325 
L 204.9537 442.965059 
L 209.351735 471.34955 
L 213.765222 452.21728 
L 218.194069 456.13973 
L 222.638196 405.476957 
L 227.097512 439.088508 
L 231.571931 410.695619 
L 236.061375 466.892485 
L 240.565757 464.378021 
L 245.084992 444.984824 
L 249.618997 412.994585 
L 254.16769 425.269193 
L 258.730992 443.510849 
L 263.308817 411.829332 
L 267.90108 438.446743 
L 272.507704 428.732394 
L 277.128611 411.931533 
L 281.763716 434.153492 
L 286.412937 431.591805 
L 291.0762 423.652719 
L 295.75342 418.325969 
L 300.444523 442.010758 
L 305.149421 442.96537 
L 309.868043 404.161587 
L 314.600306 420.960017 
L 319.346134 415.480493 
L 324.105454 411.710984 
L 328.878178 430.567097 
L 333.664234 429.04522 
L 338.586886 420.42489 
L 343.52309 428.79544 
L 348.473379 411.16404 
L 353.437358 420.306085 
L 358.414642 424.884926 
L 363.405769 440.692071 
L 368.410021 419.403697 
L 373.427963 439.925661 
L 378.459178 441.477777 
L 383.50329 429.263366 
L 388.560834 425.407626 
L 393.631422 413.875745 
L 398.714652 435.177477 
L 403.811081 442.002701 
L 408.920309 413.906996 
L 414.041939 424.953291 
L 419.176523 432.351219 
L 424.323672 432.097235 
L 429.482978 411.917017 
L 434.655002 431.172405 
L 439.839029 437.616157 
L 445.035621 424.911662 
L 450.24438 426.502304 
L 455.464898 426.687708 
L 460.697743 428.409779 
L 465.942526 430.976219 
L 471.198823 407.205307 
L 476.467215 421.465048 
L 481.747308 440.323047 
L 487.038693 425.083106 
L 492.341939 433.753161 
L 497.656641 436.399018 
L 502.982398 420.325104 
L 508.319801 419.397494 
L 513.668088 419.508329 
L 519.02786 436.26863 
L 524.398715 441.309005 
L 529.780227 407.107998 
L 535.172991 424.861763 
L 540.576601 428.735342 
L 545.990647 422.853239 
L 551.415723 430.085923 
L 556.851401 426.177011 
L 562.297288 427.125111 
L 567.753984 421.543003 
L 573.220712 417.574196 
L 578.698101 424.850581 
L 584.185724 436.50132 
L 589.683165 421.454562 
L 595.19103 418.340795 
L 600.708906 432.28891 
L 606.236364 431.929371 
" style="fill:none;stroke:#440154;stroke-linecap:square;stroke-opacity:0.5;stroke-width:2;"/>
   </g>
   <g id="patch_18">
    <path d="M 73.6 517.499375 
L 73.6 360.419375 
" style="fill:none;stroke:#000000;stroke-linecap:square;stroke-linejoin:miter;stroke-width:0.8;"/>
   </g>
   <g id="patch_19">
    <path d="M 631.6 517.499375 
L 631.6 360.419375 
" style="fill:none;stroke:#000000;stroke-linecap:square;stroke-linejoin:miter;stroke-width:0.8;"/>
   </g>
   <g id="patch_20">
    <path d="M 73.6 517.499375 
L 631.6 517.499375 
" style="fill:none;stroke:#000000;stroke-linecap:square;stroke-linejoin:miter;stroke-width:0.8;"/>
   </g>
   <g id="patch_21">
    <path d="M 73.6 360.419375 
L 631.6 360.419375 
" style="fill:none;stroke:#000000;stroke-linecap:square;stroke-linejoin:miter;stroke-width:0.8;"/>
   </g>
   <g id="line2d_42">
    <path clip-path="url(#p1dcb4e4f72)" d="M 98.963636 460.929798 
L 103.003066 479.520502 
L 107.0609 485.730926 
L 111.137036 465.998393 
L 115.231356 424.450151 
L 119.343757 448.196575 
L 123.474136 474.569558 
L 127.622387 464.885316 
L 131.788408 480.326869 
L 135.972092 481.850713 
L 140.17334 481.873229 
L 144.392049 452.062261 
L 148.628118 429.918957 
L 152.881449 450.57867 
L 157.151943 471.604711 
L 161.439498 477.543561 
L 165.744021 477.421724 
L 170.065415 467.40231 
L 174.403585 451.317216 
L 178.758426 457.237951 
L 183.129855 484.146071 
L 187.517771 477.315557 
L 191.853146 491.152523 
L 196.204315 434.020883 
L 200.571195 462.30393 
L 204.9537 457.693388 
L 209.351735 480.986426 
L 213.765222 468.722031 
L 218.194069 471.074096 
L 222.638196 426.701446 
L 227.097512 455.614502 
L 231.571931 427.578005 
L 236.061375 477.973135 
L 240.565757 475.080265 
L 245.084992 464.640531 
L 249.618997 437.519947 
L 254.16769 444.645875 
L 258.730992 459.075508 
L 263.308817 437.794422 
L 267.90108 455.111164 
L 272.507704 446.126605 
L 277.128611 431.786317 
L 281.763716 456.935714 
L 286.412937 450.364217 
L 291.0762 443.404121 
L 295.75342 438.142591 
L 300.444523 457.46753 
L 305.149421 461.860378 
L 309.868043 425.019565 
L 314.600306 439.440617 
L 319.346134 433.726767 
L 324.105454 432.311414 
L 328.878178 448.535385 
L 333.664234 448.200943 
L 338.586886 441.527743 
L 343.52309 449.576218 
L 348.473379 430.380788 
L 353.437358 442.580331 
L 358.414642 445.190457 
L 363.405769 461.163145 
L 368.410021 439.405502 
L 373.427963 460.730322 
L 378.459178 459.249575 
L 383.50329 450.444818 
L 388.560834 445.84277 
L 393.631422 430.255319 
L 398.714652 452.609983 
L 403.811081 457.703125 
L 408.920309 434.958971 
L 414.041939 443.200676 
L 419.176523 449.929584 
L 424.323672 447.241451 
L 429.482978 429.779582 
L 434.655002 448.587148 
L 439.839029 452.101657 
L 445.035621 444.905981 
L 450.24438 443.206945 
L 455.464898 445.073906 
L 460.697743 446.549419 
L 465.942526 446.684444 
L 471.198823 428.72579 
L 476.467215 442.981684 
L 481.747308 458.359295 
L 487.038693 444.594833 
L 492.341939 453.760113 
L 497.656641 454.371169 
L 502.982398 438.210805 
L 508.319801 444.214971 
L 513.668088 438.82843 
L 519.02786 453.522302 
L 524.398715 458.600867 
L 529.780227 429.177918 
L 535.172991 448.295807 
L 540.576601 452.211003 
L 545.990647 444.347866 
L 551.415723 450.837286 
L 556.851401 450.137396 
L 562.297288 451.057706 
L 567.753984 446.154929 
L 573.220712 442.61907 
L 578.698101 448.078563 
L 584.185724 459.030491 
L 589.683165 443.153168 
L 595.19103 437.095002 
L 600.708906 452.649464 
L 606.236364 450.754519 
" style="fill:none;stroke:#440154;stroke-linecap:square;stroke-width:2;"/>
   </g>
  </g>
 </g>
 <defs>
  <clipPath id="p876e5f9a64">
   <rect height="157.08" width="558" x="73.6" y="46.259375"/>
  </clipPath>
  <clipPath id="pfe2ecacec8">
   <rect height="157.08" width="558" x="73.6" y="203.339375"/>
  </clipPath>
  <clipPath id="p1dcb4e4f72">
   <rect height="157.08" width="558" x="73.6" y="360.419375"/>
  </clipPath>
 </defs>
</svg>
