<?xml version="1.0" encoding="utf-8" standalone="no"?>
<!DOCTYPE svg PUBLIC "-//W3C//DTD SVG 1.1//EN"
  "http://www.w3.org/Graphics/SVG/1.1/DTD/svg11.dtd">
<!-- Created with matplotlib (https://matplotlib.org/) -->
<svg height="259.56pt" version="1.1" viewBox="0 0 386.2 259.56" width="386.2pt" xmlns="http://www.w3.org/2000/svg" xmlns:xlink="http://www.w3.org/1999/xlink">
 <defs>
  <style type="text/css">
*{stroke-linecap:butt;stroke-linejoin:round;}
  </style>
 </defs>
 <g id="figure_1">
  <g id="patch_1">
   <path d="M 0 259.56 
L 386.2 259.56 
L 386.2 0 
L 0 0 
z
" style="fill:#ffffff;"/>
  </g>
  <g id="axes_1">
   <g id="patch_2">
    <path d="M 37.8 225.36 
L 372.6 225.36 
L 372.6 3.6 
L 37.8 3.6 
z
" style="fill:#ffffff;"/>
   </g>
   <g id="matplotlib.axis_1">
    <g id="xtick_1">
     <g id="line2d_1">
      <defs>
       <path d="M 0 0 
L 0 3.5 
" id="mfe988515d2" style="stroke:#000000;stroke-width:0.8;"/>
      </defs>
      <g>
       <use style="stroke:#000000;stroke-width:0.8;" x="372.6" xlink:href="#mfe988515d2" y="225.36"/>
      </g>
     </g>
     <g id="text_1">
      <!-- $\mathdefault{10^{-19}}$ -->
      <defs>
       <path d="M 39.40625 0 
L 11.796875 0 
L 11.796875 1.5 
Q 17.296875 1.796875 19.296875 3.546875 
Q 21.296875 5.296875 21.296875 9.5 
L 21.296875 54.40625 
Q 21.296875 59.296875 18.296875 59.296875 
Q 16.90625 59.296875 13.796875 58.09375 
L 11.09375 57.09375 
L 11.09375 58.5 
L 29 67.59375 
L 29.90625 67.296875 
L 29.90625 7.59375 
Q 29.90625 4.296875 31.90625 2.890625 
Q 33.90625 1.5 39.40625 1.5 
z
" id="STIXGeneral-Regular-49"/>
       <path d="M 47.59375 33 
Q 47.59375 26.296875 46.296875 20.34375 
Q 45 14.40625 42.453125 9.40625 
Q 39.90625 4.40625 35.40625 1.5 
Q 30.90625 -1.40625 25 -1.40625 
Q 18.90625 -1.40625 14.296875 1.6875 
Q 9.703125 4.796875 7.203125 10 
Q 4.703125 15.203125 3.546875 21.09375 
Q 2.40625 27 2.40625 33.59375 
Q 2.40625 42.90625 4.703125 50.34375 
Q 7 57.796875 12.34375 62.6875 
Q 17.703125 67.59375 25.40625 67.59375 
Q 35.203125 67.59375 41.390625 58 
Q 47.59375 48.40625 47.59375 33 
z
M 38 32.5 
Q 38 48.296875 34.640625 56.640625 
Q 31.296875 65 24.796875 65 
Q 18.59375 65 15.296875 56.59375 
Q 12 48.203125 12 32.90625 
Q 12 17.5 15.296875 9.34375 
Q 18.59375 1.203125 25 1.203125 
Q 31.296875 1.203125 34.640625 9.34375 
Q 38 17.5 38 32.5 
z
" id="STIXGeneral-Regular-48"/>
       <path d="M 28.5 19.40625 
L 3.90625 19.40625 
L 3.90625 25.703125 
L 28.5 25.703125 
z
" id="STIXGeneral-Regular-45"/>
       <path d="M 5.90625 -2.203125 
L 5.59375 -0.203125 
Q 17.09375 1.796875 25.046875 9.5 
Q 33 17.203125 36 29.40625 
Q 30.203125 23.703125 21 23.703125 
Q 12.90625 23.703125 7.953125 29.296875 
Q 3 34.90625 3 44 
Q 3 54.09375 8.953125 60.84375 
Q 14.90625 67.59375 23.796875 67.59375 
Q 33.296875 67.59375 39.5 60 
Q 45.90625 52 45.90625 39.40625 
Q 45.90625 30.59375 42.84375 22.84375 
Q 39.796875 15.09375 33.90625 9.703125 
Q 27.703125 4.09375 21.796875 1.640625 
Q 15.90625 -0.796875 5.90625 -2.203125 
z
M 36.203125 35.5 
L 36.203125 39.40625 
Q 36.203125 64.796875 23 64.796875 
Q 18.296875 64.796875 15.703125 61.40625 
Q 14.203125 59.40625 13.203125 55.40625 
Q 12.203125 51.40625 12.203125 47.40625 
Q 12.203125 38.5 15.546875 33.25 
Q 18.90625 28 24.5 28 
Q 28.5 28 32.34375 29.953125 
Q 36.203125 31.90625 36.203125 35.5 
z
" id="STIXGeneral-Regular-57"/>
      </defs>
      <g transform="translate(362.6 239.189687)scale(0.1 -0.1)">
       <use transform="translate(0 0.684375)" xlink:href="#STIXGeneral-Regular-49"/>
       <use transform="translate(49.999985 0.684375)" xlink:href="#STIXGeneral-Regular-48"/>
       <use transform="translate(101.574969 36.684375)scale(0.7)" xlink:href="#STIXGeneral-Regular-45"/>
       <use transform="translate(124.884961 36.684375)scale(0.7)" xlink:href="#STIXGeneral-Regular-49"/>
       <use transform="translate(159.88495 36.684375)scale(0.7)" xlink:href="#STIXGeneral-Regular-57"/>
      </g>
     </g>
    </g>
    <g id="xtick_2">
     <g id="line2d_2">
      <g>
       <use style="stroke:#000000;stroke-width:0.8;" x="261" xlink:href="#mfe988515d2" y="225.36"/>
      </g>
     </g>
     <g id="text_2">
      <!-- $\mathdefault{10^{-18}}$ -->
      <defs>
       <path d="M 44.5 15.5 
Q 44.5 7.796875 39.140625 3.1875 
Q 33.796875 -1.40625 24.796875 -1.40625 
Q 16.40625 -1.40625 11 3.1875 
Q 5.59375 7.796875 5.59375 14.90625 
Q 5.59375 20.203125 8.1875 23.953125 
Q 10.796875 27.703125 18.59375 33.203125 
Q 11.09375 39.40625 8.640625 43.203125 
Q 6.203125 47 6.203125 52 
Q 6.203125 59.09375 11.640625 63.34375 
Q 17.09375 67.59375 25.59375 67.59375 
Q 32.90625 67.59375 37.65625 63.4375 
Q 42.40625 59.296875 42.40625 53.296875 
Q 42.40625 47.796875 39.546875 44.5 
Q 36.703125 41.203125 29 37.09375 
Q 38 31.09375 41.25 26.390625 
Q 44.5 21.703125 44.5 15.5 
z
M 35.5 53.296875 
Q 35.5 58.5 32.59375 61.640625 
Q 29.703125 64.796875 24.59375 64.796875 
Q 19.5 64.796875 16.546875 62.140625 
Q 13.59375 59.5 13.59375 54.890625 
Q 13.59375 50.296875 16.546875 46.546875 
Q 19.5 42.796875 26.09375 38.90625 
Q 31.203125 41.90625 33.34375 45.25 
Q 35.5 48.59375 35.5 53.296875 
z
M 27.09375 27.203125 
L 21.203125 31.203125 
Q 16.796875 27.59375 15 24.140625 
Q 13.203125 20.703125 13.203125 15.796875 
Q 13.203125 9 16.640625 5.203125 
Q 20.09375 1.40625 25.90625 1.40625 
Q 30.796875 1.40625 33.84375 4.453125 
Q 36.90625 7.5 36.90625 12.40625 
Q 36.90625 16.90625 34.59375 20.296875 
Q 32.296875 23.703125 27.09375 27.203125 
z
" id="STIXGeneral-Regular-56"/>
      </defs>
      <g transform="translate(251 239.189687)scale(0.1 -0.1)">
       <use transform="translate(0 0.684375)" xlink:href="#STIXGeneral-Regular-49"/>
       <use transform="translate(49.999985 0.684375)" xlink:href="#STIXGeneral-Regular-48"/>
       <use transform="translate(101.574969 36.684375)scale(0.7)" xlink:href="#STIXGeneral-Regular-45"/>
       <use transform="translate(124.884961 36.684375)scale(0.7)" xlink:href="#STIXGeneral-Regular-49"/>
       <use transform="translate(159.88495 36.684375)scale(0.7)" xlink:href="#STIXGeneral-Regular-56"/>
      </g>
     </g>
    </g>
    <g id="xtick_3">
     <g id="line2d_3">
      <g>
       <use style="stroke:#000000;stroke-width:0.8;" x="149.4" xlink:href="#mfe988515d2" y="225.36"/>
      </g>
     </g>
     <g id="text_3">
      <!-- $\mathdefault{10^{-17}}$ -->
      <defs>
       <path d="M 44.90625 64.59375 
L 23.703125 -0.796875 
L 17.203125 -0.796875 
L 37 58.796875 
L 15.5 58.796875 
Q 11.203125 58.796875 9.09375 57.296875 
Q 7 55.796875 3.796875 50.59375 
L 2 51.5 
L 8 66.203125 
L 44.90625 66.203125 
z
" id="STIXGeneral-Regular-55"/>
      </defs>
      <g transform="translate(139.4 239.189687)scale(0.1 -0.1)">
       <use transform="translate(0 0.684375)" xlink:href="#STIXGeneral-Regular-49"/>
       <use transform="translate(49.999985 0.684375)" xlink:href="#STIXGeneral-Regular-48"/>
       <use transform="translate(101.574969 36.684375)scale(0.7)" xlink:href="#STIXGeneral-Regular-45"/>
       <use transform="translate(124.884961 36.684375)scale(0.7)" xlink:href="#STIXGeneral-Regular-49"/>
       <use transform="translate(159.88495 36.684375)scale(0.7)" xlink:href="#STIXGeneral-Regular-55"/>
      </g>
     </g>
    </g>
    <g id="xtick_4">
     <g id="line2d_4">
      <g>
       <use style="stroke:#000000;stroke-width:0.8;" x="37.8" xlink:href="#mfe988515d2" y="225.36"/>
      </g>
     </g>
     <g id="text_4">
      <!-- $\mathdefault{10^{-16}}$ -->
      <defs>
       <path d="M 44.59375 68.40625 
L 44.796875 66.796875 
Q 33 64.90625 25.09375 57.25 
Q 17.203125 49.59375 15.203125 38.296875 
Q 21 42.796875 27.90625 42.796875 
Q 36.703125 42.796875 41.75 37.1875 
Q 46.796875 31.59375 46.796875 21.90625 
Q 46.796875 12.09375 41.703125 5.90625 
Q 35.796875 -1.40625 25.796875 -1.40625 
Q 13.59375 -1.40625 8.09375 8.703125 
Q 3.40625 17.296875 3.40625 27.90625 
Q 3.40625 44.296875 14.296875 55.5 
Q 20.5 61.90625 27.046875 64.546875 
Q 33.59375 67.203125 44.59375 68.40625 
z
M 37.796875 18.796875 
Q 37.796875 38.203125 24.296875 38.203125 
Q 19.296875 38.203125 16 35.546875 
Q 12.703125 32.90625 12.703125 26.59375 
Q 12.703125 14.90625 16.34375 8.15625 
Q 20 1.40625 26.90625 1.40625 
Q 32.203125 1.40625 35 6.15625 
Q 37.796875 10.90625 37.796875 18.796875 
z
" id="STIXGeneral-Regular-54"/>
      </defs>
      <g transform="translate(27.8 239.189687)scale(0.1 -0.1)">
       <use transform="translate(0 0.115625)" xlink:href="#STIXGeneral-Regular-49"/>
       <use transform="translate(49.999985 0.115625)" xlink:href="#STIXGeneral-Regular-48"/>
       <use transform="translate(101.574969 36.115625)scale(0.7)" xlink:href="#STIXGeneral-Regular-45"/>
       <use transform="translate(124.884961 36.115625)scale(0.7)" xlink:href="#STIXGeneral-Regular-49"/>
       <use transform="translate(159.88495 36.115625)scale(0.7)" xlink:href="#STIXGeneral-Regular-54"/>
      </g>
     </g>
    </g>
    <g id="xtick_5">
     <g id="line2d_5">
      <defs>
       <path d="M 0 0 
L 0 2 
" id="m24d41d1e82" style="stroke:#000000;stroke-width:0.6;"/>
      </defs>
      <g>
       <use style="stroke:#000000;stroke-width:0.6;" x="339.005052" xlink:href="#m24d41d1e82" y="225.36"/>
      </g>
     </g>
    </g>
    <g id="xtick_6">
     <g id="line2d_6">
      <g>
       <use style="stroke:#000000;stroke-width:0.6;" x="319.353268" xlink:href="#m24d41d1e82" y="225.36"/>
      </g>
     </g>
    </g>
    <g id="xtick_7">
     <g id="line2d_7">
      <g>
       <use style="stroke:#000000;stroke-width:0.6;" x="305.410105" xlink:href="#m24d41d1e82" y="225.36"/>
      </g>
     </g>
    </g>
    <g id="xtick_8">
     <g id="line2d_8">
      <g>
       <use style="stroke:#000000;stroke-width:0.6;" x="294.594948" xlink:href="#m24d41d1e82" y="225.36"/>
      </g>
     </g>
    </g>
    <g id="xtick_9">
     <g id="line2d_9">
      <g>
       <use style="stroke:#000000;stroke-width:0.6;" x="285.75832" xlink:href="#m24d41d1e82" y="225.36"/>
      </g>
     </g>
    </g>
    <g id="xtick_10">
     <g id="line2d_10">
      <g>
       <use style="stroke:#000000;stroke-width:0.6;" x="278.287059" xlink:href="#m24d41d1e82" y="225.36"/>
      </g>
     </g>
    </g>
    <g id="xtick_11">
     <g id="line2d_11">
      <g>
       <use style="stroke:#000000;stroke-width:0.6;" x="271.815157" xlink:href="#m24d41d1e82" y="225.36"/>
      </g>
     </g>
    </g>
    <g id="xtick_12">
     <g id="line2d_12">
      <g>
       <use style="stroke:#000000;stroke-width:0.6;" x="266.106536" xlink:href="#m24d41d1e82" y="225.36"/>
      </g>
     </g>
    </g>
    <g id="xtick_13">
     <g id="line2d_13">
      <g>
       <use style="stroke:#000000;stroke-width:0.6;" x="227.405052" xlink:href="#m24d41d1e82" y="225.36"/>
      </g>
     </g>
    </g>
    <g id="xtick_14">
     <g id="line2d_14">
      <g>
       <use style="stroke:#000000;stroke-width:0.6;" x="207.753268" xlink:href="#m24d41d1e82" y="225.36"/>
      </g>
     </g>
    </g>
    <g id="xtick_15">
     <g id="line2d_15">
      <g>
       <use style="stroke:#000000;stroke-width:0.6;" x="193.810105" xlink:href="#m24d41d1e82" y="225.36"/>
      </g>
     </g>
    </g>
    <g id="xtick_16">
     <g id="line2d_16">
      <g>
       <use style="stroke:#000000;stroke-width:0.6;" x="182.994948" xlink:href="#m24d41d1e82" y="225.36"/>
      </g>
     </g>
    </g>
    <g id="xtick_17">
     <g id="line2d_17">
      <g>
       <use style="stroke:#000000;stroke-width:0.6;" x="174.15832" xlink:href="#m24d41d1e82" y="225.36"/>
      </g>
     </g>
    </g>
    <g id="xtick_18">
     <g id="line2d_18">
      <g>
       <use style="stroke:#000000;stroke-width:0.6;" x="166.687059" xlink:href="#m24d41d1e82" y="225.36"/>
      </g>
     </g>
    </g>
    <g id="xtick_19">
     <g id="line2d_19">
      <g>
       <use style="stroke:#000000;stroke-width:0.6;" x="160.215157" xlink:href="#m24d41d1e82" y="225.36"/>
      </g>
     </g>
    </g>
    <g id="xtick_20">
     <g id="line2d_20">
      <g>
       <use style="stroke:#000000;stroke-width:0.6;" x="154.506536" xlink:href="#m24d41d1e82" y="225.36"/>
      </g>
     </g>
    </g>
    <g id="xtick_21">
     <g id="line2d_21">
      <g>
       <use style="stroke:#000000;stroke-width:0.6;" x="115.805052" xlink:href="#m24d41d1e82" y="225.36"/>
      </g>
     </g>
    </g>
    <g id="xtick_22">
     <g id="line2d_22">
      <g>
       <use style="stroke:#000000;stroke-width:0.6;" x="96.153268" xlink:href="#m24d41d1e82" y="225.36"/>
      </g>
     </g>
    </g>
    <g id="xtick_23">
     <g id="line2d_23">
      <g>
       <use style="stroke:#000000;stroke-width:0.6;" x="82.210105" xlink:href="#m24d41d1e82" y="225.36"/>
      </g>
     </g>
    </g>
    <g id="xtick_24">
     <g id="line2d_24">
      <g>
       <use style="stroke:#000000;stroke-width:0.6;" x="71.394948" xlink:href="#m24d41d1e82" y="225.36"/>
      </g>
     </g>
    </g>
    <g id="xtick_25">
     <g id="line2d_25">
      <g>
       <use style="stroke:#000000;stroke-width:0.6;" x="62.55832" xlink:href="#m24d41d1e82" y="225.36"/>
      </g>
     </g>
    </g>
    <g id="xtick_26">
     <g id="line2d_26">
      <g>
       <use style="stroke:#000000;stroke-width:0.6;" x="55.087059" xlink:href="#m24d41d1e82" y="225.36"/>
      </g>
     </g>
    </g>
    <g id="xtick_27">
     <g id="line2d_27">
      <g>
       <use style="stroke:#000000;stroke-width:0.6;" x="48.615157" xlink:href="#m24d41d1e82" y="225.36"/>
      </g>
     </g>
    </g>
    <g id="xtick_28">
     <g id="line2d_28">
      <g>
       <use style="stroke:#000000;stroke-width:0.6;" x="42.906536" xlink:href="#m24d41d1e82" y="225.36"/>
      </g>
     </g>
    </g>
    <g id="text_5">
     <!-- SB cutoff $\left(\mathrm{erg}\,\,\mathrm{s}^{-1}\mathrm{cm}^{-2}\mathrm{arcsec}^{-2}\right)$ -->
     <defs>
      <path d="M 46.90625 46.296875 
L 44.40625 46.296875 
Q 42.703125 52.5 40.296875 55.703125 
Q 34.203125 63.5 25.796875 63.5 
Q 21.203125 63.5 18.453125 60.84375 
Q 15.703125 58.203125 15.703125 54 
Q 15.703125 52 16.703125 50.09375 
Q 17.703125 48.203125 18.84375 46.84375 
Q 20 45.5 22.890625 43.5 
Q 25.796875 41.5 27.59375 40.453125 
Q 29.40625 39.40625 33.59375 36.90625 
Q 41.703125 32.203125 45.390625 27.546875 
Q 49.09375 22.90625 49.09375 17.296875 
Q 49.09375 9 43.296875 3.796875 
Q 37.5 -1.40625 28.703125 -1.40625 
Q 22.203125 -1.40625 16.90625 0.90625 
Q 14.296875 2 12.203125 2 
Q 11 2 10.203125 1.09375 
Q 9.40625 0.203125 9.40625 -1.296875 
L 7.203125 -1.296875 
L 4.296875 19.90625 
L 6.5 19.90625 
Q 13.203125 2.203125 27.09375 2.203125 
Q 32.40625 2.203125 35.703125 5.34375 
Q 39 8.5 39 13.40625 
Q 39 18.09375 36.09375 21.296875 
Q 31.296875 26.5 19.296875 32.90625 
Q 7.09375 39.40625 7.09375 50.09375 
Q 7.09375 58.09375 12 62.84375 
Q 16.90625 67.59375 24.5 67.59375 
Q 29.796875 67.59375 35 65.40625 
Q 37.703125 64.203125 39.40625 64.203125 
Q 42 64.203125 42.59375 67.59375 
L 44.703125 67.59375 
z
" id="STIXGeneral-Regular-83"/>
      <path d="M 42.203125 34.90625 
L 42.203125 34.796875 
Q 49.703125 33.59375 54.40625 29.296875 
Q 59.296875 24.90625 59.296875 17.796875 
Q 59.296875 9.5 52.796875 4.75 
Q 46.296875 0 35.40625 0 
L 1.703125 0 
L 1.703125 1.90625 
Q 7.59375 2.09375 9.4375 3.84375 
Q 11.296875 5.59375 11.296875 11.296875 
L 11.296875 55 
Q 11.296875 60.796875 9.59375 62.34375 
Q 7.90625 63.90625 1.703125 64.296875 
L 1.703125 66.203125 
L 29.703125 66.203125 
Q 42.59375 66.203125 49.25 61.84375 
Q 55.90625 57.5 55.90625 49.5 
Q 55.90625 42.703125 51.796875 39.09375 
Q 48.90625 36.59375 42.203125 34.90625 
z
M 21.5 36.59375 
L 30.703125 36.59375 
Q 45.703125 36.59375 45.703125 49 
Q 45.703125 55.40625 41.25 58.953125 
Q 36.796875 62.5 28 62.5 
L 23.90625 62.5 
Q 21.5 62.5 21.5 59.296875 
z
M 21.5 32.59375 
L 21.5 8.203125 
Q 21.5 5.703125 22.84375 4.703125 
Q 24.203125 3.703125 27.703125 3.703125 
Q 34.5 3.703125 37.703125 4.453125 
Q 40.90625 5.203125 44 8 
Q 47.796875 11.296875 47.796875 17.90625 
Q 47.796875 25.5 43.09375 28.59375 
Q 42 29.40625 40.890625 29.953125 
Q 39.796875 30.5 38.9375 30.84375 
Q 38.09375 31.203125 36.6875 31.5 
Q 35.296875 31.796875 34.546875 31.9375 
Q 33.796875 32.09375 31.890625 32.1875 
Q 30 32.296875 29.09375 32.34375 
Q 28.203125 32.40625 25.546875 32.5 
Q 22.90625 32.59375 21.5 32.59375 
z
" id="STIXGeneral-Regular-66"/>
      <path id="STIXGeneral-Regular-32"/>
      <path d="M 39.796875 15.59375 
L 41.203125 14.703125 
Q 36.90625 6.296875 33 3.203125 
Q 27.90625 -1 21.5 -1 
Q 13.203125 -1 7.84375 5.25 
Q 2.5 11.5 2.5 21.203125 
Q 2.5 33.90625 10.90625 40.90625 
Q 17.09375 46 24.40625 46 
Q 30.703125 46 35.25 42.953125 
Q 39.796875 39.90625 39.796875 35.703125 
Q 39.796875 34 38.390625 32.75 
Q 37 31.5 35.09375 31.5 
Q 31.59375 31.5 30.296875 36.09375 
L 29.703125 38.296875 
Q 28.90625 41.09375 27.703125 42.09375 
Q 26.5 43.09375 23.796875 43.09375 
Q 17.703125 43.09375 13.953125 38.296875 
Q 10.203125 33.5 10.203125 25.703125 
Q 10.203125 17.09375 14.5 11.640625 
Q 18.796875 6.203125 25.703125 6.203125 
Q 30 6.203125 33.09375 8.25 
Q 36.203125 10.296875 39.796875 15.59375 
z
" id="STIXGeneral-Regular-99"/>
      <path d="M 48 5 
L 48 3.59375 
Q 40.203125 1.5 34.296875 -0.90625 
L 33.796875 -0.59375 
L 33.796875 7.59375 
L 33.59375 7.59375 
Q 27.296875 -1 19.296875 -1 
Q 13.59375 -1 10.34375 2.5 
Q 7.09375 6 7.09375 11.796875 
L 7.09375 36.90625 
Q 7.09375 40.59375 5.796875 42 
Q 4.5 43.40625 0.90625 43.59375 
L 0.90625 45 
L 15.5 45 
L 15.5 12.703125 
Q 15.5 9.296875 17.546875 7.046875 
Q 19.59375 4.796875 22.59375 4.796875 
Q 27.5 4.796875 31 7.90625 
Q 32.296875 9.09375 32.796875 10.140625 
Q 33.296875 11.203125 33.296875 13.703125 
L 33.296875 36.796875 
Q 33.296875 40.703125 31.890625 41.84375 
Q 30.5 43 25.90625 43.296875 
L 25.90625 45 
L 41.703125 45 
L 41.703125 10.703125 
Q 41.703125 7.203125 42.84375 6.09375 
Q 44 5 47.40625 5 
z
" id="STIXGeneral-Regular-117"/>
      <path d="M 26.59375 7.703125 
L 27.90625 6.59375 
Q 23.09375 -1 15.796875 -1 
Q 7 -1 7 11.703125 
L 7 41.796875 
L 1.703125 41.796875 
Q 1.296875 42.09375 1.296875 42.5 
Q 1.296875 43.296875 3 44.40625 
Q 6.796875 46.59375 12.703125 55.09375 
Q 12.90625 55.40625 13.65625 56.34375 
Q 14.40625 57.296875 14.703125 57.90625 
Q 15.40625 57.90625 15.40625 56.59375 
L 15.40625 45 
L 25.5 45 
L 25.5 41.796875 
L 15.40625 41.796875 
L 15.40625 13.203125 
Q 15.40625 8.40625 16.59375 6.296875 
Q 17.796875 4.203125 20.59375 4.203125 
Q 23.59375 4.203125 26.59375 7.703125 
z
" id="STIXGeneral-Regular-116"/>
      <path d="M 47 23.09375 
Q 47 12.59375 40.75 5.796875 
Q 34.5 -1 24.5 -1 
Q 15.296875 -1 9.09375 5.75 
Q 2.90625 12.5 2.90625 22.796875 
Q 2.90625 33.203125 9.09375 39.59375 
Q 15.296875 46 25.40625 46 
Q 34.703125 46 40.84375 39.640625 
Q 47 33.296875 47 23.09375 
z
M 38 20.40625 
Q 38 31.796875 33 38.203125 
Q 29 43.203125 23.5 43.203125 
Q 18.296875 43.203125 15.09375 38.953125 
Q 11.90625 34.703125 11.90625 27.296875 
Q 11.90625 14.5 17.203125 6.796875 
Q 20.59375 1.796875 26.203125 1.796875 
Q 31.703125 1.796875 34.84375 6.75 
Q 38 11.703125 38 20.40625 
z
" id="STIXGeneral-Regular-111"/>
      <path d="M 2.09375 45 
L 10.296875 45 
Q 10.40625 51 11.09375 54.34375 
Q 11.796875 57.703125 13.796875 61.09375 
Q 18 68.296875 27.90625 68.296875 
Q 32.40625 68.296875 35.34375 66.546875 
Q 38.296875 64.796875 38.296875 62.09375 
Q 38.296875 60.40625 37.09375 59.203125 
Q 35.90625 58 34.09375 58 
Q 31.703125 58 29.59375 61.59375 
Q 27.203125 65.5 24.296875 65.5 
Q 18.703125 65.5 18.703125 56.59375 
L 18.703125 45 
L 30.90625 45 
L 30.90625 41.796875 
L 18.703125 41.796875 
L 18.703125 10.40625 
Q 18.703125 4.796875 20.296875 3.25 
Q 21.90625 1.703125 28 1.5 
L 28 0 
L 2 0 
L 2 1.5 
Q 7.40625 1.796875 8.84375 3.34375 
Q 10.296875 4.90625 10.296875 10.40625 
L 10.296875 41.796875 
L 2.09375 41.796875 
z
" id="STIXGeneral-Regular-102"/>
      <path d="M 31 -24.8125 
Q 25.4375 -20.40625 21.40625 -14.71875 
Q 17.390625 -9.03125 14.8125 -2.578125 
Q 12.25 3.859375 10.984375 10.890625 
Q 9.71875 17.921875 9.71875 25 
Q 9.71875 32.171875 10.984375 39.203125 
Q 12.25 46.234375 14.859375 52.734375 
Q 17.484375 59.234375 21.53125 64.890625 
Q 25.59375 70.5625 31 74.8125 
Q 31 75 31.5 75 
L 32.421875 75 
Q 32.71875 75 32.953125 74.734375 
Q 33.203125 74.46875 33.203125 74.125 
Q 33.203125 73.6875 33.015625 73.484375 
Q 28.125 68.703125 24.875 63.234375 
Q 21.625 57.765625 19.640625 51.578125 
Q 17.671875 45.40625 16.796875 38.78125 
Q 15.921875 32.171875 15.921875 25 
Q 15.921875 -6.78125 32.90625 -23.296875 
Q 33.203125 -23.578125 33.203125 -24.125 
Q 33.203125 -24.359375 32.9375 -24.671875 
Q 32.671875 -25 32.421875 -25 
L 31.5 -25 
Q 31 -25 31 -24.8125 
z
" id="Cmr10-40"/>
      <path d="M 24.90625 -1.125 
Q 18.796875 -1.125 13.6875 2.078125 
Q 8.59375 5.28125 5.6875 10.625 
Q 2.78125 15.96875 2.78125 21.921875 
Q 2.78125 27.78125 5.4375 33.046875 
Q 8.109375 38.328125 12.859375 41.578125 
Q 17.625 44.828125 23.484375 44.828125 
Q 28.078125 44.828125 31.46875 43.28125 
Q 34.859375 41.75 37.0625 39.015625 
Q 39.265625 36.28125 40.375 32.5625 
Q 41.5 28.859375 41.5 24.421875 
Q 41.5 23.09375 40.484375 23.09375 
L 11.53125 23.09375 
L 11.53125 22.015625 
Q 11.53125 13.71875 14.875 7.765625 
Q 18.21875 1.8125 25.78125 1.8125 
Q 28.859375 1.8125 31.46875 3.171875 
Q 34.078125 4.546875 36 6.984375 
Q 37.9375 9.421875 38.625 12.203125 
Q 38.71875 12.546875 38.984375 12.8125 
Q 39.265625 13.09375 39.59375 13.09375 
L 40.484375 13.09375 
Q 41.5 13.09375 41.5 11.8125 
Q 40.09375 6.15625 35.40625 2.515625 
Q 30.71875 -1.125 24.90625 -1.125 
z
M 11.625 25.59375 
L 34.421875 25.59375 
Q 34.421875 29.34375 33.375 33.203125 
Q 32.328125 37.0625 29.875 39.625 
Q 27.4375 42.1875 23.484375 42.1875 
Q 17.828125 42.1875 14.71875 36.890625 
Q 11.625 31.59375 11.625 25.59375 
z
" id="Cmr10-101"/>
      <path d="M 2.59375 0 
L 2.59375 3.515625 
Q 6 3.515625 8.203125 4.046875 
Q 10.40625 4.59375 10.40625 6.6875 
L 10.40625 33.984375 
Q 10.40625 36.671875 9.59375 37.859375 
Q 8.796875 39.0625 7.28125 39.328125 
Q 5.765625 39.59375 2.59375 39.59375 
L 2.59375 43.109375 
L 16.890625 44.1875 
L 16.890625 34.421875 
Q 18.5 38.765625 21.484375 41.46875 
Q 24.46875 44.1875 28.71875 44.1875 
Q 31.6875 44.1875 34.03125 42.421875 
Q 36.375 40.671875 36.375 37.796875 
Q 36.375 35.984375 35.078125 34.640625 
Q 33.796875 33.296875 31.890625 33.296875 
Q 30.03125 33.296875 28.703125 34.609375 
Q 27.390625 35.9375 27.390625 37.796875 
Q 27.390625 40.484375 29.296875 41.609375 
L 28.71875 41.609375 
Q 24.65625 41.609375 22.09375 38.671875 
Q 19.53125 35.75 18.453125 31.390625 
Q 17.390625 27.046875 17.390625 23.09375 
L 17.390625 6.6875 
Q 17.390625 3.515625 27.09375 3.515625 
L 27.09375 0 
z
" id="Cmr10-114"/>
      <path d="M 2.78125 -7.8125 
Q 2.78125 -4.25 5.359375 -1.578125 
Q 7.953125 1.078125 11.53125 2.203125 
Q 9.515625 3.71875 8.46875 6 
Q 7.421875 8.296875 7.421875 10.890625 
Q 7.421875 15.578125 10.40625 19.1875 
Q 5.8125 23.6875 5.8125 29.5 
Q 5.8125 32.625 7.15625 35.359375 
Q 8.5 38.09375 10.890625 40.09375 
Q 13.28125 42.09375 16.203125 43.140625 
Q 19.140625 44.1875 22.21875 44.1875 
Q 28.171875 44.1875 32.90625 40.71875 
Q 34.96875 42.921875 37.765625 44.109375 
Q 40.578125 45.3125 43.609375 45.3125 
Q 45.75 45.3125 47.109375 43.765625 
Q 48.484375 42.234375 48.484375 40.09375 
Q 48.484375 38.875 47.546875 37.9375 
Q 46.625 37.015625 45.40625 37.015625 
Q 44.140625 37.015625 43.203125 37.9375 
Q 42.28125 38.875 42.28125 40.09375 
Q 42.28125 41.9375 43.5 42.671875 
Q 38.328125 42.671875 34.625 39.109375 
Q 36.421875 37.3125 37.515625 34.6875 
Q 38.625 32.078125 38.625 29.5 
Q 38.625 25.25 36.28125 21.84375 
Q 33.9375 18.453125 30.09375 16.578125 
Q 26.265625 14.703125 22.21875 14.703125 
Q 16.75 14.703125 12.203125 17.671875 
Q 10.796875 15.71875 10.796875 13.28125 
Q 10.796875 10.640625 12.53125 8.65625 
Q 14.265625 6.6875 16.890625 6.6875 
L 25.09375 6.6875 
Q 31.0625 6.6875 35.84375 5.609375 
Q 40.625 4.546875 43.875 1.3125 
Q 47.125 -1.90625 47.125 -7.8125 
Q 47.125 -12.203125 43.40625 -15.109375 
Q 39.703125 -18.015625 34.546875 -19.3125 
Q 29.390625 -20.609375 25 -20.609375 
Q 20.5625 -20.609375 15.375 -19.3125 
Q 10.203125 -18.015625 6.484375 -15.109375 
Q 2.78125 -12.203125 2.78125 -7.8125 
z
M 8.40625 -7.8125 
Q 8.40625 -11.1875 11.140625 -13.453125 
Q 13.875 -15.71875 17.71875 -16.8125 
Q 21.578125 -17.921875 25 -17.921875 
Q 28.375 -17.921875 32.21875 -16.8125 
Q 36.078125 -15.71875 38.78125 -13.453125 
Q 41.5 -11.1875 41.5 -7.8125 
Q 41.5 -2.59375 36.71875 -1.046875 
Q 31.9375 0.484375 25.09375 0.484375 
L 16.890625 0.484375 
Q 14.59375 0.484375 12.671875 -0.609375 
Q 10.75 -1.703125 9.578125 -3.6875 
Q 8.40625 -5.671875 8.40625 -7.8125 
z
M 22.21875 17.390625 
Q 30.71875 17.390625 30.71875 29.5 
Q 30.71875 34.71875 28.90625 38.109375 
Q 27.09375 41.5 22.21875 41.5 
Q 17.328125 41.5 15.515625 38.109375 
Q 13.71875 34.71875 13.71875 29.5 
Q 13.71875 26.171875 14.40625 23.484375 
Q 15.09375 20.796875 16.9375 19.09375 
Q 18.796875 17.390625 22.21875 17.390625 
z
" id="Cmr10-103"/>
      <path d="M 3.328125 -0.296875 
L 3.328125 16.015625 
Q 3.328125 16.796875 4.203125 16.796875 
L 5.421875 16.796875 
Q 6 16.796875 6.203125 16.015625 
Q 8.984375 1.515625 19.671875 1.515625 
Q 24.421875 1.515625 27.609375 3.65625 
Q 30.8125 5.8125 30.8125 10.296875 
Q 30.8125 13.53125 28.3125 15.796875 
Q 25.828125 18.0625 22.40625 18.890625 
L 15.71875 20.21875 
Q 12.359375 20.953125 9.59375 22.453125 
Q 6.84375 23.96875 5.078125 26.484375 
Q 3.328125 29 3.328125 32.328125 
Q 3.328125 36.71875 5.640625 39.515625 
Q 7.953125 42.328125 11.65625 43.578125 
Q 15.375 44.828125 19.671875 44.828125 
Q 24.8125 44.828125 28.609375 42.09375 
L 31.5 44.578125 
Q 31.5 44.828125 31.984375 44.828125 
L 32.71875 44.828125 
Q 33.015625 44.828125 33.25 44.546875 
Q 33.5 44.28125 33.5 44 
L 33.5 30.90625 
Q 33.5 29.984375 32.71875 29.984375 
L 31.5 29.984375 
Q 30.609375 29.984375 30.609375 30.90625 
Q 30.609375 36.140625 27.703125 39.3125 
Q 24.8125 42.484375 19.578125 42.484375 
Q 15.09375 42.484375 11.796875 40.8125 
Q 8.5 39.15625 8.5 35.109375 
Q 8.5 32.328125 10.859375 30.546875 
Q 13.234375 28.765625 16.40625 27.984375 
L 23.1875 26.703125 
Q 26.609375 25.921875 29.5625 24.0625 
Q 32.515625 22.21875 34.25 19.375 
Q 35.984375 16.546875 35.984375 12.984375 
Q 35.984375 9.375 34.734375 6.703125 
Q 33.5 4.046875 31.265625 2.28125 
Q 29.046875 0.53125 26.015625 -0.296875 
Q 23 -1.125 19.671875 -1.125 
Q 13.421875 -1.125 8.984375 3.078125 
L 5.328125 -0.875 
Q 5.328125 -1.125 4.78125 -1.125 
L 4.203125 -1.125 
Q 3.328125 -1.125 3.328125 -0.296875 
z
" id="Cmr10-115"/>
      <path d="M 10.203125 23 
Q 9.375 23 8.828125 23.625 
Q 8.296875 24.265625 8.296875 25 
Q 8.296875 25.734375 8.828125 26.359375 
Q 9.375 27 10.203125 27 
L 67.578125 27 
Q 68.359375 27 68.875 26.359375 
Q 69.390625 25.734375 69.390625 25 
Q 69.390625 24.265625 68.875 23.625 
Q 68.359375 23 67.578125 23 
z
" id="Cmsy10-161"/>
      <path d="M 9.28125 0 
L 9.28125 3.515625 
Q 21.78125 3.515625 21.78125 6.6875 
L 21.78125 59.1875 
Q 16.609375 56.6875 8.6875 56.6875 
L 8.6875 60.203125 
Q 20.953125 60.203125 27.203125 66.609375 
L 28.609375 66.609375 
Q 28.953125 66.609375 29.265625 66.328125 
Q 29.59375 66.0625 29.59375 65.71875 
L 29.59375 6.6875 
Q 29.59375 3.515625 42.09375 3.515625 
L 42.09375 0 
z
" id="Cmr10-49"/>
      <path d="M 24.90625 -1.125 
Q 18.84375 -1.125 13.90625 2.015625 
Q 8.984375 5.171875 6.15625 10.421875 
Q 3.328125 15.671875 3.328125 21.578125 
Q 3.328125 27.484375 6.125 32.90625 
Q 8.9375 38.328125 13.890625 41.578125 
Q 18.84375 44.828125 24.90625 44.828125 
Q 30.765625 44.828125 35.5625 42.53125 
Q 40.375 40.234375 40.375 35.015625 
Q 40.375 33.0625 38.984375 31.609375 
Q 37.59375 30.171875 35.59375 30.171875 
Q 33.59375 30.171875 32.203125 31.609375 
Q 30.8125 33.0625 30.8125 35.015625 
Q 30.8125 36.765625 31.9375 38.0625 
Q 33.0625 39.359375 34.71875 39.703125 
Q 31.25 41.890625 25 41.890625 
Q 20.21875 41.890625 17.28125 38.71875 
Q 14.359375 35.546875 13.1875 30.859375 
Q 12.015625 26.171875 12.015625 21.578125 
Q 12.015625 16.75 13.453125 12.234375 
Q 14.890625 7.71875 18.09375 4.765625 
Q 21.296875 1.8125 26.125 1.8125 
Q 30.859375 1.8125 34.171875 4.71875 
Q 37.5 7.625 38.71875 12.3125 
Q 38.71875 12.890625 39.5 12.890625 
L 40.71875 12.890625 
Q 41.015625 12.890625 41.25 12.625 
Q 41.5 12.359375 41.5 12.015625 
L 41.5 11.71875 
Q 39.984375 5.8125 35.484375 2.34375 
Q 31 -1.125 24.90625 -1.125 
z
" id="Cmr10-99"/>
      <path d="M 2.984375 0 
L 2.984375 3.515625 
Q 6.390625 3.515625 8.59375 4.046875 
Q 10.796875 4.59375 10.796875 6.6875 
L 10.796875 33.984375 
Q 10.796875 36.671875 9.984375 37.859375 
Q 9.1875 39.0625 7.671875 39.328125 
Q 6.15625 39.59375 2.984375 39.59375 
L 2.984375 43.109375 
L 17.484375 44.1875 
L 17.484375 34.421875 
Q 19.484375 38.71875 23.40625 41.453125 
Q 27.34375 44.1875 31.984375 44.1875 
Q 43.5 44.1875 45.515625 34.8125 
Q 47.515625 39.015625 51.359375 41.59375 
Q 55.21875 44.1875 59.8125 44.1875 
Q 64.359375 44.1875 67.453125 42.71875 
Q 70.5625 41.265625 72.125 38.25 
Q 73.6875 35.25 73.6875 30.71875 
L 73.6875 6.6875 
Q 73.6875 4.59375 75.90625 4.046875 
Q 78.125 3.515625 81.5 3.515625 
L 81.5 0 
L 58.59375 0 
L 58.59375 3.515625 
Q 62.015625 3.515625 64.203125 4.046875 
Q 66.40625 4.59375 66.40625 6.6875 
L 66.40625 30.421875 
Q 66.40625 35.453125 64.984375 38.53125 
Q 63.578125 41.609375 59.1875 41.609375 
Q 53.421875 41.609375 49.65625 36.96875 
Q 45.90625 32.328125 45.90625 26.421875 
L 45.90625 6.6875 
Q 45.90625 4.59375 48.09375 4.046875 
Q 50.296875 3.515625 53.71875 3.515625 
L 53.71875 0 
L 30.8125 0 
L 30.8125 3.515625 
Q 34.234375 3.515625 36.421875 4.046875 
Q 38.625 4.59375 38.625 6.6875 
L 38.625 30.421875 
Q 38.625 35.296875 37.203125 38.453125 
Q 35.796875 41.609375 31.390625 41.609375 
Q 25.59375 41.609375 21.84375 36.96875 
Q 18.109375 32.328125 18.109375 26.421875 
L 18.109375 6.6875 
Q 18.109375 4.59375 20.3125 4.046875 
Q 22.515625 3.515625 25.875 3.515625 
L 25.875 0 
z
" id="Cmr10-109"/>
      <path d="M 4.984375 0 
L 4.984375 2.6875 
Q 4.984375 2.9375 5.171875 3.21875 
L 20.703125 20.40625 
Q 24.21875 24.21875 26.40625 26.796875 
Q 28.609375 29.390625 30.75 32.765625 
Q 32.90625 36.140625 34.15625 39.625 
Q 35.40625 43.109375 35.40625 47.015625 
Q 35.40625 51.125 33.890625 54.859375 
Q 32.375 58.59375 29.375 60.84375 
Q 26.375 63.09375 22.125 63.09375 
Q 17.78125 63.09375 14.3125 60.46875 
Q 10.84375 57.859375 9.421875 53.71875 
Q 9.8125 53.8125 10.5 53.8125 
Q 12.75 53.8125 14.328125 52.296875 
Q 15.921875 50.78125 15.921875 48.390625 
Q 15.921875 46.09375 14.328125 44.5 
Q 12.75 42.921875 10.5 42.921875 
Q 8.15625 42.921875 6.5625 44.546875 
Q 4.984375 46.1875 4.984375 48.390625 
Q 4.984375 52.15625 6.390625 55.4375 
Q 7.8125 58.734375 10.46875 61.296875 
Q 13.140625 63.875 16.484375 65.234375 
Q 19.828125 66.609375 23.578125 66.609375 
Q 29.296875 66.609375 34.21875 64.1875 
Q 39.15625 61.765625 42.03125 57.34375 
Q 44.921875 52.9375 44.921875 47.015625 
Q 44.921875 42.671875 43.015625 38.765625 
Q 41.109375 34.859375 38.125 31.65625 
Q 35.15625 28.46875 30.515625 24.40625 
Q 25.875 20.359375 24.421875 19 
L 13.09375 8.109375 
L 22.703125 8.109375 
Q 29.78125 8.109375 34.546875 8.21875 
Q 39.3125 8.34375 39.59375 8.59375 
Q 40.765625 9.859375 42 17.828125 
L 44.921875 17.828125 
L 42.09375 0 
z
" id="Cmr10-50"/>
      <path d="M 4 9.8125 
Q 4 15.765625 8.6875 19.5 
Q 13.375 23.25 19.9375 24.78125 
Q 26.515625 26.3125 32.421875 26.3125 
L 32.421875 30.421875 
Q 32.421875 33.296875 31.15625 36 
Q 29.890625 38.71875 27.484375 40.453125 
Q 25.09375 42.1875 22.21875 42.1875 
Q 15.578125 42.1875 12.109375 39.203125 
Q 14.015625 39.203125 15.25 37.765625 
Q 16.5 36.328125 16.5 34.421875 
Q 16.5 32.421875 15.078125 31 
Q 13.671875 29.59375 11.71875 29.59375 
Q 9.71875 29.59375 8.296875 31 
Q 6.890625 32.421875 6.890625 34.421875 
Q 6.890625 39.703125 11.671875 42.265625 
Q 16.453125 44.828125 22.21875 44.828125 
Q 26.265625 44.828125 30.359375 43.09375 
Q 34.46875 41.359375 37.078125 38.125 
Q 39.703125 34.90625 39.703125 30.609375 
L 39.703125 8.109375 
Q 39.703125 6.15625 40.53125 4.515625 
Q 41.359375 2.875 43.109375 2.875 
Q 44.78125 2.875 45.578125 4.53125 
Q 46.390625 6.203125 46.390625 8.109375 
L 46.390625 14.5 
L 49.3125 14.5 
L 49.3125 8.109375 
Q 49.3125 5.859375 48.140625 3.828125 
Q 46.96875 1.8125 44.984375 0.609375 
Q 43.015625 -0.59375 40.71875 -0.59375 
Q 37.796875 -0.59375 35.671875 1.671875 
Q 33.546875 3.953125 33.296875 7.078125 
Q 31.453125 3.328125 27.828125 1.09375 
Q 24.21875 -1.125 20.125 -1.125 
Q 16.3125 -1.125 12.625 0 
Q 8.9375 1.125 6.46875 3.53125 
Q 4 5.953125 4 9.8125 
z
M 12.109375 9.8125 
Q 12.109375 6.296875 14.6875 3.90625 
Q 17.28125 1.515625 20.796875 1.515625 
Q 24.03125 1.515625 26.65625 3.125 
Q 29.296875 4.734375 30.859375 7.515625 
Q 32.421875 10.296875 32.421875 13.375 
L 32.421875 23.78125 
Q 27.875 23.78125 23.109375 22.28125 
Q 18.359375 20.796875 15.234375 17.625 
Q 12.109375 14.453125 12.109375 9.8125 
z
" id="Cmr10-97"/>
      <path d="M 6.5 -25 
Q 5.609375 -25 5.609375 -24.125 
Q 5.609375 -23.6875 5.8125 -23.484375 
Q 22.90625 -6.78125 22.90625 25 
Q 22.90625 56.78125 6 73.296875 
Q 5.609375 73.53125 5.609375 74.125 
Q 5.609375 74.46875 5.875 74.734375 
Q 6.15625 75 6.5 75 
L 7.421875 75 
Q 7.71875 75 7.90625 74.8125 
Q 15.09375 69.140625 19.875 61.03125 
Q 24.65625 52.9375 26.875 43.75 
Q 29.109375 34.578125 29.109375 25 
Q 29.109375 17.921875 27.90625 11.0625 
Q 26.703125 4.203125 24.09375 -2.453125 
Q 21.484375 -9.125 17.484375 -14.765625 
Q 13.484375 -20.40625 7.90625 -24.8125 
Q 7.71875 -25 7.421875 -25 
z
" id="Cmr10-41"/>
     </defs>
     <g transform="translate(135.9 253.789687)scale(0.1 -0.1)">
      <use transform="translate(0 0.109375)" xlink:href="#STIXGeneral-Regular-83"/>
      <use transform="translate(55.599991 0.109375)" xlink:href="#STIXGeneral-Regular-66"/>
      <use transform="translate(122.299988 0.109375)" xlink:href="#STIXGeneral-Regular-32"/>
      <use transform="translate(147.299973 0.109375)" xlink:href="#STIXGeneral-Regular-99"/>
      <use transform="translate(191.699966 0.109375)" xlink:href="#STIXGeneral-Regular-117"/>
      <use transform="translate(241.699951 0.109375)" xlink:href="#STIXGeneral-Regular-116"/>
      <use transform="translate(269.499939 0.109375)" xlink:href="#STIXGeneral-Regular-111"/>
      <use transform="translate(319.499924 0.109375)" xlink:href="#STIXGeneral-Regular-102"/>
      <use transform="translate(352.799911 0.109375)" xlink:href="#STIXGeneral-Regular-102"/>
      <use transform="translate(386.099899 0.109375)" xlink:href="#STIXGeneral-Regular-32"/>
      <use transform="translate(411.099884 5.875)scale(1.055)" xlink:href="#Cmr10-40"/>
      <use transform="translate(452.053253 0.109375)" xlink:href="#Cmr10-101"/>
      <use transform="translate(496.438019 0.109375)" xlink:href="#Cmr10-114"/>
      <use transform="translate(535.549347 0.109375)" xlink:href="#Cmr10-103"/>
      <use transform="translate(614.814255 0.109375)" xlink:href="#Cmr10-115"/>
      <use transform="translate(658.682693 38.373438)scale(0.7)" xlink:href="#Cmsy10-161"/>
      <use transform="translate(713.062575 38.373438)scale(0.7)" xlink:href="#Cmr10-49"/>
      <use transform="translate(754.439919 0.109375)" xlink:href="#Cmr10-99"/>
      <use transform="translate(798.824685 0.109375)" xlink:href="#Cmr10-109"/>
      <use transform="translate(886.589607 38.373438)scale(0.7)" xlink:href="#Cmsy10-161"/>
      <use transform="translate(940.96949 38.373438)scale(0.7)" xlink:href="#Cmr10-50"/>
      <use transform="translate(982.346833 0.109375)" xlink:href="#Cmr10-97"/>
      <use transform="translate(1032.346833 0.109375)" xlink:href="#Cmr10-114"/>
      <use transform="translate(1071.458161 0.109375)" xlink:href="#Cmr10-99"/>
      <use transform="translate(1115.842927 0.109375)" xlink:href="#Cmr10-115"/>
      <use transform="translate(1155.247224 0.109375)" xlink:href="#Cmr10-101"/>
      <use transform="translate(1199.63199 0.109375)" xlink:href="#Cmr10-99"/>
      <use transform="translate(1248.480896 38.373438)scale(0.7)" xlink:href="#Cmsy10-161"/>
      <use transform="translate(1302.860779 38.373438)scale(0.7)" xlink:href="#Cmr10-50"/>
      <use transform="translate(1344.238122 5.875)scale(1.055)" xlink:href="#Cmr10-41"/>
     </g>
    </g>
   </g>
   <g id="matplotlib.axis_2">
    <g id="ytick_1">
     <g id="line2d_29">
      <defs>
       <path d="M 0 0 
L -3.5 0 
" id="m7fabeaedeb" style="stroke:#000000;stroke-width:0.8;"/>
      </defs>
      <g>
       <use style="stroke:#000000;stroke-width:0.8;" x="37.8" xlink:href="#m7fabeaedeb" y="225.36"/>
      </g>
     </g>
     <g id="text_6">
      <!-- $\mathdefault{10^{0}}$ -->
      <g transform="translate(16.6 228.774844)scale(0.1 -0.1)">
       <use transform="translate(0 0.684375)" xlink:href="#STIXGeneral-Regular-49"/>
       <use transform="translate(49.999985 0.684375)" xlink:href="#STIXGeneral-Regular-48"/>
       <use transform="translate(101.574969 36.684375)scale(0.7)" xlink:href="#STIXGeneral-Regular-48"/>
      </g>
     </g>
    </g>
    <g id="ytick_2">
     <g id="line2d_30">
      <g>
       <use style="stroke:#000000;stroke-width:0.8;" x="37.8" xlink:href="#m7fabeaedeb" y="139.439743"/>
      </g>
     </g>
     <g id="text_7">
      <!-- $\mathdefault{10^{1}}$ -->
      <g transform="translate(16.6 142.854586)scale(0.1 -0.1)">
       <use transform="translate(0 0.684375)" xlink:href="#STIXGeneral-Regular-49"/>
       <use transform="translate(49.999985 0.684375)" xlink:href="#STIXGeneral-Regular-48"/>
       <use transform="translate(101.574969 36.684375)scale(0.7)" xlink:href="#STIXGeneral-Regular-49"/>
      </g>
     </g>
    </g>
    <g id="ytick_3">
     <g id="line2d_31">
      <g>
       <use style="stroke:#000000;stroke-width:0.8;" x="37.8" xlink:href="#m7fabeaedeb" y="53.519485"/>
      </g>
     </g>
     <g id="text_8">
      <!-- $\mathdefault{10^{2}}$ -->
      <defs>
       <path d="M 47.40625 13.703125 
L 42 0 
L 2.90625 0 
L 2.90625 1.203125 
L 20.703125 20.09375 
Q 27.703125 27.40625 30.703125 33.5 
Q 33.703125 39.59375 33.703125 46.09375 
Q 33.703125 52.796875 30 56.5 
Q 26.296875 60.203125 19.796875 60.203125 
Q 14.40625 60.203125 11.25 57.390625 
Q 8.09375 54.59375 5.09375 47.203125 
L 3 47.703125 
Q 4.703125 57 9.84375 62.296875 
Q 15 67.59375 23.796875 67.59375 
Q 32.09375 67.59375 37.1875 62.59375 
Q 42.296875 57.59375 42.296875 50 
Q 42.296875 38.703125 29.5 25.203125 
L 13 7.59375 
L 36.40625 7.59375 
Q 39.703125 7.59375 41.640625 8.890625 
Q 43.59375 10.203125 46 14.296875 
z
" id="STIXGeneral-Regular-50"/>
      </defs>
      <g transform="translate(16.6 56.934329)scale(0.1 -0.1)">
       <use transform="translate(0 0.684375)" xlink:href="#STIXGeneral-Regular-49"/>
       <use transform="translate(49.999985 0.684375)" xlink:href="#STIXGeneral-Regular-48"/>
       <use transform="translate(101.574969 36.684375)scale(0.7)" xlink:href="#STIXGeneral-Regular-50"/>
      </g>
     </g>
    </g>
    <g id="ytick_4">
     <g id="line2d_32">
      <defs>
       <path d="M 0 0 
L -2 0 
" id="m3e2d83e89b" style="stroke:#000000;stroke-width:0.6;"/>
      </defs>
      <g>
       <use style="stroke:#000000;stroke-width:0.6;" x="37.8" xlink:href="#m3e2d83e89b" y="199.495425"/>
      </g>
     </g>
    </g>
    <g id="ytick_5">
     <g id="line2d_33">
      <g>
       <use style="stroke:#000000;stroke-width:0.6;" x="37.8" xlink:href="#m3e2d83e89b" y="184.365619"/>
      </g>
     </g>
    </g>
    <g id="ytick_6">
     <g id="line2d_34">
      <g>
       <use style="stroke:#000000;stroke-width:0.6;" x="37.8" xlink:href="#m3e2d83e89b" y="173.630851"/>
      </g>
     </g>
    </g>
    <g id="ytick_7">
     <g id="line2d_35">
      <g>
       <use style="stroke:#000000;stroke-width:0.6;" x="37.8" xlink:href="#m3e2d83e89b" y="165.304317"/>
      </g>
     </g>
    </g>
    <g id="ytick_8">
     <g id="line2d_36">
      <g>
       <use style="stroke:#000000;stroke-width:0.6;" x="37.8" xlink:href="#m3e2d83e89b" y="158.501044"/>
      </g>
     </g>
    </g>
    <g id="ytick_9">
     <g id="line2d_37">
      <g>
       <use style="stroke:#000000;stroke-width:0.6;" x="37.8" xlink:href="#m3e2d83e89b" y="152.748959"/>
      </g>
     </g>
    </g>
    <g id="ytick_10">
     <g id="line2d_38">
      <g>
       <use style="stroke:#000000;stroke-width:0.6;" x="37.8" xlink:href="#m3e2d83e89b" y="147.766276"/>
      </g>
     </g>
    </g>
    <g id="ytick_11">
     <g id="line2d_39">
      <g>
       <use style="stroke:#000000;stroke-width:0.6;" x="37.8" xlink:href="#m3e2d83e89b" y="143.371238"/>
      </g>
     </g>
    </g>
    <g id="ytick_12">
     <g id="line2d_40">
      <g>
       <use style="stroke:#000000;stroke-width:0.6;" x="37.8" xlink:href="#m3e2d83e89b" y="113.575168"/>
      </g>
     </g>
    </g>
    <g id="ytick_13">
     <g id="line2d_41">
      <g>
       <use style="stroke:#000000;stroke-width:0.6;" x="37.8" xlink:href="#m3e2d83e89b" y="98.445362"/>
      </g>
     </g>
    </g>
    <g id="ytick_14">
     <g id="line2d_42">
      <g>
       <use style="stroke:#000000;stroke-width:0.6;" x="37.8" xlink:href="#m3e2d83e89b" y="87.710593"/>
      </g>
     </g>
    </g>
    <g id="ytick_15">
     <g id="line2d_43">
      <g>
       <use style="stroke:#000000;stroke-width:0.6;" x="37.8" xlink:href="#m3e2d83e89b" y="79.38406"/>
      </g>
     </g>
    </g>
    <g id="ytick_16">
     <g id="line2d_44">
      <g>
       <use style="stroke:#000000;stroke-width:0.6;" x="37.8" xlink:href="#m3e2d83e89b" y="72.580787"/>
      </g>
     </g>
    </g>
    <g id="ytick_17">
     <g id="line2d_45">
      <g>
       <use style="stroke:#000000;stroke-width:0.6;" x="37.8" xlink:href="#m3e2d83e89b" y="66.828702"/>
      </g>
     </g>
    </g>
    <g id="ytick_18">
     <g id="line2d_46">
      <g>
       <use style="stroke:#000000;stroke-width:0.6;" x="37.8" xlink:href="#m3e2d83e89b" y="61.846019"/>
      </g>
     </g>
    </g>
    <g id="ytick_19">
     <g id="line2d_47">
      <g>
       <use style="stroke:#000000;stroke-width:0.6;" x="37.8" xlink:href="#m3e2d83e89b" y="57.450981"/>
      </g>
     </g>
    </g>
    <g id="ytick_20">
     <g id="line2d_48">
      <g>
       <use style="stroke:#000000;stroke-width:0.6;" x="37.8" xlink:href="#m3e2d83e89b" y="27.654911"/>
      </g>
     </g>
    </g>
    <g id="ytick_21">
     <g id="line2d_49">
      <g>
       <use style="stroke:#000000;stroke-width:0.6;" x="37.8" xlink:href="#m3e2d83e89b" y="12.525104"/>
      </g>
     </g>
    </g>
    <g id="text_9">
     <!-- Enclosed area $\left(\mathrm{arcsec}^2\right)$ -->
     <defs>
      <path d="M 59.703125 16.90625 
L 55.09375 0 
L 1.203125 0 
L 1.203125 1.90625 
Q 6.90625 2.296875 8.40625 3.9375 
Q 9.90625 5.59375 9.90625 11.40625 
L 9.90625 55 
Q 9.90625 60.59375 8.34375 62.296875 
Q 6.796875 64 1.203125 64.296875 
L 1.203125 66.203125 
L 54.203125 66.203125 
L 54.59375 51.90625 
L 52.09375 51.90625 
Q 51 58.59375 48.203125 60.5 
Q 45.40625 62.40625 36.703125 62.40625 
L 23.59375 62.40625 
Q 21.40625 62.40625 20.75 61.75 
Q 20.09375 61.09375 20.09375 58.796875 
L 20.09375 36.796875 
L 35.203125 36.796875 
Q 41.5 36.796875 43.546875 38.59375 
Q 45.59375 40.40625 46.5 46.40625 
L 48.796875 46.40625 
L 48.796875 23 
L 46.5 23 
Q 45.59375 29.296875 43.59375 31 
Q 41.59375 32.703125 35.203125 32.703125 
L 20.09375 32.703125 
L 20.09375 8.40625 
Q 20.09375 5.40625 22.1875 4.546875 
Q 24.296875 3.703125 30.203125 3.703125 
L 33.796875 3.703125 
Q 44.5 3.703125 49 6.296875 
Q 53.5 8.90625 56.90625 16.90625 
z
" id="STIXGeneral-Regular-69"/>
      <path d="M 48.5 0 
L 27.703125 0 
L 27.796875 1.5 
Q 31.5 1.796875 32.75 3.640625 
Q 34 5.5 34 10.5 
L 34 30.40625 
Q 34 40.5 26.703125 40.5 
Q 24.203125 40.5 22 39.296875 
Q 19.796875 38.09375 16.40625 34.796875 
L 16.40625 7.203125 
Q 16.40625 4.203125 17.75 3 
Q 19.09375 1.796875 22.90625 1.5 
L 22.90625 0 
L 1.796875 0 
L 1.796875 1.5 
Q 5.59375 1.796875 6.796875 3.34375 
Q 8 4.90625 8 9.40625 
L 8 33.703125 
Q 8 37.40625 7.296875 38.796875 
Q 6.59375 40.203125 4.5 40.203125 
Q 2.5 40.203125 1.59375 39.796875 
L 1.59375 41.5 
Q 8.59375 43.5 15.296875 46 
L 16.09375 45.703125 
L 16.09375 37.90625 
L 16.203125 37.90625 
Q 23.296875 46 30.59375 46 
Q 36.296875 46 39.34375 42 
Q 42.40625 38 42.40625 30.59375 
L 42.40625 8.5 
Q 42.40625 4.5 43.59375 3.203125 
Q 44.796875 1.90625 48.5 1.5 
z
" id="STIXGeneral-Regular-110"/>
      <path d="M 25.703125 0 
L 2.09375 0 
L 2.09375 1.5 
Q 6.796875 1.90625 8.296875 3.453125 
Q 9.796875 5 9.796875 9.203125 
L 9.796875 56.09375 
Q 9.796875 59.703125 8.890625 61.09375 
Q 8 62.5 5.59375 62.5 
Q 3.5 62.5 1.90625 62.296875 
L 1.90625 63.90625 
Q 11.40625 66.203125 17.703125 68.296875 
L 18.203125 67.90625 
L 18.203125 8.703125 
Q 18.203125 4.5 19.59375 3.140625 
Q 21 1.796875 25.703125 1.5 
z
" id="STIXGeneral-Regular-108"/>
      <path d="M 15.59375 30.09375 
L 26 23.796875 
Q 31 20.796875 32.890625 18.1875 
Q 34.796875 15.59375 34.796875 11.5 
Q 34.796875 6.5 30.640625 2.75 
Q 26.5 -1 20.796875 -1 
Q 16.09375 -1 13.5 -0.09375 
Q 10.796875 0.796875 8.90625 0.796875 
Q 7.203125 0.796875 6.5 -0.40625 
L 5.203125 -0.40625 
L 5.203125 15.296875 
L 6.796875 15.296875 
Q 8.40625 8 11.40625 4.59375 
Q 14.40625 1.203125 19.5 1.203125 
Q 23.203125 1.203125 25.5 3.296875 
Q 27.796875 5.40625 27.796875 8.59375 
Q 27.796875 13.203125 22.5 16.09375 
L 17.09375 19.09375 
Q 5.09375 25.796875 5.09375 33.59375 
Q 5.09375 39.40625 8.84375 42.65625 
Q 12.59375 45.90625 18.90625 45.90625 
Q 23.296875 45.90625 25.59375 44.796875 
Q 27.40625 44 28.40625 44 
Q 29.09375 44 30 45 
L 31.09375 45 
L 31.59375 31.40625 
L 30.09375 31.40625 
Q 28.40625 38.203125 25.84375 40.953125 
Q 23.296875 43.703125 18.796875 43.703125 
Q 15.40625 43.703125 13.34375 42 
Q 11.296875 40.296875 11.296875 36.90625 
Q 11.296875 35.203125 12.4375 33.25 
Q 13.59375 31.296875 15.59375 30.09375 
z
" id="STIXGeneral-Regular-115"/>
      <path d="M 40.796875 16.40625 
L 42.40625 15.703125 
Q 36.40625 -1 21.5 -1 
Q 12.703125 -1 7.59375 5.140625 
Q 2.5 11.296875 2.5 21.703125 
Q 2.5 32.40625 8.203125 39.203125 
Q 13.90625 46 23.203125 46 
Q 32.203125 46 37.09375 39.09375 
Q 40 35.09375 40.5 27.703125 
L 9.703125 27.703125 
Q 10.09375 21.40625 10.9375 18.09375 
Q 11.796875 14.796875 14.296875 11.40625 
Q 18.5 5.90625 25.40625 5.90625 
Q 30.296875 5.90625 33.640625 8.296875 
Q 37 10.703125 40.796875 16.40625 
z
M 9.90625 30.90625 
L 30.296875 30.90625 
Q 29.40625 37.203125 27.34375 39.796875 
Q 25.296875 42.40625 20.5 42.40625 
Q 16.296875 42.40625 13.5 39.453125 
Q 10.703125 36.5 9.90625 30.90625 
z
" id="STIXGeneral-Regular-101"/>
      <path d="M 49.09375 4.203125 
L 34.40625 -1 
L 34 -0.703125 
L 34 5.703125 
Q 29.203125 -1 21.203125 -1 
Q 12.90625 -1 7.796875 4.953125 
Q 2.703125 10.90625 2.703125 20.5 
Q 2.703125 31.09375 8.796875 38.546875 
Q 14.90625 46 23.5 46 
Q 28.90625 46 34 41.703125 
L 34 57.296875 
Q 34 60.40625 33.09375 61.40625 
Q 32.203125 62.40625 29.40625 62.40625 
Q 28 62.40625 27.203125 62.296875 
L 27.203125 63.90625 
Q 36.296875 66.296875 41.90625 68.296875 
L 42.40625 68.09375 
L 42.40625 11.40625 
Q 42.40625 7.90625 43.25 6.796875 
Q 44.09375 5.703125 46.796875 5.703125 
Q 47.40625 5.703125 49.09375 5.796875 
z
M 34 10.203125 
L 34 33.203125 
Q 34 37.203125 30.953125 40.203125 
Q 27.90625 43.203125 23.796875 43.203125 
Q 18.09375 43.203125 14.6875 38.09375 
Q 11.296875 33 11.296875 24.5 
Q 11.296875 15.296875 15.046875 9.75 
Q 18.796875 4.203125 25.09375 4.203125 
Q 29.796875 4.203125 32.5 7.40625 
Q 34 9.09375 34 10.203125 
z
" id="STIXGeneral-Regular-100"/>
      <path d="M 44.203125 6.59375 
L 44.203125 3.796875 
Q 40.40625 -1 35.203125 -1 
Q 29.5 -1 28.796875 6.296875 
L 28.703125 6.296875 
Q 22.296875 -1 14.203125 -1 
Q 9.5 -1 6.59375 1.75 
Q 3.703125 4.5 3.703125 9.40625 
Q 3.703125 16.40625 10.703125 21.09375 
Q 15.5 24.296875 28.703125 29.203125 
L 28.703125 34.59375 
Q 28.703125 39.09375 26.546875 41.34375 
Q 24.40625 43.59375 20.90625 43.59375 
Q 17.90625 43.59375 15.90625 42.140625 
Q 13.90625 40.703125 13.90625 38.703125 
Q 13.90625 37.796875 14.203125 36.6875 
Q 14.5 35.59375 14.5 34.5 
Q 14.5 33 13.140625 31.703125 
Q 11.796875 30.40625 9.90625 30.40625 
Q 8.203125 30.40625 6.890625 31.703125 
Q 5.59375 33 5.59375 35 
Q 5.59375 39.796875 10.703125 43 
Q 15.40625 46 22.203125 46 
Q 30.296875 46 34 41.5 
Q 35.796875 39.40625 36.296875 37.25 
Q 36.796875 35.09375 36.796875 30.40625 
L 36.796875 11.296875 
Q 36.796875 4.703125 39.90625 4.703125 
Q 41.90625 4.703125 44.203125 6.59375 
z
M 28.703125 12.703125 
L 28.703125 26.796875 
Q 19.5 23.59375 15.90625 20.203125 
Q 12.5 17.09375 12.5 12.5 
Q 12.5 8.703125 14.390625 6.75 
Q 16.296875 4.796875 19.40625 4.796875 
Q 22.703125 4.796875 25.203125 6.40625 
Q 27.296875 7.90625 28 9.203125 
Q 28.703125 10.5 28.703125 12.703125 
z
" id="STIXGeneral-Regular-97"/>
      <path d="M 16 45.796875 
L 16 36.59375 
Q 19.796875 42 22.34375 44 
Q 24.90625 46 28 46 
Q 30.59375 46 32.046875 44.59375 
Q 33.5 43.203125 33.5 40.703125 
Q 33.5 38.59375 32.453125 37.390625 
Q 31.40625 36.203125 29.59375 36.203125 
Q 27.703125 36.203125 25.59375 38.203125 
Q 24 39.703125 23 39.703125 
Q 20.90625 39.703125 18.453125 36.796875 
Q 16 33.90625 16 31.5 
L 16 9 
Q 16 4.703125 17.703125 3.203125 
Q 19.40625 1.703125 24.5 1.5 
L 24.5 0 
L 0.5 0 
L 0.5 1.5 
Q 5.296875 2.40625 6.4375 3.5 
Q 7.59375 4.59375 7.59375 8.40625 
L 7.59375 33.40625 
Q 7.59375 36.703125 6.84375 38.046875 
Q 6.09375 39.40625 4.203125 39.40625 
Q 2.59375 39.40625 0.703125 39 
L 0.703125 40.59375 
Q 7 42.59375 15.5 46 
z
" id="STIXGeneral-Regular-114"/>
     </defs>
     <g transform="translate(10.429687 162.38)rotate(-90)scale(0.1 -0.1)">
      <use transform="translate(0 0.109375)" xlink:href="#STIXGeneral-Regular-69"/>
      <use transform="translate(61.099991 0.109375)" xlink:href="#STIXGeneral-Regular-110"/>
      <use transform="translate(111.099976 0.109375)" xlink:href="#STIXGeneral-Regular-99"/>
      <use transform="translate(155.499969 0.109375)" xlink:href="#STIXGeneral-Regular-108"/>
      <use transform="translate(183.299957 0.109375)" xlink:href="#STIXGeneral-Regular-111"/>
      <use transform="translate(233.299942 0.109375)" xlink:href="#STIXGeneral-Regular-115"/>
      <use transform="translate(272.199936 0.109375)" xlink:href="#STIXGeneral-Regular-101"/>
      <use transform="translate(316.59993 0.109375)" xlink:href="#STIXGeneral-Regular-100"/>
      <use transform="translate(366.599915 0.109375)" xlink:href="#STIXGeneral-Regular-32"/>
      <use transform="translate(391.599899 0.109375)" xlink:href="#STIXGeneral-Regular-97"/>
      <use transform="translate(435.999893 0.109375)" xlink:href="#STIXGeneral-Regular-114"/>
      <use transform="translate(469.299881 0.109375)" xlink:href="#STIXGeneral-Regular-101"/>
      <use transform="translate(513.699875 0.109375)" xlink:href="#STIXGeneral-Regular-97"/>
      <use transform="translate(558.099869 0.109375)" xlink:href="#STIXGeneral-Regular-32"/>
      <use transform="translate(583.099854 20.484375)scale(0.860156)" xlink:href="#Cmr10-40"/>
      <use transform="translate(616.4897 0.109375)" xlink:href="#Cmr10-97"/>
      <use transform="translate(666.4897 0.109375)" xlink:href="#Cmr10-114"/>
      <use transform="translate(705.601028 0.109375)" xlink:href="#Cmr10-99"/>
      <use transform="translate(749.985794 0.109375)" xlink:href="#Cmr10-115"/>
      <use transform="translate(789.390091 0.109375)" xlink:href="#Cmr10-101"/>
      <use transform="translate(833.774857 0.109375)" xlink:href="#Cmr10-99"/>
      <use transform="translate(882.623763 38.373438)scale(0.7)" xlink:href="#Cmr10-50"/>
      <use transform="translate(924.001107 20.484375)scale(0.860156)" xlink:href="#Cmr10-41"/>
     </g>
    </g>
   </g>
   <g id="line2d_50">
    <path clip-path="url(#p5cd933d621)" d="M 37.8 254.610635 
L 44.632653 242.700285 
L 51.465306 232.695598 
L 58.297959 222.938583 
L 65.130612 213.071198 
L 71.963265 202.738228 
L 78.795918 194.811221 
L 85.628571 187.894165 
L 92.461224 181.547562 
L 99.293878 175.560627 
L 106.126531 169.446741 
L 112.959184 163.475204 
L 119.791837 157.802344 
L 126.62449 152.049604 
L 133.457143 145.659652 
L 140.289796 138.800831 
L 147.122449 132.620953 
L 153.955102 127.041582 
L 160.787755 121.564431 
L 167.620408 116.225813 
L 174.453061 110.655666 
L 181.285714 104.952559 
L 188.118367 99.378823 
L 194.95102 94.313709 
L 201.783673 89.841209 
L 208.616327 85.593184 
L 215.44898 81.503355 
L 222.281633 77.365251 
L 229.114286 73.408437 
L 235.946939 69.800261 
L 242.779592 66.33639 
L 249.612245 63.013878 
L 256.444898 59.839482 
L 263.277551 56.790885 
L 270.110204 53.922892 
L 276.942857 51.225044 
L 283.77551 48.630728 
L 290.608163 46.029839 
L 297.440816 43.601692 
L 304.273469 41.317125 
L 311.106122 39.173417 
L 317.938776 37.075182 
L 324.771429 35.057424 
L 331.604082 33.058729 
L 338.436735 31.135858 
L 345.269388 29.329253 
L 352.102041 27.654201 
L 358.934694 26.127799 
L 365.767347 24.68065 
L 372.6 23.360695 
" style="fill:none;stroke:#440154;stroke-linecap:square;stroke-width:1.5;"/>
   </g>
   <g id="line2d_51">
    <path clip-path="url(#p5cd933d621)" d="M 101.236107 260.56 
L 106.126531 255.991894 
L 112.959184 248.207309 
L 119.791837 235.042367 
L 126.62449 221.135548 
L 133.457143 206.808129 
L 140.289796 192.590431 
L 147.122449 180.368803 
L 153.955102 170.885055 
L 160.787755 162.451925 
L 167.620408 155.115584 
L 174.453061 148.944691 
L 181.285714 142.953743 
L 188.118367 137.535044 
L 194.95102 132.735419 
L 201.783673 128.326813 
L 208.616327 123.942433 
L 215.44898 119.603282 
L 222.281633 115.622451 
L 229.114286 111.940667 
L 235.946939 108.484883 
L 242.779592 105.019859 
L 249.612245 101.528156 
L 256.444898 98.096887 
L 263.277551 94.904783 
L 270.110204 91.948994 
L 276.942857 89.002608 
L 283.77551 85.947174 
L 290.608163 82.707199 
L 297.440816 79.499385 
L 304.273469 76.48771 
L 311.106122 73.503017 
L 317.938776 70.569716 
L 324.771429 67.580284 
L 331.604082 64.420285 
L 338.436735 61.206596 
L 345.269388 57.994212 
L 352.102041 54.665043 
L 358.934694 51.322962 
L 365.767347 48.051103 
L 372.6 44.775163 
" style="fill:none;stroke:#31688e;stroke-linecap:square;stroke-width:1.5;"/>
   </g>
   <g id="line2d_52">
    <path clip-path="url(#p5cd933d621)" d="M 193.024737 260.56 
L 194.95102 256.019924 
L 201.783673 241.029477 
L 208.616327 227.906036 
L 215.44898 214.882825 
L 222.281633 203.217869 
L 229.114286 192.546775 
L 235.946939 182.109424 
L 242.779592 171.600196 
L 249.612245 161.309699 
L 256.444898 152.656952 
L 263.277551 144.684708 
L 270.110204 136.619026 
L 276.942857 128.663089 
L 283.77551 121.759706 
L 290.608163 114.775865 
L 297.440816 108.449052 
L 304.273469 102.835878 
L 311.106122 97.686249 
L 317.938776 92.963128 
L 324.771429 88.682982 
L 331.604082 84.567023 
L 338.436735 80.5647 
L 345.269388 76.799724 
L 352.102041 73.082485 
L 358.934694 69.228663 
L 365.767347 65.268087 
L 372.6 61.076388 
" style="fill:none;stroke:#28ae80;stroke-linecap:square;stroke-width:1.5;"/>
   </g>
   <g id="line2d_53">
    <path clip-path="url(#p5cd933d621)" d="M 213.495421 260.56 
L 215.44898 254.902432 
L 222.281633 239.492536 
L 229.114286 225.490333 
L 235.946939 213.509557 
L 242.779592 203.264766 
L 249.612245 195.522657 
L 256.444898 188.844484 
L 263.277551 183.039347 
L 270.110204 177.494548 
L 276.942857 171.839082 
L 283.77551 166.396014 
L 290.608163 160.961935 
L 297.440816 155.393741 
L 304.273469 150.454911 
L 311.106122 145.880537 
L 317.938776 141.407287 
L 324.771429 137.184816 
L 331.604082 132.986612 
L 338.436735 128.743707 
L 345.269388 124.280196 
L 352.102041 119.75124 
L 358.934694 115.175856 
L 365.767347 110.329581 
L 372.6 105.55713 
" style="fill:none;stroke:#f4e61e;stroke-linecap:square;stroke-width:1.5;"/>
   </g>
   <g id="line2d_54">
    <defs>
     <path d="M -0.021559 3.429778 
Q -0.086853 2.972721 -0.318462 2.596973 
Q -0.548838 2.221225 -0.911035 1.961281 
Q -1.271999 1.701338 -1.715505 1.601549 
Q -1.769711 1.581837 -1.769711 1.528863 
L -1.769711 1.355157 
Q -1.769711 1.328054 -1.738912 1.30711 
Q -1.708113 1.286167 -1.684706 1.286167 
Q -1.677314 1.286167 -1.661299 1.293559 
Q -1.17221 1.397043 -0.7632 1.69025 
Q -0.352957 1.982225 -0.090549 2.413411 
L -0.090549 -3.357093 
Q -0.090549 -3.418691 -0.041271 -3.459345 
Q 0.00924 -3.5 0.067142 -3.5 
Q 0.125044 -3.5 0.174322 -3.459345 
Q 0.224833 -3.418691 0.224833 -3.357093 
L 0.224833 2.413411 
Q 0.48724 1.982225 0.901179 1.69025 
Q 1.315118 1.397043 1.795583 1.293559 
Q 1.811598 1.286167 1.81899 1.286167 
Q 1.849789 1.286167 1.876892 1.305878 
Q 1.903995 1.324358 1.903995 1.355157 
L 1.903995 1.528863 
Q 1.903995 1.543647 1.88798 1.569518 
Q 1.873196 1.594157 1.849789 1.601549 
Q 1.186994 1.744456 0.717617 2.252024 
Q 0.24824 2.760824 0.155843 3.429778 
Q 0.136132 3.5 0.067142 3.5 
Q -0.001848 3.5 -0.021559 3.429778 
z
" id="m84a742fcbd" style="stroke:#808080;"/>
    </defs>
    <g clip-path="url(#p5cd933d621)">
     <use style="fill:#808080;stroke:#808080;" x="197.588688" xlink:href="#m84a742fcbd" y="29.939186"/>
    </g>
   </g>
   <g id="line2d_55">
    <g clip-path="url(#p5cd933d621)">
     <use style="fill:#808080;stroke:#808080;" x="163.343163" xlink:href="#m84a742fcbd" y="140.880972"/>
    </g>
   </g>
   <g id="line2d_56">
    <g clip-path="url(#p5cd933d621)">
     <use style="fill:#808080;stroke:#808080;" x="237.319863" xlink:href="#m84a742fcbd" y="152.385142"/>
    </g>
   </g>
   <g id="line2d_57">
    <g clip-path="url(#p5cd933d621)">
     <use style="fill:#808080;stroke:#808080;" x="261" xlink:href="#m84a742fcbd" y="100.655993"/>
    </g>
   </g>
   <g id="line2d_58">
    <defs>
     <path d="M -2.5 2.5 
L 2.5 -2.5 
M -2.5 -2.5 
L 2.5 2.5 
" id="m33bf7d90f1" style="stroke:#808080;"/>
    </defs>
    <g clip-path="url(#p5cd933d621)">
     <use style="fill:#808080;stroke:#808080;" x="225.040327" xlink:href="#m33bf7d90f1" y="135.883272"/>
    </g>
   </g>
   <g id="line2d_59">
    <g clip-path="url(#p5cd933d621)">
     <use style="fill:#808080;stroke:#808080;" x="217.17502" xlink:href="#m33bf7d90f1" y="105.248635"/>
    </g>
   </g>
   <g id="line2d_60">
    <g clip-path="url(#p5cd933d621)">
     <use style="fill:#808080;stroke:#808080;" x="115.805052" xlink:href="#m33bf7d90f1" y="184.365619"/>
    </g>
   </g>
   <g id="line2d_61">
    <g clip-path="url(#p5cd933d621)">
     <use style="fill:#808080;stroke:#808080;" x="227.405052" xlink:href="#m33bf7d90f1" y="132.63647"/>
    </g>
   </g>
   <g id="line2d_62">
    <g clip-path="url(#p5cd933d621)">
     <use style="fill:#808080;stroke:#808080;" x="264.361209" xlink:href="#m33bf7d90f1" y="84.666461"/>
    </g>
   </g>
   <g id="line2d_63">
    <g clip-path="url(#p5cd933d621)">
     <use style="fill:#808080;stroke:#808080;" x="264.361209" xlink:href="#m33bf7d90f1" y="52.16377"/>
    </g>
   </g>
   <g id="line2d_64">
    <g clip-path="url(#p5cd933d621)">
     <use style="fill:#808080;stroke:#808080;" x="264.361209" xlink:href="#m33bf7d90f1" y="61.65991"/>
    </g>
   </g>
   <g id="line2d_65">
    <g clip-path="url(#p5cd933d621)">
     <use style="fill:#808080;stroke:#808080;" x="264.361209" xlink:href="#m33bf7d90f1" y="159.128197"/>
    </g>
   </g>
   <g id="line2d_66">
    <g clip-path="url(#p5cd933d621)">
     <use style="fill:#808080;stroke:#808080;" x="264.361209" xlink:href="#m33bf7d90f1" y="79.160841"/>
    </g>
   </g>
   <g id="line2d_67">
    <g clip-path="url(#p5cd933d621)">
     <use style="fill:#808080;stroke:#808080;" x="222.785629" xlink:href="#m33bf7d90f1" y="23.760749"/>
    </g>
   </g>
   <g id="line2d_68">
    <g clip-path="url(#p5cd933d621)">
     <use style="fill:#808080;stroke:#808080;" x="222.785629" xlink:href="#m33bf7d90f1" y="37.895437"/>
    </g>
   </g>
   <g id="line2d_69">
    <g clip-path="url(#p5cd933d621)">
     <use style="fill:#808080;stroke:#808080;" x="222.785629" xlink:href="#m33bf7d90f1" y="62.790745"/>
    </g>
   </g>
   <g id="line2d_70">
    <g clip-path="url(#p5cd933d621)">
     <use style="fill:#808080;stroke:#808080;" x="222.785629" xlink:href="#m33bf7d90f1" y="74.49478"/>
    </g>
   </g>
   <g id="line2d_71">
    <g clip-path="url(#p5cd933d621)">
     <use style="fill:#808080;stroke:#808080;" x="222.785629" xlink:href="#m33bf7d90f1" y="75.82759"/>
    </g>
   </g>
   <g id="line2d_72">
    <g clip-path="url(#p5cd933d621)">
     <use style="fill:#808080;stroke:#808080;" x="222.785629" xlink:href="#m33bf7d90f1" y="85.890003"/>
    </g>
   </g>
   <g id="line2d_73">
    <g clip-path="url(#p5cd933d621)">
     <use style="fill:#808080;stroke:#808080;" x="222.785629" xlink:href="#m33bf7d90f1" y="87.710593"/>
    </g>
   </g>
   <g id="line2d_74">
    <g clip-path="url(#p5cd933d621)">
     <use style="fill:#808080;stroke:#808080;" x="222.785629" xlink:href="#m33bf7d90f1" y="88.655319"/>
    </g>
   </g>
   <g id="line2d_75">
    <g clip-path="url(#p5cd933d621)">
     <use style="fill:#808080;stroke:#808080;" x="222.785629" xlink:href="#m33bf7d90f1" y="89.624587"/>
    </g>
   </g>
   <g id="line2d_76">
    <g clip-path="url(#p5cd933d621)">
     <use style="fill:#808080;stroke:#808080;" x="222.785629" xlink:href="#m33bf7d90f1" y="93.774937"/>
    </g>
   </g>
   <g id="line2d_77">
    <g clip-path="url(#p5cd933d621)">
     <use style="fill:#808080;stroke:#808080;" x="222.785629" xlink:href="#m33bf7d90f1" y="98.445362"/>
    </g>
   </g>
   <g id="line2d_78">
    <g clip-path="url(#p5cd933d621)">
     <use style="fill:#808080;stroke:#808080;" x="222.785629" xlink:href="#m33bf7d90f1" y="99.710388"/>
    </g>
   </g>
   <g id="line2d_79">
    <g clip-path="url(#p5cd933d621)">
     <use style="fill:#808080;stroke:#808080;" x="222.785629" xlink:href="#m33bf7d90f1" y="101.019809"/>
    </g>
   </g>
   <g id="line2d_80">
    <g clip-path="url(#p5cd933d621)">
     <use style="fill:#808080;stroke:#808080;" x="222.785629" xlink:href="#m33bf7d90f1" y="102.376857"/>
    </g>
   </g>
   <g id="line2d_81">
    <g clip-path="url(#p5cd933d621)">
     <use style="fill:#808080;stroke:#808080;" x="222.785629" xlink:href="#m33bf7d90f1" y="103.785126"/>
    </g>
   </g>
   <g id="line2d_82">
    <g clip-path="url(#p5cd933d621)">
     <use style="fill:#808080;stroke:#808080;" x="222.785629" xlink:href="#m33bf7d90f1" y="105.248635"/>
    </g>
   </g>
   <g id="line2d_83">
    <g clip-path="url(#p5cd933d621)">
     <use style="fill:#808080;stroke:#808080;" x="222.785629" xlink:href="#m33bf7d90f1" y="106.771895"/>
    </g>
   </g>
   <g id="line2d_84">
    <g clip-path="url(#p5cd933d621)">
     <use style="fill:#808080;stroke:#808080;" x="222.785629" xlink:href="#m33bf7d90f1" y="110.018698"/>
    </g>
   </g>
   <g id="line2d_85">
    <g clip-path="url(#p5cd933d621)">
     <use style="fill:#808080;stroke:#808080;" x="222.785629" xlink:href="#m33bf7d90f1" y="111.754578"/>
    </g>
   </g>
   <g id="line2d_86">
    <g clip-path="url(#p5cd933d621)">
     <use style="fill:#808080;stroke:#808080;" x="222.785629" xlink:href="#m33bf7d90f1" y="111.754578"/>
    </g>
   </g>
   <g id="line2d_87">
    <g clip-path="url(#p5cd933d621)">
     <use style="fill:#808080;stroke:#808080;" x="222.785629" xlink:href="#m33bf7d90f1" y="113.575168"/>
    </g>
   </g>
   <g id="line2d_88">
    <g clip-path="url(#p5cd933d621)">
     <use style="fill:#808080;stroke:#808080;" x="222.785629" xlink:href="#m33bf7d90f1" y="113.575168"/>
    </g>
   </g>
   <g id="line2d_89">
    <g clip-path="url(#p5cd933d621)">
     <use style="fill:#808080;stroke:#808080;" x="222.785629" xlink:href="#m33bf7d90f1" y="115.489161"/>
    </g>
   </g>
   <g id="line2d_90">
    <g clip-path="url(#p5cd933d621)">
     <use style="fill:#808080;stroke:#808080;" x="222.785629" xlink:href="#m33bf7d90f1" y="115.489161"/>
    </g>
   </g>
   <g id="line2d_91">
    <g clip-path="url(#p5cd933d621)">
     <use style="fill:#808080;stroke:#808080;" x="222.785629" xlink:href="#m33bf7d90f1" y="115.489161"/>
    </g>
   </g>
   <g id="line2d_92">
    <g clip-path="url(#p5cd933d621)">
     <use style="fill:#808080;stroke:#808080;" x="222.785629" xlink:href="#m33bf7d90f1" y="117.506663"/>
    </g>
   </g>
   <g id="line2d_93">
    <g clip-path="url(#p5cd933d621)">
     <use style="fill:#808080;stroke:#808080;" x="222.785629" xlink:href="#m33bf7d90f1" y="117.506663"/>
    </g>
   </g>
   <g id="line2d_94">
    <g clip-path="url(#p5cd933d621)">
     <use style="fill:#808080;stroke:#808080;" x="222.785629" xlink:href="#m33bf7d90f1" y="117.506663"/>
    </g>
   </g>
   <g id="line2d_95">
    <g clip-path="url(#p5cd933d621)">
     <use style="fill:#808080;stroke:#808080;" x="222.785629" xlink:href="#m33bf7d90f1" y="119.639512"/>
    </g>
   </g>
   <g id="line2d_96">
    <g clip-path="url(#p5cd933d621)">
     <use style="fill:#808080;stroke:#808080;" x="222.785629" xlink:href="#m33bf7d90f1" y="119.639512"/>
    </g>
   </g>
   <g id="line2d_97">
    <g clip-path="url(#p5cd933d621)">
     <use style="fill:#808080;stroke:#808080;" x="222.785629" xlink:href="#m33bf7d90f1" y="119.639512"/>
    </g>
   </g>
   <g id="line2d_98">
    <g clip-path="url(#p5cd933d621)">
     <use style="fill:#808080;stroke:#808080;" x="222.785629" xlink:href="#m33bf7d90f1" y="119.639512"/>
    </g>
   </g>
   <g id="line2d_99">
    <g clip-path="url(#p5cd933d621)">
     <use style="fill:#808080;stroke:#808080;" x="222.785629" xlink:href="#m33bf7d90f1" y="121.901701"/>
    </g>
   </g>
   <g id="line2d_100">
    <g clip-path="url(#p5cd933d621)">
     <use style="fill:#808080;stroke:#808080;" x="222.785629" xlink:href="#m33bf7d90f1" y="121.901701"/>
    </g>
   </g>
   <g id="line2d_101">
    <g clip-path="url(#p5cd933d621)">
     <use style="fill:#808080;stroke:#808080;" x="222.785629" xlink:href="#m33bf7d90f1" y="121.901701"/>
    </g>
   </g>
   <g id="line2d_102">
    <g clip-path="url(#p5cd933d621)">
     <use style="fill:#808080;stroke:#808080;" x="244.692111" xlink:href="#m33bf7d90f1" y="31.379676"/>
    </g>
   </g>
   <g id="line2d_103">
    <g clip-path="url(#p5cd933d621)">
     <use style="fill:#808080;stroke:#808080;" x="244.692111" xlink:href="#m33bf7d90f1" y="47.981238"/>
    </g>
   </g>
   <g id="line2d_104">
    <g clip-path="url(#p5cd933d621)">
     <use style="fill:#808080;stroke:#808080;" x="244.692111" xlink:href="#m33bf7d90f1" y="41.772419"/>
    </g>
   </g>
   <g id="line2d_105">
    <g clip-path="url(#p5cd933d621)">
     <use style="fill:#808080;stroke:#808080;" x="244.692111" xlink:href="#m33bf7d90f1" y="73.207939"/>
    </g>
   </g>
   <g id="line2d_106">
    <g clip-path="url(#p5cd933d621)">
     <use style="fill:#808080;stroke:#808080;" x="244.692111" xlink:href="#m33bf7d90f1" y="52.780556"/>
    </g>
   </g>
   <g id="line2d_107">
    <g clip-path="url(#p5cd933d621)">
     <use style="fill:#808080;stroke:#808080;" x="244.692111" xlink:href="#m33bf7d90f1" y="81.692922"/>
    </g>
   </g>
   <g id="line2d_108">
    <g clip-path="url(#p5cd933d621)">
     <use style="fill:#808080;stroke:#808080;" x="244.692111" xlink:href="#m33bf7d90f1" y="72.580787"/>
    </g>
   </g>
   <g id="line2d_109">
    <g clip-path="url(#p5cd933d621)">
     <use style="fill:#808080;stroke:#808080;" x="244.692111" xlink:href="#m33bf7d90f1" y="80.90732"/>
    </g>
   </g>
   <g id="line2d_110">
    <g clip-path="url(#p5cd933d621)">
     <use style="fill:#808080;stroke:#808080;" x="244.692111" xlink:href="#m33bf7d90f1" y="77.209773"/>
    </g>
   </g>
   <g id="line2d_111">
    <g clip-path="url(#p5cd933d621)">
     <use style="fill:#808080;stroke:#808080;" x="244.692111" xlink:href="#m33bf7d90f1" y="96.037126"/>
    </g>
   </g>
   <g id="line2d_112">
    <g clip-path="url(#p5cd933d621)">
     <use style="fill:#808080;stroke:#808080;" x="244.692111" xlink:href="#m33bf7d90f1" y="64.254254"/>
    </g>
   </g>
   <g id="line2d_113">
    <g clip-path="url(#p5cd933d621)">
     <use style="fill:#808080;stroke:#808080;" x="244.692111" xlink:href="#m33bf7d90f1" y="67.910363"/>
    </g>
   </g>
   <g id="line2d_114">
    <g clip-path="url(#p5cd933d621)">
     <use style="fill:#808080;stroke:#808080;" x="244.692111" xlink:href="#m33bf7d90f1" y="101.019809"/>
    </g>
   </g>
   <g id="patch_3">
    <path d="M 37.8 225.36 
L 37.8 3.6 
" style="fill:none;stroke:#000000;stroke-linecap:square;stroke-linejoin:miter;stroke-width:0.8;"/>
   </g>
   <g id="patch_4">
    <path d="M 372.6 225.36 
L 372.6 3.6 
" style="fill:none;stroke:#000000;stroke-linecap:square;stroke-linejoin:miter;stroke-width:0.8;"/>
   </g>
   <g id="patch_5">
    <path d="M 37.8 225.36 
L 372.6 225.36 
" style="fill:none;stroke:#000000;stroke-linecap:square;stroke-linejoin:miter;stroke-width:0.8;"/>
   </g>
   <g id="patch_6">
    <path d="M 37.8 3.6 
L 372.6 3.6 
" style="fill:none;stroke:#000000;stroke-linecap:square;stroke-linejoin:miter;stroke-width:0.8;"/>
   </g>
   <g id="legend_1">
    <g id="patch_7">
     <path d="M 44.8 82.451562 
L 117.359375 82.451562 
Q 119.359375 82.451562 119.359375 80.451562 
L 119.359375 10.6 
Q 119.359375 8.6 117.359375 8.6 
L 44.8 8.6 
Q 42.8 8.6 42.8 10.6 
L 42.8 80.451562 
Q 42.8 82.451562 44.8 82.451562 
z
" style="fill:#ffffff;opacity:0.8;stroke:#cccccc;stroke-linejoin:miter;"/>
    </g>
    <g id="line2d_115">
     <path d="M 46.8 16.1 
L 66.8 16.1 
" style="fill:none;stroke:#440154;stroke-linecap:square;stroke-width:1.5;"/>
    </g>
    <g id="line2d_116"/>
    <g id="text_10">
     <!-- z = 2 -->
     <defs>
      <path d="M 41.796875 13.59375 
L 40.296875 0 
L 2.703125 0 
L 2.703125 1.5 
L 29.296875 42 
L 15.796875 42 
Q 11.09375 42 9.4375 40.34375 
Q 7.796875 38.703125 7.09375 33.203125 
L 5.296875 33.203125 
L 5.703125 45 
L 40.296875 45 
L 40.296875 43.5 
L 13.40625 3 
L 26.703125 3 
Q 35.09375 3 37.296875 5.703125 
Q 38.703125 7.40625 40 14 
z
" id="STIXGeneral-Regular-122"/>
      <path d="M 63.703125 32 
L 4.796875 32 
L 4.796875 38.59375 
L 63.703125 38.59375 
z
M 63.703125 12 
L 4.796875 12 
L 4.796875 18.59375 
L 63.703125 18.59375 
z
" id="STIXGeneral-Regular-61"/>
     </defs>
     <g transform="translate(74.8 19.6)scale(0.1 -0.1)">
      <use xlink:href="#STIXGeneral-Regular-122"/>
      <use x="44.399994" xlink:href="#STIXGeneral-Regular-32"/>
      <use x="69.399979" xlink:href="#STIXGeneral-Regular-61"/>
      <use x="137.899963" xlink:href="#STIXGeneral-Regular-32"/>
      <use x="162.899948" xlink:href="#STIXGeneral-Regular-50"/>
     </g>
    </g>
    <g id="line2d_117">
     <path d="M 46.8 30.270312 
L 66.8 30.270312 
" style="fill:none;stroke:#31688e;stroke-linecap:square;stroke-width:1.5;"/>
    </g>
    <g id="line2d_118"/>
    <g id="text_11">
     <!-- z = 3 -->
     <defs>
      <path d="M 6.09375 51 
L 4.5 51.40625 
Q 6.796875 58.90625 11.6875 63.25 
Q 16.59375 67.59375 24.09375 67.59375 
Q 31.09375 67.59375 35.390625 63.796875 
Q 39.703125 60 39.703125 53.90625 
Q 39.703125 45.703125 30.40625 40.09375 
Q 35.90625 37.703125 38.703125 34.796875 
Q 43.09375 29.90625 43.09375 21.90625 
Q 43.09375 13.90625 38.5 7.90625 
Q 35.09375 3.296875 28.75 0.9375 
Q 22.40625 -1.40625 15.296875 -1.40625 
Q 4.09375 -1.40625 4.09375 4.296875 
Q 4.09375 5.90625 5.296875 6.90625 
Q 6.5 7.90625 8.203125 7.90625 
Q 10.703125 7.90625 14.296875 5.296875 
Q 18.703125 2.203125 22.90625 2.203125 
Q 28.40625 2.203125 32.15625 6.640625 
Q 35.90625 11.09375 35.90625 17.5 
Q 35.90625 29 25.5 32 
Q 22.40625 33 15.296875 33 
L 15.296875 34.40625 
Q 20.90625 36.296875 23.703125 38 
Q 31.796875 42.59375 31.796875 51.40625 
Q 31.796875 56.40625 28.9375 59 
Q 26.09375 61.59375 21 61.59375 
Q 12 61.59375 6.09375 51 
z
" id="STIXGeneral-Regular-51"/>
     </defs>
     <g transform="translate(74.8 33.770312)scale(0.1 -0.1)">
      <use xlink:href="#STIXGeneral-Regular-122"/>
      <use x="44.399994" xlink:href="#STIXGeneral-Regular-32"/>
      <use x="69.399979" xlink:href="#STIXGeneral-Regular-61"/>
      <use x="137.899963" xlink:href="#STIXGeneral-Regular-32"/>
      <use x="162.899948" xlink:href="#STIXGeneral-Regular-51"/>
     </g>
    </g>
    <g id="line2d_119">
     <path d="M 46.8 44.440625 
L 66.8 44.440625 
" style="fill:none;stroke:#28ae80;stroke-linecap:square;stroke-width:1.5;"/>
    </g>
    <g id="line2d_120"/>
    <g id="text_12">
     <!-- z = 4 -->
     <defs>
      <path d="M 47.296875 16.703125 
L 37 16.703125 
L 37 0 
L 29.203125 0 
L 29.203125 16.703125 
L 1.203125 16.703125 
L 1.203125 23.09375 
L 32.59375 67.59375 
L 37 67.59375 
L 37 23.09375 
L 47.296875 23.09375 
z
M 29.203125 23.09375 
L 29.203125 57.40625 
L 5.203125 23.09375 
z
" id="STIXGeneral-Regular-52"/>
     </defs>
     <g transform="translate(74.8 47.940625)scale(0.1 -0.1)">
      <use xlink:href="#STIXGeneral-Regular-122"/>
      <use x="44.399994" xlink:href="#STIXGeneral-Regular-32"/>
      <use x="69.399979" xlink:href="#STIXGeneral-Regular-61"/>
      <use x="137.899963" xlink:href="#STIXGeneral-Regular-32"/>
      <use x="162.899948" xlink:href="#STIXGeneral-Regular-52"/>
     </g>
    </g>
    <g id="line2d_121">
     <path d="M 46.8 58.610937 
L 66.8 58.610937 
" style="fill:none;stroke:#f4e61e;stroke-linecap:square;stroke-width:1.5;"/>
    </g>
    <g id="line2d_122"/>
    <g id="text_13">
     <!-- z = 5 -->
     <defs>
      <path d="M 43.796875 68.09375 
L 40.203125 59.59375 
Q 39.59375 58.296875 37.5 58.296875 
L 18.09375 58.296875 
L 14.09375 49.796875 
Q 25.09375 47.703125 30 45.25 
Q 34.90625 42.796875 39.09375 37 
Q 42.59375 32.203125 42.59375 24.296875 
Q 42.59375 17.09375 40.25 12.1875 
Q 37.90625 7.296875 32.796875 3.5 
Q 26 -1.40625 15.796875 -1.40625 
Q 10.09375 -1.40625 6.59375 0.296875 
Q 3.09375 2 3.09375 4.796875 
Q 3.09375 8.59375 7.59375 8.59375 
Q 11.203125 8.59375 15 5.5 
Q 18.90625 2.296875 22.09375 2.296875 
Q 27.296875 2.296875 31.4375 7.5 
Q 35.59375 12.703125 35.59375 19.203125 
Q 35.59375 28.796875 28.90625 34.203125 
Q 20.203125 41.203125 7.59375 41.203125 
Q 6.40625 41.203125 6.40625 42 
L 6.5 42.5 
L 17.40625 66.203125 
L 38.09375 66.203125 
Q 39.796875 66.203125 40.75 66.703125 
Q 41.703125 67.203125 42.90625 68.796875 
z
" id="STIXGeneral-Regular-53"/>
     </defs>
     <g transform="translate(74.8 62.110937)scale(0.1 -0.1)">
      <use xlink:href="#STIXGeneral-Regular-122"/>
      <use x="44.399994" xlink:href="#STIXGeneral-Regular-32"/>
      <use x="69.399979" xlink:href="#STIXGeneral-Regular-61"/>
      <use x="137.899963" xlink:href="#STIXGeneral-Regular-32"/>
      <use x="162.899948" xlink:href="#STIXGeneral-Regular-53"/>
     </g>
    </g>
    <g id="line2d_123"/>
    <g id="line2d_124">
     <g>
      <use style="fill:#808080;stroke:#808080;" x="56.8" xlink:href="#m33bf7d90f1" y="72.78125"/>
     </g>
    </g>
    <g id="text_14">
     <!-- Lit. LABs -->
     <defs>
      <path d="M 59.796875 17.40625 
L 55 0 
L 1.203125 0 
L 1.203125 1.90625 
Q 6.703125 2.203125 8.296875 4 
Q 9.90625 5.796875 9.90625 11.5 
L 9.90625 54.59375 
Q 9.90625 60.5 8.453125 62.203125 
Q 7 63.90625 1.203125 64.296875 
L 1.203125 66.203125 
L 29.5 66.203125 
L 29.5 64.296875 
Q 23.40625 63.90625 21.75 62.25 
Q 20.09375 60.59375 20.09375 54.796875 
L 20.09375 8.40625 
Q 20.09375 5.59375 21.84375 4.75 
Q 23.59375 3.90625 29.09375 3.90625 
L 36.09375 3.90625 
Q 48.203125 3.90625 53 10 
Q 55 12.703125 57.203125 17.40625 
z
" id="STIXGeneral-Regular-76"/>
      <path d="M 18 63.203125 
Q 18 61 16.5 59.546875 
Q 15 58.09375 12.796875 58.09375 
Q 10.703125 58.09375 9.25 59.546875 
Q 7.796875 61 7.796875 63.203125 
Q 7.796875 65.296875 9.296875 66.796875 
Q 10.796875 68.296875 12.90625 68.296875 
Q 15.09375 68.296875 16.546875 66.796875 
Q 18 65.296875 18 63.203125 
z
M 25.296875 0 
L 1.59375 0 
L 1.59375 1.5 
Q 6.796875 1.796875 8.140625 3.296875 
Q 9.5 4.796875 9.5 10.40625 
L 9.5 33.09375 
Q 9.5 36.59375 8.796875 38 
Q 8.09375 39.40625 6.203125 39.40625 
Q 3.796875 39.40625 2 38.90625 
L 2 40.5 
L 17.5 46 
L 17.90625 45.59375 
L 17.90625 10.5 
Q 17.90625 4.90625 19.15625 3.40625 
Q 20.40625 1.90625 25.296875 1.5 
z
" id="STIXGeneral-Regular-105"/>
      <path d="M 18.09375 4.296875 
Q 18.09375 2.09375 16.4375 0.5 
Q 14.796875 -1.09375 12.5 -1.09375 
Q 10.203125 -1.09375 8.59375 0.5 
Q 7 2.09375 7 4.390625 
Q 7 6.703125 8.640625 8.34375 
Q 10.296875 10 12.59375 10 
Q 14.796875 10 16.4375 8.296875 
Q 18.09375 6.59375 18.09375 4.296875 
z
" id="STIXGeneral-Regular-46"/>
      <path d="M 70.703125 0 
L 45.203125 0 
L 45.203125 1.90625 
Q 49.203125 1.90625 50.703125 2.796875 
Q 52.09375 3.5 52.09375 5.203125 
Q 52.09375 7.796875 50.203125 12.203125 
L 46.09375 21.59375 
L 19.90625 21.59375 
L 15.296875 10.203125 
Q 14.40625 7.90625 14.40625 6 
Q 14.40625 3.703125 16.046875 2.796875 
Q 17.703125 1.90625 21.40625 1.90625 
L 21.40625 0 
L 1.5 0 
L 1.5 1.90625 
Q 5.703125 2.296875 7.59375 4.9375 
Q 9.5 7.59375 14.09375 18.59375 
L 34.703125 67.40625 
L 36.703125 67.40625 
L 61.296875 11.09375 
Q 63.5 5.90625 65.25 4.09375 
Q 67 2.296875 70.703125 1.90625 
z
M 44.703125 25.703125 
L 33.09375 53.203125 
L 21.59375 25.703125 
z
" id="STIXGeneral-Regular-65"/>
     </defs>
     <g transform="translate(74.8 76.28125)scale(0.1 -0.1)">
      <use xlink:href="#STIXGeneral-Regular-76"/>
      <use x="61.099991" xlink:href="#STIXGeneral-Regular-105"/>
      <use x="88.899979" xlink:href="#STIXGeneral-Regular-116"/>
      <use x="116.699966" xlink:href="#STIXGeneral-Regular-46"/>
      <use x="141.699951" xlink:href="#STIXGeneral-Regular-32"/>
      <use x="166.699936" xlink:href="#STIXGeneral-Regular-76"/>
      <use x="227.799927" xlink:href="#STIXGeneral-Regular-65"/>
      <use x="299.999908" xlink:href="#STIXGeneral-Regular-66"/>
      <use x="366.699905" xlink:href="#STIXGeneral-Regular-115"/>
     </g>
    </g>
   </g>
  </g>
 </g>
 <defs>
  <clipPath id="p5cd933d621">
   <rect height="221.76" width="334.8" x="37.8" y="3.6"/>
  </clipPath>
 </defs>
</svg>
