<?xml version="1.0" encoding="utf-8" standalone="no"?>
<!DOCTYPE svg PUBLIC "-//W3C//DTD SVG 1.1//EN"
  "http://www.w3.org/Graphics/SVG/1.1/DTD/svg11.dtd">
<!-- Created with matplotlib (https://matplotlib.org/) -->
<svg height="314.7pt" version="1.1" viewBox="0 0 451.2 314.7" width="451.2pt" xmlns="http://www.w3.org/2000/svg" xmlns:xlink="http://www.w3.org/1999/xlink">
 <defs>
  <style type="text/css">
*{stroke-linecap:butt;stroke-linejoin:round;}
  </style>
 </defs>
 <g id="figure_1">
  <g id="patch_1">
   <path d="M 0 314.7 
L 451.2 314.7 
L 451.2 0 
L 0 0 
z
" style="fill:#ffffff;"/>
  </g>
  <g id="axes_1">
   <g id="patch_2">
    <path d="M 57 280.8 
L 447.6 280.8 
L 447.6 3.6 
L 57 3.6 
z
" style="fill:#ffffff;"/>
   </g>
   <g id="matplotlib.axis_1">
    <g id="xtick_1">
     <g id="line2d_1">
      <defs>
       <path d="M 0 0 
L 0 3.5 
" id="m4534399390" style="stroke:#000000;stroke-width:0.8;"/>
      </defs>
      <g>
       <use style="stroke:#000000;stroke-width:0.8;" x="74.754545" xlink:href="#m4534399390" y="280.8"/>
      </g>
     </g>
     <g id="text_1">
      <!-- $\mathdefault{10^{-1}}$ -->
      <defs>
       <path d="M 39.40625 0 
L 11.796875 0 
L 11.796875 1.5 
Q 17.296875 1.796875 19.296875 3.546875 
Q 21.296875 5.296875 21.296875 9.5 
L 21.296875 54.40625 
Q 21.296875 59.296875 18.296875 59.296875 
Q 16.90625 59.296875 13.796875 58.09375 
L 11.09375 57.09375 
L 11.09375 58.5 
L 29 67.59375 
L 29.90625 67.296875 
L 29.90625 7.59375 
Q 29.90625 4.296875 31.90625 2.890625 
Q 33.90625 1.5 39.40625 1.5 
z
" id="STIXGeneral-Regular-49"/>
       <path d="M 47.59375 33 
Q 47.59375 26.296875 46.296875 20.34375 
Q 45 14.40625 42.453125 9.40625 
Q 39.90625 4.40625 35.40625 1.5 
Q 30.90625 -1.40625 25 -1.40625 
Q 18.90625 -1.40625 14.296875 1.6875 
Q 9.703125 4.796875 7.203125 10 
Q 4.703125 15.203125 3.546875 21.09375 
Q 2.40625 27 2.40625 33.59375 
Q 2.40625 42.90625 4.703125 50.34375 
Q 7 57.796875 12.34375 62.6875 
Q 17.703125 67.59375 25.40625 67.59375 
Q 35.203125 67.59375 41.390625 58 
Q 47.59375 48.40625 47.59375 33 
z
M 38 32.5 
Q 38 48.296875 34.640625 56.640625 
Q 31.296875 65 24.796875 65 
Q 18.59375 65 15.296875 56.59375 
Q 12 48.203125 12 32.90625 
Q 12 17.5 15.296875 9.34375 
Q 18.59375 1.203125 25 1.203125 
Q 31.296875 1.203125 34.640625 9.34375 
Q 38 17.5 38 32.5 
z
" id="STIXGeneral-Regular-48"/>
       <path d="M 28.5 19.40625 
L 3.90625 19.40625 
L 3.90625 25.703125 
L 28.5 25.703125 
z
" id="STIXGeneral-Regular-45"/>
      </defs>
      <g transform="translate(66.504545 294.629688)scale(0.1 -0.1)">
       <use transform="translate(0 0.684375)" xlink:href="#STIXGeneral-Regular-49"/>
       <use transform="translate(49.999985 0.684375)" xlink:href="#STIXGeneral-Regular-48"/>
       <use transform="translate(101.574969 36.684375)scale(0.7)" xlink:href="#STIXGeneral-Regular-45"/>
       <use transform="translate(124.884961 36.684375)scale(0.7)" xlink:href="#STIXGeneral-Regular-49"/>
      </g>
     </g>
    </g>
    <g id="xtick_2">
     <g id="line2d_2">
      <g>
       <use style="stroke:#000000;stroke-width:0.8;" x="252.3" xlink:href="#m4534399390" y="280.8"/>
      </g>
     </g>
     <g id="text_2">
      <!-- $\mathdefault{10^{0}}$ -->
      <g transform="translate(245.2 294.629688)scale(0.1 -0.1)">
       <use transform="translate(0 0.684375)" xlink:href="#STIXGeneral-Regular-49"/>
       <use transform="translate(49.999985 0.684375)" xlink:href="#STIXGeneral-Regular-48"/>
       <use transform="translate(101.574969 36.684375)scale(0.7)" xlink:href="#STIXGeneral-Regular-48"/>
      </g>
     </g>
    </g>
    <g id="xtick_3">
     <g id="line2d_3">
      <g>
       <use style="stroke:#000000;stroke-width:0.8;" x="429.845455" xlink:href="#m4534399390" y="280.8"/>
      </g>
     </g>
     <g id="text_3">
      <!-- $\mathdefault{10^{1}}$ -->
      <g transform="translate(422.745455 294.629688)scale(0.1 -0.1)">
       <use transform="translate(0 0.684375)" xlink:href="#STIXGeneral-Regular-49"/>
       <use transform="translate(49.999985 0.684375)" xlink:href="#STIXGeneral-Regular-48"/>
       <use transform="translate(101.574969 36.684375)scale(0.7)" xlink:href="#STIXGeneral-Regular-49"/>
      </g>
     </g>
    </g>
    <g id="xtick_4">
     <g id="line2d_4">
      <defs>
       <path d="M 0 0 
L 0 2 
" id="m6ca396df82" style="stroke:#000000;stroke-width:0.6;"/>
      </defs>
      <g>
       <use style="stroke:#000000;stroke-width:0.6;" x="57.548613" xlink:href="#m6ca396df82" y="280.8"/>
      </g>
     </g>
    </g>
    <g id="xtick_5">
     <g id="line2d_5">
      <g>
       <use style="stroke:#000000;stroke-width:0.6;" x="66.630511" xlink:href="#m6ca396df82" y="280.8"/>
      </g>
     </g>
    </g>
    <g id="xtick_6">
     <g id="line2d_6">
      <g>
       <use style="stroke:#000000;stroke-width:0.6;" x="128.201053" xlink:href="#m6ca396df82" y="280.8"/>
      </g>
     </g>
    </g>
    <g id="xtick_7">
     <g id="line2d_7">
      <g>
       <use style="stroke:#000000;stroke-width:0.6;" x="159.465255" xlink:href="#m6ca396df82" y="280.8"/>
      </g>
     </g>
    </g>
    <g id="xtick_8">
     <g id="line2d_8">
      <g>
       <use style="stroke:#000000;stroke-width:0.6;" x="181.64756" xlink:href="#m6ca396df82" y="280.8"/>
      </g>
     </g>
    </g>
    <g id="xtick_9">
     <g id="line2d_9">
      <g>
       <use style="stroke:#000000;stroke-width:0.6;" x="198.853493" xlink:href="#m6ca396df82" y="280.8"/>
      </g>
     </g>
    </g>
    <g id="xtick_10">
     <g id="line2d_10">
      <g>
       <use style="stroke:#000000;stroke-width:0.6;" x="212.911763" xlink:href="#m6ca396df82" y="280.8"/>
      </g>
     </g>
    </g>
    <g id="xtick_11">
     <g id="line2d_11">
      <g>
       <use style="stroke:#000000;stroke-width:0.6;" x="224.797861" xlink:href="#m6ca396df82" y="280.8"/>
      </g>
     </g>
    </g>
    <g id="xtick_12">
     <g id="line2d_12">
      <g>
       <use style="stroke:#000000;stroke-width:0.6;" x="235.094068" xlink:href="#m6ca396df82" y="280.8"/>
      </g>
     </g>
    </g>
    <g id="xtick_13">
     <g id="line2d_13">
      <g>
       <use style="stroke:#000000;stroke-width:0.6;" x="244.175966" xlink:href="#m6ca396df82" y="280.8"/>
      </g>
     </g>
    </g>
    <g id="xtick_14">
     <g id="line2d_14">
      <g>
       <use style="stroke:#000000;stroke-width:0.6;" x="305.746507" xlink:href="#m6ca396df82" y="280.8"/>
      </g>
     </g>
    </g>
    <g id="xtick_15">
     <g id="line2d_15">
      <g>
       <use style="stroke:#000000;stroke-width:0.6;" x="337.01071" xlink:href="#m6ca396df82" y="280.8"/>
      </g>
     </g>
    </g>
    <g id="xtick_16">
     <g id="line2d_16">
      <g>
       <use style="stroke:#000000;stroke-width:0.6;" x="359.193015" xlink:href="#m6ca396df82" y="280.8"/>
      </g>
     </g>
    </g>
    <g id="xtick_17">
     <g id="line2d_17">
      <g>
       <use style="stroke:#000000;stroke-width:0.6;" x="376.398947" xlink:href="#m6ca396df82" y="280.8"/>
      </g>
     </g>
    </g>
    <g id="xtick_18">
     <g id="line2d_18">
      <g>
       <use style="stroke:#000000;stroke-width:0.6;" x="390.457217" xlink:href="#m6ca396df82" y="280.8"/>
      </g>
     </g>
    </g>
    <g id="xtick_19">
     <g id="line2d_19">
      <g>
       <use style="stroke:#000000;stroke-width:0.6;" x="402.343316" xlink:href="#m6ca396df82" y="280.8"/>
      </g>
     </g>
    </g>
    <g id="xtick_20">
     <g id="line2d_20">
      <g>
       <use style="stroke:#000000;stroke-width:0.6;" x="412.639522" xlink:href="#m6ca396df82" y="280.8"/>
      </g>
     </g>
    </g>
    <g id="xtick_21">
     <g id="line2d_21">
      <g>
       <use style="stroke:#000000;stroke-width:0.6;" x="421.72142" xlink:href="#m6ca396df82" y="280.8"/>
      </g>
     </g>
    </g>
    <g id="text_4">
     <!-- $f_{\rm{Eddington}}$ -->
     <defs>
      <path d="M 9.71875 -16.5 
Q 11.578125 -17.921875 14.203125 -17.921875 
Q 17.78125 -17.921875 20.015625 -10.015625 
Q 20.953125 -6.203125 25.09375 15.09375 
L 29.6875 39.59375 
L 21.09375 39.59375 
Q 20.125 39.59375 20.125 40.921875 
Q 20.515625 43.109375 21.390625 43.109375 
L 30.328125 43.109375 
L 31.5 49.609375 
Q 32.078125 52.640625 32.5625 54.8125 
Q 33.0625 56.984375 33.625 58.828125 
Q 34.1875 60.6875 35.296875 62.984375 
Q 37.015625 66.265625 39.921875 68.390625 
Q 42.828125 70.515625 46.1875 70.515625 
Q 48.390625 70.515625 50.46875 69.703125 
Q 52.546875 68.890625 53.859375 67.28125 
Q 55.171875 65.671875 55.171875 63.484375 
Q 55.171875 60.9375 53.484375 59.046875 
Q 51.8125 57.171875 49.421875 57.171875 
Q 47.796875 57.171875 46.65625 58.171875 
Q 45.515625 59.1875 45.515625 60.796875 
Q 45.515625 62.984375 47 64.625 
Q 48.484375 66.265625 50.6875 66.5 
Q 48.828125 67.921875 46.09375 67.921875 
Q 44.578125 67.921875 43.234375 66.5 
Q 41.890625 65.09375 41.5 63.484375 
Q 40.875 60.9375 38.71875 49.703125 
L 37.5 43.109375 
L 47.796875 43.109375 
Q 48.78125 43.109375 48.78125 41.796875 
Q 48.734375 41.546875 48.578125 40.9375 
Q 48.4375 40.328125 48.171875 39.953125 
Q 47.90625 39.59375 47.515625 39.59375 
L 36.8125 39.59375 
L 32.171875 15.1875 
Q 31.296875 9.859375 30.140625 4.359375 
Q 29 -1.125 26.921875 -6.90625 
Q 24.859375 -12.703125 21.625 -16.609375 
Q 18.40625 -20.515625 14.015625 -20.515625 
Q 10.640625 -20.515625 7.984375 -18.578125 
Q 5.328125 -16.65625 5.328125 -13.484375 
Q 5.328125 -10.9375 6.953125 -9.046875 
Q 8.59375 -7.171875 11.078125 -7.171875 
Q 12.75 -7.171875 13.859375 -8.171875 
Q 14.984375 -9.1875 14.984375 -10.796875 
Q 14.984375 -12.9375 13.390625 -14.71875 
Q 11.8125 -16.5 9.71875 -16.5 
z
" id="Cmmi10-102"/>
      <path d="M 3.078125 0 
L 3.078125 3.515625 
Q 13.375 3.515625 13.375 6.6875 
L 13.375 61.625 
Q 13.375 64.796875 3.078125 64.796875 
L 3.078125 68.3125 
L 59.625 68.3125 
L 62.40625 45.40625 
L 59.515625 45.40625 
Q 58.453125 54.046875 56.515625 57.953125 
Q 54.59375 61.859375 50.34375 63.328125 
Q 46.09375 64.796875 37.59375 64.796875 
L 27.78125 64.796875 
Q 25.984375 64.796875 24.96875 64.640625 
Q 23.96875 64.5 23.328125 63.796875 
Q 22.703125 63.09375 22.703125 61.625 
L 22.703125 37.203125 
L 30.078125 37.203125 
Q 35.15625 37.203125 37.671875 38.0625 
Q 40.1875 38.921875 41.140625 41.328125 
Q 42.09375 43.75 42.09375 48.875 
L 45.015625 48.875 
L 45.015625 22.015625 
L 42.09375 22.015625 
Q 42.09375 27.09375 41.140625 29.53125 
Q 40.1875 31.984375 37.671875 32.828125 
Q 35.15625 33.6875 30.078125 33.6875 
L 22.703125 33.6875 
L 22.703125 6.6875 
Q 22.703125 4.546875 23.921875 4.03125 
Q 25.140625 3.515625 27.78125 3.515625 
L 38.375 3.515625 
Q 45.3125 3.515625 49.578125 4.609375 
Q 53.859375 5.71875 56.21875 8.28125 
Q 58.59375 10.84375 59.890625 14.921875 
Q 61.1875 19 62.3125 26.21875 
L 65.1875 26.21875 
L 60.984375 0 
z
" id="Cmr10-69"/>
      <path d="M 24.421875 -1.125 
Q 18.5 -1.125 13.609375 2.078125 
Q 8.734375 5.28125 6.03125 10.5 
Q 3.328125 15.71875 3.328125 21.578125 
Q 3.328125 27.640625 6.28125 32.828125 
Q 9.234375 38.03125 14.3125 41.109375 
Q 19.390625 44.1875 25.484375 44.1875 
Q 29.15625 44.1875 32.421875 42.640625 
Q 35.6875 41.109375 38.09375 38.375 
L 38.09375 59.1875 
Q 38.09375 61.859375 37.28125 63.0625 
Q 36.46875 64.265625 34.984375 64.53125 
Q 33.5 64.796875 30.328125 64.796875 
L 30.328125 68.3125 
L 45.125 69.390625 
L 45.125 9.078125 
Q 45.125 6.453125 45.921875 5.25 
Q 46.734375 4.046875 48.21875 3.78125 
Q 49.703125 3.515625 52.875 3.515625 
L 52.875 0 
L 37.796875 -1.125 
L 37.796875 5.171875 
Q 35.203125 2.203125 31.640625 0.53125 
Q 28.078125 -1.125 24.421875 -1.125 
z
M 14.203125 8.6875 
Q 15.921875 5.421875 18.765625 3.46875 
Q 21.625 1.515625 25 1.515625 
Q 29.15625 1.515625 32.609375 3.90625 
Q 36.078125 6.296875 37.796875 10.109375 
L 37.796875 34.078125 
Q 36.625 36.28125 34.84375 38.015625 
Q 33.0625 39.75 30.828125 40.671875 
Q 28.609375 41.609375 26.125 41.609375 
Q 20.90625 41.609375 17.71875 38.640625 
Q 14.546875 35.6875 13.28125 31.09375 
Q 12.015625 26.515625 12.015625 21.484375 
Q 12.015625 17.484375 12.421875 14.5 
Q 12.84375 11.53125 14.203125 8.6875 
z
" id="Cmr10-100"/>
      <path d="M 3.078125 0 
L 3.078125 3.515625 
Q 6.5 3.515625 8.6875 4.046875 
Q 10.890625 4.59375 10.890625 6.6875 
L 10.890625 33.984375 
Q 10.890625 37.84375 9.390625 38.71875 
Q 7.90625 39.59375 3.515625 39.59375 
L 3.515625 43.109375 
L 17.921875 44.1875 
L 17.921875 6.6875 
Q 17.921875 4.59375 19.828125 4.046875 
Q 21.734375 3.515625 24.90625 3.515625 
L 24.90625 0 
z
M 7.328125 61.375 
Q 7.328125 63.578125 8.984375 65.234375 
Q 10.640625 66.890625 12.796875 66.890625 
Q 14.203125 66.890625 15.515625 66.15625 
Q 16.84375 65.4375 17.578125 64.109375 
Q 18.3125 62.796875 18.3125 61.375 
Q 18.3125 59.234375 16.640625 57.5625 
Q 14.984375 55.90625 12.796875 55.90625 
Q 10.640625 55.90625 8.984375 57.5625 
Q 7.328125 59.234375 7.328125 61.375 
z
" id="Cmr10-105"/>
      <path d="M 2.984375 0 
L 2.984375 3.515625 
Q 6.390625 3.515625 8.59375 4.046875 
Q 10.796875 4.59375 10.796875 6.6875 
L 10.796875 33.984375 
Q 10.796875 36.671875 9.984375 37.859375 
Q 9.1875 39.0625 7.671875 39.328125 
Q 6.15625 39.59375 2.984375 39.59375 
L 2.984375 43.109375 
L 17.484375 44.1875 
L 17.484375 34.421875 
Q 19.484375 38.71875 23.40625 41.453125 
Q 27.34375 44.1875 31.984375 44.1875 
Q 38.921875 44.1875 42.40625 40.859375 
Q 45.90625 37.546875 45.90625 30.71875 
L 45.90625 6.6875 
Q 45.90625 4.59375 48.09375 4.046875 
Q 50.296875 3.515625 53.71875 3.515625 
L 53.71875 0 
L 30.8125 0 
L 30.8125 3.515625 
Q 34.234375 3.515625 36.421875 4.046875 
Q 38.625 4.59375 38.625 6.6875 
L 38.625 30.421875 
Q 38.625 35.296875 37.203125 38.453125 
Q 35.796875 41.609375 31.390625 41.609375 
Q 25.59375 41.609375 21.84375 36.96875 
Q 18.109375 32.328125 18.109375 26.421875 
L 18.109375 6.6875 
Q 18.109375 4.59375 20.3125 4.046875 
Q 22.515625 3.515625 25.875 3.515625 
L 25.875 0 
z
" id="Cmr10-110"/>
      <path d="M 2.78125 -7.8125 
Q 2.78125 -4.25 5.359375 -1.578125 
Q 7.953125 1.078125 11.53125 2.203125 
Q 9.515625 3.71875 8.46875 6 
Q 7.421875 8.296875 7.421875 10.890625 
Q 7.421875 15.578125 10.40625 19.1875 
Q 5.8125 23.6875 5.8125 29.5 
Q 5.8125 32.625 7.15625 35.359375 
Q 8.5 38.09375 10.890625 40.09375 
Q 13.28125 42.09375 16.203125 43.140625 
Q 19.140625 44.1875 22.21875 44.1875 
Q 28.171875 44.1875 32.90625 40.71875 
Q 34.96875 42.921875 37.765625 44.109375 
Q 40.578125 45.3125 43.609375 45.3125 
Q 45.75 45.3125 47.109375 43.765625 
Q 48.484375 42.234375 48.484375 40.09375 
Q 48.484375 38.875 47.546875 37.9375 
Q 46.625 37.015625 45.40625 37.015625 
Q 44.140625 37.015625 43.203125 37.9375 
Q 42.28125 38.875 42.28125 40.09375 
Q 42.28125 41.9375 43.5 42.671875 
Q 38.328125 42.671875 34.625 39.109375 
Q 36.421875 37.3125 37.515625 34.6875 
Q 38.625 32.078125 38.625 29.5 
Q 38.625 25.25 36.28125 21.84375 
Q 33.9375 18.453125 30.09375 16.578125 
Q 26.265625 14.703125 22.21875 14.703125 
Q 16.75 14.703125 12.203125 17.671875 
Q 10.796875 15.71875 10.796875 13.28125 
Q 10.796875 10.640625 12.53125 8.65625 
Q 14.265625 6.6875 16.890625 6.6875 
L 25.09375 6.6875 
Q 31.0625 6.6875 35.84375 5.609375 
Q 40.625 4.546875 43.875 1.3125 
Q 47.125 -1.90625 47.125 -7.8125 
Q 47.125 -12.203125 43.40625 -15.109375 
Q 39.703125 -18.015625 34.546875 -19.3125 
Q 29.390625 -20.609375 25 -20.609375 
Q 20.5625 -20.609375 15.375 -19.3125 
Q 10.203125 -18.015625 6.484375 -15.109375 
Q 2.78125 -12.203125 2.78125 -7.8125 
z
M 8.40625 -7.8125 
Q 8.40625 -11.1875 11.140625 -13.453125 
Q 13.875 -15.71875 17.71875 -16.8125 
Q 21.578125 -17.921875 25 -17.921875 
Q 28.375 -17.921875 32.21875 -16.8125 
Q 36.078125 -15.71875 38.78125 -13.453125 
Q 41.5 -11.1875 41.5 -7.8125 
Q 41.5 -2.59375 36.71875 -1.046875 
Q 31.9375 0.484375 25.09375 0.484375 
L 16.890625 0.484375 
Q 14.59375 0.484375 12.671875 -0.609375 
Q 10.75 -1.703125 9.578125 -3.6875 
Q 8.40625 -5.671875 8.40625 -7.8125 
z
M 22.21875 17.390625 
Q 30.71875 17.390625 30.71875 29.5 
Q 30.71875 34.71875 28.90625 38.109375 
Q 27.09375 41.5 22.21875 41.5 
Q 17.328125 41.5 15.515625 38.109375 
Q 13.71875 34.71875 13.71875 29.5 
Q 13.71875 26.171875 14.40625 23.484375 
Q 15.09375 20.796875 16.9375 19.09375 
Q 18.796875 17.390625 22.21875 17.390625 
z
" id="Cmr10-103"/>
      <path d="M 10.203125 12.015625 
L 10.203125 39.59375 
L 1.90625 39.59375 
L 1.90625 42.1875 
Q 8.453125 42.1875 11.515625 48.28125 
Q 14.59375 54.390625 14.59375 61.53125 
L 17.484375 61.53125 
L 17.484375 43.109375 
L 31.59375 43.109375 
L 31.59375 39.59375 
L 17.484375 39.59375 
L 17.484375 12.203125 
Q 17.484375 8.0625 18.875 4.9375 
Q 20.265625 1.8125 23.875 1.8125 
Q 27.296875 1.8125 28.8125 5.109375 
Q 30.328125 8.40625 30.328125 12.203125 
L 30.328125 18.109375 
L 33.203125 18.109375 
L 33.203125 12.015625 
Q 33.203125 8.890625 32.046875 5.828125 
Q 30.90625 2.78125 28.65625 0.828125 
Q 26.421875 -1.125 23.1875 -1.125 
Q 17.1875 -1.125 13.6875 2.46875 
Q 10.203125 6.0625 10.203125 12.015625 
z
" id="Cmr10-116"/>
      <path d="M 25 -1.125 
Q 19 -1.125 13.859375 1.921875 
Q 8.734375 4.984375 5.75 10.109375 
Q 2.78125 15.234375 2.78125 21.296875 
Q 2.78125 25.875 4.421875 30.125 
Q 6.0625 34.375 9.109375 37.71875 
Q 12.15625 41.0625 16.203125 42.9375 
Q 20.265625 44.828125 25 44.828125 
Q 31.15625 44.828125 36.203125 41.578125 
Q 41.265625 38.328125 44.1875 32.875 
Q 47.125 27.4375 47.125 21.296875 
Q 47.125 15.28125 44.140625 10.125 
Q 41.15625 4.984375 36.046875 1.921875 
Q 30.953125 -1.125 25 -1.125 
z
M 25 1.8125 
Q 33.015625 1.8125 35.6875 7.609375 
Q 38.375 13.421875 38.375 22.40625 
Q 38.375 27.4375 37.84375 30.734375 
Q 37.3125 34.03125 35.5 36.71875 
Q 34.375 38.375 32.640625 39.625 
Q 30.90625 40.875 28.96875 41.53125 
Q 27.046875 42.1875 25 42.1875 
Q 21.875 42.1875 19.0625 40.765625 
Q 16.265625 39.359375 14.40625 36.71875 
Q 12.546875 33.890625 12.03125 30.484375 
Q 11.53125 27.09375 11.53125 22.40625 
Q 11.53125 16.796875 12.5 12.328125 
Q 13.484375 7.859375 16.4375 4.828125 
Q 19.390625 1.8125 25 1.8125 
z
" id="Cmr10-111"/>
     </defs>
     <g transform="translate(233.55 307.9)scale(0.1 -0.1)">
      <use transform="translate(0 0.484375)" xlink:href="#Cmmi10-102"/>
      <use transform="translate(48.876953 -16.521875)scale(0.7)" xlink:href="#Cmr10-69"/>
      <use transform="translate(96.489258 -16.521875)scale(0.7)" xlink:href="#Cmr10-100"/>
      <use transform="translate(135.351562 -16.521875)scale(0.7)" xlink:href="#Cmr10-100"/>
      <use transform="translate(174.213867 -16.521875)scale(0.7)" xlink:href="#Cmr10-105"/>
      <use transform="translate(193.59375 -16.521875)scale(0.7)" xlink:href="#Cmr10-110"/>
      <use transform="translate(232.456055 -16.521875)scale(0.7)" xlink:href="#Cmr10-103"/>
      <use transform="translate(267.456055 -16.521875)scale(0.7)" xlink:href="#Cmr10-116"/>
      <use transform="translate(294.628906 -16.521875)scale(0.7)" xlink:href="#Cmr10-111"/>
      <use transform="translate(329.628906 -16.521875)scale(0.7)" xlink:href="#Cmr10-110"/>
     </g>
    </g>
   </g>
   <g id="matplotlib.axis_2">
    <g id="ytick_1">
     <g id="line2d_22">
      <defs>
       <path d="M 0 0 
L -3.5 0 
" id="mc4918c98ed" style="stroke:#000000;stroke-width:0.8;"/>
      </defs>
      <g>
       <use style="stroke:#000000;stroke-width:0.8;" x="57" xlink:href="#mc4918c98ed" y="242.298354"/>
      </g>
     </g>
     <g id="text_5">
      <!-- $\mathdefault{10^{44}}$ -->
      <defs>
       <path d="M 47.296875 16.703125 
L 37 16.703125 
L 37 0 
L 29.203125 0 
L 29.203125 16.703125 
L 1.203125 16.703125 
L 1.203125 23.09375 
L 32.59375 67.59375 
L 37 67.59375 
L 37 23.09375 
L 47.296875 23.09375 
z
M 29.203125 23.09375 
L 29.203125 57.40625 
L 5.203125 23.09375 
z
" id="STIXGeneral-Regular-52"/>
      </defs>
      <g transform="translate(32.3 245.713198)scale(0.1 -0.1)">
       <use transform="translate(0 0.684375)" xlink:href="#STIXGeneral-Regular-49"/>
       <use transform="translate(49.999985 0.684375)" xlink:href="#STIXGeneral-Regular-48"/>
       <use transform="translate(101.574969 36.684375)scale(0.7)" xlink:href="#STIXGeneral-Regular-52"/>
       <use transform="translate(136.574959 36.684375)scale(0.7)" xlink:href="#STIXGeneral-Regular-52"/>
      </g>
     </g>
    </g>
    <g id="ytick_2">
     <g id="line2d_23">
      <defs>
       <path d="M 0 0 
L -2 0 
" id="m83466aaaa9" style="stroke:#000000;stroke-width:0.6;"/>
      </defs>
      <g>
       <use style="stroke:#000000;stroke-width:0.6;" x="57" xlink:href="#m83466aaaa9" y="275.578368"/>
      </g>
     </g>
    </g>
    <g id="ytick_3">
     <g id="line2d_24">
      <g>
       <use style="stroke:#000000;stroke-width:0.6;" x="57" xlink:href="#m83466aaaa9" y="258.012003"/>
      </g>
     </g>
    </g>
    <g id="ytick_4">
     <g id="line2d_25">
      <g>
       <use style="stroke:#000000;stroke-width:0.6;" x="57" xlink:href="#m83466aaaa9" y="138.921187"/>
      </g>
     </g>
     <g id="text_6">
      <!-- $\mathdefault{2\times10^{44}}$ -->
      <defs>
       <path d="M 47.40625 13.703125 
L 42 0 
L 2.90625 0 
L 2.90625 1.203125 
L 20.703125 20.09375 
Q 27.703125 27.40625 30.703125 33.5 
Q 33.703125 39.59375 33.703125 46.09375 
Q 33.703125 52.796875 30 56.5 
Q 26.296875 60.203125 19.796875 60.203125 
Q 14.40625 60.203125 11.25 57.390625 
Q 8.09375 54.59375 5.09375 47.203125 
L 3 47.703125 
Q 4.703125 57 9.84375 62.296875 
Q 15 67.59375 23.796875 67.59375 
Q 32.09375 67.59375 37.1875 62.59375 
Q 42.296875 57.59375 42.296875 50 
Q 42.296875 38.703125 29.5 25.203125 
L 13 7.59375 
L 36.40625 7.59375 
Q 39.703125 7.59375 41.640625 8.890625 
Q 43.59375 10.203125 46 14.296875 
z
" id="STIXGeneral-Regular-50"/>
       <path d="M 59.703125 2.203125 
L 55.09375 -2.5 
L 32 20.5 
L 8.90625 -2.5 
L 4.296875 2.09375 
L 27.296875 25.203125 
L 4.296875 48.296875 
L 9 52.90625 
L 32 29.90625 
L 55.09375 52.90625 
L 59.703125 48.40625 
L 36.703125 25.203125 
z
" id="STIXGeneral-Regular-215"/>
      </defs>
      <g transform="translate(19.4 142.336031)scale(0.1 -0.1)">
       <use transform="translate(0 0.684375)" xlink:href="#STIXGeneral-Regular-50"/>
       <use transform="translate(65.559982 0.684375)" xlink:href="#STIXGeneral-Regular-215"/>
       <use transform="translate(145.119965 0.684375)" xlink:href="#STIXGeneral-Regular-49"/>
       <use transform="translate(195.119949 0.684375)" xlink:href="#STIXGeneral-Regular-48"/>
       <use transform="translate(246.694934 36.684375)scale(0.7)" xlink:href="#STIXGeneral-Regular-52"/>
       <use transform="translate(281.694923 36.684375)scale(0.7)" xlink:href="#STIXGeneral-Regular-52"/>
      </g>
     </g>
    </g>
    <g id="ytick_5">
     <g id="line2d_26">
      <g>
       <use style="stroke:#000000;stroke-width:0.6;" x="57" xlink:href="#m83466aaaa9" y="78.449421"/>
      </g>
     </g>
     <g id="text_7">
      <!-- $\mathdefault{3\times10^{44}}$ -->
      <defs>
       <path d="M 6.09375 51 
L 4.5 51.40625 
Q 6.796875 58.90625 11.6875 63.25 
Q 16.59375 67.59375 24.09375 67.59375 
Q 31.09375 67.59375 35.390625 63.796875 
Q 39.703125 60 39.703125 53.90625 
Q 39.703125 45.703125 30.40625 40.09375 
Q 35.90625 37.703125 38.703125 34.796875 
Q 43.09375 29.90625 43.09375 21.90625 
Q 43.09375 13.90625 38.5 7.90625 
Q 35.09375 3.296875 28.75 0.9375 
Q 22.40625 -1.40625 15.296875 -1.40625 
Q 4.09375 -1.40625 4.09375 4.296875 
Q 4.09375 5.90625 5.296875 6.90625 
Q 6.5 7.90625 8.203125 7.90625 
Q 10.703125 7.90625 14.296875 5.296875 
Q 18.703125 2.203125 22.90625 2.203125 
Q 28.40625 2.203125 32.15625 6.640625 
Q 35.90625 11.09375 35.90625 17.5 
Q 35.90625 29 25.5 32 
Q 22.40625 33 15.296875 33 
L 15.296875 34.40625 
Q 20.90625 36.296875 23.703125 38 
Q 31.796875 42.59375 31.796875 51.40625 
Q 31.796875 56.40625 28.9375 59 
Q 26.09375 61.59375 21 61.59375 
Q 12 61.59375 6.09375 51 
z
" id="STIXGeneral-Regular-51"/>
      </defs>
      <g transform="translate(19.4 81.864264)scale(0.1 -0.1)">
       <use transform="translate(0 0.684375)" xlink:href="#STIXGeneral-Regular-51"/>
       <use transform="translate(65.559982 0.684375)" xlink:href="#STIXGeneral-Regular-215"/>
       <use transform="translate(145.119965 0.684375)" xlink:href="#STIXGeneral-Regular-49"/>
       <use transform="translate(195.119949 0.684375)" xlink:href="#STIXGeneral-Regular-48"/>
       <use transform="translate(246.694934 36.684375)scale(0.7)" xlink:href="#STIXGeneral-Regular-52"/>
       <use transform="translate(281.694923 36.684375)scale(0.7)" xlink:href="#STIXGeneral-Regular-52"/>
      </g>
     </g>
    </g>
    <g id="ytick_6">
     <g id="line2d_27">
      <g>
       <use style="stroke:#000000;stroke-width:0.6;" x="57" xlink:href="#m83466aaaa9" y="35.54402"/>
      </g>
     </g>
     <g id="text_8">
      <!-- $\mathdefault{4\times10^{44}}$ -->
      <g transform="translate(19.4 38.958864)scale(0.1 -0.1)">
       <use transform="translate(0 0.684375)" xlink:href="#STIXGeneral-Regular-52"/>
       <use transform="translate(65.559982 0.684375)" xlink:href="#STIXGeneral-Regular-215"/>
       <use transform="translate(145.119965 0.684375)" xlink:href="#STIXGeneral-Regular-49"/>
       <use transform="translate(195.119949 0.684375)" xlink:href="#STIXGeneral-Regular-48"/>
       <use transform="translate(246.694934 36.684375)scale(0.7)" xlink:href="#STIXGeneral-Regular-52"/>
       <use transform="translate(281.694923 36.684375)scale(0.7)" xlink:href="#STIXGeneral-Regular-52"/>
      </g>
     </g>
    </g>
    <g id="text_9">
     <!-- $L_{\rm{Ly}\alpha}\ (\rm{erg}\ \rm{s}^{-1})$ -->
     <defs>
      <path d="M 4.6875 0 
Q 3.71875 0 3.71875 1.3125 
Q 3.765625 1.5625 3.90625 2.171875 
Q 4.046875 2.78125 4.3125 3.140625 
Q 4.59375 3.515625 4.984375 3.515625 
Q 11.078125 3.515625 13.484375 4.203125 
Q 14.796875 4.640625 15.375 6.890625 
L 29.109375 61.8125 
Q 29.296875 62.796875 29.296875 63.1875 
Q 29.296875 64.265625 28.078125 64.40625 
Q 26.21875 64.796875 20.90625 64.796875 
Q 19.921875 64.796875 19.921875 66.109375 
Q 20.265625 67.390625 20.453125 67.84375 
Q 20.65625 68.3125 21.578125 68.3125 
L 51.125 68.3125 
Q 52 68.3125 52 67 
Q 51.859375 65.96875 51.65625 65.375 
Q 51.46875 64.796875 50.6875 64.796875 
Q 43.3125 64.796875 40.828125 64.3125 
Q 38.375 63.875 37.796875 61.375 
L 24.125 6.5 
Q 23.6875 5.28125 23.6875 4.296875 
Q 23.6875 3.515625 27.09375 3.515625 
L 36.375 3.515625 
Q 44.234375 3.515625 49.109375 6.640625 
Q 54 9.765625 56.34375 13.6875 
Q 58.6875 17.625 60.265625 21.84375 
Q 61.859375 26.078125 62.59375 26.21875 
L 63.484375 26.21875 
Q 64.5 26.21875 64.5 24.90625 
L 55.609375 0.6875 
Q 55.46875 0 54.6875 0 
z
" id="Cmmi10-76"/>
      <path d="M 3.078125 0 
L 3.078125 3.515625 
Q 13.375 3.515625 13.375 6.6875 
L 13.375 61.625 
Q 13.375 64.796875 3.078125 64.796875 
L 3.078125 68.3125 
L 35.5 68.3125 
L 35.5 64.796875 
Q 22.703125 64.796875 22.703125 61.625 
L 22.703125 6.6875 
Q 22.703125 4.546875 23.921875 4.03125 
Q 25.140625 3.515625 27.78125 3.515625 
L 35.5 3.515625 
Q 42.96875 3.515625 47.015625 6.25 
Q 51.078125 8.984375 52.75 13.6875 
Q 54.4375 18.40625 55.328125 26.21875 
L 58.203125 26.21875 
L 55.421875 0 
z
" id="Cmr10-76"/>
      <path d="M 6.890625 -16.40625 
Q 8.796875 -17.921875 11.078125 -17.921875 
Q 17.390625 -17.921875 21.390625 -8.40625 
L 24.8125 0 
L 9.8125 36.71875 
Q 8.890625 38.578125 6.984375 39.078125 
Q 5.078125 39.59375 1.90625 39.59375 
L 1.90625 43.109375 
L 22.90625 43.109375 
L 22.90625 39.59375 
Q 17.390625 39.59375 17.390625 37.203125 
Q 17.390625 36.8125 17.484375 36.625 
L 28.609375 9.28125 
L 38.625 33.890625 
Q 38.921875 34.671875 38.921875 35.59375 
Q 38.921875 36.8125 38.25 37.71875 
Q 37.59375 38.625 36.546875 39.109375 
Q 35.5 39.59375 34.1875 39.59375 
L 34.1875 43.109375 
L 50.78125 43.109375 
L 50.78125 39.59375 
Q 47.703125 39.59375 45.375 38.171875 
Q 43.0625 36.765625 41.796875 33.984375 
L 24.515625 -8.40625 
Q 23.140625 -11.625 21.3125 -14.328125 
Q 19.484375 -17.046875 16.84375 -18.78125 
Q 14.203125 -20.515625 11.078125 -20.515625 
Q 7.421875 -20.515625 4.65625 -18.09375 
Q 1.90625 -15.671875 1.90625 -12.109375 
Q 1.90625 -10.25 3.171875 -8.984375 
Q 4.4375 -7.71875 6.296875 -7.71875 
Q 7.5625 -7.71875 8.5625 -8.28125 
Q 9.578125 -8.84375 10.125 -9.8125 
Q 10.6875 -10.796875 10.6875 -12.109375 
Q 10.6875 -13.71875 9.609375 -14.984375 
Q 8.546875 -16.265625 6.890625 -16.40625 
z
" id="Cmr10-121"/>
      <path d="M 20.125 -1.125 
Q 15.375 -1.125 11.6875 1.125 
Q 8.015625 3.375 6 7.171875 
Q 4 10.984375 4 15.828125 
Q 4 22.609375 7.78125 29.25 
Q 11.578125 35.890625 17.84375 40.03125 
Q 24.125 44.1875 31 44.1875 
Q 36.078125 44.1875 39.9375 41.53125 
Q 43.796875 38.875 45.796875 34.453125 
Q 47.796875 30.03125 47.796875 25 
L 47.90625 18.3125 
Q 51.3125 23.046875 53.6875 28.140625 
Q 56.0625 33.25 57.328125 38.71875 
Q 57.515625 39.3125 58.109375 39.3125 
L 59.28125 39.3125 
Q 60.203125 39.3125 60.203125 38.375 
Q 60.203125 38.28125 60.109375 38.09375 
Q 58.9375 33.5 57.171875 29.265625 
Q 55.421875 25.046875 53.046875 21.09375 
Q 50.6875 17.140625 47.90625 13.921875 
Q 47.90625 1.515625 50.78125 1.515625 
Q 52.640625 1.515625 53.828125 2.609375 
Q 55.03125 3.71875 55.9375 5.328125 
Q 56.84375 6.9375 57.078125 6.984375 
L 58.296875 6.984375 
Q 59.078125 6.984375 59.078125 6 
Q 59.078125 3.515625 56.21875 1.1875 
Q 53.375 -1.125 50.59375 -1.125 
Q 46.96875 -1.125 44.578125 1.21875 
Q 42.1875 3.5625 41.3125 7.328125 
Q 36.625 3.328125 31.15625 1.09375 
Q 25.6875 -1.125 20.125 -1.125 
z
M 20.3125 1.515625 
Q 31 1.515625 40.828125 10.296875 
Q 40.765625 10.890625 40.671875 11.734375 
Q 40.578125 12.59375 40.578125 12.703125 
L 40.578125 23.484375 
Q 40.578125 41.609375 30.8125 41.609375 
Q 24.953125 41.609375 20.546875 36.59375 
Q 16.15625 31.59375 13.9375 24.625 
Q 11.71875 17.671875 11.71875 11.921875 
Q 11.71875 7.5625 13.9375 4.53125 
Q 16.15625 1.515625 20.3125 1.515625 
z
" id="Cmmi10-174"/>
      <path d="M 31 -24.8125 
Q 25.4375 -20.40625 21.40625 -14.71875 
Q 17.390625 -9.03125 14.8125 -2.578125 
Q 12.25 3.859375 10.984375 10.890625 
Q 9.71875 17.921875 9.71875 25 
Q 9.71875 32.171875 10.984375 39.203125 
Q 12.25 46.234375 14.859375 52.734375 
Q 17.484375 59.234375 21.53125 64.890625 
Q 25.59375 70.5625 31 74.8125 
Q 31 75 31.5 75 
L 32.421875 75 
Q 32.71875 75 32.953125 74.734375 
Q 33.203125 74.46875 33.203125 74.125 
Q 33.203125 73.6875 33.015625 73.484375 
Q 28.125 68.703125 24.875 63.234375 
Q 21.625 57.765625 19.640625 51.578125 
Q 17.671875 45.40625 16.796875 38.78125 
Q 15.921875 32.171875 15.921875 25 
Q 15.921875 -6.78125 32.90625 -23.296875 
Q 33.203125 -23.578125 33.203125 -24.125 
Q 33.203125 -24.359375 32.9375 -24.671875 
Q 32.671875 -25 32.421875 -25 
L 31.5 -25 
Q 31 -25 31 -24.8125 
z
" id="Cmr10-40"/>
      <path d="M 24.90625 -1.125 
Q 18.796875 -1.125 13.6875 2.078125 
Q 8.59375 5.28125 5.6875 10.625 
Q 2.78125 15.96875 2.78125 21.921875 
Q 2.78125 27.78125 5.4375 33.046875 
Q 8.109375 38.328125 12.859375 41.578125 
Q 17.625 44.828125 23.484375 44.828125 
Q 28.078125 44.828125 31.46875 43.28125 
Q 34.859375 41.75 37.0625 39.015625 
Q 39.265625 36.28125 40.375 32.5625 
Q 41.5 28.859375 41.5 24.421875 
Q 41.5 23.09375 40.484375 23.09375 
L 11.53125 23.09375 
L 11.53125 22.015625 
Q 11.53125 13.71875 14.875 7.765625 
Q 18.21875 1.8125 25.78125 1.8125 
Q 28.859375 1.8125 31.46875 3.171875 
Q 34.078125 4.546875 36 6.984375 
Q 37.9375 9.421875 38.625 12.203125 
Q 38.71875 12.546875 38.984375 12.8125 
Q 39.265625 13.09375 39.59375 13.09375 
L 40.484375 13.09375 
Q 41.5 13.09375 41.5 11.8125 
Q 40.09375 6.15625 35.40625 2.515625 
Q 30.71875 -1.125 24.90625 -1.125 
z
M 11.625 25.59375 
L 34.421875 25.59375 
Q 34.421875 29.34375 33.375 33.203125 
Q 32.328125 37.0625 29.875 39.625 
Q 27.4375 42.1875 23.484375 42.1875 
Q 17.828125 42.1875 14.71875 36.890625 
Q 11.625 31.59375 11.625 25.59375 
z
" id="Cmr10-101"/>
      <path d="M 2.59375 0 
L 2.59375 3.515625 
Q 6 3.515625 8.203125 4.046875 
Q 10.40625 4.59375 10.40625 6.6875 
L 10.40625 33.984375 
Q 10.40625 36.671875 9.59375 37.859375 
Q 8.796875 39.0625 7.28125 39.328125 
Q 5.765625 39.59375 2.59375 39.59375 
L 2.59375 43.109375 
L 16.890625 44.1875 
L 16.890625 34.421875 
Q 18.5 38.765625 21.484375 41.46875 
Q 24.46875 44.1875 28.71875 44.1875 
Q 31.6875 44.1875 34.03125 42.421875 
Q 36.375 40.671875 36.375 37.796875 
Q 36.375 35.984375 35.078125 34.640625 
Q 33.796875 33.296875 31.890625 33.296875 
Q 30.03125 33.296875 28.703125 34.609375 
Q 27.390625 35.9375 27.390625 37.796875 
Q 27.390625 40.484375 29.296875 41.609375 
L 28.71875 41.609375 
Q 24.65625 41.609375 22.09375 38.671875 
Q 19.53125 35.75 18.453125 31.390625 
Q 17.390625 27.046875 17.390625 23.09375 
L 17.390625 6.6875 
Q 17.390625 3.515625 27.09375 3.515625 
L 27.09375 0 
z
" id="Cmr10-114"/>
      <path d="M 3.328125 -0.296875 
L 3.328125 16.015625 
Q 3.328125 16.796875 4.203125 16.796875 
L 5.421875 16.796875 
Q 6 16.796875 6.203125 16.015625 
Q 8.984375 1.515625 19.671875 1.515625 
Q 24.421875 1.515625 27.609375 3.65625 
Q 30.8125 5.8125 30.8125 10.296875 
Q 30.8125 13.53125 28.3125 15.796875 
Q 25.828125 18.0625 22.40625 18.890625 
L 15.71875 20.21875 
Q 12.359375 20.953125 9.59375 22.453125 
Q 6.84375 23.96875 5.078125 26.484375 
Q 3.328125 29 3.328125 32.328125 
Q 3.328125 36.71875 5.640625 39.515625 
Q 7.953125 42.328125 11.65625 43.578125 
Q 15.375 44.828125 19.671875 44.828125 
Q 24.8125 44.828125 28.609375 42.09375 
L 31.5 44.578125 
Q 31.5 44.828125 31.984375 44.828125 
L 32.71875 44.828125 
Q 33.015625 44.828125 33.25 44.546875 
Q 33.5 44.28125 33.5 44 
L 33.5 30.90625 
Q 33.5 29.984375 32.71875 29.984375 
L 31.5 29.984375 
Q 30.609375 29.984375 30.609375 30.90625 
Q 30.609375 36.140625 27.703125 39.3125 
Q 24.8125 42.484375 19.578125 42.484375 
Q 15.09375 42.484375 11.796875 40.8125 
Q 8.5 39.15625 8.5 35.109375 
Q 8.5 32.328125 10.859375 30.546875 
Q 13.234375 28.765625 16.40625 27.984375 
L 23.1875 26.703125 
Q 26.609375 25.921875 29.5625 24.0625 
Q 32.515625 22.21875 34.25 19.375 
Q 35.984375 16.546875 35.984375 12.984375 
Q 35.984375 9.375 34.734375 6.703125 
Q 33.5 4.046875 31.265625 2.28125 
Q 29.046875 0.53125 26.015625 -0.296875 
Q 23 -1.125 19.671875 -1.125 
Q 13.421875 -1.125 8.984375 3.078125 
L 5.328125 -0.875 
Q 5.328125 -1.125 4.78125 -1.125 
L 4.203125 -1.125 
Q 3.328125 -1.125 3.328125 -0.296875 
z
" id="Cmr10-115"/>
      <path d="M 10.203125 23 
Q 9.375 23 8.828125 23.625 
Q 8.296875 24.265625 8.296875 25 
Q 8.296875 25.734375 8.828125 26.359375 
Q 9.375 27 10.203125 27 
L 67.578125 27 
Q 68.359375 27 68.875 26.359375 
Q 69.390625 25.734375 69.390625 25 
Q 69.390625 24.265625 68.875 23.625 
Q 68.359375 23 67.578125 23 
z
" id="Cmsy10-161"/>
      <path d="M 9.28125 0 
L 9.28125 3.515625 
Q 21.78125 3.515625 21.78125 6.6875 
L 21.78125 59.1875 
Q 16.609375 56.6875 8.6875 56.6875 
L 8.6875 60.203125 
Q 20.953125 60.203125 27.203125 66.609375 
L 28.609375 66.609375 
Q 28.953125 66.609375 29.265625 66.328125 
Q 29.59375 66.0625 29.59375 65.71875 
L 29.59375 6.6875 
Q 29.59375 3.515625 42.09375 3.515625 
L 42.09375 0 
z
" id="Cmr10-49"/>
      <path d="M 6.5 -25 
Q 5.609375 -25 5.609375 -24.125 
Q 5.609375 -23.6875 5.8125 -23.484375 
Q 22.90625 -6.78125 22.90625 25 
Q 22.90625 56.78125 6 73.296875 
Q 5.609375 73.53125 5.609375 74.125 
Q 5.609375 74.46875 5.875 74.734375 
Q 6.15625 75 6.5 75 
L 7.421875 75 
Q 7.71875 75 7.90625 74.8125 
Q 15.09375 69.140625 19.875 61.03125 
Q 24.65625 52.9375 26.875 43.75 
Q 29.109375 34.578125 29.109375 25 
Q 29.109375 17.921875 27.90625 11.0625 
Q 26.703125 4.203125 24.09375 -2.453125 
Q 21.484375 -9.125 17.484375 -14.765625 
Q 13.484375 -20.40625 7.90625 -24.8125 
Q 7.71875 -25 7.421875 -25 
z
" id="Cmr10-41"/>
     </defs>
     <g transform="translate(12.2 172.6)rotate(-90)scale(0.1 -0.1)">
      <use transform="translate(0 0.223438)" xlink:href="#Cmmi10-76"/>
      <use transform="translate(68.017578 -16.782813)scale(0.7)" xlink:href="#Cmr10-76"/>
      <use transform="translate(111.767578 -16.782813)scale(0.7)" xlink:href="#Cmr10-121"/>
      <use transform="translate(148.647461 -16.782813)scale(0.7)" xlink:href="#Cmmi10-174"/>
      <use transform="translate(229.030046 0.223438)" xlink:href="#Cmr10-40"/>
      <use transform="translate(267.848405 0.223438)" xlink:href="#Cmr10-101"/>
      <use transform="translate(312.233171 0.223438)" xlink:href="#Cmr10-114"/>
      <use transform="translate(351.344499 0.223438)" xlink:href="#Cmr10-103"/>
      <use transform="translate(429.111148 0.223438)" xlink:href="#Cmr10-115"/>
      <use transform="translate(473.082945 39.373438)scale(0.7)" xlink:href="#Cmsy10-161"/>
      <use transform="translate(527.462828 39.373438)scale(0.7)" xlink:href="#Cmr10-49"/>
      <use transform="translate(568.987828 0.223438)" xlink:href="#Cmr10-41"/>
     </g>
    </g>
   </g>
   <g id="line2d_28">
    <defs>
     <path d="M 0 3 
C 0.795609 3 1.55874 2.683901 2.12132 2.12132 
C 2.683901 1.55874 3 0.795609 3 0 
C 3 -0.795609 2.683901 -1.55874 2.12132 -2.12132 
C 1.55874 -2.683901 0.795609 -3 0 -3 
C -0.795609 -3 -1.55874 -2.683901 -2.12132 -2.12132 
C -2.683901 -1.55874 -3 -0.795609 -3 0 
C -3 0.795609 -2.683901 1.55874 -2.12132 2.12132 
C -1.55874 2.683901 -0.795609 3 0 3 
z
" id="m728e8d1e52" style="stroke:#000000;"/>
    </defs>
    <g clip-path="url(#peab019bdd3)">
     <use style="stroke:#000000;" x="74.754545" xlink:href="#m728e8d1e52" y="258.143879"/>
     <use style="stroke:#000000;" x="128.201053" xlink:href="#m728e8d1e52" y="228.859492"/>
     <use style="stroke:#000000;" x="159.465255" xlink:href="#m728e8d1e52" y="226.736378"/>
     <use style="stroke:#000000;" x="181.64756" xlink:href="#m728e8d1e52" y="242.996735"/>
     <use style="stroke:#000000;" x="198.853493" xlink:href="#m728e8d1e52" y="249.146011"/>
     <use style="stroke:#000000;" x="212.911763" xlink:href="#m728e8d1e52" y="26.295252"/>
     <use style="stroke:#000000;" x="224.797861" xlink:href="#m728e8d1e52" y="17.764176"/>
     <use style="stroke:#000000;" x="235.094068" xlink:href="#m728e8d1e52" y="111.221097"/>
     <use style="stroke:#000000;" x="244.175966" xlink:href="#m728e8d1e52" y="242.497087"/>
     <use style="stroke:#000000;" x="252.3" xlink:href="#m728e8d1e52" y="236.209459"/>
     <use style="stroke:#000000;" x="259.649083" xlink:href="#m728e8d1e52" y="37.224214"/>
     <use style="stroke:#000000;" x="266.35827" xlink:href="#m728e8d1e52" y="46.942712"/>
     <use style="stroke:#000000;" x="272.530124" xlink:href="#m728e8d1e52" y="238.950693"/>
     <use style="stroke:#000000;" x="278.244369" xlink:href="#m728e8d1e52" y="236.190989"/>
     <use style="stroke:#000000;" x="283.564203" xlink:href="#m728e8d1e52" y="263.28862"/>
     <use style="stroke:#000000;" x="288.540575" xlink:href="#m728e8d1e52" y="93.863275"/>
     <use style="stroke:#000000;" x="293.215158" xlink:href="#m728e8d1e52" y="249.75809"/>
     <use style="stroke:#000000;" x="297.622473" xlink:href="#m728e8d1e52" y="222.716401"/>
     <use style="stroke:#000000;" x="301.791435" xlink:href="#m728e8d1e52" y="268.2"/>
     <use style="stroke:#000000;" x="305.746507" xlink:href="#m728e8d1e52" y="229.125535"/>
     <use style="stroke:#000000;" x="309.508571" xlink:href="#m728e8d1e52" y="194.019075"/>
     <use style="stroke:#000000;" x="313.095591" xlink:href="#m728e8d1e52" y="222.27789"/>
     <use style="stroke:#000000;" x="316.523133" xlink:href="#m728e8d1e52" y="226.194128"/>
     <use style="stroke:#000000;" x="319.804778" xlink:href="#m728e8d1e52" y="225.975835"/>
     <use style="stroke:#000000;" x="322.95244" xlink:href="#m728e8d1e52" y="16.2"/>
     <use style="stroke:#000000;" x="325.976632" xlink:href="#m728e8d1e52" y="247.503091"/>
     <use style="stroke:#000000;" x="328.886676" xlink:href="#m728e8d1e52" y="252.922381"/>
     <use style="stroke:#000000;" x="331.690876" xlink:href="#m728e8d1e52" y="223.660644"/>
     <use style="stroke:#000000;" x="334.396663" xlink:href="#m728e8d1e52" y="251.977182"/>
     <use style="stroke:#000000;" x="337.01071" xlink:href="#m728e8d1e52" y="229.599626"/>
     <use style="stroke:#000000;" x="339.539035" xlink:href="#m728e8d1e52" y="234.220391"/>
     <use style="stroke:#000000;" x="341.987083" xlink:href="#m728e8d1e52" y="229.912897"/>
     <use style="stroke:#000000;" x="344.359793" xlink:href="#m728e8d1e52" y="236.609751"/>
     <use style="stroke:#000000;" x="346.661666" xlink:href="#m728e8d1e52" y="224.569652"/>
     <use style="stroke:#000000;" x="348.896808" xlink:href="#m728e8d1e52" y="228.465297"/>
     <use style="stroke:#000000;" x="351.06898" xlink:href="#m728e8d1e52" y="228.640151"/>
     <use style="stroke:#000000;" x="353.181633" xlink:href="#m728e8d1e52" y="244.040511"/>
     <use style="stroke:#000000;" x="355.237942" xlink:href="#m728e8d1e52" y="239.379031"/>
     <use style="stroke:#000000;" x="357.240834" xlink:href="#m728e8d1e52" y="252.453043"/>
     <use style="stroke:#000000;" x="359.193015" xlink:href="#m728e8d1e52" y="244.657752"/>
     <use style="stroke:#000000;" x="361.096988" xlink:href="#m728e8d1e52" y="227.400109"/>
     <use style="stroke:#000000;" x="362.955079" xlink:href="#m728e8d1e52" y="213.104355"/>
     <use style="stroke:#000000;" x="364.769445" xlink:href="#m728e8d1e52" y="238.352169"/>
     <use style="stroke:#000000;" x="366.542098" xlink:href="#m728e8d1e52" y="253.394484"/>
     <use style="stroke:#000000;" x="368.274913" xlink:href="#m728e8d1e52" y="32.703053"/>
     <use style="stroke:#000000;" x="369.96964" xlink:href="#m728e8d1e52" y="35.387362"/>
     <use style="stroke:#000000;" x="371.62792" xlink:href="#m728e8d1e52" y="36.620828"/>
     <use style="stroke:#000000;" x="373.251285" xlink:href="#m728e8d1e52" y="227.764171"/>
     <use style="stroke:#000000;" x="374.841177" xlink:href="#m728e8d1e52" y="22.214962"/>
     <use style="stroke:#000000;" x="376.398947" xlink:href="#m728e8d1e52" y="36.795824"/>
     <use style="stroke:#000000;" x="377.925869" xlink:href="#m728e8d1e52" y="30.452771"/>
     <use style="stroke:#000000;" x="379.423139" xlink:href="#m728e8d1e52" y="18.694334"/>
     <use style="stroke:#000000;" x="380.891888" xlink:href="#m728e8d1e52" y="45.983937"/>
     <use style="stroke:#000000;" x="382.333183" xlink:href="#m728e8d1e52" y="36.634752"/>
     <use style="stroke:#000000;" x="383.74803" xlink:href="#m728e8d1e52" y="70.432662"/>
     <use style="stroke:#000000;" x="385.137383" xlink:href="#m728e8d1e52" y="30.087917"/>
     <use style="stroke:#000000;" x="386.502145" xlink:href="#m728e8d1e52" y="50.60083"/>
     <use style="stroke:#000000;" x="387.84317" xlink:href="#m728e8d1e52" y="47.404142"/>
     <use style="stroke:#000000;" x="389.161271" xlink:href="#m728e8d1e52" y="56.441271"/>
     <use style="stroke:#000000;" x="390.457217" xlink:href="#m728e8d1e52" y="41.759853"/>
     <use style="stroke:#000000;" x="391.731743" xlink:href="#m728e8d1e52" y="64.103077"/>
     <use style="stroke:#000000;" x="392.985543" xlink:href="#m728e8d1e52" y="56.368528"/>
     <use style="stroke:#000000;" x="394.219281" xlink:href="#m728e8d1e52" y="42.329013"/>
     <use style="stroke:#000000;" x="395.43359" xlink:href="#m728e8d1e52" y="25.74938"/>
     <use style="stroke:#000000;" x="396.629071" xlink:href="#m728e8d1e52" y="34.809633"/>
     <use style="stroke:#000000;" x="397.806301" xlink:href="#m728e8d1e52" y="76.372373"/>
     <use style="stroke:#000000;" x="398.965826" xlink:href="#m728e8d1e52" y="253.052722"/>
     <use style="stroke:#000000;" x="400.108173" xlink:href="#m728e8d1e52" y="76.251951"/>
     <use style="stroke:#000000;" x="401.233843" xlink:href="#m728e8d1e52" y="255.872067"/>
     <use style="stroke:#000000;" x="402.343316" xlink:href="#m728e8d1e52" y="55.489724"/>
     <use style="stroke:#000000;" x="403.43705" xlink:href="#m728e8d1e52" y="81.683785"/>
     <use style="stroke:#000000;" x="404.515488" xlink:href="#m728e8d1e52" y="48.081576"/>
     <use style="stroke:#000000;" x="405.57905" xlink:href="#m728e8d1e52" y="253.159049"/>
     <use style="stroke:#000000;" x="406.628141" xlink:href="#m728e8d1e52" y="58.70644"/>
     <use style="stroke:#000000;" x="407.66315" xlink:href="#m728e8d1e52" y="263.269467"/>
     <use style="stroke:#000000;" x="408.68445" xlink:href="#m728e8d1e52" y="82.70966"/>
     <use style="stroke:#000000;" x="409.692399" xlink:href="#m728e8d1e52" y="78.538047"/>
     <use style="stroke:#000000;" x="410.687342" xlink:href="#m728e8d1e52" y="69.319439"/>
     <use style="stroke:#000000;" x="411.66961" xlink:href="#m728e8d1e52" y="76.69029"/>
     <use style="stroke:#000000;" x="412.639522" xlink:href="#m728e8d1e52" y="76.591654"/>
     <use style="stroke:#000000;" x="413.597386" xlink:href="#m728e8d1e52" y="209.926108"/>
     <use style="stroke:#000000;" x="414.543496" xlink:href="#m728e8d1e52" y="36.176067"/>
     <use style="stroke:#000000;" x="415.478138" xlink:href="#m728e8d1e52" y="80.239253"/>
     <use style="stroke:#000000;" x="416.401586" xlink:href="#m728e8d1e52" y="259.923669"/>
     <use style="stroke:#000000;" x="417.314106" xlink:href="#m728e8d1e52" y="52.34479"/>
     <use style="stroke:#000000;" x="418.215952" xlink:href="#m728e8d1e52" y="27.924641"/>
     <use style="stroke:#000000;" x="419.107373" xlink:href="#m728e8d1e52" y="257.773953"/>
     <use style="stroke:#000000;" x="419.988605" xlink:href="#m728e8d1e52" y="201.50648"/>
     <use style="stroke:#000000;" x="420.85988" xlink:href="#m728e8d1e52" y="35.094661"/>
     <use style="stroke:#000000;" x="421.72142" xlink:href="#m728e8d1e52" y="264.107202"/>
     <use style="stroke:#000000;" x="422.57344" xlink:href="#m728e8d1e52" y="57.222937"/>
     <use style="stroke:#000000;" x="423.416148" xlink:href="#m728e8d1e52" y="24.847648"/>
     <use style="stroke:#000000;" x="424.249745" xlink:href="#m728e8d1e52" y="61.656528"/>
     <use style="stroke:#000000;" x="425.074427" xlink:href="#m728e8d1e52" y="39.404213"/>
     <use style="stroke:#000000;" x="425.890382" xlink:href="#m728e8d1e52" y="77.546922"/>
     <use style="stroke:#000000;" x="426.697793" xlink:href="#m728e8d1e52" y="249.385975"/>
     <use style="stroke:#000000;" x="427.496836" xlink:href="#m728e8d1e52" y="49.190204"/>
     <use style="stroke:#000000;" x="428.287684" xlink:href="#m728e8d1e52" y="38.679665"/>
     <use style="stroke:#000000;" x="429.070503" xlink:href="#m728e8d1e52" y="89.416486"/>
     <use style="stroke:#000000;" x="429.845455" xlink:href="#m728e8d1e52" y="30.861175"/>
    </g>
   </g>
   <g id="patch_3">
    <path d="M 57 280.8 
L 57 3.6 
" style="fill:none;stroke:#000000;stroke-linecap:square;stroke-linejoin:miter;stroke-width:0.8;"/>
   </g>
   <g id="patch_4">
    <path d="M 447.6 280.8 
L 447.6 3.6 
" style="fill:none;stroke:#000000;stroke-linecap:square;stroke-linejoin:miter;stroke-width:0.8;"/>
   </g>
   <g id="patch_5">
    <path d="M 57 280.8 
L 447.6 280.8 
" style="fill:none;stroke:#000000;stroke-linecap:square;stroke-linejoin:miter;stroke-width:0.8;"/>
   </g>
   <g id="patch_6">
    <path d="M 57 3.6 
L 447.6 3.6 
" style="fill:none;stroke:#000000;stroke-linecap:square;stroke-linejoin:miter;stroke-width:0.8;"/>
   </g>
  </g>
 </g>
 <defs>
  <clipPath id="peab019bdd3">
   <rect height="277.2" width="390.6" x="57" y="3.6"/>
  </clipPath>
 </defs>
</svg>
