<?xml version="1.0" encoding="utf-8" standalone="no"?>
<!DOCTYPE svg PUBLIC "-//W3C//DTD SVG 1.1//EN"
  "http://www.w3.org/Graphics/SVG/1.1/DTD/svg11.dtd">
<!-- Created with matplotlib (https://matplotlib.org/) -->
<svg height="568.499375pt" version="1.1" viewBox="0 0 635.2 568.499375" width="635.2pt" xmlns="http://www.w3.org/2000/svg" xmlns:xlink="http://www.w3.org/1999/xlink">
 <defs>
  <style type="text/css">
*{stroke-linecap:butt;stroke-linejoin:round;}
  </style>
 </defs>
 <g id="figure_1">
  <g id="patch_1">
   <path d="M 0 568.499375 
L 635.2 568.499375 
L 635.2 0 
L 0 0 
z
" style="fill:#ffffff;"/>
  </g>
  <g id="axes_1">
   <g id="patch_2">
    <path d="M 73.6 203.339375 
L 631.6 203.339375 
L 631.6 46.259375 
L 73.6 46.259375 
z
" style="fill:#ffffff;"/>
   </g>
   <g id="line2d_1">
    <path clip-path="url(#p504df3764c)" d="M 98.963636 160.945282 
L 103.003066 178.311747 
L 107.0609 142.829303 
L 111.137035 150.029662 
L 115.231356 128.048546 
L 119.343757 141.7082 
L 123.474135 141.784185 
L 127.622386 138.872515 
L 131.788408 143.099933 
L 135.972092 148.838643 
L 140.173339 147.83366 
L 144.392049 153.079472 
L 148.628118 150.124773 
L 152.881449 156.352282 
L 157.151942 153.688589 
L 161.439497 153.006666 
L 165.74402 150.984108 
L 170.065414 141.235291 
L 174.403584 152.88759 
L 178.758426 149.126551 
L 183.129854 142.342639 
L 187.51777 169.522287 
L 191.853145 164.998106 
L 196.204314 154.051778 
L 200.571194 151.555735 
L 204.953699 157.318399 
L 209.351734 164.294177 
L 213.765221 160.594464 
L 218.194068 123.100729 
L 222.638194 136.412087 
L 227.09751 142.800611 
L 231.571929 144.896789 
L 236.061373 136.862034 
L 240.565755 142.869038 
L 245.08499 162.801078 
L 249.618995 161.241973 
L 254.167688 146.179625 
L 258.73099 144.836077 
L 263.308815 140.855989 
L 267.901078 155.66737 
L 272.507702 155.355644 
L 277.128609 148.969392 
L 281.763714 151.513651 
L 286.412935 144.000219 
L 291.076198 136.395854 
L 295.753418 143.64319 
L 300.44452 129.007224 
L 305.149418 130.117316 
L 309.868041 126.529786 
L 314.600303 125.681831 
L 319.346131 129.4394 
L 324.105451 125.562061 
L 328.878175 131.587414 
L 333.664231 128.581602 
L 338.586883 116.411465 
L 343.523087 132.26081 
L 348.473376 142.541835 
L 353.437355 125.142091 
L 358.414639 137.207858 
L 363.405766 141.071488 
L 368.410018 138.178906 
L 373.427959 139.573037 
L 378.459174 135.832835 
L 383.503286 130.683349 
L 388.560831 146.708493 
L 393.631418 161.16532 
L 398.714649 155.583376 
L 403.811078 151.641844 
L 408.920305 153.012767 
L 414.041935 158.354173 
L 419.176519 145.145565 
L 424.323669 134.066805 
L 429.482974 137.319897 
L 434.654998 144.825962 
L 439.839025 149.397682 
L 445.035617 144.521981 
L 450.244376 135.394854 
L 455.464894 130.459099 
L 460.697738 138.161363 
L 465.942522 129.248849 
L 471.198818 104.509501 
L 476.467211 121.97117 
L 481.747304 131.098639 
L 487.038688 127.059672 
L 492.341934 106.483479 
L 497.656636 115.12345 
L 502.982393 154.402624 
L 508.319796 135.655221 
L 513.668086 101.809485 
L 519.027861 95.240192 
L 524.398711 122.550808 
L 529.780223 141.057403 
L 535.172989 117.611723 
L 540.576602 121.234984 
L 545.990645 124.45366 
L 551.415716 126.303708 
L 556.851403 126.811325 
L 562.29729 144.330284 
L 567.753978 175.272757 
L 573.220711 160.419714 
L 578.698098 151.899296 
L 584.18572 153.105961 
L 589.683158 162.369879 
L 595.191026 149.796543 
L 600.708901 145.998315 
L 606.236364 148.294102 
" style="fill:none;stroke:#ff8c00;stroke-linecap:square;stroke-opacity:0.5;stroke-width:2;"/>
   </g>
   <g id="line2d_2">
    <path clip-path="url(#p504df3764c)" d="M 98.963636 176.077925 
L 103.003066 188.704789 
L 107.0609 157.199296 
L 111.137035 166.75129 
L 115.231356 144.483309 
L 119.343757 152.916171 
L 123.474135 155.680669 
L 127.622386 153.256772 
L 131.788408 157.761739 
L 135.972092 159.999436 
L 140.173339 160.033419 
L 144.392049 166.158926 
L 148.628118 164.896212 
L 152.881449 170.926869 
L 157.151942 172.842721 
L 161.439497 168.011179 
L 165.74402 169.234573 
L 170.065414 160.223138 
L 174.403584 167.642894 
L 178.758426 165.394157 
L 183.129854 157.223953 
L 187.51777 181.442711 
L 191.853145 177.558656 
L 196.204314 168.191843 
L 200.571194 170.572077 
L 204.953699 175.859868 
L 209.351734 180.301262 
L 213.765221 183.569262 
L 218.194068 142.686045 
L 222.638194 152.451067 
L 227.09751 160.430569 
L 231.571929 159.939419 
L 236.061373 155.797088 
L 240.565755 154.289515 
L 245.08499 174.026525 
L 249.618995 176.025607 
L 254.167688 165.902252 
L 258.73099 166.922227 
L 263.308815 157.912763 
L 267.901078 170.175442 
L 272.507702 172.320284 
L 277.128609 166.230392 
L 281.763714 170.313081 
L 286.412935 163.218477 
L 291.076198 152.732489 
L 295.753418 158.862815 
L 300.44452 146.124615 
L 305.149418 150.486986 
L 309.868041 147.338168 
L 314.600303 149.668647 
L 319.346131 151.955938 
L 324.105451 143.547569 
L 328.878175 149.84767 
L 333.664231 149.362775 
L 338.586883 137.834344 
L 343.523087 150.43327 
L 348.473376 163.94169 
L 353.437355 152.332622 
L 358.414639 162.190273 
L 363.405766 166.081342 
L 368.410018 162.464283 
L 373.427959 163.585644 
L 378.459174 156.824429 
L 383.503286 152.771003 
L 388.560831 163.934674 
L 393.631418 176.038317 
L 398.714649 171.819907 
L 403.811078 167.557882 
L 408.920305 167.271669 
L 414.041935 172.233163 
L 419.176519 164.122565 
L 424.323669 154.718998 
L 429.482974 159.009366 
L 434.654998 165.135274 
L 439.839025 166.166955 
L 445.035617 165.118424 
L 450.244376 157.516251 
L 455.464894 151.628318 
L 460.697738 155.764583 
L 465.942522 147.294644 
L 471.198818 126.853816 
L 476.467211 143.538199 
L 481.747304 146.075086 
L 487.038688 145.298533 
L 492.341934 133.161766 
L 497.656636 141.194545 
L 502.982393 169.862919 
L 508.319796 156.759768 
L 513.668086 134.625569 
L 519.027861 113.461351 
L 524.398711 145.40686 
L 529.780223 159.699078 
L 535.172989 140.699354 
L 540.576602 142.719116 
L 545.990645 143.491823 
L 551.415716 146.136672 
L 556.851403 148.047072 
L 562.29729 157.317055 
L 567.753978 184.667526 
L 573.220711 171.477093 
L 578.698098 167.698479 
L 584.18572 166.395136 
L 589.683158 174.090459 
L 595.191026 165.890263 
L 600.708901 164.526472 
L 606.236364 166.573793 
" style="fill:none;stroke:#ff8c00;stroke-linecap:square;stroke-width:2;"/>
   </g>
   <g id="matplotlib.axis_1">
    <g id="xtick_1">
     <g id="line2d_3">
      <defs>
       <path d="M 0 0 
L 0 3.5 
" id="mfa5fca170f" style="stroke:#000000;stroke-width:0.8;"/>
      </defs>
      <g>
       <use style="stroke:#000000;stroke-width:0.8;" x="587.366445" xlink:href="#mfa5fca170f" y="203.339375"/>
      </g>
     </g>
     <g id="text_1">
      <!-- 10.5 -->
      <defs>
       <path d="M 39.40625 0 
L 11.796875 0 
L 11.796875 1.5 
Q 17.296875 1.796875 19.296875 3.546875 
Q 21.296875 5.296875 21.296875 9.5 
L 21.296875 54.40625 
Q 21.296875 59.296875 18.296875 59.296875 
Q 16.90625 59.296875 13.796875 58.09375 
L 11.09375 57.09375 
L 11.09375 58.5 
L 29 67.59375 
L 29.90625 67.296875 
L 29.90625 7.59375 
Q 29.90625 4.296875 31.90625 2.890625 
Q 33.90625 1.5 39.40625 1.5 
z
" id="STIXGeneral-Regular-49"/>
       <path d="M 47.59375 33 
Q 47.59375 26.296875 46.296875 20.34375 
Q 45 14.40625 42.453125 9.40625 
Q 39.90625 4.40625 35.40625 1.5 
Q 30.90625 -1.40625 25 -1.40625 
Q 18.90625 -1.40625 14.296875 1.6875 
Q 9.703125 4.796875 7.203125 10 
Q 4.703125 15.203125 3.546875 21.09375 
Q 2.40625 27 2.40625 33.59375 
Q 2.40625 42.90625 4.703125 50.34375 
Q 7 57.796875 12.34375 62.6875 
Q 17.703125 67.59375 25.40625 67.59375 
Q 35.203125 67.59375 41.390625 58 
Q 47.59375 48.40625 47.59375 33 
z
M 38 32.5 
Q 38 48.296875 34.640625 56.640625 
Q 31.296875 65 24.796875 65 
Q 18.59375 65 15.296875 56.59375 
Q 12 48.203125 12 32.90625 
Q 12 17.5 15.296875 9.34375 
Q 18.59375 1.203125 25 1.203125 
Q 31.296875 1.203125 34.640625 9.34375 
Q 38 17.5 38 32.5 
z
" id="STIXGeneral-Regular-48"/>
       <path d="M 18.09375 4.296875 
Q 18.09375 2.09375 16.4375 0.5 
Q 14.796875 -1.09375 12.5 -1.09375 
Q 10.203125 -1.09375 8.59375 0.5 
Q 7 2.09375 7 4.390625 
Q 7 6.703125 8.640625 8.34375 
Q 10.296875 10 12.59375 10 
Q 14.796875 10 16.4375 8.296875 
Q 18.09375 6.59375 18.09375 4.296875 
z
" id="STIXGeneral-Regular-46"/>
       <path d="M 43.796875 68.09375 
L 40.203125 59.59375 
Q 39.59375 58.296875 37.5 58.296875 
L 18.09375 58.296875 
L 14.09375 49.796875 
Q 25.09375 47.703125 30 45.25 
Q 34.90625 42.796875 39.09375 37 
Q 42.59375 32.203125 42.59375 24.296875 
Q 42.59375 17.09375 40.25 12.1875 
Q 37.90625 7.296875 32.796875 3.5 
Q 26 -1.40625 15.796875 -1.40625 
Q 10.09375 -1.40625 6.59375 0.296875 
Q 3.09375 2 3.09375 4.796875 
Q 3.09375 8.59375 7.59375 8.59375 
Q 11.203125 8.59375 15 5.5 
Q 18.90625 2.296875 22.09375 2.296875 
Q 27.296875 2.296875 31.4375 7.5 
Q 35.59375 12.703125 35.59375 19.203125 
Q 35.59375 28.796875 28.90625 34.203125 
Q 20.203125 41.203125 7.59375 41.203125 
Q 6.40625 41.203125 6.40625 42 
L 6.5 42.5 
L 17.40625 66.203125 
L 38.09375 66.203125 
Q 39.796875 66.203125 40.75 66.703125 
Q 41.703125 67.203125 42.90625 68.796875 
z
" id="STIXGeneral-Regular-53"/>
      </defs>
      <g transform="translate(569.866445 223.99875)scale(0.2 -0.2)">
       <use xlink:href="#STIXGeneral-Regular-49"/>
       <use x="49.999985" xlink:href="#STIXGeneral-Regular-48"/>
       <use x="99.999969" xlink:href="#STIXGeneral-Regular-46"/>
       <use x="124.999954" xlink:href="#STIXGeneral-Regular-53"/>
      </g>
     </g>
    </g>
    <g id="xtick_2">
     <g id="line2d_4">
      <g>
       <use style="stroke:#000000;stroke-width:0.8;" x="468.961104" xlink:href="#mfa5fca170f" y="203.339375"/>
      </g>
     </g>
     <g id="text_2">
      <!-- 11.0 -->
      <g transform="translate(451.461104 223.99875)scale(0.2 -0.2)">
       <use xlink:href="#STIXGeneral-Regular-49"/>
       <use x="49.999985" xlink:href="#STIXGeneral-Regular-49"/>
       <use x="99.999969" xlink:href="#STIXGeneral-Regular-46"/>
       <use x="124.999954" xlink:href="#STIXGeneral-Regular-48"/>
      </g>
     </g>
    </g>
    <g id="xtick_3">
     <g id="line2d_5">
      <g>
       <use style="stroke:#000000;stroke-width:0.8;" x="350.555763" xlink:href="#mfa5fca170f" y="203.339375"/>
      </g>
     </g>
     <g id="text_3">
      <!-- 11.5 -->
      <g transform="translate(333.055763 223.99875)scale(0.2 -0.2)">
       <use xlink:href="#STIXGeneral-Regular-49"/>
       <use x="49.999985" xlink:href="#STIXGeneral-Regular-49"/>
       <use x="99.999969" xlink:href="#STIXGeneral-Regular-46"/>
       <use x="124.999954" xlink:href="#STIXGeneral-Regular-53"/>
      </g>
     </g>
    </g>
    <g id="xtick_4">
     <g id="line2d_6">
      <g>
       <use style="stroke:#000000;stroke-width:0.8;" x="232.150422" xlink:href="#mfa5fca170f" y="203.339375"/>
      </g>
     </g>
     <g id="text_4">
      <!-- 12.0 -->
      <defs>
       <path d="M 47.40625 13.703125 
L 42 0 
L 2.90625 0 
L 2.90625 1.203125 
L 20.703125 20.09375 
Q 27.703125 27.40625 30.703125 33.5 
Q 33.703125 39.59375 33.703125 46.09375 
Q 33.703125 52.796875 30 56.5 
Q 26.296875 60.203125 19.796875 60.203125 
Q 14.40625 60.203125 11.25 57.390625 
Q 8.09375 54.59375 5.09375 47.203125 
L 3 47.703125 
Q 4.703125 57 9.84375 62.296875 
Q 15 67.59375 23.796875 67.59375 
Q 32.09375 67.59375 37.1875 62.59375 
Q 42.296875 57.59375 42.296875 50 
Q 42.296875 38.703125 29.5 25.203125 
L 13 7.59375 
L 36.40625 7.59375 
Q 39.703125 7.59375 41.640625 8.890625 
Q 43.59375 10.203125 46 14.296875 
z
" id="STIXGeneral-Regular-50"/>
      </defs>
      <g transform="translate(214.650422 223.99875)scale(0.2 -0.2)">
       <use xlink:href="#STIXGeneral-Regular-49"/>
       <use x="49.999985" xlink:href="#STIXGeneral-Regular-50"/>
       <use x="99.999969" xlink:href="#STIXGeneral-Regular-46"/>
       <use x="124.999954" xlink:href="#STIXGeneral-Regular-48"/>
      </g>
     </g>
    </g>
    <g id="xtick_5">
     <g id="line2d_7">
      <g>
       <use style="stroke:#000000;stroke-width:0.8;" x="113.745081" xlink:href="#mfa5fca170f" y="203.339375"/>
      </g>
     </g>
     <g id="text_5">
      <!-- 12.5 -->
      <g transform="translate(96.245081 223.99875)scale(0.2 -0.2)">
       <use xlink:href="#STIXGeneral-Regular-49"/>
       <use x="49.999985" xlink:href="#STIXGeneral-Regular-50"/>
       <use x="99.999969" xlink:href="#STIXGeneral-Regular-46"/>
       <use x="124.999954" xlink:href="#STIXGeneral-Regular-53"/>
      </g>
     </g>
    </g>
   </g>
   <g id="matplotlib.axis_2">
    <g id="ytick_1">
     <g id="line2d_8">
      <defs>
       <path d="M 0 0 
L -3.5 0 
" id="m0e9f20c2c9" style="stroke:#000000;stroke-width:0.8;"/>
      </defs>
      <g>
       <use style="stroke:#000000;stroke-width:0.8;" x="73.6" xlink:href="#m0e9f20c2c9" y="148.442271"/>
      </g>
     </g>
     <g id="text_6">
      <!-- $\mathdefault{10^{43}}$ -->
      <defs>
       <path d="M 47.296875 16.703125 
L 37 16.703125 
L 37 0 
L 29.203125 0 
L 29.203125 16.703125 
L 1.203125 16.703125 
L 1.203125 23.09375 
L 32.59375 67.59375 
L 37 67.59375 
L 37 23.09375 
L 47.296875 23.09375 
z
M 29.203125 23.09375 
L 29.203125 57.40625 
L 5.203125 23.09375 
z
" id="STIXGeneral-Regular-52"/>
       <path d="M 6.09375 51 
L 4.5 51.40625 
Q 6.796875 58.90625 11.6875 63.25 
Q 16.59375 67.59375 24.09375 67.59375 
Q 31.09375 67.59375 35.390625 63.796875 
Q 39.703125 60 39.703125 53.90625 
Q 39.703125 45.703125 30.40625 40.09375 
Q 35.90625 37.703125 38.703125 34.796875 
Q 43.09375 29.90625 43.09375 21.90625 
Q 43.09375 13.90625 38.5 7.90625 
Q 35.09375 3.296875 28.75 0.9375 
Q 22.40625 -1.40625 15.296875 -1.40625 
Q 4.09375 -1.40625 4.09375 4.296875 
Q 4.09375 5.90625 5.296875 6.90625 
Q 6.5 7.90625 8.203125 7.90625 
Q 10.703125 7.90625 14.296875 5.296875 
Q 18.703125 2.203125 22.90625 2.203125 
Q 28.40625 2.203125 32.15625 6.640625 
Q 35.90625 11.09375 35.90625 17.5 
Q 35.90625 29 25.5 32 
Q 22.40625 33 15.296875 33 
L 15.296875 34.40625 
Q 20.90625 36.296875 23.703125 38 
Q 31.796875 42.59375 31.796875 51.40625 
Q 31.796875 56.40625 28.9375 59 
Q 26.09375 61.59375 21 61.59375 
Q 12 61.59375 6.09375 51 
z
" id="STIXGeneral-Regular-51"/>
      </defs>
      <g transform="translate(31.2 155.271958)scale(0.2 -0.2)">
       <use transform="translate(0 0.684375)" xlink:href="#STIXGeneral-Regular-49"/>
       <use transform="translate(49.999985 0.684375)" xlink:href="#STIXGeneral-Regular-48"/>
       <use transform="translate(101.574969 36.684375)scale(0.7)" xlink:href="#STIXGeneral-Regular-52"/>
       <use transform="translate(136.574959 36.684375)scale(0.7)" xlink:href="#STIXGeneral-Regular-51"/>
      </g>
     </g>
    </g>
    <g id="ytick_2">
     <g id="line2d_9">
      <g>
       <use style="stroke:#000000;stroke-width:0.8;" x="73.6" xlink:href="#m0e9f20c2c9" y="69.902271"/>
      </g>
     </g>
     <g id="text_7">
      <!-- $\mathdefault{10^{45}}$ -->
      <g transform="translate(31.2 76.731958)scale(0.2 -0.2)">
       <use transform="translate(0 0.842187)" xlink:href="#STIXGeneral-Regular-49"/>
       <use transform="translate(49.999985 0.842187)" xlink:href="#STIXGeneral-Regular-48"/>
       <use transform="translate(101.574969 36.842187)scale(0.7)" xlink:href="#STIXGeneral-Regular-52"/>
       <use transform="translate(136.574959 36.842187)scale(0.7)" xlink:href="#STIXGeneral-Regular-53"/>
      </g>
     </g>
    </g>
    <g id="text_8">
     <!-- $L_{\rm Ly \alpha}\ (\rm erg \ s^{-1})$ -->
     <defs>
      <path d="M 4.6875 0 
Q 3.71875 0 3.71875 1.3125 
Q 3.765625 1.5625 3.90625 2.171875 
Q 4.046875 2.78125 4.3125 3.140625 
Q 4.59375 3.515625 4.984375 3.515625 
Q 11.078125 3.515625 13.484375 4.203125 
Q 14.796875 4.640625 15.375 6.890625 
L 29.109375 61.8125 
Q 29.296875 62.796875 29.296875 63.1875 
Q 29.296875 64.265625 28.078125 64.40625 
Q 26.21875 64.796875 20.90625 64.796875 
Q 19.921875 64.796875 19.921875 66.109375 
Q 20.265625 67.390625 20.453125 67.84375 
Q 20.65625 68.3125 21.578125 68.3125 
L 51.125 68.3125 
Q 52 68.3125 52 67 
Q 51.859375 65.96875 51.65625 65.375 
Q 51.46875 64.796875 50.6875 64.796875 
Q 43.3125 64.796875 40.828125 64.3125 
Q 38.375 63.875 37.796875 61.375 
L 24.125 6.5 
Q 23.6875 5.28125 23.6875 4.296875 
Q 23.6875 3.515625 27.09375 3.515625 
L 36.375 3.515625 
Q 44.234375 3.515625 49.109375 6.640625 
Q 54 9.765625 56.34375 13.6875 
Q 58.6875 17.625 60.265625 21.84375 
Q 61.859375 26.078125 62.59375 26.21875 
L 63.484375 26.21875 
Q 64.5 26.21875 64.5 24.90625 
L 55.609375 0.6875 
Q 55.46875 0 54.6875 0 
z
" id="Cmmi10-76"/>
      <path d="M 3.078125 0 
L 3.078125 3.515625 
Q 13.375 3.515625 13.375 6.6875 
L 13.375 61.625 
Q 13.375 64.796875 3.078125 64.796875 
L 3.078125 68.3125 
L 35.5 68.3125 
L 35.5 64.796875 
Q 22.703125 64.796875 22.703125 61.625 
L 22.703125 6.6875 
Q 22.703125 4.546875 23.921875 4.03125 
Q 25.140625 3.515625 27.78125 3.515625 
L 35.5 3.515625 
Q 42.96875 3.515625 47.015625 6.25 
Q 51.078125 8.984375 52.75 13.6875 
Q 54.4375 18.40625 55.328125 26.21875 
L 58.203125 26.21875 
L 55.421875 0 
z
" id="Cmr10-76"/>
      <path d="M 6.890625 -16.40625 
Q 8.796875 -17.921875 11.078125 -17.921875 
Q 17.390625 -17.921875 21.390625 -8.40625 
L 24.8125 0 
L 9.8125 36.71875 
Q 8.890625 38.578125 6.984375 39.078125 
Q 5.078125 39.59375 1.90625 39.59375 
L 1.90625 43.109375 
L 22.90625 43.109375 
L 22.90625 39.59375 
Q 17.390625 39.59375 17.390625 37.203125 
Q 17.390625 36.8125 17.484375 36.625 
L 28.609375 9.28125 
L 38.625 33.890625 
Q 38.921875 34.671875 38.921875 35.59375 
Q 38.921875 36.8125 38.25 37.71875 
Q 37.59375 38.625 36.546875 39.109375 
Q 35.5 39.59375 34.1875 39.59375 
L 34.1875 43.109375 
L 50.78125 43.109375 
L 50.78125 39.59375 
Q 47.703125 39.59375 45.375 38.171875 
Q 43.0625 36.765625 41.796875 33.984375 
L 24.515625 -8.40625 
Q 23.140625 -11.625 21.3125 -14.328125 
Q 19.484375 -17.046875 16.84375 -18.78125 
Q 14.203125 -20.515625 11.078125 -20.515625 
Q 7.421875 -20.515625 4.65625 -18.09375 
Q 1.90625 -15.671875 1.90625 -12.109375 
Q 1.90625 -10.25 3.171875 -8.984375 
Q 4.4375 -7.71875 6.296875 -7.71875 
Q 7.5625 -7.71875 8.5625 -8.28125 
Q 9.578125 -8.84375 10.125 -9.8125 
Q 10.6875 -10.796875 10.6875 -12.109375 
Q 10.6875 -13.71875 9.609375 -14.984375 
Q 8.546875 -16.265625 6.890625 -16.40625 
z
" id="Cmr10-121"/>
      <path d="M 20.125 -1.125 
Q 15.375 -1.125 11.6875 1.125 
Q 8.015625 3.375 6 7.171875 
Q 4 10.984375 4 15.828125 
Q 4 22.609375 7.78125 29.25 
Q 11.578125 35.890625 17.84375 40.03125 
Q 24.125 44.1875 31 44.1875 
Q 36.078125 44.1875 39.9375 41.53125 
Q 43.796875 38.875 45.796875 34.453125 
Q 47.796875 30.03125 47.796875 25 
L 47.90625 18.3125 
Q 51.3125 23.046875 53.6875 28.140625 
Q 56.0625 33.25 57.328125 38.71875 
Q 57.515625 39.3125 58.109375 39.3125 
L 59.28125 39.3125 
Q 60.203125 39.3125 60.203125 38.375 
Q 60.203125 38.28125 60.109375 38.09375 
Q 58.9375 33.5 57.171875 29.265625 
Q 55.421875 25.046875 53.046875 21.09375 
Q 50.6875 17.140625 47.90625 13.921875 
Q 47.90625 1.515625 50.78125 1.515625 
Q 52.640625 1.515625 53.828125 2.609375 
Q 55.03125 3.71875 55.9375 5.328125 
Q 56.84375 6.9375 57.078125 6.984375 
L 58.296875 6.984375 
Q 59.078125 6.984375 59.078125 6 
Q 59.078125 3.515625 56.21875 1.1875 
Q 53.375 -1.125 50.59375 -1.125 
Q 46.96875 -1.125 44.578125 1.21875 
Q 42.1875 3.5625 41.3125 7.328125 
Q 36.625 3.328125 31.15625 1.09375 
Q 25.6875 -1.125 20.125 -1.125 
z
M 20.3125 1.515625 
Q 31 1.515625 40.828125 10.296875 
Q 40.765625 10.890625 40.671875 11.734375 
Q 40.578125 12.59375 40.578125 12.703125 
L 40.578125 23.484375 
Q 40.578125 41.609375 30.8125 41.609375 
Q 24.953125 41.609375 20.546875 36.59375 
Q 16.15625 31.59375 13.9375 24.625 
Q 11.71875 17.671875 11.71875 11.921875 
Q 11.71875 7.5625 13.9375 4.53125 
Q 16.15625 1.515625 20.3125 1.515625 
z
" id="Cmmi10-174"/>
      <path d="M 31 -24.8125 
Q 25.4375 -20.40625 21.40625 -14.71875 
Q 17.390625 -9.03125 14.8125 -2.578125 
Q 12.25 3.859375 10.984375 10.890625 
Q 9.71875 17.921875 9.71875 25 
Q 9.71875 32.171875 10.984375 39.203125 
Q 12.25 46.234375 14.859375 52.734375 
Q 17.484375 59.234375 21.53125 64.890625 
Q 25.59375 70.5625 31 74.8125 
Q 31 75 31.5 75 
L 32.421875 75 
Q 32.71875 75 32.953125 74.734375 
Q 33.203125 74.46875 33.203125 74.125 
Q 33.203125 73.6875 33.015625 73.484375 
Q 28.125 68.703125 24.875 63.234375 
Q 21.625 57.765625 19.640625 51.578125 
Q 17.671875 45.40625 16.796875 38.78125 
Q 15.921875 32.171875 15.921875 25 
Q 15.921875 -6.78125 32.90625 -23.296875 
Q 33.203125 -23.578125 33.203125 -24.125 
Q 33.203125 -24.359375 32.9375 -24.671875 
Q 32.671875 -25 32.421875 -25 
L 31.5 -25 
Q 31 -25 31 -24.8125 
z
" id="Cmr10-40"/>
      <path d="M 24.90625 -1.125 
Q 18.796875 -1.125 13.6875 2.078125 
Q 8.59375 5.28125 5.6875 10.625 
Q 2.78125 15.96875 2.78125 21.921875 
Q 2.78125 27.78125 5.4375 33.046875 
Q 8.109375 38.328125 12.859375 41.578125 
Q 17.625 44.828125 23.484375 44.828125 
Q 28.078125 44.828125 31.46875 43.28125 
Q 34.859375 41.75 37.0625 39.015625 
Q 39.265625 36.28125 40.375 32.5625 
Q 41.5 28.859375 41.5 24.421875 
Q 41.5 23.09375 40.484375 23.09375 
L 11.53125 23.09375 
L 11.53125 22.015625 
Q 11.53125 13.71875 14.875 7.765625 
Q 18.21875 1.8125 25.78125 1.8125 
Q 28.859375 1.8125 31.46875 3.171875 
Q 34.078125 4.546875 36 6.984375 
Q 37.9375 9.421875 38.625 12.203125 
Q 38.71875 12.546875 38.984375 12.8125 
Q 39.265625 13.09375 39.59375 13.09375 
L 40.484375 13.09375 
Q 41.5 13.09375 41.5 11.8125 
Q 40.09375 6.15625 35.40625 2.515625 
Q 30.71875 -1.125 24.90625 -1.125 
z
M 11.625 25.59375 
L 34.421875 25.59375 
Q 34.421875 29.34375 33.375 33.203125 
Q 32.328125 37.0625 29.875 39.625 
Q 27.4375 42.1875 23.484375 42.1875 
Q 17.828125 42.1875 14.71875 36.890625 
Q 11.625 31.59375 11.625 25.59375 
z
" id="Cmr10-101"/>
      <path d="M 2.59375 0 
L 2.59375 3.515625 
Q 6 3.515625 8.203125 4.046875 
Q 10.40625 4.59375 10.40625 6.6875 
L 10.40625 33.984375 
Q 10.40625 36.671875 9.59375 37.859375 
Q 8.796875 39.0625 7.28125 39.328125 
Q 5.765625 39.59375 2.59375 39.59375 
L 2.59375 43.109375 
L 16.890625 44.1875 
L 16.890625 34.421875 
Q 18.5 38.765625 21.484375 41.46875 
Q 24.46875 44.1875 28.71875 44.1875 
Q 31.6875 44.1875 34.03125 42.421875 
Q 36.375 40.671875 36.375 37.796875 
Q 36.375 35.984375 35.078125 34.640625 
Q 33.796875 33.296875 31.890625 33.296875 
Q 30.03125 33.296875 28.703125 34.609375 
Q 27.390625 35.9375 27.390625 37.796875 
Q 27.390625 40.484375 29.296875 41.609375 
L 28.71875 41.609375 
Q 24.65625 41.609375 22.09375 38.671875 
Q 19.53125 35.75 18.453125 31.390625 
Q 17.390625 27.046875 17.390625 23.09375 
L 17.390625 6.6875 
Q 17.390625 3.515625 27.09375 3.515625 
L 27.09375 0 
z
" id="Cmr10-114"/>
      <path d="M 2.78125 -7.8125 
Q 2.78125 -4.25 5.359375 -1.578125 
Q 7.953125 1.078125 11.53125 2.203125 
Q 9.515625 3.71875 8.46875 6 
Q 7.421875 8.296875 7.421875 10.890625 
Q 7.421875 15.578125 10.40625 19.1875 
Q 5.8125 23.6875 5.8125 29.5 
Q 5.8125 32.625 7.15625 35.359375 
Q 8.5 38.09375 10.890625 40.09375 
Q 13.28125 42.09375 16.203125 43.140625 
Q 19.140625 44.1875 22.21875 44.1875 
Q 28.171875 44.1875 32.90625 40.71875 
Q 34.96875 42.921875 37.765625 44.109375 
Q 40.578125 45.3125 43.609375 45.3125 
Q 45.75 45.3125 47.109375 43.765625 
Q 48.484375 42.234375 48.484375 40.09375 
Q 48.484375 38.875 47.546875 37.9375 
Q 46.625 37.015625 45.40625 37.015625 
Q 44.140625 37.015625 43.203125 37.9375 
Q 42.28125 38.875 42.28125 40.09375 
Q 42.28125 41.9375 43.5 42.671875 
Q 38.328125 42.671875 34.625 39.109375 
Q 36.421875 37.3125 37.515625 34.6875 
Q 38.625 32.078125 38.625 29.5 
Q 38.625 25.25 36.28125 21.84375 
Q 33.9375 18.453125 30.09375 16.578125 
Q 26.265625 14.703125 22.21875 14.703125 
Q 16.75 14.703125 12.203125 17.671875 
Q 10.796875 15.71875 10.796875 13.28125 
Q 10.796875 10.640625 12.53125 8.65625 
Q 14.265625 6.6875 16.890625 6.6875 
L 25.09375 6.6875 
Q 31.0625 6.6875 35.84375 5.609375 
Q 40.625 4.546875 43.875 1.3125 
Q 47.125 -1.90625 47.125 -7.8125 
Q 47.125 -12.203125 43.40625 -15.109375 
Q 39.703125 -18.015625 34.546875 -19.3125 
Q 29.390625 -20.609375 25 -20.609375 
Q 20.5625 -20.609375 15.375 -19.3125 
Q 10.203125 -18.015625 6.484375 -15.109375 
Q 2.78125 -12.203125 2.78125 -7.8125 
z
M 8.40625 -7.8125 
Q 8.40625 -11.1875 11.140625 -13.453125 
Q 13.875 -15.71875 17.71875 -16.8125 
Q 21.578125 -17.921875 25 -17.921875 
Q 28.375 -17.921875 32.21875 -16.8125 
Q 36.078125 -15.71875 38.78125 -13.453125 
Q 41.5 -11.1875 41.5 -7.8125 
Q 41.5 -2.59375 36.71875 -1.046875 
Q 31.9375 0.484375 25.09375 0.484375 
L 16.890625 0.484375 
Q 14.59375 0.484375 12.671875 -0.609375 
Q 10.75 -1.703125 9.578125 -3.6875 
Q 8.40625 -5.671875 8.40625 -7.8125 
z
M 22.21875 17.390625 
Q 30.71875 17.390625 30.71875 29.5 
Q 30.71875 34.71875 28.90625 38.109375 
Q 27.09375 41.5 22.21875 41.5 
Q 17.328125 41.5 15.515625 38.109375 
Q 13.71875 34.71875 13.71875 29.5 
Q 13.71875 26.171875 14.40625 23.484375 
Q 15.09375 20.796875 16.9375 19.09375 
Q 18.796875 17.390625 22.21875 17.390625 
z
" id="Cmr10-103"/>
      <path d="M 3.328125 -0.296875 
L 3.328125 16.015625 
Q 3.328125 16.796875 4.203125 16.796875 
L 5.421875 16.796875 
Q 6 16.796875 6.203125 16.015625 
Q 8.984375 1.515625 19.671875 1.515625 
Q 24.421875 1.515625 27.609375 3.65625 
Q 30.8125 5.8125 30.8125 10.296875 
Q 30.8125 13.53125 28.3125 15.796875 
Q 25.828125 18.0625 22.40625 18.890625 
L 15.71875 20.21875 
Q 12.359375 20.953125 9.59375 22.453125 
Q 6.84375 23.96875 5.078125 26.484375 
Q 3.328125 29 3.328125 32.328125 
Q 3.328125 36.71875 5.640625 39.515625 
Q 7.953125 42.328125 11.65625 43.578125 
Q 15.375 44.828125 19.671875 44.828125 
Q 24.8125 44.828125 28.609375 42.09375 
L 31.5 44.578125 
Q 31.5 44.828125 31.984375 44.828125 
L 32.71875 44.828125 
Q 33.015625 44.828125 33.25 44.546875 
Q 33.5 44.28125 33.5 44 
L 33.5 30.90625 
Q 33.5 29.984375 32.71875 29.984375 
L 31.5 29.984375 
Q 30.609375 29.984375 30.609375 30.90625 
Q 30.609375 36.140625 27.703125 39.3125 
Q 24.8125 42.484375 19.578125 42.484375 
Q 15.09375 42.484375 11.796875 40.8125 
Q 8.5 39.15625 8.5 35.109375 
Q 8.5 32.328125 10.859375 30.546875 
Q 13.234375 28.765625 16.40625 27.984375 
L 23.1875 26.703125 
Q 26.609375 25.921875 29.5625 24.0625 
Q 32.515625 22.21875 34.25 19.375 
Q 35.984375 16.546875 35.984375 12.984375 
Q 35.984375 9.375 34.734375 6.703125 
Q 33.5 4.046875 31.265625 2.28125 
Q 29.046875 0.53125 26.015625 -0.296875 
Q 23 -1.125 19.671875 -1.125 
Q 13.421875 -1.125 8.984375 3.078125 
L 5.328125 -0.875 
Q 5.328125 -1.125 4.78125 -1.125 
L 4.203125 -1.125 
Q 3.328125 -1.125 3.328125 -0.296875 
z
" id="Cmr10-115"/>
      <path d="M 10.203125 23 
Q 9.375 23 8.828125 23.625 
Q 8.296875 24.265625 8.296875 25 
Q 8.296875 25.734375 8.828125 26.359375 
Q 9.375 27 10.203125 27 
L 67.578125 27 
Q 68.359375 27 68.875 26.359375 
Q 69.390625 25.734375 69.390625 25 
Q 69.390625 24.265625 68.875 23.625 
Q 68.359375 23 67.578125 23 
z
" id="Cmsy10-161"/>
      <path d="M 9.28125 0 
L 9.28125 3.515625 
Q 21.78125 3.515625 21.78125 6.6875 
L 21.78125 59.1875 
Q 16.609375 56.6875 8.6875 56.6875 
L 8.6875 60.203125 
Q 20.953125 60.203125 27.203125 66.609375 
L 28.609375 66.609375 
Q 28.953125 66.609375 29.265625 66.328125 
Q 29.59375 66.0625 29.59375 65.71875 
L 29.59375 6.6875 
Q 29.59375 3.515625 42.09375 3.515625 
L 42.09375 0 
z
" id="Cmr10-49"/>
      <path d="M 6.5 -25 
Q 5.609375 -25 5.609375 -24.125 
Q 5.609375 -23.6875 5.8125 -23.484375 
Q 22.90625 -6.78125 22.90625 25 
Q 22.90625 56.78125 6 73.296875 
Q 5.609375 73.53125 5.609375 74.125 
Q 5.609375 74.46875 5.875 74.734375 
Q 6.15625 75 6.5 75 
L 7.421875 75 
Q 7.71875 75 7.90625 74.8125 
Q 15.09375 69.140625 19.875 61.03125 
Q 24.65625 52.9375 26.875 43.75 
Q 29.109375 34.578125 29.109375 25 
Q 29.109375 17.921875 27.90625 11.0625 
Q 26.703125 4.203125 24.09375 -2.453125 
Q 21.484375 -9.125 17.484375 -14.765625 
Q 13.484375 -20.40625 7.90625 -24.8125 
Q 7.71875 -25 7.421875 -25 
z
" id="Cmr10-41"/>
     </defs>
     <g transform="translate(20.8 185.599375)rotate(-90)scale(0.2 -0.2)">
      <use transform="translate(0 0.223438)" xlink:href="#Cmmi10-76"/>
      <use transform="translate(68.017578 -16.782813)scale(0.7)" xlink:href="#Cmr10-76"/>
      <use transform="translate(111.767578 -16.782813)scale(0.7)" xlink:href="#Cmr10-121"/>
      <use transform="translate(148.647461 -16.782813)scale(0.7)" xlink:href="#Cmmi10-174"/>
      <use transform="translate(229.030046 0.223438)" xlink:href="#Cmr10-40"/>
      <use transform="translate(267.848405 0.223438)" xlink:href="#Cmr10-101"/>
      <use transform="translate(312.233171 0.223438)" xlink:href="#Cmr10-114"/>
      <use transform="translate(351.344499 0.223438)" xlink:href="#Cmr10-103"/>
      <use transform="translate(429.111148 0.223438)" xlink:href="#Cmr10-115"/>
      <use transform="translate(473.082945 39.373438)scale(0.7)" xlink:href="#Cmsy10-161"/>
      <use transform="translate(527.462828 39.373438)scale(0.7)" xlink:href="#Cmr10-49"/>
      <use transform="translate(568.987828 0.223438)" xlink:href="#Cmr10-41"/>
     </g>
    </g>
   </g>
   <g id="line2d_10">
    <path clip-path="url(#p504df3764c)" d="M 98.963636 153.705699 
L 103.003066 158.193109 
L 107.0609 144.450963 
L 111.137035 150.031337 
L 115.231356 138.622058 
L 119.343757 141.619732 
L 123.474135 141.314002 
L 127.622386 146.278091 
L 131.788408 141.107526 
L 135.972092 143.053975 
L 140.173339 141.154921 
L 144.392049 150.26018 
L 148.628118 152.624065 
L 152.881449 150.679858 
L 157.151942 146.444236 
L 161.439497 133.524422 
L 165.74402 136.667726 
L 170.065414 131.503474 
L 174.403584 141.825756 
L 178.758426 144.468936 
L 183.129854 141.116059 
L 187.51777 144.989691 
L 191.853145 155.128116 
L 196.204314 148.994972 
L 200.571194 137.315686 
L 204.953699 142.118035 
L 209.351734 143.411875 
L 213.765221 130.244088 
L 218.194068 139.470228 
L 222.638194 134.432961 
L 227.09751 127.876352 
L 231.571929 138.160417 
L 236.061373 138.879054 
L 240.565755 139.497552 
L 245.08499 146.244532 
L 249.618995 147.122504 
L 254.167688 149.04975 
L 258.73099 145.139738 
L 263.308815 138.121001 
L 267.901078 138.991793 
L 272.507702 135.362562 
L 277.128609 139.316907 
L 281.763714 128.985183 
L 286.412935 126.709898 
L 291.076198 134.324187 
L 295.753418 122.594436 
L 300.44452 131.270926 
L 305.149418 121.629288 
L 309.868041 122.128994 
L 314.600303 110.381429 
L 319.346131 121.246646 
L 324.105451 116.568091 
L 328.878175 127.646614 
L 333.664231 114.424251 
L 338.586883 120.165969 
L 343.523087 130.967364 
L 348.473376 138.736598 
L 353.437355 116.68913 
L 358.414639 127.643718 
L 363.405766 115.100568 
L 368.410018 119.726636 
L 373.427959 123.442997 
L 378.459174 94.559422 
L 383.503286 108.681837 
L 388.560831 133.415508 
L 393.631418 131.448495 
L 398.714649 140.134741 
L 403.811078 134.277382 
L 408.920305 117.856467 
L 414.041935 139.030321 
L 419.176519 135.517972 
L 424.323669 131.488993 
L 429.482974 114.812247 
L 434.654998 131.065893 
L 439.839025 124.770538 
L 445.035617 127.402971 
L 450.244376 119.165072 
L 455.464894 116.133464 
L 460.697738 111.135235 
L 465.942522 108.506134 
L 471.198818 95.577929 
L 476.467211 111.122717 
L 481.747304 114.814097 
L 487.038688 104.833667 
L 492.341934 93.919488 
L 497.656636 117.568245 
L 502.982393 122.423252 
L 508.319796 118.498978 
L 513.668086 95.628896 
L 519.027861 70.272352 
L 524.398711 66.202006 
L 529.780223 100.510091 
L 535.172989 78.619402 
L 540.576602 97.176726 
L 545.990645 100.244661 
L 551.415716 95.354886 
L 556.851403 101.353331 
L 562.29729 111.834558 
L 567.753978 127.317904 
L 573.220711 122.054019 
L 578.698098 102.165298 
L 584.18572 116.352073 
L 589.683158 123.696624 
L 595.191026 107.393912 
L 600.708901 114.770898 
L 606.236364 116.227805 
" style="fill:none;stroke:#440154;stroke-linecap:square;stroke-opacity:0.5;stroke-width:2;"/>
   </g>
   <g id="patch_3">
    <path d="M 73.6 203.339375 
L 73.6 46.259375 
" style="fill:none;stroke:#000000;stroke-linecap:square;stroke-linejoin:miter;stroke-width:0.8;"/>
   </g>
   <g id="patch_4">
    <path d="M 631.6 203.339375 
L 631.6 46.259375 
" style="fill:none;stroke:#000000;stroke-linecap:square;stroke-linejoin:miter;stroke-width:0.8;"/>
   </g>
   <g id="patch_5">
    <path d="M 73.6 203.339375 
L 631.6 203.339375 
" style="fill:none;stroke:#000000;stroke-linecap:square;stroke-linejoin:miter;stroke-width:0.8;"/>
   </g>
   <g id="patch_6">
    <path d="M 73.6 46.259375 
L 631.6 46.259375 
" style="fill:none;stroke:#000000;stroke-linecap:square;stroke-linejoin:miter;stroke-width:0.8;"/>
   </g>
   <g id="line2d_11">
    <path clip-path="url(#p504df3764c)" d="M 98.963636 162.32274 
L 103.003066 164.284304 
L 107.0609 150.832874 
L 111.137035 158.651744 
L 115.231356 149.377675 
L 119.343757 148.643424 
L 123.474135 147.734101 
L 127.622386 151.895795 
L 131.788408 150.785281 
L 135.972092 150.914184 
L 140.173339 150.301116 
L 144.392049 156.257144 
L 148.628118 158.06097 
L 152.881449 159.358913 
L 157.151942 158.068833 
L 161.439497 150.265564 
L 165.74402 150.864755 
L 170.065414 146.904929 
L 174.403584 152.282842 
L 178.758426 154.619166 
L 183.129854 151.158544 
L 187.51777 154.888023 
L 191.853145 160.154701 
L 196.204314 157.052509 
L 200.571194 151.625439 
L 204.953699 154.509002 
L 209.351734 155.000734 
L 213.765221 144.743811 
L 218.194068 150.285469 
L 222.638194 145.582546 
L 227.09751 139.444329 
L 231.571929 146.113202 
L 236.061373 145.644284 
L 240.565755 151.08801 
L 245.08499 152.329148 
L 249.618995 153.697001 
L 254.167688 155.733476 
L 258.73099 153.760534 
L 263.308815 149.89361 
L 267.901078 147.617897 
L 272.507702 143.627351 
L 277.128609 148.412941 
L 281.763714 143.263813 
L 286.412935 141.415297 
L 291.076198 144.672702 
L 295.753418 133.651756 
L 300.44452 141.875495 
L 305.149418 134.305682 
L 309.868041 134.67332 
L 314.600303 125.669403 
L 319.346131 134.170456 
L 324.105451 130.51111 
L 328.878175 138.34811 
L 333.664231 130.94781 
L 338.586883 135.296483 
L 343.523087 142.947749 
L 348.473376 147.680364 
L 353.437355 132.089328 
L 358.414639 142.998677 
L 363.405766 131.468054 
L 368.410018 135.359092 
L 373.427959 140.286904 
L 378.459174 110.492934 
L 383.503286 130.256032 
L 388.560831 144.75023 
L 393.631418 142.281132 
L 398.714649 148.619131 
L 403.811078 144.144932 
L 408.920305 128.541501 
L 414.041935 148.103978 
L 419.176519 145.4696 
L 424.323669 142.665718 
L 429.482974 126.973121 
L 434.654998 141.293187 
L 439.839025 134.762976 
L 445.035617 136.501088 
L 450.244376 130.507905 
L 455.464894 129.350714 
L 460.697738 125.329981 
L 465.942522 123.107123 
L 471.198818 108.578749 
L 476.467211 124.214105 
L 481.747304 126.231463 
L 487.038688 117.477506 
L 492.341934 110.783628 
L 497.656636 130.662365 
L 502.982393 133.868308 
L 508.319796 129.313499 
L 513.668086 113.983383 
L 519.027861 89.422296 
L 524.398711 91.041081 
L 529.780223 121.391137 
L 535.172989 101.777328 
L 540.576602 118.102991 
L 545.990645 118.359523 
L 551.415716 111.219744 
L 556.851403 117.732758 
L 562.29729 124.184006 
L 567.753978 135.879431 
L 573.220711 132.587312 
L 578.698098 117.611895 
L 584.18572 129.232094 
L 589.683158 133.767683 
L 595.191026 122.702973 
L 600.708901 129.065556 
L 606.236364 130.901038 
" style="fill:none;stroke:#440154;stroke-linecap:square;stroke-width:2;"/>
   </g>
   <g id="legend_1">
    <g id="patch_7">
     <path d="M 87.6 129.659375 
L 191.6 129.659375 
Q 195.6 129.659375 195.6 125.659375 
L 195.6 60.259375 
Q 195.6 56.259375 191.6 56.259375 
L 87.6 56.259375 
Q 83.6 56.259375 83.6 60.259375 
L 83.6 125.659375 
Q 83.6 129.659375 87.6 129.659375 
z
" style="fill:#ffffff;opacity:0.8;stroke:#cccccc;stroke-linejoin:miter;"/>
    </g>
    <g id="line2d_12">
     <path d="M 91.6 71.259375 
L 131.6 71.259375 
" style="fill:none;stroke:#ff8c00;stroke-linecap:square;stroke-width:2;"/>
    </g>
    <g id="line2d_13"/>
    <g id="text_9">
     <!-- $L_{\rm Ly \alpha}^{\rm rec}$ -->
     <defs>
      <path d="M 24.90625 -1.125 
Q 18.84375 -1.125 13.90625 2.015625 
Q 8.984375 5.171875 6.15625 10.421875 
Q 3.328125 15.671875 3.328125 21.578125 
Q 3.328125 27.484375 6.125 32.90625 
Q 8.9375 38.328125 13.890625 41.578125 
Q 18.84375 44.828125 24.90625 44.828125 
Q 30.765625 44.828125 35.5625 42.53125 
Q 40.375 40.234375 40.375 35.015625 
Q 40.375 33.0625 38.984375 31.609375 
Q 37.59375 30.171875 35.59375 30.171875 
Q 33.59375 30.171875 32.203125 31.609375 
Q 30.8125 33.0625 30.8125 35.015625 
Q 30.8125 36.765625 31.9375 38.0625 
Q 33.0625 39.359375 34.71875 39.703125 
Q 31.25 41.890625 25 41.890625 
Q 20.21875 41.890625 17.28125 38.71875 
Q 14.359375 35.546875 13.1875 30.859375 
Q 12.015625 26.171875 12.015625 21.578125 
Q 12.015625 16.75 13.453125 12.234375 
Q 14.890625 7.71875 18.09375 4.765625 
Q 21.296875 1.8125 26.125 1.8125 
Q 30.859375 1.8125 34.171875 4.71875 
Q 37.5 7.625 38.71875 12.3125 
Q 38.71875 12.890625 39.5 12.890625 
L 40.71875 12.890625 
Q 41.015625 12.890625 41.25 12.625 
Q 41.5 12.359375 41.5 12.015625 
L 41.5 11.71875 
Q 39.984375 5.8125 35.484375 2.34375 
Q 31 -1.125 24.90625 -1.125 
z
" id="Cmr10-99"/>
     </defs>
     <g transform="translate(147.6 78.259375)scale(0.2 -0.2)">
      <use transform="translate(0 0.35625)" xlink:href="#Cmmi10-76"/>
      <use transform="translate(79.387109 38.620312)scale(0.7)" xlink:href="#Cmr10-114"/>
      <use transform="translate(106.765039 38.620312)scale(0.7)" xlink:href="#Cmr10-101"/>
      <use transform="translate(137.834375 38.620312)scale(0.7)" xlink:href="#Cmr10-99"/>
      <use transform="translate(68.017578 -25.153125)scale(0.7)" xlink:href="#Cmr10-76"/>
      <use transform="translate(111.767578 -25.153125)scale(0.7)" xlink:href="#Cmr10-121"/>
      <use transform="translate(148.647461 -25.153125)scale(0.7)" xlink:href="#Cmmi10-174"/>
     </g>
    </g>
    <g id="line2d_14">
     <path d="M 91.6 106.659375 
L 131.6 106.659375 
" style="fill:none;stroke:#440154;stroke-linecap:square;stroke-width:2;"/>
    </g>
    <g id="line2d_15"/>
    <g id="text_10">
     <!-- $L_{\rm Ly \alpha}^{\rm col}$ -->
     <defs>
      <path d="M 25 -1.125 
Q 19 -1.125 13.859375 1.921875 
Q 8.734375 4.984375 5.75 10.109375 
Q 2.78125 15.234375 2.78125 21.296875 
Q 2.78125 25.875 4.421875 30.125 
Q 6.0625 34.375 9.109375 37.71875 
Q 12.15625 41.0625 16.203125 42.9375 
Q 20.265625 44.828125 25 44.828125 
Q 31.15625 44.828125 36.203125 41.578125 
Q 41.265625 38.328125 44.1875 32.875 
Q 47.125 27.4375 47.125 21.296875 
Q 47.125 15.28125 44.140625 10.125 
Q 41.15625 4.984375 36.046875 1.921875 
Q 30.953125 -1.125 25 -1.125 
z
M 25 1.8125 
Q 33.015625 1.8125 35.6875 7.609375 
Q 38.375 13.421875 38.375 22.40625 
Q 38.375 27.4375 37.84375 30.734375 
Q 37.3125 34.03125 35.5 36.71875 
Q 34.375 38.375 32.640625 39.625 
Q 30.90625 40.875 28.96875 41.53125 
Q 27.046875 42.1875 25 42.1875 
Q 21.875 42.1875 19.0625 40.765625 
Q 16.265625 39.359375 14.40625 36.71875 
Q 12.546875 33.890625 12.03125 30.484375 
Q 11.53125 27.09375 11.53125 22.40625 
Q 11.53125 16.796875 12.5 12.328125 
Q 13.484375 7.859375 16.4375 4.828125 
Q 19.390625 1.8125 25 1.8125 
z
" id="Cmr10-111"/>
      <path d="M 3.078125 0 
L 3.078125 3.515625 
Q 6.5 3.515625 8.6875 4.046875 
Q 10.890625 4.59375 10.890625 6.6875 
L 10.890625 59.1875 
Q 10.890625 61.859375 10.078125 63.0625 
Q 9.28125 64.265625 7.765625 64.53125 
Q 6.25 64.796875 3.078125 64.796875 
L 3.078125 68.3125 
L 17.921875 69.390625 
L 17.921875 6.6875 
Q 17.921875 4.59375 20.109375 4.046875 
Q 22.3125 3.515625 25.6875 3.515625 
L 25.6875 0 
z
" id="Cmr10-108"/>
     </defs>
     <g transform="translate(147.6 113.659375)scale(0.2 -0.2)">
      <use transform="translate(0 0.1625)" xlink:href="#Cmmi10-76"/>
      <use transform="translate(79.387109 38.426563)scale(0.7)" xlink:href="#Cmr10-99"/>
      <use transform="translate(110.456445 38.426563)scale(0.7)" xlink:href="#Cmr10-111"/>
      <use transform="translate(145.456445 38.426563)scale(0.7)" xlink:href="#Cmr10-108"/>
      <use transform="translate(68.017578 -25.346875)scale(0.7)" xlink:href="#Cmr10-76"/>
      <use transform="translate(111.767578 -25.346875)scale(0.7)" xlink:href="#Cmr10-121"/>
      <use transform="translate(148.647461 -25.346875)scale(0.7)" xlink:href="#Cmmi10-174"/>
     </g>
    </g>
   </g>
  </g>
  <g id="axes_2">
   <g id="matplotlib.axis_3">
    <g id="xtick_6">
     <g id="line2d_16">
      <defs>
       <path d="M 0 0 
L 0 -3.5 
" id="m69f1182997" style="stroke:#000000;stroke-width:0.8;"/>
      </defs>
      <g>
       <use style="stroke:#000000;stroke-width:0.8;" x="587.366445" xlink:href="#m69f1182997" y="46.259375"/>
      </g>
     </g>
     <g id="text_11">
      <!-- 2.0 -->
      <g transform="translate(574.866445 34.91875)scale(0.2 -0.2)">
       <use xlink:href="#STIXGeneral-Regular-50"/>
       <use x="49.999985" xlink:href="#STIXGeneral-Regular-46"/>
       <use x="74.999969" xlink:href="#STIXGeneral-Regular-48"/>
      </g>
     </g>
    </g>
    <g id="xtick_7">
     <g id="line2d_17">
      <g>
       <use style="stroke:#000000;stroke-width:0.8;" x="468.961104" xlink:href="#m69f1182997" y="46.259375"/>
      </g>
     </g>
     <g id="text_12">
      <!-- 2.4 -->
      <g transform="translate(456.461104 34.91875)scale(0.2 -0.2)">
       <use xlink:href="#STIXGeneral-Regular-50"/>
       <use x="49.999985" xlink:href="#STIXGeneral-Regular-46"/>
       <use x="74.999969" xlink:href="#STIXGeneral-Regular-52"/>
      </g>
     </g>
    </g>
    <g id="xtick_8">
     <g id="line2d_18">
      <g>
       <use style="stroke:#000000;stroke-width:0.8;" x="350.555763" xlink:href="#m69f1182997" y="46.259375"/>
      </g>
     </g>
     <g id="text_13">
      <!-- 2.9 -->
      <defs>
       <path d="M 5.90625 -2.203125 
L 5.59375 -0.203125 
Q 17.09375 1.796875 25.046875 9.5 
Q 33 17.203125 36 29.40625 
Q 30.203125 23.703125 21 23.703125 
Q 12.90625 23.703125 7.953125 29.296875 
Q 3 34.90625 3 44 
Q 3 54.09375 8.953125 60.84375 
Q 14.90625 67.59375 23.796875 67.59375 
Q 33.296875 67.59375 39.5 60 
Q 45.90625 52 45.90625 39.40625 
Q 45.90625 30.59375 42.84375 22.84375 
Q 39.796875 15.09375 33.90625 9.703125 
Q 27.703125 4.09375 21.796875 1.640625 
Q 15.90625 -0.796875 5.90625 -2.203125 
z
M 36.203125 35.5 
L 36.203125 39.40625 
Q 36.203125 64.796875 23 64.796875 
Q 18.296875 64.796875 15.703125 61.40625 
Q 14.203125 59.40625 13.203125 55.40625 
Q 12.203125 51.40625 12.203125 47.40625 
Q 12.203125 38.5 15.546875 33.25 
Q 18.90625 28 24.5 28 
Q 28.5 28 32.34375 29.953125 
Q 36.203125 31.90625 36.203125 35.5 
z
" id="STIXGeneral-Regular-57"/>
      </defs>
      <g transform="translate(338.055763 34.91875)scale(0.2 -0.2)">
       <use xlink:href="#STIXGeneral-Regular-50"/>
       <use x="49.999985" xlink:href="#STIXGeneral-Regular-46"/>
       <use x="74.999969" xlink:href="#STIXGeneral-Regular-57"/>
      </g>
     </g>
    </g>
    <g id="xtick_9">
     <g id="line2d_19">
      <g>
       <use style="stroke:#000000;stroke-width:0.8;" x="232.150422" xlink:href="#m69f1182997" y="46.259375"/>
      </g>
     </g>
     <g id="text_14">
      <!-- 3.6 -->
      <defs>
       <path d="M 44.59375 68.40625 
L 44.796875 66.796875 
Q 33 64.90625 25.09375 57.25 
Q 17.203125 49.59375 15.203125 38.296875 
Q 21 42.796875 27.90625 42.796875 
Q 36.703125 42.796875 41.75 37.1875 
Q 46.796875 31.59375 46.796875 21.90625 
Q 46.796875 12.09375 41.703125 5.90625 
Q 35.796875 -1.40625 25.796875 -1.40625 
Q 13.59375 -1.40625 8.09375 8.703125 
Q 3.40625 17.296875 3.40625 27.90625 
Q 3.40625 44.296875 14.296875 55.5 
Q 20.5 61.90625 27.046875 64.546875 
Q 33.59375 67.203125 44.59375 68.40625 
z
M 37.796875 18.796875 
Q 37.796875 38.203125 24.296875 38.203125 
Q 19.296875 38.203125 16 35.546875 
Q 12.703125 32.90625 12.703125 26.59375 
Q 12.703125 14.90625 16.34375 8.15625 
Q 20 1.40625 26.90625 1.40625 
Q 32.203125 1.40625 35 6.15625 
Q 37.796875 10.90625 37.796875 18.796875 
z
" id="STIXGeneral-Regular-54"/>
      </defs>
      <g transform="translate(219.650422 34.91875)scale(0.2 -0.2)">
       <use xlink:href="#STIXGeneral-Regular-51"/>
       <use x="49.999985" xlink:href="#STIXGeneral-Regular-46"/>
       <use x="74.999969" xlink:href="#STIXGeneral-Regular-54"/>
      </g>
     </g>
    </g>
    <g id="xtick_10">
     <g id="line2d_20">
      <g>
       <use style="stroke:#000000;stroke-width:0.8;" x="113.745081" xlink:href="#m69f1182997" y="46.259375"/>
      </g>
     </g>
     <g id="text_15">
      <!-- 4.8 -->
      <defs>
       <path d="M 44.5 15.5 
Q 44.5 7.796875 39.140625 3.1875 
Q 33.796875 -1.40625 24.796875 -1.40625 
Q 16.40625 -1.40625 11 3.1875 
Q 5.59375 7.796875 5.59375 14.90625 
Q 5.59375 20.203125 8.1875 23.953125 
Q 10.796875 27.703125 18.59375 33.203125 
Q 11.09375 39.40625 8.640625 43.203125 
Q 6.203125 47 6.203125 52 
Q 6.203125 59.09375 11.640625 63.34375 
Q 17.09375 67.59375 25.59375 67.59375 
Q 32.90625 67.59375 37.65625 63.4375 
Q 42.40625 59.296875 42.40625 53.296875 
Q 42.40625 47.796875 39.546875 44.5 
Q 36.703125 41.203125 29 37.09375 
Q 38 31.09375 41.25 26.390625 
Q 44.5 21.703125 44.5 15.5 
z
M 35.5 53.296875 
Q 35.5 58.5 32.59375 61.640625 
Q 29.703125 64.796875 24.59375 64.796875 
Q 19.5 64.796875 16.546875 62.140625 
Q 13.59375 59.5 13.59375 54.890625 
Q 13.59375 50.296875 16.546875 46.546875 
Q 19.5 42.796875 26.09375 38.90625 
Q 31.203125 41.90625 33.34375 45.25 
Q 35.5 48.59375 35.5 53.296875 
z
M 27.09375 27.203125 
L 21.203125 31.203125 
Q 16.796875 27.59375 15 24.140625 
Q 13.203125 20.703125 13.203125 15.796875 
Q 13.203125 9 16.640625 5.203125 
Q 20.09375 1.40625 25.90625 1.40625 
Q 30.796875 1.40625 33.84375 4.453125 
Q 36.90625 7.5 36.90625 12.40625 
Q 36.90625 16.90625 34.59375 20.296875 
Q 32.296875 23.703125 27.09375 27.203125 
z
" id="STIXGeneral-Regular-56"/>
      </defs>
      <g transform="translate(101.245081 34.91875)scale(0.2 -0.2)">
       <use xlink:href="#STIXGeneral-Regular-52"/>
       <use x="49.999985" xlink:href="#STIXGeneral-Regular-46"/>
       <use x="74.999969" xlink:href="#STIXGeneral-Regular-56"/>
      </g>
     </g>
    </g>
    <g id="text_16">
     <!-- $z$ -->
     <defs>
      <path d="M 4.890625 -1.125 
Q 4.109375 -1.125 4.109375 -0.203125 
Q 4.109375 0.296875 4.296875 0.484375 
Q 6.984375 5.125 10.765625 9.34375 
Q 14.546875 13.578125 19.359375 17.890625 
Q 24.171875 22.21875 29.03125 26.5625 
Q 33.890625 30.90625 36.921875 34.28125 
L 36.53125 34.28125 
Q 34.328125 34.28125 30.078125 35.6875 
Q 25.828125 37.109375 23.390625 37.109375 
Q 20.75 37.109375 18.25 35.953125 
Q 15.765625 34.8125 15.09375 32.421875 
Q 14.9375 31.6875 14.3125 31.6875 
L 13.09375 31.6875 
Q 12.3125 31.6875 12.3125 32.71875 
L 12.3125 33.015625 
Q 13.09375 35.9375 14.875 38.46875 
Q 16.65625 41.015625 19.265625 42.59375 
Q 21.875 44.1875 24.703125 44.1875 
Q 26.703125 44.1875 28.015625 43.28125 
Q 29.34375 42.390625 31.09375 40.484375 
Q 32.859375 38.578125 33.953125 37.75 
Q 35.0625 36.921875 36.71875 36.921875 
Q 38.921875 36.921875 40.65625 38.921875 
Q 42.390625 40.921875 44.09375 43.890625 
Q 44.390625 44.1875 44.828125 44.1875 
L 46 44.1875 
Q 46.34375 44.1875 46.5625 43.9375 
Q 46.78125 43.703125 46.78125 43.3125 
Q 46.78125 42.96875 46.578125 42.671875 
Q 43.890625 38.03125 40.296875 34 
Q 36.71875 29.984375 30.921875 24.78125 
Q 25.140625 19.578125 21.15625 15.984375 
Q 17.1875 12.40625 13.71875 8.59375 
Q 14.5 8.796875 15.828125 8.796875 
Q 18.265625 8.796875 22.484375 7.390625 
Q 26.703125 6 29 6 
Q 31.5 6 34.03125 7.078125 
Q 36.578125 8.15625 38.421875 10.109375 
Q 40.28125 12.0625 40.921875 14.59375 
Q 41.15625 15.28125 41.703125 15.28125 
L 42.921875 15.28125 
Q 43.3125 15.28125 43.546875 14.96875 
Q 43.796875 14.65625 43.796875 14.3125 
Q 43.796875 14.203125 43.703125 14.015625 
Q 42.78125 10.203125 40.484375 6.765625 
Q 38.1875 3.328125 34.84375 1.09375 
Q 31.5 -1.125 27.6875 -1.125 
Q 25.78125 -1.125 24.453125 -0.234375 
Q 23.140625 0.640625 21.359375 2.5625 
Q 19.578125 4.5 18.453125 5.34375 
Q 17.328125 6.203125 15.71875 6.203125 
Q 10.75 6.203125 6.78125 -0.78125 
Q 6.453125 -1.125 6.109375 -1.125 
z
" id="Cmmi10-122"/>
     </defs>
     <g transform="translate(347.9 17.259375)scale(0.2 -0.2)">
      <use transform="translate(0 0.8125)" xlink:href="#Cmmi10-122"/>
     </g>
    </g>
   </g>
   <g id="patch_8">
    <path d="M 73.6 203.339375 
L 73.6 46.259375 
" style="fill:none;stroke:#000000;stroke-linecap:square;stroke-linejoin:miter;stroke-width:0.8;"/>
   </g>
   <g id="patch_9">
    <path d="M 631.6 203.339375 
L 631.6 46.259375 
" style="fill:none;stroke:#000000;stroke-linecap:square;stroke-linejoin:miter;stroke-width:0.8;"/>
   </g>
   <g id="patch_10">
    <path d="M 73.6 203.339375 
L 631.6 203.339375 
" style="fill:none;stroke:#000000;stroke-linecap:square;stroke-linejoin:miter;stroke-width:0.8;"/>
   </g>
   <g id="patch_11">
    <path d="M 73.6 46.259375 
L 631.6 46.259375 
" style="fill:none;stroke:#000000;stroke-linecap:square;stroke-linejoin:miter;stroke-width:0.8;"/>
   </g>
  </g>
  <g id="axes_3">
   <g id="patch_12">
    <path d="M 73.6 360.419375 
L 631.6 360.419375 
L 631.6 203.339375 
L 73.6 203.339375 
z
" style="fill:#ffffff;"/>
   </g>
   <g id="line2d_21">
    <path clip-path="url(#pbb2b056643)" d="M 98.963636 303.719857 
L 103.003066 317.867675 
L 107.0609 287.809479 
L 111.137036 293.400711 
L 115.231356 269.559 
L 119.343757 274.454293 
L 123.474136 288.578757 
L 127.622387 282.185998 
L 131.788408 281.878372 
L 135.972092 278.685813 
L 140.17334 281.082552 
L 144.392049 273.539914 
L 148.628118 276.898029 
L 152.881449 292.003961 
L 157.151943 297.699326 
L 161.439498 291.675523 
L 165.744021 300.615032 
L 170.065415 303.732109 
L 174.403585 294.989845 
L 178.758426 297.983668 
L 183.129855 288.043245 
L 187.517771 276.471805 
L 191.853146 277.308644 
L 196.204315 271.771068 
L 200.571195 263.683117 
L 204.9537 262.114904 
L 209.351735 278.529731 
L 213.765222 268.848391 
L 218.194069 270.003658 
L 222.638196 275.679939 
L 227.097512 274.13043 
L 231.571931 277.778518 
L 236.061375 264.735037 
L 240.565757 271.226663 
L 245.084992 274.070357 
L 249.618997 298.196716 
L 254.16769 290.602847 
L 258.730992 289.766502 
L 263.308817 259.390866 
L 267.90108 270.710743 
L 272.507704 266.696906 
L 277.128611 286.913002 
L 281.763716 298.049701 
L 286.412937 305.00718 
L 291.0762 300.127003 
L 295.75342 295.088779 
L 300.444523 293.717732 
L 305.149421 277.738042 
L 309.868043 287.78778 
L 314.600306 302.42188 
L 319.346134 275.546263 
L 324.105454 286.968389 
L 328.878178 269.943029 
L 333.664234 295.618445 
L 338.586886 294.239216 
L 343.52309 274.80382 
L 348.473379 288.883912 
L 353.437358 291.293156 
L 358.414642 288.567139 
L 363.405769 284.101044 
L 368.410021 301.204754 
L 373.427963 290.750086 
L 378.459178 275.638734 
L 383.50329 293.739957 
L 388.560834 304.104289 
L 393.631422 284.687219 
L 398.714652 291.748776 
L 403.811081 286.402579 
L 408.920309 282.883109 
L 414.041939 303.507176 
L 419.176523 292.648275 
L 424.323672 290.916785 
L 429.482978 291.393291 
L 434.655002 293.527449 
L 439.839029 280.706406 
L 445.035621 278.033917 
L 450.24438 272.042714 
L 455.464898 296.87828 
L 460.697743 286.376914 
L 465.942526 289.205362 
L 471.198823 295.179505 
L 476.467215 280.668674 
L 481.747308 287.840855 
L 487.038693 280.416738 
L 492.341939 283.166339 
L 497.656641 293.317511 
L 502.982398 288.697193 
L 508.319801 298.97404 
L 513.668088 287.875716 
L 519.02786 295.399092 
L 524.398715 298.842342 
L 529.780227 299.896992 
L 535.172991 297.447701 
L 540.576601 303.252929 
L 545.990647 300.214819 
L 551.415723 305.286463 
L 556.851401 305.08348 
L 562.297288 303.884225 
L 567.753984 303.609039 
L 573.220712 306.106726 
L 578.698101 306.364494 
L 584.185724 295.141305 
L 589.683165 297.25198 
L 595.19103 290.242044 
L 600.708906 285.99927 
L 606.236364 294.942398 
" style="fill:none;stroke:#ff8c00;stroke-linecap:square;stroke-opacity:0.5;stroke-width:2;"/>
   </g>
   <g id="line2d_22">
    <path clip-path="url(#pbb2b056643)" d="M 98.963636 318.284221 
L 103.003066 331.832681 
L 107.0609 303.360791 
L 111.137036 308.764544 
L 115.231356 288.078835 
L 119.343757 289.801298 
L 123.474136 303.535237 
L 127.622387 299.532089 
L 131.788408 298.49307 
L 135.972092 295.554007 
L 140.17334 303.352553 
L 144.392049 291.703125 
L 148.628118 293.09186 
L 152.881449 305.479944 
L 157.151943 311.188256 
L 161.439498 305.951649 
L 165.744021 315.581827 
L 170.065415 317.606074 
L 174.403585 309.923756 
L 178.758426 312.284168 
L 183.129855 309.15479 
L 187.517771 300.149634 
L 191.853146 298.990393 
L 196.204315 295.038356 
L 200.571195 286.283921 
L 204.9537 284.482696 
L 209.351735 297.601665 
L 213.765222 291.291237 
L 218.194069 294.233469 
L 222.638196 298.998292 
L 227.097512 297.754674 
L 231.571931 301.602393 
L 236.061375 286.000379 
L 240.565757 294.572344 
L 245.084992 294.621225 
L 249.618997 315.057987 
L 254.16769 306.7535 
L 258.730992 310.228965 
L 263.308817 282.121654 
L 267.90108 290.26374 
L 272.507704 291.331461 
L 277.128611 307.226095 
L 281.763716 315.750704 
L 286.412937 320.487259 
L 291.0762 317.010016 
L 295.75342 314.75882 
L 300.444523 313.775362 
L 305.149421 298.376011 
L 309.868043 308.181305 
L 314.600306 319.149425 
L 319.346134 297.418591 
L 324.105454 305.134243 
L 328.878178 290.455554 
L 333.664234 310.683535 
L 338.586886 312.130046 
L 343.52309 295.802066 
L 348.473379 308.947447 
L 353.437358 311.007525 
L 358.414642 307.59542 
L 363.405769 305.2757 
L 368.410021 319.541599 
L 373.427963 310.081539 
L 378.459178 299.138477 
L 383.50329 311.188363 
L 388.560834 319.797414 
L 393.631422 303.720636 
L 398.714652 311.739633 
L 403.811081 308.023304 
L 408.920309 304.562099 
L 414.041939 320.686011 
L 419.176523 313.161316 
L 424.323672 313.333806 
L 429.482978 312.192153 
L 434.655002 312.825446 
L 439.839029 303.073339 
L 445.035621 297.052227 
L 450.24438 290.734239 
L 455.464898 314.404482 
L 460.697743 306.330801 
L 465.942526 311.330621 
L 471.198823 316.235282 
L 476.467215 307.710841 
L 481.747308 313.924088 
L 487.038693 306.622256 
L 492.341939 309.075567 
L 497.656641 314.876778 
L 502.982398 315.883773 
L 508.319801 322.029139 
L 513.668088 317.037799 
L 519.02786 320.886464 
L 524.398715 326.573329 
L 529.780227 328.560308 
L 535.172991 324.713954 
L 540.576601 331.345796 
L 545.990647 327.362894 
L 551.415723 332.493901 
L 556.851401 333.114491 
L 562.297288 329.770373 
L 567.753984 325.901006 
L 573.220712 326.724842 
L 578.698101 330.304469 
L 584.185724 318.992596 
L 589.683165 323.700371 
L 595.19103 310.481979 
L 600.708906 305.576989 
L 606.236364 308.161356 
" style="fill:none;stroke:#ff8c00;stroke-linecap:square;stroke-width:2;"/>
   </g>
   <g id="matplotlib.axis_4">
    <g id="xtick_11">
     <g id="line2d_23">
      <g>
       <use style="stroke:#000000;stroke-width:0.8;" x="587.366451" xlink:href="#mfa5fca170f" y="360.419375"/>
      </g>
     </g>
     <g id="text_17">
      <!-- 10.5 -->
      <g transform="translate(569.866451 381.07875)scale(0.2 -0.2)">
       <use xlink:href="#STIXGeneral-Regular-49"/>
       <use x="49.999985" xlink:href="#STIXGeneral-Regular-48"/>
       <use x="99.999969" xlink:href="#STIXGeneral-Regular-46"/>
       <use x="124.999954" xlink:href="#STIXGeneral-Regular-53"/>
      </g>
     </g>
    </g>
    <g id="xtick_12">
     <g id="line2d_24">
      <g>
       <use style="stroke:#000000;stroke-width:0.8;" x="468.961109" xlink:href="#mfa5fca170f" y="360.419375"/>
      </g>
     </g>
     <g id="text_18">
      <!-- 11.0 -->
      <g transform="translate(451.461109 381.07875)scale(0.2 -0.2)">
       <use xlink:href="#STIXGeneral-Regular-49"/>
       <use x="49.999985" xlink:href="#STIXGeneral-Regular-49"/>
       <use x="99.999969" xlink:href="#STIXGeneral-Regular-46"/>
       <use x="124.999954" xlink:href="#STIXGeneral-Regular-48"/>
      </g>
     </g>
    </g>
    <g id="xtick_13">
     <g id="line2d_25">
      <g>
       <use style="stroke:#000000;stroke-width:0.8;" x="350.555766" xlink:href="#mfa5fca170f" y="360.419375"/>
      </g>
     </g>
     <g id="text_19">
      <!-- 11.5 -->
      <g transform="translate(333.055766 381.07875)scale(0.2 -0.2)">
       <use xlink:href="#STIXGeneral-Regular-49"/>
       <use x="49.999985" xlink:href="#STIXGeneral-Regular-49"/>
       <use x="99.999969" xlink:href="#STIXGeneral-Regular-46"/>
       <use x="124.999954" xlink:href="#STIXGeneral-Regular-53"/>
      </g>
     </g>
    </g>
    <g id="xtick_14">
     <g id="line2d_26">
      <g>
       <use style="stroke:#000000;stroke-width:0.8;" x="232.150424" xlink:href="#mfa5fca170f" y="360.419375"/>
      </g>
     </g>
     <g id="text_20">
      <!-- 12.0 -->
      <g transform="translate(214.650424 381.07875)scale(0.2 -0.2)">
       <use xlink:href="#STIXGeneral-Regular-49"/>
       <use x="49.999985" xlink:href="#STIXGeneral-Regular-50"/>
       <use x="99.999969" xlink:href="#STIXGeneral-Regular-46"/>
       <use x="124.999954" xlink:href="#STIXGeneral-Regular-48"/>
      </g>
     </g>
    </g>
    <g id="xtick_15">
     <g id="line2d_27">
      <g>
       <use style="stroke:#000000;stroke-width:0.8;" x="113.745082" xlink:href="#mfa5fca170f" y="360.419375"/>
      </g>
     </g>
     <g id="text_21">
      <!-- 12.5 -->
      <g transform="translate(96.245082 381.07875)scale(0.2 -0.2)">
       <use xlink:href="#STIXGeneral-Regular-49"/>
       <use x="49.999985" xlink:href="#STIXGeneral-Regular-50"/>
       <use x="99.999969" xlink:href="#STIXGeneral-Regular-46"/>
       <use x="124.999954" xlink:href="#STIXGeneral-Regular-53"/>
      </g>
     </g>
    </g>
   </g>
   <g id="matplotlib.axis_5">
    <g id="ytick_3">
     <g id="line2d_28">
      <g>
       <use style="stroke:#000000;stroke-width:0.8;" x="73.6" xlink:href="#m0e9f20c2c9" y="305.522271"/>
      </g>
     </g>
     <g id="text_22">
      <!-- $\mathdefault{10^{43}}$ -->
      <g transform="translate(31.2 312.351958)scale(0.2 -0.2)">
       <use transform="translate(0 0.684375)" xlink:href="#STIXGeneral-Regular-49"/>
       <use transform="translate(49.999985 0.684375)" xlink:href="#STIXGeneral-Regular-48"/>
       <use transform="translate(101.574969 36.684375)scale(0.7)" xlink:href="#STIXGeneral-Regular-52"/>
       <use transform="translate(136.574959 36.684375)scale(0.7)" xlink:href="#STIXGeneral-Regular-51"/>
      </g>
     </g>
    </g>
    <g id="ytick_4">
     <g id="line2d_29">
      <g>
       <use style="stroke:#000000;stroke-width:0.8;" x="73.6" xlink:href="#m0e9f20c2c9" y="226.982271"/>
      </g>
     </g>
     <g id="text_23">
      <!-- $\mathdefault{10^{45}}$ -->
      <g transform="translate(31.2 233.811958)scale(0.2 -0.2)">
       <use transform="translate(0 0.842187)" xlink:href="#STIXGeneral-Regular-49"/>
       <use transform="translate(49.999985 0.842187)" xlink:href="#STIXGeneral-Regular-48"/>
       <use transform="translate(101.574969 36.842187)scale(0.7)" xlink:href="#STIXGeneral-Regular-52"/>
       <use transform="translate(136.574959 36.842187)scale(0.7)" xlink:href="#STIXGeneral-Regular-53"/>
      </g>
     </g>
    </g>
    <g id="text_24">
     <!-- $L_{\rm Ly \alpha}\ (\rm erg \ s^{-1})$ -->
     <g transform="translate(20.8 342.679375)rotate(-90)scale(0.2 -0.2)">
      <use transform="translate(0 0.223438)" xlink:href="#Cmmi10-76"/>
      <use transform="translate(68.017578 -16.782813)scale(0.7)" xlink:href="#Cmr10-76"/>
      <use transform="translate(111.767578 -16.782813)scale(0.7)" xlink:href="#Cmr10-121"/>
      <use transform="translate(148.647461 -16.782813)scale(0.7)" xlink:href="#Cmmi10-174"/>
      <use transform="translate(229.030046 0.223438)" xlink:href="#Cmr10-40"/>
      <use transform="translate(267.848405 0.223438)" xlink:href="#Cmr10-101"/>
      <use transform="translate(312.233171 0.223438)" xlink:href="#Cmr10-114"/>
      <use transform="translate(351.344499 0.223438)" xlink:href="#Cmr10-103"/>
      <use transform="translate(429.111148 0.223438)" xlink:href="#Cmr10-115"/>
      <use transform="translate(473.082945 39.373438)scale(0.7)" xlink:href="#Cmsy10-161"/>
      <use transform="translate(527.462828 39.373438)scale(0.7)" xlink:href="#Cmr10-49"/>
      <use transform="translate(568.987828 0.223438)" xlink:href="#Cmr10-41"/>
     </g>
    </g>
   </g>
   <g id="line2d_30">
    <path clip-path="url(#pbb2b056643)" d="M 98.963636 305.794462 
L 103.003066 300.841768 
L 107.0609 288.605009 
L 111.137036 283.563726 
L 115.231356 267.036423 
L 119.343757 277.444431 
L 123.474136 271.507142 
L 127.622387 270.048564 
L 131.788408 271.759788 
L 135.972092 268.327488 
L 140.17334 266.120659 
L 144.392049 250.911489 
L 148.628118 255.582815 
L 152.881449 269.443384 
L 157.151943 274.837013 
L 161.439498 272.349718 
L 165.744021 279.760337 
L 170.065415 279.544183 
L 174.403585 280.002196 
L 178.758426 273.770414 
L 183.129855 271.315614 
L 187.517771 263.735881 
L 191.853146 263.546551 
L 196.204315 266.056854 
L 200.571195 241.355247 
L 204.9537 264.170919 
L 209.351735 261.424787 
L 213.765222 256.289263 
L 218.194069 259.267845 
L 222.638196 251.396723 
L 227.097512 257.49681 
L 231.571931 253.914391 
L 236.061375 248.131189 
L 240.565757 255.222658 
L 245.084992 265.850337 
L 249.618997 267.694346 
L 254.16769 261.885166 
L 258.730992 272.322329 
L 263.308817 243.575436 
L 267.90108 241.422601 
L 272.507704 234.217102 
L 277.128611 266.984356 
L 281.763716 271.670223 
L 286.412937 262.349565 
L 291.0762 258.729312 
L 295.75342 246.548235 
L 300.444523 264.628958 
L 305.149421 249.766024 
L 309.868043 248.048902 
L 314.600306 261.258249 
L 319.346134 261.624845 
L 324.105454 242.211773 
L 328.878178 241.753751 
L 333.664234 256.263476 
L 338.586886 257.049489 
L 343.52309 232.688683 
L 348.473379 256.514411 
L 353.437358 261.56209 
L 358.414642 248.764482 
L 363.405769 255.815251 
L 368.410021 263.725469 
L 373.427963 255.698685 
L 378.459178 246.228791 
L 383.50329 244.563024 
L 388.560834 256.913235 
L 393.631422 233.795449 
L 398.714652 252.703867 
L 403.811081 254.741845 
L 408.920309 229.370164 
L 414.041939 260.07143 
L 419.176523 260.196083 
L 424.323672 251.63597 
L 429.482978 245.205811 
L 434.655002 252.243312 
L 439.839029 234.431896 
L 445.035621 235.52231 
L 450.24438 238.282195 
L 455.464898 249.606483 
L 460.697743 255.955986 
L 465.942526 248.872335 
L 471.198823 253.625091 
L 476.467215 232.117685 
L 481.747308 243.120736 
L 487.038693 236.919854 
L 492.341939 236.112673 
L 497.656641 254.468927 
L 502.982398 245.722138 
L 508.319801 252.534733 
L 513.668088 239.837933 
L 519.02786 254.504344 
L 524.398715 253.783753 
L 529.780227 247.420747 
L 535.172991 252.001175 
L 540.576601 250.246956 
L 545.990647 251.983789 
L 551.415723 255.867523 
L 556.851401 253.399908 
L 562.297288 256.22718 
L 567.753984 259.653236 
L 573.220712 257.434798 
L 578.698101 254.39214 
L 584.185724 247.939942 
L 589.683165 241.705896 
L 595.19103 254.350446 
L 600.708906 241.094563 
L 606.236364 249.653516 
" style="fill:none;stroke:#440154;stroke-linecap:square;stroke-opacity:0.5;stroke-width:2;"/>
   </g>
   <g id="patch_13">
    <path d="M 73.6 360.419375 
L 73.6 203.339375 
" style="fill:none;stroke:#000000;stroke-linecap:square;stroke-linejoin:miter;stroke-width:0.8;"/>
   </g>
   <g id="patch_14">
    <path d="M 631.6 360.419375 
L 631.6 203.339375 
" style="fill:none;stroke:#000000;stroke-linecap:square;stroke-linejoin:miter;stroke-width:0.8;"/>
   </g>
   <g id="patch_15">
    <path d="M 73.6 360.419375 
L 631.6 360.419375 
" style="fill:none;stroke:#000000;stroke-linecap:square;stroke-linejoin:miter;stroke-width:0.8;"/>
   </g>
   <g id="patch_16">
    <path d="M 73.6 203.339375 
L 631.6 203.339375 
" style="fill:none;stroke:#000000;stroke-linecap:square;stroke-linejoin:miter;stroke-width:0.8;"/>
   </g>
   <g id="line2d_31">
    <path clip-path="url(#pbb2b056643)" d="M 98.963636 313.086103 
L 103.003066 308.94039 
L 107.0609 296.152471 
L 111.137036 292.497434 
L 115.231356 279.137693 
L 119.343757 287.398813 
L 123.474136 281.668557 
L 127.622387 279.837629 
L 131.788408 280.969386 
L 135.972092 279.624355 
L 140.17334 279.49148 
L 144.392049 265.381611 
L 148.628118 269.222105 
L 152.881449 278.537368 
L 157.151943 281.711612 
L 161.439498 281.010232 
L 165.744021 286.406926 
L 170.065415 286.359856 
L 174.403585 287.895248 
L 178.758426 283.528608 
L 183.129855 283.051938 
L 187.517771 278.636591 
L 191.853146 278.919578 
L 196.204315 280.487834 
L 200.571195 258.421653 
L 204.9537 277.724567 
L 209.351735 274.761647 
L 213.765222 269.578947 
L 218.194069 274.687349 
L 222.638196 268.862657 
L 227.097512 274.648932 
L 231.571931 271.247766 
L 236.061375 265.322661 
L 240.565757 272.853094 
L 245.084992 280.377076 
L 249.618997 280.678607 
L 254.16769 273.436606 
L 258.730992 284.323605 
L 263.308817 258.550808 
L 267.90108 256.45359 
L 272.507704 254.626319 
L 277.128611 281.053426 
L 281.763716 282.831006 
L 286.412937 276.109462 
L 291.0762 274.360438 
L 295.75342 263.310642 
L 300.444523 280.664326 
L 305.149421 265.547067 
L 309.868043 265.601824 
L 314.600306 277.360371 
L 319.346134 277.446133 
L 324.105454 259.738733 
L 328.878178 258.879086 
L 333.664234 272.554759 
L 338.586886 274.22703 
L 343.52309 253.891187 
L 348.473379 274.505364 
L 353.437358 278.416679 
L 358.414642 267.111046 
L 363.405769 274.904877 
L 368.410021 280.781865 
L 373.427963 272.534558 
L 378.459178 266.905809 
L 383.50329 262.810685 
L 388.560834 273.842321 
L 393.631422 251.674314 
L 398.714652 271.839435 
L 403.811081 273.889035 
L 408.920309 251.438264 
L 414.041939 276.987919 
L 419.176523 279.048928 
L 424.323672 274.656718 
L 429.482978 266.460914 
L 434.655002 271.620404 
L 439.839029 257.049295 
L 445.035621 254.783453 
L 450.24438 256.637307 
L 455.464898 267.077 
L 460.697743 275.054622 
L 465.942526 271.262845 
L 471.198823 274.033166 
L 476.467215 259.870428 
L 481.747308 269.712293 
L 487.038693 263.640554 
L 492.341939 263.466266 
L 497.656641 277.985684 
L 502.982398 274.406479 
L 508.319801 276.963824 
L 513.668088 270.303239 
L 519.02786 281.581629 
L 524.398715 282.829329 
L 529.780227 278.10272 
L 535.172991 280.942673 
L 540.576601 280.054504 
L 545.990647 280.436031 
L 551.415723 284.650496 
L 556.851401 283.208912 
L 562.297288 283.718764 
L 567.753984 284.676333 
L 573.220712 282.038701 
L 578.698101 279.824778 
L 584.185724 274.831556 
L 589.683165 269.836477 
L 595.19103 275.155558 
L 600.708906 262.642436 
L 606.236364 263.614829 
" style="fill:none;stroke:#440154;stroke-linecap:square;stroke-width:2;"/>
   </g>
  </g>
  <g id="axes_4">
   <g id="patch_17">
    <path d="M 73.6 517.499375 
L 631.6 517.499375 
L 631.6 360.419375 
L 73.6 360.419375 
z
" style="fill:#ffffff;"/>
   </g>
   <g id="line2d_32">
    <path clip-path="url(#pd648355ff9)" d="M 98.963636 447.278438 
L 103.003066 451.469052 
L 107.0609 452.933506 
L 111.137036 450.29531 
L 115.231356 435.733113 
L 119.343757 442.617472 
L 123.474136 441.547739 
L 127.622387 432.628433 
L 131.788408 447.621103 
L 135.972092 454.737891 
L 140.17334 449.161797 
L 144.392049 452.011929 
L 148.628118 438.322008 
L 152.881449 440.626889 
L 157.151943 468.207318 
L 161.439498 461.05519 
L 165.744021 467.591794 
L 170.065415 450.246644 
L 174.403585 419.708097 
L 178.758426 446.14739 
L 183.129855 478.76417 
L 187.517771 478.712344 
L 191.853146 470.895722 
L 196.204315 457.559669 
L 200.571195 463.107896 
L 204.9537 466.36261 
L 209.351735 452.209551 
L 213.765222 434.755217 
L 218.194069 480.456074 
L 222.638196 459.985103 
L 227.097512 465.772704 
L 231.571931 456.264576 
L 236.061375 480.160131 
L 240.565757 470.379665 
L 245.084992 469.585044 
L 249.618997 451.660594 
L 254.16769 458.641634 
L 258.730992 469.475327 
L 263.308817 457.552332 
L 267.90108 461.844638 
L 272.507704 455.806269 
L 277.128611 446.266595 
L 281.763716 448.691636 
L 286.412937 465.158852 
L 291.0762 458.03923 
L 295.75342 463.329055 
L 300.444523 459.614876 
L 305.149421 456.610679 
L 309.868043 457.028112 
L 314.600306 457.795634 
L 319.346134 460.410539 
L 324.105454 458.118934 
L 328.878178 461.651193 
L 333.664234 460.717509 
L 338.586886 462.49394 
L 343.52309 465.442984 
L 348.473379 464.547412 
L 353.437358 472.29991 
L 358.414642 470.56932 
L 363.405769 472.697769 
L 368.410021 471.276693 
L 373.427963 474.370355 
L 378.459178 478.716098 
L 383.50329 464.949821 
L 388.560834 468.147103 
L 393.631422 462.158935 
L 398.714652 467.562343 
L 403.811081 464.977551 
L 408.920309 454.592949 
L 414.041939 457.2296 
L 419.176523 460.834763 
L 424.323672 454.794444 
L 429.482978 451.59097 
L 434.655002 455.613548 
L 439.839029 465.575213 
L 445.035621 458.975792 
L 450.24438 456.04224 
L 455.464898 462.763661 
L 460.697743 452.084194 
L 465.942526 460.831737 
L 471.198823 449.756724 
L 476.467215 461.688528 
L 481.747308 476.688455 
L 487.038693 469.792298 
L 492.341939 469.903645 
L 497.656641 471.147719 
L 502.982398 468.323233 
L 508.319801 457.873722 
L 513.668088 465.63048 
L 519.02786 472.199777 
L 524.398715 479.167233 
L 529.780227 459.459624 
L 535.172991 465.297658 
L 540.576601 470.427666 
L 545.990647 470.116033 
L 551.415723 473.439051 
L 556.851401 469.143866 
L 562.297288 472.863378 
L 567.753984 468.786964 
L 573.220712 468.430698 
L 578.698101 470.270623 
L 584.185724 477.21205 
L 589.683165 468.500403 
L 595.19103 468.652145 
L 600.708906 474.950057 
L 606.236364 478.89316 
" style="fill:none;stroke:#ff8c00;stroke-linecap:square;stroke-opacity:0.5;stroke-width:2;"/>
   </g>
   <g id="line2d_33">
    <path clip-path="url(#pd648355ff9)" d="M 98.963636 463.952827 
L 103.003066 464.732155 
L 107.0609 469.049872 
L 111.137036 471.221372 
L 115.231356 458.719412 
L 119.343757 461.196484 
L 123.474136 457.082029 
L 127.622387 447.202593 
L 131.788408 463.538993 
L 135.972092 470.333645 
L 140.17334 468.995505 
L 144.392049 472.371749 
L 148.628118 462.100958 
L 152.881449 456.637609 
L 157.151943 480.931257 
L 161.439498 474.93446 
L 165.744021 481.439924 
L 170.065415 469.392522 
L 174.403585 448.009693 
L 178.758426 466.769541 
L 183.129855 488.389604 
L 187.517771 488.179933 
L 191.853146 482.521102 
L 196.204315 474.10712 
L 200.571195 480.82997 
L 204.9537 480.185689 
L 209.351735 468.124924 
L 213.765222 459.506645 
L 218.194069 492.244655 
L 222.638196 476.508395 
L 227.097512 481.66924 
L 231.571931 473.846853 
L 236.061375 491.419186 
L 240.565757 484.789423 
L 245.084992 484.271316 
L 249.618997 469.544399 
L 254.16769 476.544087 
L 258.730992 484.731627 
L 263.308817 474.892353 
L 267.90108 477.498593 
L 272.507704 473.638891 
L 277.128611 464.631128 
L 281.763716 465.048937 
L 286.412937 481.051856 
L 291.0762 473.397948 
L 295.75342 478.071412 
L 300.444523 473.611835 
L 305.149421 472.654371 
L 309.868043 471.836387 
L 314.600306 473.775802 
L 319.346134 477.096331 
L 324.105454 475.656917 
L 328.878178 478.146034 
L 333.664234 477.36516 
L 338.586886 479.918751 
L 343.52309 481.655507 
L 348.473379 480.927321 
L 353.437358 487.502065 
L 358.414642 485.674159 
L 363.405769 486.007111 
L 368.410021 484.325866 
L 373.427963 488.747556 
L 378.459178 490.49054 
L 383.50329 477.979982 
L 388.560834 481.560879 
L 393.631422 475.345028 
L 398.714652 480.744254 
L 403.811081 478.161347 
L 408.920309 470.917766 
L 414.041939 474.242818 
L 419.176523 476.452636 
L 424.323672 470.643858 
L 429.482978 466.959755 
L 434.655002 473.178319 
L 439.839029 480.905425 
L 445.035621 475.74697 
L 450.24438 471.477197 
L 455.464898 479.357196 
L 460.697743 469.905365 
L 465.942526 477.893328 
L 471.198823 469.311157 
L 476.467215 476.990779 
L 481.747308 488.796998 
L 487.038693 483.795347 
L 492.341939 484.508991 
L 497.656641 484.512572 
L 502.982398 480.616771 
L 508.319801 474.21028 
L 513.668088 482.250839 
L 519.02786 485.696283 
L 524.398715 491.461005 
L 529.780227 476.956778 
L 535.172991 482.130936 
L 540.576601 488.54392 
L 545.990647 486.587459 
L 551.415723 489.993539 
L 556.851401 487.567823 
L 562.297288 490.825472 
L 567.753984 487.942702 
L 573.220712 488.290342 
L 578.698101 488.985819 
L 584.185724 493.050134 
L 589.683165 485.511359 
L 595.19103 485.631056 
L 600.708906 491.773637 
L 606.236364 492.548849 
" style="fill:none;stroke:#ff8c00;stroke-linecap:square;stroke-width:2;"/>
   </g>
   <g id="matplotlib.axis_6">
    <g id="xtick_16">
     <g id="line2d_34">
      <g>
       <use style="stroke:#000000;stroke-width:0.8;" x="587.366451" xlink:href="#mfa5fca170f" y="517.499375"/>
      </g>
     </g>
     <g id="text_25">
      <!-- 10.5 -->
      <g transform="translate(569.866451 538.15875)scale(0.2 -0.2)">
       <use xlink:href="#STIXGeneral-Regular-49"/>
       <use x="49.999985" xlink:href="#STIXGeneral-Regular-48"/>
       <use x="99.999969" xlink:href="#STIXGeneral-Regular-46"/>
       <use x="124.999954" xlink:href="#STIXGeneral-Regular-53"/>
      </g>
     </g>
    </g>
    <g id="xtick_17">
     <g id="line2d_35">
      <g>
       <use style="stroke:#000000;stroke-width:0.8;" x="468.961109" xlink:href="#mfa5fca170f" y="517.499375"/>
      </g>
     </g>
     <g id="text_26">
      <!-- 11.0 -->
      <g transform="translate(451.461109 538.15875)scale(0.2 -0.2)">
       <use xlink:href="#STIXGeneral-Regular-49"/>
       <use x="49.999985" xlink:href="#STIXGeneral-Regular-49"/>
       <use x="99.999969" xlink:href="#STIXGeneral-Regular-46"/>
       <use x="124.999954" xlink:href="#STIXGeneral-Regular-48"/>
      </g>
     </g>
    </g>
    <g id="xtick_18">
     <g id="line2d_36">
      <g>
       <use style="stroke:#000000;stroke-width:0.8;" x="350.555766" xlink:href="#mfa5fca170f" y="517.499375"/>
      </g>
     </g>
     <g id="text_27">
      <!-- 11.5 -->
      <g transform="translate(333.055766 538.15875)scale(0.2 -0.2)">
       <use xlink:href="#STIXGeneral-Regular-49"/>
       <use x="49.999985" xlink:href="#STIXGeneral-Regular-49"/>
       <use x="99.999969" xlink:href="#STIXGeneral-Regular-46"/>
       <use x="124.999954" xlink:href="#STIXGeneral-Regular-53"/>
      </g>
     </g>
    </g>
    <g id="xtick_19">
     <g id="line2d_37">
      <g>
       <use style="stroke:#000000;stroke-width:0.8;" x="232.150424" xlink:href="#mfa5fca170f" y="517.499375"/>
      </g>
     </g>
     <g id="text_28">
      <!-- 12.0 -->
      <g transform="translate(214.650424 538.15875)scale(0.2 -0.2)">
       <use xlink:href="#STIXGeneral-Regular-49"/>
       <use x="49.999985" xlink:href="#STIXGeneral-Regular-50"/>
       <use x="99.999969" xlink:href="#STIXGeneral-Regular-46"/>
       <use x="124.999954" xlink:href="#STIXGeneral-Regular-48"/>
      </g>
     </g>
    </g>
    <g id="xtick_20">
     <g id="line2d_38">
      <g>
       <use style="stroke:#000000;stroke-width:0.8;" x="113.745082" xlink:href="#mfa5fca170f" y="517.499375"/>
      </g>
     </g>
     <g id="text_29">
      <!-- 12.5 -->
      <g transform="translate(96.245082 538.15875)scale(0.2 -0.2)">
       <use xlink:href="#STIXGeneral-Regular-49"/>
       <use x="49.999985" xlink:href="#STIXGeneral-Regular-50"/>
       <use x="99.999969" xlink:href="#STIXGeneral-Regular-46"/>
       <use x="124.999954" xlink:href="#STIXGeneral-Regular-53"/>
      </g>
     </g>
    </g>
    <g id="text_30">
     <!-- $t_{\rm lookback}\ \left(\rm Gyr \right)$ -->
     <defs>
      <path d="M 6.203125 8.109375 
Q 6.203125 9.578125 6.5 10.890625 
L 13.71875 39.59375 
L 3.21875 39.59375 
Q 2.203125 39.59375 2.203125 40.921875 
Q 2.59375 43.109375 3.515625 43.109375 
L 14.59375 43.109375 
L 18.609375 59.421875 
Q 19 60.75 20.171875 61.671875 
Q 21.34375 62.59375 22.796875 62.59375 
Q 24.078125 62.59375 24.921875 61.828125 
Q 25.78125 61.078125 25.78125 59.8125 
Q 25.78125 59.515625 25.75 59.34375 
Q 25.734375 59.1875 25.6875 58.984375 
L 21.6875 43.109375 
L 31.984375 43.109375 
Q 33.015625 43.109375 33.015625 41.796875 
Q 32.953125 41.546875 32.8125 40.953125 
Q 32.671875 40.375 32.421875 39.984375 
Q 32.171875 39.59375 31.6875 39.59375 
L 20.796875 39.59375 
L 13.625 10.6875 
Q 12.890625 7.859375 12.890625 5.8125 
Q 12.890625 1.515625 15.828125 1.515625 
Q 20.21875 1.515625 23.609375 5.640625 
Q 27 9.765625 28.8125 14.703125 
Q 29.203125 15.28125 29.59375 15.28125 
L 30.8125 15.28125 
Q 31.203125 15.28125 31.4375 15.015625 
Q 31.6875 14.75 31.6875 14.40625 
Q 31.6875 14.203125 31.59375 14.109375 
Q 29.390625 8.0625 25.1875 3.46875 
Q 21 -1.125 15.578125 -1.125 
Q 11.625 -1.125 8.90625 1.453125 
Q 6.203125 4.046875 6.203125 8.109375 
z
" id="Cmmi10-116"/>
      <path d="M 2.59375 0 
L 2.59375 3.515625 
Q 6 3.515625 8.203125 4.046875 
Q 10.40625 4.59375 10.40625 6.6875 
L 10.40625 59.1875 
Q 10.40625 61.859375 9.59375 63.0625 
Q 8.796875 64.265625 7.28125 64.53125 
Q 5.765625 64.796875 2.59375 64.796875 
L 2.59375 68.3125 
L 17.390625 69.390625 
L 17.390625 21.921875 
L 30.8125 33.6875 
Q 32.8125 35.59375 32.8125 37.203125 
Q 32.8125 38.375 31.984375 38.984375 
Q 31.15625 39.59375 29.984375 39.59375 
L 29.984375 43.109375 
L 48.78125 43.109375 
L 48.78125 39.59375 
Q 42 39.59375 35.203125 33.6875 
L 28.078125 27.484375 
L 40.828125 9.421875 
Q 43.453125 5.671875 45.234375 4.59375 
Q 47.015625 3.515625 51.125 3.515625 
L 51.125 0 
L 31.203125 0 
L 31.203125 3.515625 
Q 34.625 3.515625 34.625 5.609375 
Q 34.625 7.125 32.8125 9.421875 
L 23.1875 23.09375 
L 17.09375 17.828125 
L 17.09375 6.6875 
Q 17.09375 4.59375 19.3125 4.046875 
Q 21.53125 3.515625 24.90625 3.515625 
L 24.90625 0 
z
" id="Cmr10-107"/>
      <path d="M 10.40625 0 
L 10.40625 59.1875 
Q 10.40625 61.859375 9.59375 63.0625 
Q 8.796875 64.265625 7.28125 64.53125 
Q 5.765625 64.796875 2.59375 64.796875 
L 2.59375 68.3125 
L 17.390625 69.390625 
L 17.390625 38.09375 
Q 19.046875 39.9375 21.265625 41.328125 
Q 23.484375 42.71875 26.015625 43.453125 
Q 28.5625 44.1875 31.203125 44.1875 
Q 35.6875 44.1875 39.515625 42.375 
Q 43.359375 40.578125 46.1875 37.40625 
Q 49.03125 34.234375 50.609375 30.109375 
Q 52.203125 25.984375 52.203125 21.578125 
Q 52.203125 15.53125 49.25 10.296875 
Q 46.296875 5.078125 41.1875 1.96875 
Q 36.078125 -1.125 29.984375 -1.125 
Q 26.171875 -1.125 22.609375 0.828125 
Q 19.046875 2.78125 16.703125 6 
L 13.28125 0 
z
M 17.671875 9.8125 
Q 19.34375 6.15625 22.46875 3.828125 
Q 25.59375 1.515625 29.390625 1.515625 
Q 34.578125 1.515625 37.765625 4.484375 
Q 40.96875 7.46875 42.234375 12 
Q 43.5 16.546875 43.5 21.578125 
Q 43.5 30.03125 41.3125 34.421875 
Q 40.328125 36.375 38.640625 38.03125 
Q 36.96875 39.703125 34.890625 40.65625 
Q 32.8125 41.609375 30.515625 41.609375 
Q 26.515625 41.609375 23.09375 39.484375 
Q 19.671875 37.359375 17.671875 33.796875 
z
" id="Cmr10-98"/>
      <path d="M 4 9.8125 
Q 4 15.765625 8.6875 19.5 
Q 13.375 23.25 19.9375 24.78125 
Q 26.515625 26.3125 32.421875 26.3125 
L 32.421875 30.421875 
Q 32.421875 33.296875 31.15625 36 
Q 29.890625 38.71875 27.484375 40.453125 
Q 25.09375 42.1875 22.21875 42.1875 
Q 15.578125 42.1875 12.109375 39.203125 
Q 14.015625 39.203125 15.25 37.765625 
Q 16.5 36.328125 16.5 34.421875 
Q 16.5 32.421875 15.078125 31 
Q 13.671875 29.59375 11.71875 29.59375 
Q 9.71875 29.59375 8.296875 31 
Q 6.890625 32.421875 6.890625 34.421875 
Q 6.890625 39.703125 11.671875 42.265625 
Q 16.453125 44.828125 22.21875 44.828125 
Q 26.265625 44.828125 30.359375 43.09375 
Q 34.46875 41.359375 37.078125 38.125 
Q 39.703125 34.90625 39.703125 30.609375 
L 39.703125 8.109375 
Q 39.703125 6.15625 40.53125 4.515625 
Q 41.359375 2.875 43.109375 2.875 
Q 44.78125 2.875 45.578125 4.53125 
Q 46.390625 6.203125 46.390625 8.109375 
L 46.390625 14.5 
L 49.3125 14.5 
L 49.3125 8.109375 
Q 49.3125 5.859375 48.140625 3.828125 
Q 46.96875 1.8125 44.984375 0.609375 
Q 43.015625 -0.59375 40.71875 -0.59375 
Q 37.796875 -0.59375 35.671875 1.671875 
Q 33.546875 3.953125 33.296875 7.078125 
Q 31.453125 3.328125 27.828125 1.09375 
Q 24.21875 -1.125 20.125 -1.125 
Q 16.3125 -1.125 12.625 0 
Q 8.9375 1.125 6.46875 3.53125 
Q 4 5.953125 4 9.8125 
z
M 12.109375 9.8125 
Q 12.109375 6.296875 14.6875 3.90625 
Q 17.28125 1.515625 20.796875 1.515625 
Q 24.03125 1.515625 26.65625 3.125 
Q 29.296875 4.734375 30.859375 7.515625 
Q 32.421875 10.296875 32.421875 13.375 
L 32.421875 23.78125 
Q 27.875 23.78125 23.109375 22.28125 
Q 18.359375 20.796875 15.234375 17.625 
Q 12.109375 14.453125 12.109375 9.8125 
z
" id="Cmr10-97"/>
      <path d="M 23 10.6875 
Q 26.609375 6.296875 31.8125 3.796875 
Q 37.015625 1.3125 42.671875 1.3125 
Q 48.25 1.3125 52.78125 4.140625 
Q 57.328125 6.984375 57.328125 12.203125 
L 57.328125 20.609375 
Q 57.328125 23.78125 44.828125 23.78125 
L 44.828125 27.296875 
L 73.484375 27.296875 
L 73.484375 23.78125 
Q 70.3125 23.78125 68.453125 23.234375 
Q 66.609375 22.703125 66.609375 20.609375 
L 66.609375 0.875 
Q 66.609375 0.53125 66.328125 0.265625 
Q 66.0625 0 65.71875 0 
Q 64.796875 0 62.625 2.1875 
Q 60.453125 4.390625 59.1875 6.109375 
Q 56.734375 1.90625 51.515625 -0.140625 
Q 46.296875 -2.203125 40.578125 -2.203125 
Q 30.859375 -2.203125 22.875 2.796875 
Q 14.890625 7.8125 10.25 16.1875 
Q 5.609375 24.5625 5.609375 34.1875 
Q 5.609375 41.265625 8.296875 47.953125 
Q 10.984375 54.640625 15.796875 59.71875 
Q 20.609375 64.796875 27 67.65625 
Q 33.40625 70.515625 40.578125 70.515625 
Q 45.75 70.515625 50.359375 68.28125 
Q 54.984375 66.0625 58.59375 62.015625 
L 64.40625 70.21875 
Q 64.984375 70.515625 65.09375 70.515625 
L 65.828125 70.515625 
Q 66.109375 70.515625 66.359375 70.265625 
Q 66.609375 70.015625 66.609375 69.671875 
L 66.609375 42.671875 
Q 66.609375 41.796875 65.828125 41.796875 
L 64.015625 41.796875 
Q 63.09375 41.796875 63.09375 42.671875 
Q 63.09375 45.5625 61.9375 49.125 
Q 60.796875 52.6875 59.015625 55.875 
Q 57.234375 59.078125 54.890625 61.53125 
Q 49.265625 67 42 67 
Q 36.421875 67 31.34375 64.5 
Q 26.265625 62.015625 22.796875 57.625 
Q 19.140625 52.9375 17.71875 46.953125 
Q 16.3125 40.96875 16.3125 34.1875 
Q 16.3125 18.84375 23 10.6875 
z
" id="Cmr10-71"/>
     </defs>
     <g transform="translate(294.5 560.55875)scale(0.2 -0.2)">
      <use transform="translate(0 0.46875)" xlink:href="#Cmmi10-116"/>
      <use transform="translate(36.083984 -16.5375)scale(0.7)" xlink:href="#Cmr10-108"/>
      <use transform="translate(55.463867 -16.5375)scale(0.7)" xlink:href="#Cmr10-111"/>
      <use transform="translate(90.463867 -16.5375)scale(0.7)" xlink:href="#Cmr10-111"/>
      <use transform="translate(125.463867 -16.5375)scale(0.7)" xlink:href="#Cmr10-107"/>
      <use transform="translate(162.34375 -16.5375)scale(0.7)" xlink:href="#Cmr10-98"/>
      <use transform="translate(201.206055 -16.5375)scale(0.7)" xlink:href="#Cmr10-97"/>
      <use transform="translate(236.206055 -16.5375)scale(0.7)" xlink:href="#Cmr10-99"/>
      <use transform="translate(267.275391 -16.5375)scale(0.7)" xlink:href="#Cmr10-107"/>
      <use transform="translate(339.796647 2.71875)scale(0.910312)" xlink:href="#Cmr10-40"/>
      <use transform="translate(375.133485 0.46875)" xlink:href="#Cmr10-71"/>
      <use transform="translate(453.551454 0.46875)" xlink:href="#Cmr10-121"/>
      <use transform="translate(506.237001 0.46875)" xlink:href="#Cmr10-114"/>
      <use transform="translate(545.348329 2.71875)scale(0.910312)" xlink:href="#Cmr10-41"/>
     </g>
    </g>
   </g>
   <g id="matplotlib.axis_7">
    <g id="ytick_5">
     <g id="line2d_39">
      <g>
       <use style="stroke:#000000;stroke-width:0.8;" x="73.6" xlink:href="#m0e9f20c2c9" y="462.602271"/>
      </g>
     </g>
     <g id="text_31">
      <!-- $\mathdefault{10^{43}}$ -->
      <g transform="translate(31.2 469.431958)scale(0.2 -0.2)">
       <use transform="translate(0 0.684375)" xlink:href="#STIXGeneral-Regular-49"/>
       <use transform="translate(49.999985 0.684375)" xlink:href="#STIXGeneral-Regular-48"/>
       <use transform="translate(101.574969 36.684375)scale(0.7)" xlink:href="#STIXGeneral-Regular-52"/>
       <use transform="translate(136.574959 36.684375)scale(0.7)" xlink:href="#STIXGeneral-Regular-51"/>
      </g>
     </g>
    </g>
    <g id="ytick_6">
     <g id="line2d_40">
      <g>
       <use style="stroke:#000000;stroke-width:0.8;" x="73.6" xlink:href="#m0e9f20c2c9" y="384.062271"/>
      </g>
     </g>
     <g id="text_32">
      <!-- $\mathdefault{10^{45}}$ -->
      <g transform="translate(31.2 390.891958)scale(0.2 -0.2)">
       <use transform="translate(0 0.842187)" xlink:href="#STIXGeneral-Regular-49"/>
       <use transform="translate(49.999985 0.842187)" xlink:href="#STIXGeneral-Regular-48"/>
       <use transform="translate(101.574969 36.842187)scale(0.7)" xlink:href="#STIXGeneral-Regular-52"/>
       <use transform="translate(136.574959 36.842187)scale(0.7)" xlink:href="#STIXGeneral-Regular-53"/>
      </g>
     </g>
    </g>
    <g id="text_33">
     <!-- $L_{\rm Ly \alpha}\ (\rm erg \ s^{-1})$ -->
     <g transform="translate(20.8 499.759375)rotate(-90)scale(0.2 -0.2)">
      <use transform="translate(0 0.223438)" xlink:href="#Cmmi10-76"/>
      <use transform="translate(68.017578 -16.782813)scale(0.7)" xlink:href="#Cmr10-76"/>
      <use transform="translate(111.767578 -16.782813)scale(0.7)" xlink:href="#Cmr10-121"/>
      <use transform="translate(148.647461 -16.782813)scale(0.7)" xlink:href="#Cmmi10-174"/>
      <use transform="translate(229.030046 0.223438)" xlink:href="#Cmr10-40"/>
      <use transform="translate(267.848405 0.223438)" xlink:href="#Cmr10-101"/>
      <use transform="translate(312.233171 0.223438)" xlink:href="#Cmr10-114"/>
      <use transform="translate(351.344499 0.223438)" xlink:href="#Cmr10-103"/>
      <use transform="translate(429.111148 0.223438)" xlink:href="#Cmr10-115"/>
      <use transform="translate(473.082945 39.373438)scale(0.7)" xlink:href="#Cmsy10-161"/>
      <use transform="translate(527.462828 39.373438)scale(0.7)" xlink:href="#Cmr10-49"/>
      <use transform="translate(568.987828 0.223438)" xlink:href="#Cmr10-41"/>
     </g>
    </g>
   </g>
   <g id="line2d_41">
    <path clip-path="url(#pd648355ff9)" d="M 98.963636 430.14259 
L 103.003066 436.276468 
L 107.0609 440.388563 
L 111.137036 438.968496 
L 115.231356 403.255334 
L 119.343757 420.678736 
L 123.474136 435.560829 
L 127.622387 433.660837 
L 131.788408 435.954006 
L 135.972092 434.455164 
L 140.17334 437.763565 
L 144.392049 427.218455 
L 148.628118 400.16554 
L 152.881449 424.115367 
L 157.151943 435.017157 
L 161.439498 439.082832 
L 165.744021 440.591329 
L 170.065415 433.829009 
L 174.403585 426.147367 
L 178.758426 427.174908 
L 183.129855 436.891814 
L 187.517771 439.690346 
L 191.853146 446.362794 
L 196.204315 409.152948 
L 200.571195 432.119269 
L 204.9537 426.208829 
L 209.351735 440.749536 
L 213.765222 432.591829 
L 218.194069 436.851642 
L 222.638196 404.390317 
L 227.097512 429.507524 
L 231.571931 409.304979 
L 236.061375 439.121119 
L 240.565757 443.959984 
L 245.084992 433.032647 
L 249.618997 411.121074 
L 254.16769 420.449421 
L 258.730992 433.026914 
L 263.308817 409.280305 
L 267.90108 429.131058 
L 272.507704 423.547452 
L 277.128611 409.88702 
L 281.763716 425.790724 
L 286.412937 423.765831 
L 291.0762 419.11807 
L 295.75342 415.366898 
L 300.444523 432.595231 
L 305.149421 431.068122 
L 309.868043 402.500544 
L 314.600306 417.381731 
L 319.346134 412.686736 
L 324.105454 409.840498 
L 328.878178 425.471493 
L 333.664234 424.463199 
L 338.586886 418.035959 
L 343.52309 424.438087 
L 348.473379 410.457913 
L 353.437358 419.004767 
L 358.414642 422.11714 
L 363.405769 432.624784 
L 368.410021 416.694936 
L 373.427963 431.610091 
L 378.459178 433.323686 
L 383.50329 422.532894 
L 388.560834 419.982482 
L 393.631422 412.009229 
L 398.714652 426.331225 
L 403.811081 428.22865 
L 408.920309 410.569081 
L 414.041939 418.450728 
L 419.176523 426.525445 
L 424.323672 426.823486 
L 429.482978 409.846336 
L 434.655002 424.727194 
L 439.839029 427.37053 
L 445.035621 419.284889 
L 450.24438 422.10369 
L 455.464898 421.505531 
L 460.697743 425.371699 
L 465.942526 424.540668 
L 471.198823 405.058259 
L 476.467215 416.865474 
L 481.747308 431.188754 
L 487.038693 420.616909 
L 492.341939 427.152264 
L 497.656641 427.456309 
L 502.982398 417.40055 
L 508.319801 415.678254 
L 513.668088 416.790036 
L 519.02786 429.240479 
L 524.398715 432.627682 
L 529.780227 405.784975 
L 535.172991 420.847108 
L 540.576601 421.26094 
L 545.990647 417.964286 
L 551.415723 423.344007 
L 556.851401 419.678428 
L 562.297288 421.759772 
L 567.753984 416.839742 
L 573.220712 413.061749 
L 578.698101 420.650771 
L 584.185724 426.777239 
L 589.683165 415.910134 
L 595.19103 417.188226 
L 600.708906 424.473632 
L 606.236364 429.301515 
" style="fill:none;stroke:#440154;stroke-linecap:square;stroke-opacity:0.5;stroke-width:2;"/>
   </g>
   <g id="patch_18">
    <path d="M 73.6 517.499375 
L 73.6 360.419375 
" style="fill:none;stroke:#000000;stroke-linecap:square;stroke-linejoin:miter;stroke-width:0.8;"/>
   </g>
   <g id="patch_19">
    <path d="M 631.6 517.499375 
L 631.6 360.419375 
" style="fill:none;stroke:#000000;stroke-linecap:square;stroke-linejoin:miter;stroke-width:0.8;"/>
   </g>
   <g id="patch_20">
    <path d="M 73.6 517.499375 
L 631.6 517.499375 
" style="fill:none;stroke:#000000;stroke-linecap:square;stroke-linejoin:miter;stroke-width:0.8;"/>
   </g>
   <g id="patch_21">
    <path d="M 73.6 360.419375 
L 631.6 360.419375 
" style="fill:none;stroke:#000000;stroke-linecap:square;stroke-linejoin:miter;stroke-width:0.8;"/>
   </g>
   <g id="line2d_42">
    <path clip-path="url(#pd648355ff9)" d="M 98.963636 441.10777 
L 103.003066 444.074414 
L 107.0609 447.151421 
L 111.137036 447.719203 
L 115.231356 416.884219 
L 119.343757 433.952574 
L 123.474136 444.031603 
L 127.622387 442.248451 
L 131.788408 444.191512 
L 135.972092 442.883968 
L 140.17334 447.491078 
L 144.392049 440.255806 
L 148.628118 422.49488 
L 152.881449 439.113249 
L 157.151943 443.947347 
L 161.439498 447.905825 
L 165.744021 449.123182 
L 170.065415 444.871938 
L 174.403585 439.07665 
L 178.758426 440.216832 
L 183.129855 445.347641 
L 187.517771 447.536803 
L 191.853146 452.950765 
L 196.204315 423.195101 
L 200.571195 446.649219 
L 204.9537 440.644468 
L 209.351735 449.442448 
L 213.765222 445.29342 
L 218.194069 447.278924 
L 222.638196 420.223959 
L 227.097512 443.771466 
L 231.571931 422.832612 
L 236.061375 449.169602 
L 240.565757 452.482768 
L 245.084992 445.107827 
L 249.618997 428.507404 
L 254.16769 434.290515 
L 258.730992 445.631006 
L 263.308817 424.809562 
L 267.90108 442.172215 
L 272.507704 437.660726 
L 277.128611 424.978095 
L 281.763716 439.588861 
L 286.412937 436.01086 
L 291.0762 433.271948 
L 295.75342 431.392203 
L 300.444523 444.97218 
L 305.149421 444.784135 
L 309.868043 417.118814 
L 314.600306 431.988773 
L 319.346134 428.725159 
L 324.105454 427.212528 
L 328.878178 440.601049 
L 333.664234 440.154253 
L 338.586886 436.246439 
L 343.52309 441.850729 
L 348.473379 428.695978 
L 353.437358 435.78753 
L 358.414642 438.45263 
L 363.405769 446.717849 
L 368.410021 430.880212 
L 373.427963 444.66884 
L 378.459178 446.016319 
L 383.50329 436.303815 
L 388.560834 434.502067 
L 393.631422 425.421985 
L 398.714652 439.539769 
L 403.811081 440.616849 
L 408.920309 425.571292 
L 414.041939 433.494372 
L 419.176523 440.21396 
L 424.323672 439.199369 
L 429.482978 425.023237 
L 434.655002 439.169529 
L 439.839029 441.465623 
L 445.035621 434.145026 
L 450.24438 436.773523 
L 455.464898 437.527549 
L 460.697743 440.962988 
L 465.942526 439.126526 
L 471.198823 424.596486 
L 476.467215 432.416123 
L 481.747308 444.746697 
L 487.038693 435.630622 
L 492.341939 442.353816 
L 497.656641 442.368845 
L 502.982398 431.883199 
L 508.319801 431.131524 
L 513.668088 433.335754 
L 519.02786 444.573694 
L 524.398715 446.771072 
L 529.780227 425.239629 
L 535.172991 438.370033 
L 540.576601 440.916525 
L 545.990647 436.223932 
L 551.415723 441.59077 
L 556.851401 439.742543 
L 562.297288 442.245291 
L 567.753984 437.608537 
L 573.220712 435.136321 
L 578.698101 440.820661 
L 584.185724 444.91657 
L 589.683165 435.362182 
L 595.19103 436.132192 
L 600.708906 442.993896 
L 606.236364 445.941032 
" style="fill:none;stroke:#440154;stroke-linecap:square;stroke-width:2;"/>
   </g>
  </g>
 </g>
 <defs>
  <clipPath id="p504df3764c">
   <rect height="157.08" width="558" x="73.6" y="46.259375"/>
  </clipPath>
  <clipPath id="pbb2b056643">
   <rect height="157.08" width="558" x="73.6" y="203.339375"/>
  </clipPath>
  <clipPath id="pd648355ff9">
   <rect height="157.08" width="558" x="73.6" y="360.419375"/>
  </clipPath>
 </defs>
</svg>
